<?xml version="1.0" encoding="UTF-8"?>
<svg id="Layer_1" data-name="Layer 1" xmlns="http://www.w3.org/2000/svg" viewBox="0 0 75 100">
  <defs>
    <style>
      .cls-1 {
        fill: #1565c0;
      }

      .cls-2 {
        fill: #f44336;
      }
    </style>
  </defs>
  <path class="cls-2" d="M36.62,52.25c-2.49-4.02-4.31-7.36-6.81-13.64-4.24-10.61,25.79-20.19,13.61-38.61,5.28,12.72-18.94,20.59-21.19,31.18-2.06,9.75,14.38,21.07,14.39,21.07Z"/>
  <path class="cls-2" d="M37.2,33.18c-.48,6.29,5.57,9.64,5.75,14.24.14,3.74-3.62,6.86-3.62,6.86,0,0,6.82-1.34,8.95-7.05,2.36-6.34-4.58-10.67-3.87-15.75.67-4.84,15.08-13.86,15.08-13.86,0,0-21.2,1.41-22.28,15.55Z"/>
  <g>
    <path class="cls-1" d="M57.71,52.64c4.39-.98,8.08,1.81,8.08,5.03,0,7.25-10.05,14.11-10.05,14.11,0,0,15.56-1.86,15.56-13.76,0-7.87-7.64-9.84-13.59-5.37ZM50.32,58.49s4.85-3.46,6.15-4.76c-11.91,2.53-39.09,2.87-39.09.67,0-2.02,8.77-4.1,8.77-4.1,0,0-19.43-.28-19.43,5.45,0,5.98,25.44,6.4,43.61,2.73Z"/>
    <path class="cls-1" d="M47.34,63.93c-11.27,3.75-32.04,2.55-25.89-2.48-2.99,0-7.43,2.41-7.43,4.72,0,4.64,22.46,8.23,39.08,1.43l-5.76-3.67Z"/>
    <path class="cls-1" d="M24.22,71.85c-4.09,0-6.74,2.64-6.74,4.55,0,5.98,24.4,6.58,34.07.51l-6.15-4.08c-7.22,3.18-25.36,3.61-21.18-.99Z"/>
    <path class="cls-1" d="M68.2,81.58c0-2.34-2.64-3.44-3.58-3.97,5.57,13.43-55.79,12.39-55.79,4.46,0-1.8,4.52-3.57,8.69-2.73l-3.55-2.1c-8.32-1.3-13.97,2.35-13.97,5.3,0,13.76,68.2,13.1,68.2-.96Z"/>
    <path class="cls-1" d="M75,86.51c-10.36,10.24-36.65,13.97-63.08,7.64,26.43,11.26,62.95,4.92,63.08-7.64Z"/>
  </g>
</svg>