<?xml version="1.0" encoding="UTF-8"?>
<svg id="Layer_1" data-name="Layer 1" xmlns="http://www.w3.org/2000/svg" viewBox="0 0 100 100">
  <defs>
    <style>
      .cls-1 {
        fill: #2c7bc4;
      }

      .cls-1, .cls-2, .cls-3, .cls-4, .cls-5 {
        fill-rule: evenodd;
      }

      .cls-2 {
        fill: #fbfbfb;
      }

      .cls-3 {
        fill: #77a6da;
      }

      .cls-4 {
        fill: #94bce4;
      }

      .cls-5 {
        fill: #5794d4;
      }
    </style>
  </defs>
  <g id="svgg">
    <path id="path0" class="cls-2" d="M77.06,46.55c-9.91.77-15.3,5.34-15.3,12.96,0,5.82,3.17,9.72,10.38,12.76,3.7,1.56,5.1,2.24,6.42,3.12,2.25,1.5,3.21,3.23,2.79,5.04-1.16,5.03-12.76,4.78-18.94-.41-.21-.18-.41-.33-.44-.33s-.05,2.18-.05,4.84v4.84l.71.33c5.4,2.5,15.6,2.8,21.22.62,5.31-2.05,7.88-5.82,7.88-11.55,0-6.4-2.85-9.72-11.55-13.46-6.38-2.75-8.32-4.43-8.06-6.99.48-4.71,10.77-5.52,17.27-1.36l.47.3-.02-4.56-.02-4.56-.71-.24c-3-1.02-8.47-1.63-12.05-1.35M23.06,51.51v4h12.51v35.69h9.84v-35.69h12.59v-8.01H23.06v4"/>
    <path id="path1" class="cls-1" d="M8.26.03C4.4.56,1.24,3.46.18,7.43l-.18.67v83.81l.18.67c1,3.71,3.53,6.24,7.23,7.23l.67.18h83.82l.67-.18c3.71-1,6.24-3.53,7.23-7.23l.18-.67V8.1l-.18-.67c-.99-3.69-3.46-6.17-7.19-7.23l-.63-.18h-41.74C27.29,0,8.39,0,8.26.03M82.56,46.59c2.7.2,7.19,1.18,7.36,1.6.02.05.03,2.13.02,4.62l-.02,4.52-.63-.38c-6.98-4.28-17.06-3.23-17.06,1.77,0,2.38,1.78,3.87,7.72,6.42,8.26,3.56,11.27,6.62,11.85,12.09.71,6.66-2.74,11.71-9.3,13.6-6.01,1.73-15.37,1.18-20.09-1.19l-.56-.28v-4.88c0-2.68.02-4.88.05-4.88s.4.26.82.58c7.07,5.31,18.37,5.1,18.63-.36.13-2.73-1.81-4.38-8.45-7.19-8.3-3.51-11.52-7.5-11.18-13.84.47-8.68,8.09-13.14,20.84-12.21M58.01,51.46v4.04h-12.51v35.78h-10.01v-35.78h-12.51v-8.09h35.03v4.04"/>
    <path id="path2" class="cls-4" d="M77.04,46.56c.08.02.21.02.29,0s.01-.04-.15-.04-.23.02-.15.04M81.09,46.56c.1.02.25.02.33,0,.08-.02,0-.04-.19-.04-.18,0-.25.02-.14.04M23.02,47.52c-.02.06-.03,1.87-.02,4.02l.02,3.92.02-3.98.02-3.98,17.49-.02,17.49-.02-17.5-.02c-13.94-.02-17.5,0-17.54.08M89.91,52.71c0,2.52.01,3.57.02,2.32s.01-3.31,0-4.59c-.01-1.28-.02-.26-.02,2.27M35.53,73.38v17.87h9.93v-17.85s0-17.85,0-17.85l-.02,17.83-.02,17.83h-9.84l-.02-17.85-.02-17.85v17.87M91.81,78.69c0,.34.01.48.03.31.02-.17.02-.45,0-.63-.02-.17-.03-.03-.03.31M73.66,84.09c.15.02.41.02.58,0,.17-.02.05-.03-.27-.03-.32,0-.46.01-.31.03M71.71,91.76c.08.02.21.02.29,0,.08-.02.01-.04-.15-.04s-.23.02-.15.04M73.92,91.85c.29.02.74.02,1,0s.03-.03-.52-.03c-.55,0-.76.01-.48.03"/>
    <path id="path3" class="cls-3" d="M61.7,59.59c0,.25.02.36.03.23.02-.13.02-.33,0-.46-.02-.13-.03-.02-.03.23M88.53,87.43l-.29.31.31-.29c.29-.27.35-.34.29-.34-.01,0-.15.14-.31.31"/>
    <path id="path4" class="cls-5" d="M78.71,46.48c.22.02.57.02.79,0,.22-.02.04-.03-.4-.03s-.61.01-.4.03M61.7,58.93c0,.16.02.23.04.15.02-.08.02-.21,0-.29-.02-.08-.04-.01-.04.15M65.05,67.93c.18.18.34.33.37.33s-.1-.15-.28-.33c-.18-.18-.34-.33-.37-.33s.11.15.28.33M88.53,70.31c.16.16.3.29.32.29s-.09-.13-.24-.29c-.16-.16-.3-.29-.32-.29s.09.13.24.29M81.38,79.61c0,.16.02.23.04.15.02-.08.02-.21,0-.29-.02-.08-.04-.01-.04.15M61.88,84.49c0,2.71.01,3.8.02,2.43.01-1.37.01-3.58,0-4.92-.01-1.34-.02-.22-.02,2.49"/>
  </g>
</svg>