<?xml version="1.0" encoding="UTF-8"?>
<svg id="Layer_1" xmlns="http://www.w3.org/2000/svg" version="1.1" viewBox="0 0 96 96">
  <!-- Generator: Adobe Illustrator 29.4.0, SVG Export Plug-In . SVG Version: 2.1.0 Build 152)  -->
  <defs>
    <style>
      .st0 {
        fill: #536dfe;
      }
    </style>
  </defs>
  <path class="st0" d="M81.3,17.5c-6.1-2.8-12.7-4.9-19.5-6-.1,0-.2,0-.3.1-.8,1.5-1.8,3.5-2.4,5-7.4-1.1-14.7-1.1-21.9,0-.7-1.6-1.6-3.5-2.5-5,0-.1-.2-.2-.3-.1-6.9,1.2-13.4,3.2-19.5,6,0,0,0,0-.1.1C2.1,36.2-1.3,54.3.4,72.2c0,0,0,.2.1.2,8.2,6,16.2,9.7,24,12.1.1,0,.3,0,.3-.1,1.8-2.5,3.5-5.2,4.9-8,0-.2,0-.4-.2-.4-2.6-1-5.1-2.2-7.5-3.6-.2-.1-.2-.4,0-.5.5-.4,1-.8,1.5-1.2,0,0,.2,0,.3,0,15.7,7.2,32.7,7.2,48.2,0,.1,0,.2,0,.3,0,.5.4,1,.8,1.5,1.2.2.1.2.4,0,.5-2.4,1.4-4.9,2.6-7.5,3.6-.2,0-.2.3-.2.4,1.4,2.8,3.1,5.4,4.9,8,0,.1.2.2.3.1,7.8-2.4,15.8-6.1,24-12.1,0,0,.1-.1.1-.2,2-20.7-3.4-38.6-14.2-54.5,0,0,0,0-.1-.1ZM32.1,61.3c-4.7,0-8.6-4.3-8.6-9.7s3.8-9.7,8.6-9.7,8.7,4.4,8.6,9.7c0,5.3-3.8,9.7-8.6,9.7ZM64,61.3c-4.7,0-8.6-4.3-8.6-9.7s3.8-9.7,8.6-9.7,8.7,4.4,8.6,9.7c0,5.3-3.8,9.7-8.6,9.7Z"/>
</svg>