<?xml version="1.0" encoding="UTF-8"?>
<svg id="Layer_1" xmlns="http://www.w3.org/2000/svg" version="1.1" viewBox="0 0 128 128">
  <!-- Generator: Adobe Illustrator 29.4.0, SVG Export Plug-In . SVG Version: 2.1.0 Build 152)  -->
  <defs>
    <style>
      .st0 {
        fill: #fff;
        fill-rule: evenodd;
      }
    </style>
  </defs>
  <path class="st0" d="M64.1,1.1C28.6,1.1,0,29.9,0,65.6s18.3,52.7,43.8,61.2c3.2.6,4.3-1.4,4.3-3.1s-.1-6.6-.1-12c-17.8,3.8-21.5-7.7-21.5-7.7-2.9-7.5-7.1-9.4-7.1-9.4-5.8-4,.4-4,.4-4,6.5.4,9.9,6.6,9.9,6.6,5.7,9.8,15,7.1,18.7,5.3.5-4.2,2.2-7.1,4-8.7-14.2-1.5-29.2-7.1-29.2-31.8s2.5-12.8,6.6-17.3c-.6-1.6-2.9-8.2.6-17.1,0,0,5.4-1.7,17.6,6.6,5.2-1.4,10.6-2.1,16-2.1,5.4,0,10.9.7,16,2.1,12.2-8.3,17.6-6.6,17.6-6.6,3.5,8.9,1.3,15.5.6,17.1,4.1,4.5,6.6,10.3,6.6,17.3,0,24.8-15,30.2-29.3,31.8,2.3,2,4.3,5.9,4.3,12,0,8.7-.1,15.6-.1,17.7s1.2,3.7,4.3,3.1c25.5-8.5,43.8-32.7,43.8-61.2.1-35.7-28.6-64.5-63.9-64.5Z"/>
</svg>