<?xml version="1.0" encoding="UTF-8"?>
<svg id="Layer_1" data-name="Layer 1" xmlns="http://www.w3.org/2000/svg" viewBox="0 0 100 100">
  <defs>
    <style>
      .cls-1 {
        fill: #24292f;
        fill-rule: evenodd;
      }
    </style>
  </defs>
  <path class="cls-1" d="M50.04,0C22.36,0,0,22.92,0,51.27c0,22.67,14.33,41.84,34.22,48.63,2.49.51,3.4-1.1,3.4-2.46,0-1.19-.08-5.26-.08-9.51-13.92,3.05-16.82-6.11-16.82-6.11-2.24-5.94-5.55-7.47-5.55-7.47-4.55-3.14.33-3.14.33-3.14,5.05.34,7.71,5.26,7.71,5.26,4.47,7.81,11.68,5.6,14.58,4.24.42-3.31,1.74-5.6,3.15-6.87-11.1-1.19-22.78-5.6-22.78-25.29,0-5.6,1.99-10.19,5.14-13.75-.5-1.27-2.24-6.53.5-13.58,0,0,4.23-1.35,13.75,5.26,4.08-1.12,8.28-1.7,12.51-1.7s8.53.59,12.51,1.7c9.53-6.62,13.75-5.26,13.75-5.26,2.74,7.04.99,12.31.5,13.58,3.23,3.56,5.14,8.15,5.14,13.75,0,19.69-11.68,24.02-22.86,25.29,1.82,1.61,3.4,4.67,3.4,9.51,0,6.87-.08,12.4-.08,14.09,0,1.35.92,2.97,3.4,2.46,19.89-6.79,34.22-25.97,34.22-48.63C100.08,22.92,77.64,0,50.04,0h0Z"/>
</svg>