<?xml version="1.0" encoding="UTF-8"?>
<svg id="Layer_1" data-name="Layer 1" xmlns="http://www.w3.org/2000/svg" viewBox="0 0 100 100.01">
  <path d="M46.73.03c-.22.02-.9.08-1.51.14C31.01,1.45,17.7,9.1,9.28,20.89,4.58,27.44,1.58,34.87.45,42.73c-.4,2.75-.45,3.56-.45,7.28s.05,4.53.45,7.28c2.72,18.77,16.09,34.56,34.21,40.4,3.25,1.04,6.67,1.76,10.55,2.19,1.51.17,8.06.17,9.58,0,6.72-.74,12.41-2.41,18.02-5.27.86-.44,1.03-.55.91-.66-.08-.06-3.74-4.98-8.15-10.92l-8-10.8-10.02-14.82c-5.51-8.16-10.05-14.81-10.08-14.81-.04,0-.08,6.57-.09,14.63-.03,14.08-.04,14.65-.22,14.98-.25.48-.45.68-.86.89-.31.16-.58.19-2.06.19h-1.69l-.45-.28c-.29-.19-.51-.43-.66-.71l-.21-.44.02-19.6.03-19.61.3-.39c.16-.21.49-.47.72-.59.4-.2.55-.22,2.25-.22,1.99,0,2.32.08,2.84.65.15.16,5.57,8.32,12.06,18.17,6.49,9.84,15.37,23.28,19.73,29.88l7.92,11.99.4-.26c3.55-2.3,7.3-5.59,10.27-9.01,6.32-7.26,10.4-16.12,11.77-25.57.4-2.75.45-3.56.45-7.28s-.05-4.53-.45-7.28c-2.72-18.77-16.09-34.56-34.21-40.4-3.2-1.03-6.59-1.75-10.41-2.18-.94-.09-7.4-.21-8.21-.13h.01ZM67.2,30.27c.47.24.85.69.99,1.16.08.25.09,5.69.08,17.94l-.03,17.57-3.09-4.75-3.1-4.75v-12.77c0-8.26.04-12.91.09-13.13.16-.55.5-.98.97-1.23.4-.21.55-.23,2.08-.23,1.45,0,1.7.02,2.02.2h-.01Z"/>
</svg>