<svg id="svg" version="1.1" xmlns="http://www.w3.org/2000/svg" xmlns:xlink="http://www.w3.org/1999/xlink" width="400" height="400" viewBox="0, 0, 400,400"><g id="svgg"><path id="path0" d="M126.673 82.660 C 126.523 82.810,126.400 92.626,126.400 104.473 L 126.400 126.013 137.100 125.907 L 147.800 125.800 147.800 104.200 L 147.800 82.600 137.373 82.494 C 131.638 82.435,126.823 82.510,126.673 82.660 " stroke="none" fill="#cad1d9" fill-rule="evenodd"></path><path id="path1" d="M303.000 203.177 C 302.340 203.358,301.024 203.527,300.076 203.553 C 299.039 203.581,298.451 203.759,298.600 204.000 C 298.736 204.220,298.516 204.400,298.112 204.400 C 297.707 204.400,297.117 204.760,296.800 205.200 C 296.483 205.640,295.985 206.000,295.694 206.000 C 294.875 206.000,293.181 207.886,293.427 208.525 C 293.561 208.876,293.329 209.178,292.823 209.310 C 292.253 209.459,292.000 209.852,292.000 210.586 C 292.000 211.192,291.828 211.541,291.600 211.400 C 291.380 211.264,291.200 211.523,291.200 211.976 C 291.200 212.429,291.020 212.800,290.800 212.800 C 290.580 212.800,290.400 213.610,290.400 214.600 C 290.400 215.590,290.220 216.400,290.000 216.400 C 289.771 216.400,289.600 217.600,289.600 219.200 C 289.600 220.800,289.771 222.000,290.000 222.000 C 290.220 222.000,290.400 222.720,290.400 223.600 C 290.400 224.480,290.580 225.200,290.800 225.200 C 291.020 225.200,291.200 225.560,291.200 226.000 C 291.200 226.440,291.358 226.800,291.550 226.800 C 291.743 226.800,292.008 227.340,292.140 228.000 C 292.289 228.745,292.627 229.200,293.033 229.200 C 293.416 229.200,293.600 229.423,293.478 229.740 C 293.209 230.442,294.895 232.400,295.770 232.400 C 296.143 232.400,296.336 232.580,296.200 232.800 C 296.064 233.020,296.233 233.200,296.576 233.200 C 296.919 233.200,297.200 233.380,297.200 233.600 C 297.200 233.820,297.560 234.000,298.000 234.000 C 298.440 234.000,298.800 234.180,298.800 234.400 C 298.800 234.620,299.083 234.800,299.429 234.800 C 300.600 234.800,301.354 235.904,300.657 236.600 C 300.327 236.930,299.856 237.200,299.610 237.200 C 299.037 237.200,297.200 239.028,297.200 239.599 C 297.200 239.838,296.840 240.420,296.400 240.892 C 295.960 241.364,295.600 242.066,295.600 242.452 C 295.600 242.837,295.420 243.264,295.200 243.400 C 294.980 243.536,294.800 244.987,294.800 246.624 C 294.800 248.341,294.969 249.600,295.200 249.600 C 295.420 249.600,295.600 250.100,295.600 250.712 C 295.600 251.365,295.930 252.061,296.400 252.400 C 296.840 252.717,297.200 253.273,297.200 253.636 C 297.200 254.565,299.041 254.791,306.600 254.791 C 314.373 254.791,316.000 254.577,316.000 253.551 C 316.000 253.142,316.360 252.582,316.800 252.307 C 317.286 252.004,317.600 251.374,317.600 250.704 C 317.600 250.097,317.780 249.600,318.000 249.600 C 318.231 249.600,318.400 248.333,318.400 246.600 C 318.400 244.867,318.231 243.600,318.000 243.600 C 317.780 243.600,317.600 243.100,317.600 242.488 C 317.600 241.835,317.270 241.139,316.800 240.800 C 316.360 240.483,316.000 239.985,316.000 239.694 C 316.000 239.050,314.212 237.200,313.590 237.200 C 313.344 237.200,312.873 236.930,312.543 236.600 C 311.846 235.904,312.600 234.800,313.771 234.800 C 314.117 234.800,314.400 234.620,314.400 234.400 C 314.400 234.180,314.720 234.000,315.112 234.000 C 315.503 234.000,316.083 233.640,316.400 233.200 C 316.717 232.760,317.215 232.400,317.506 232.400 C 318.144 232.400,320.000 230.614,320.000 230.000 C 320.000 229.760,320.453 229.110,321.008 228.556 C 321.562 228.002,321.911 227.380,321.784 227.174 C 321.657 226.968,321.743 226.800,321.976 226.800 C 322.209 226.800,322.400 226.440,322.400 226.000 C 322.400 225.560,322.580 225.200,322.800 225.200 C 323.020 225.200,323.200 224.480,323.200 223.600 C 323.200 222.720,323.353 222.000,323.539 222.000 C 324.041 222.000,324.118 216.520,323.620 216.212 C 323.389 216.070,323.200 215.344,323.200 214.600 C 323.200 213.856,323.020 213.136,322.800 213.000 C 322.580 212.864,322.400 212.403,322.400 211.976 C 322.400 211.549,322.220 211.200,322.000 211.200 C 321.780 211.200,321.600 210.930,321.600 210.600 C 321.600 210.270,321.420 210.000,321.200 210.000 C 320.980 210.000,320.800 209.719,320.800 209.376 C 320.800 209.033,320.620 208.864,320.400 209.000 C 320.180 209.136,320.000 208.958,320.000 208.605 C 320.000 207.881,318.267 206.000,317.600 206.000 C 317.360 206.000,316.710 205.547,316.156 204.992 C 315.602 204.438,314.980 204.089,314.774 204.216 C 314.568 204.343,314.400 204.279,314.400 204.074 C 314.400 203.359,305.031 202.621,303.000 203.177 " stroke="none" fill="#f39323" fill-rule="evenodd"></path><path id="path2" d="M126.297 82.276 C 125.635 82.449,125.599 83.748,125.697 104.330 L 125.800 126.200 137.000 126.200 L 148.200 126.200 148.461 104.400 C 148.657 88.119,148.606 82.526,148.261 82.306 C 147.770 81.993,127.486 81.966,126.297 82.276 M147.800 104.200 L 147.800 125.800 137.100 125.907 L 126.400 126.013 126.400 104.473 C 126.400 92.626,126.523 82.810,126.673 82.660 C 126.823 82.510,131.638 82.435,137.373 82.494 L 147.800 82.600 147.800 104.200 M300.900 137.465 C 300.506 137.624,300.400 144.641,300.400 170.668 L 300.400 203.670 302.100 203.335 C 303.035 203.151,305.060 203.000,306.600 203.000 C 308.140 203.000,310.165 203.151,311.100 203.335 L 312.800 203.670 312.800 170.678 C 312.800 140.962,312.737 137.661,312.167 137.443 C 311.416 137.154,301.622 137.174,300.900 137.465 M228.400 260.219 L 228.400 266.000 233.200 266.000 L 238.000 266.000 238.000 279.000 L 238.000 292.000 233.200 292.000 L 228.400 292.000 228.400 298.201 L 228.400 304.402 306.500 304.301 L 384.600 304.200 384.710 298.100 L 384.821 292.000 380.010 292.000 L 375.200 292.000 375.200 279.000 L 375.200 266.000 380.000 266.000 L 384.800 266.000 384.800 260.219 L 384.800 254.439 306.600 254.439 L 228.400 254.439 228.400 260.219 " stroke="none" fill="#64747c" fill-rule="evenodd"></path><path id="path3" d="M107.600 5.600 C 107.600 5.820,107.240 6.000,106.800 6.000 C 106.360 6.000,106.000 6.159,106.000 6.353 C 106.000 6.548,105.640 6.801,105.200 6.916 C 104.753 7.033,104.400 7.462,104.400 7.887 C 104.400 8.306,104.040 9.036,103.600 9.508 C 103.160 9.980,102.800 10.514,102.800 10.695 C 102.800 10.876,102.440 11.283,102.000 11.600 C 101.560 11.917,101.200 12.362,101.199 12.588 C 101.199 12.815,100.659 13.630,100.000 14.400 C 99.341 15.170,98.801 15.985,98.801 16.212 C 98.800 16.438,98.440 16.883,98.000 17.200 C 97.560 17.517,97.200 17.962,97.200 18.188 C 97.199 18.415,96.749 19.123,96.200 19.762 C 95.650 20.401,95.200 21.048,95.200 21.200 C 95.200 21.352,94.750 21.999,94.200 22.638 C 93.651 23.277,93.201 23.943,93.200 24.117 C 93.200 24.417,92.838 24.917,91.700 26.185 C 91.425 26.492,91.200 26.896,91.200 27.083 C 91.200 27.270,90.840 27.683,90.400 28.000 C 89.960 28.317,89.600 28.857,89.600 29.200 C 89.600 29.543,89.240 30.083,88.800 30.400 C 88.360 30.717,88.000 31.207,88.000 31.488 C 88.000 31.770,87.820 32.000,87.600 32.000 C 87.380 32.000,87.200 32.230,87.200 32.512 C 87.200 32.793,86.850 33.276,86.421 33.585 C 85.993 33.893,85.723 34.275,85.820 34.432 C 85.917 34.590,85.458 35.296,84.798 36.002 C 84.139 36.707,83.600 37.437,83.600 37.624 C 83.600 37.811,83.150 38.414,82.600 38.964 C 82.050 39.514,81.600 40.202,81.600 40.494 C 81.600 40.785,81.240 41.283,80.800 41.600 C 80.360 41.917,80.000 42.392,80.000 42.655 C 80.000 42.918,79.855 43.193,79.678 43.267 C 79.262 43.439,74.000 51.066,74.000 51.497 C 74.000 51.676,73.640 52.083,73.200 52.400 C 72.760 52.717,72.400 53.209,72.400 53.492 C 72.400 53.775,71.860 54.572,71.200 55.263 C 70.540 55.954,70.000 56.722,70.000 56.971 C 70.000 57.220,69.640 57.683,69.200 58.000 C 68.760 58.317,68.400 58.807,68.400 59.088 C 68.400 59.370,68.259 59.600,68.086 59.600 C 67.914 59.600,67.479 60.095,67.121 60.700 C 66.763 61.305,66.004 62.340,65.435 63.000 C 64.866 63.660,64.401 64.385,64.400 64.612 C 64.400 64.838,64.040 65.283,63.600 65.600 C 63.160 65.917,62.800 66.415,62.800 66.706 C 62.800 66.998,62.350 67.686,61.800 68.236 C 61.250 68.786,60.800 69.395,60.800 69.590 C 60.800 69.784,60.553 70.190,60.252 70.491 C 59.950 70.792,59.401 71.624,59.032 72.338 C 58.662 73.053,58.054 74.004,57.680 74.452 C 57.306 74.901,56.595 75.747,56.100 76.334 C 55.606 76.920,55.201 77.537,55.200 77.704 C 55.200 77.871,54.660 78.572,54.000 79.263 C 53.340 79.954,52.800 80.722,52.800 80.971 C 52.800 81.220,52.440 81.683,52.000 82.000 C 51.560 82.317,51.200 82.857,51.200 83.200 C 51.200 83.543,50.840 84.083,50.400 84.400 C 49.960 84.717,49.600 85.162,49.599 85.388 C 49.599 85.615,49.059 86.430,48.400 87.200 C 47.741 87.970,47.201 88.785,47.201 89.012 C 47.200 89.238,46.840 89.683,46.400 90.000 C 45.960 90.317,45.600 90.809,45.600 91.092 C 45.600 91.375,45.060 92.172,44.400 92.863 C 43.740 93.554,43.200 94.272,43.200 94.459 C 43.200 94.647,43.012 94.800,42.782 94.800 C 42.239 94.800,40.400 96.639,40.400 97.182 C 40.400 97.412,40.220 97.600,40.000 97.600 C 39.780 97.600,39.600 97.870,39.600 98.200 C 39.600 98.530,39.420 98.800,39.200 98.800 C 38.980 98.800,38.800 99.340,38.800 100.000 C 38.800 100.660,38.620 101.200,38.400 101.200 C 38.141 101.200,38.000 106.133,38.000 115.200 C 38.000 124.267,38.141 129.200,38.400 129.200 C 38.620 129.200,38.800 129.740,38.800 130.400 C 38.800 131.060,38.980 131.600,39.200 131.600 C 39.420 131.600,39.600 131.875,39.600 132.211 C 39.600 133.505,44.039 137.200,45.595 137.200 C 46.038 137.200,46.400 137.380,46.400 137.600 C 46.400 137.855,49.800 138.000,55.800 138.000 C 61.800 138.000,65.200 138.145,65.200 138.400 C 65.200 138.620,65.020 138.800,64.800 138.800 C 64.580 138.800,64.400 139.779,64.400 140.976 C 64.400 142.173,64.220 143.264,64.000 143.400 C 63.780 143.536,63.600 144.526,63.600 145.600 C 63.600 146.674,63.420 147.664,63.200 147.800 C 62.980 147.936,62.800 149.016,62.800 150.200 C 62.800 151.384,62.620 152.464,62.400 152.600 C 62.180 152.736,62.000 153.656,62.000 154.643 C 62.000 155.631,61.726 156.969,61.392 157.616 C 61.025 158.326,60.886 159.204,61.043 159.827 C 61.185 160.396,61.109 161.253,60.872 161.731 C 60.635 162.209,60.349 163.410,60.236 164.400 C 60.122 165.390,59.836 167.370,59.598 168.800 C 59.361 170.230,58.966 173.245,58.720 175.500 C 58.475 177.755,58.122 179.600,57.937 179.600 C 57.752 179.600,57.600 180.579,57.600 181.776 C 57.600 182.973,57.420 184.064,57.200 184.200 C 56.980 184.336,56.800 185.427,56.800 186.624 C 56.800 187.821,56.620 188.800,56.400 188.800 C 56.178 188.800,56.000 189.867,56.000 191.200 C 56.000 192.533,55.822 193.600,55.600 193.600 C 55.380 193.600,55.200 194.590,55.200 195.800 C 55.200 197.010,55.020 198.000,54.800 198.000 C 54.578 198.000,54.400 199.067,54.400 200.400 C 54.400 201.733,54.222 202.800,54.000 202.800 C 53.778 202.800,53.600 203.867,53.600 205.200 C 53.600 206.533,53.422 207.600,53.200 207.600 C 52.980 207.600,52.800 208.489,52.800 209.576 C 52.800 210.663,52.620 211.664,52.400 211.800 C 52.180 211.936,52.000 213.016,52.000 214.200 C 52.000 215.384,51.820 216.464,51.600 216.600 C 51.380 216.736,51.200 217.722,51.200 218.790 C 51.200 219.955,51.006 220.798,50.716 220.895 C 50.404 220.999,50.251 221.865,50.285 223.328 C 50.315 224.578,50.205 225.600,50.041 225.600 C 49.877 225.600,49.701 226.545,49.649 227.700 C 49.597 228.855,49.385 229.971,49.177 230.180 C 48.970 230.389,48.800 231.514,48.800 232.680 C 48.800 233.846,48.651 234.800,48.468 234.800 C 48.286 234.800,48.096 235.835,48.046 237.100 C 47.996 238.365,47.785 239.460,47.578 239.533 C 47.370 239.607,47.200 240.541,47.200 241.610 C 47.200 242.678,47.020 243.664,46.800 243.800 C 46.580 243.936,46.400 244.991,46.400 246.144 C 46.400 247.297,46.237 248.411,46.037 248.620 C 45.837 248.829,45.572 249.900,45.448 251.000 C 45.323 252.100,45.117 253.900,44.990 255.000 C 44.862 256.100,44.597 257.360,44.400 257.800 C 44.203 258.240,43.949 259.410,43.836 260.400 C 43.722 261.390,43.451 263.280,43.232 264.600 C 42.305 270.188,41.541 275.566,41.344 277.900 C 41.227 279.275,40.967 280.400,40.766 280.400 C 40.565 280.400,40.400 281.390,40.400 282.600 C 40.400 283.810,40.220 284.800,40.000 284.800 C 39.780 284.800,39.600 285.124,39.600 285.520 C 39.600 285.916,39.375 286.479,39.100 286.770 C 38.700 287.194,38.700 287.337,39.100 287.483 C 39.692 287.700,39.781 289.600,39.200 289.600 C 38.980 289.600,38.800 290.579,38.800 291.776 C 38.800 292.973,38.620 294.064,38.400 294.200 C 38.180 294.336,38.000 295.427,38.000 296.624 C 38.000 297.821,37.820 298.800,37.600 298.800 C 37.378 298.800,37.200 299.867,37.200 301.200 C 37.200 302.533,37.022 303.600,36.800 303.600 C 36.580 303.600,36.400 304.489,36.400 305.576 C 36.400 306.663,36.220 307.664,36.000 307.800 C 35.780 307.936,35.600 309.016,35.600 310.200 C 35.600 311.384,35.420 312.464,35.200 312.600 C 34.980 312.736,34.800 313.726,34.800 314.800 C 34.800 315.874,34.620 316.864,34.400 317.000 C 34.180 317.136,34.000 318.227,34.000 319.424 C 34.000 320.621,33.820 321.600,33.600 321.600 C 33.378 321.600,33.200 322.667,33.200 324.000 C 33.200 325.333,33.022 326.400,32.800 326.400 C 32.580 326.400,32.400 327.390,32.400 328.600 C 32.400 329.810,32.220 330.800,32.000 330.800 C 31.778 330.800,31.600 331.867,31.600 333.200 C 31.600 334.520,31.437 335.600,31.237 335.600 C 31.037 335.600,30.773 336.545,30.650 337.700 C 30.128 342.604,29.939 343.843,29.600 344.600 C 29.403 345.040,29.138 346.300,29.010 347.400 C 28.883 348.500,28.677 350.300,28.552 351.400 C 28.428 352.500,28.163 353.571,27.963 353.780 C 27.763 353.989,27.600 355.078,27.600 356.200 C 27.600 357.322,27.437 358.411,27.237 358.620 C 27.037 358.829,26.775 359.900,26.654 361.000 C 26.534 362.100,26.260 364.080,26.046 365.400 C 25.832 366.720,25.531 368.700,25.378 369.800 C 25.224 370.900,24.806 372.141,24.449 372.558 C 23.964 373.125,23.926 373.361,24.300 373.492 C 24.575 373.588,24.800 373.922,24.800 374.233 C 24.800 374.707,23.188 374.800,15.000 374.800 L 5.200 374.800 5.200 386.000 L 5.200 397.200 109.400 397.200 L 213.600 397.200 213.600 386.000 L 213.600 374.800 204.200 374.800 L 194.800 374.800 194.800 373.424 C 194.800 372.667,194.620 371.936,194.400 371.800 C 194.180 371.664,194.000 370.663,194.000 369.576 C 194.000 368.489,193.820 367.600,193.600 367.600 C 193.378 367.600,193.200 366.533,193.200 365.200 C 193.200 363.867,193.022 362.800,192.800 362.800 C 192.580 362.800,192.400 361.810,192.400 360.600 C 192.400 359.390,192.220 358.400,192.000 358.400 C 191.780 358.400,191.594 357.545,191.587 356.500 C 191.574 354.678,191.172 351.512,190.355 346.800 C 189.396 341.274,189.145 339.660,188.943 337.700 C 188.824 336.545,188.563 335.600,188.363 335.600 C 188.163 335.600,188.000 334.621,188.000 333.424 C 188.000 332.227,187.820 331.136,187.600 331.000 C 187.380 330.864,187.200 329.773,187.200 328.576 C 187.200 327.379,187.020 326.400,186.800 326.400 C 186.578 326.400,186.400 325.333,186.400 324.000 C 186.400 322.667,186.222 321.600,186.000 321.600 C 185.780 321.600,185.600 320.621,185.600 319.424 C 185.600 318.227,185.420 317.136,185.200 317.000 C 184.980 316.864,184.800 315.899,184.800 314.856 C 184.800 313.813,184.637 312.789,184.437 312.580 C 184.100 312.228,183.977 311.446,183.354 305.700 C 183.228 304.545,182.963 303.600,182.763 303.600 C 182.563 303.600,182.400 302.520,182.400 301.200 C 182.400 299.867,182.222 298.800,182.000 298.800 C 181.780 298.800,181.600 297.821,181.600 296.624 C 181.600 295.427,181.420 294.336,181.200 294.200 C 180.980 294.064,180.800 292.973,180.800 291.776 C 180.800 290.579,180.620 289.600,180.400 289.600 C 180.178 289.600,180.000 288.533,180.000 287.200 C 180.000 285.867,179.822 284.800,179.600 284.800 C 179.380 284.800,179.200 283.810,179.200 282.600 C 179.200 281.390,179.020 280.400,178.800 280.400 C 178.580 280.400,178.400 279.421,178.400 278.224 C 178.400 277.027,178.220 275.936,178.000 275.800 C 177.780 275.664,177.600 274.663,177.600 273.576 C 177.600 272.489,177.420 271.600,177.200 271.600 C 176.978 271.600,176.800 270.533,176.800 269.200 C 176.800 267.867,176.622 266.800,176.400 266.800 C 176.178 266.800,176.000 265.733,176.000 264.400 C 176.000 263.067,175.822 262.000,175.600 262.000 C 175.380 262.000,175.196 261.235,175.192 260.300 C 175.188 259.365,175.000 257.430,174.774 256.000 C 173.864 250.220,173.518 248.100,173.144 246.000 C 172.928 244.790,172.656 242.855,172.539 241.700 C 172.422 240.545,172.163 239.600,171.963 239.600 C 171.763 239.600,171.600 238.520,171.600 237.200 C 171.600 235.867,171.422 234.800,171.200 234.800 C 170.980 234.800,170.800 233.821,170.800 232.624 C 170.800 231.427,170.620 230.336,170.400 230.200 C 170.180 230.064,170.000 228.973,170.000 227.776 C 170.000 226.579,169.820 225.600,169.600 225.600 C 169.380 225.600,169.200 224.621,169.200 223.424 C 169.200 222.227,169.020 221.136,168.800 221.000 C 168.580 220.864,168.400 219.784,168.400 218.600 C 168.400 217.416,168.220 216.336,168.000 216.200 C 167.780 216.064,167.600 215.074,167.600 214.000 C 167.600 212.926,167.420 211.936,167.200 211.800 C 166.980 211.664,166.800 210.663,166.800 209.576 C 166.800 208.489,166.620 207.600,166.400 207.600 C 166.178 207.600,166.000 206.533,166.000 205.200 C 166.000 203.867,165.822 202.800,165.600 202.800 C 165.377 202.800,165.200 201.725,165.200 200.376 C 165.200 198.863,165.050 198.046,164.800 198.200 C 164.550 198.354,164.400 197.537,164.400 196.024 C 164.400 194.675,164.223 193.600,164.000 193.600 C 163.778 193.600,163.600 192.533,163.600 191.200 C 163.600 189.867,163.422 188.800,163.200 188.800 C 162.978 188.800,162.800 187.733,162.800 186.400 C 162.800 185.067,162.622 184.000,162.400 184.000 C 162.180 184.000,162.000 183.010,162.000 181.800 C 162.000 180.590,161.820 179.600,161.600 179.600 C 161.380 179.600,161.200 178.700,161.200 177.600 C 161.200 176.500,161.020 175.600,160.800 175.600 C 160.578 175.600,160.400 174.533,160.400 173.200 C 160.400 171.867,160.222 170.800,160.000 170.800 C 159.778 170.800,159.600 169.733,159.600 168.400 C 159.600 167.080,159.436 166.000,159.236 166.000 C 159.035 166.000,158.784 164.965,158.678 163.700 C 158.473 161.245,157.402 153.635,156.751 150.000 C 156.534 148.790,156.260 146.900,156.142 145.800 C 156.023 144.700,155.763 143.629,155.563 143.420 C 155.363 143.211,155.200 142.086,155.200 140.920 C 155.200 139.754,155.020 138.800,154.800 138.800 C 154.580 138.800,154.400 138.621,154.400 138.402 C 154.400 138.073,217.763 137.744,306.600 137.612 C 309.680 137.608,325.070 137.738,340.800 137.902 C 363.478 138.138,369.492 138.096,369.844 137.700 C 370.088 137.425,370.586 137.200,370.950 137.200 C 372.376 137.200,376.800 133.427,376.800 132.211 C 376.800 131.875,376.980 131.600,377.200 131.600 C 377.420 131.600,377.600 131.060,377.600 130.400 C 377.600 129.740,377.780 129.200,378.000 129.200 C 378.259 129.200,378.400 124.267,378.400 115.200 C 378.400 106.133,378.259 101.200,378.000 101.200 C 377.780 101.200,377.600 100.660,377.600 100.000 C 377.600 99.340,377.420 98.800,377.200 98.800 C 376.980 98.800,376.800 98.429,376.800 97.976 C 376.800 97.523,376.620 97.264,376.400 97.400 C 376.180 97.536,376.000 97.451,376.000 97.210 C 376.000 96.155,372.231 93.200,370.885 93.200 C 370.486 93.200,369.987 93.027,369.775 92.815 C 369.539 92.579,359.840 92.385,344.714 92.315 C 325.633 92.226,319.926 92.087,319.540 91.700 C 319.265 91.425,318.716 91.200,318.320 91.200 C 317.924 91.200,317.600 91.020,317.600 90.800 C 317.600 90.580,317.251 90.400,316.824 90.400 C 316.397 90.400,315.936 90.220,315.800 90.000 C 315.664 89.780,315.113 89.600,314.576 89.600 C 314.039 89.600,313.600 89.420,313.600 89.200 C 313.600 88.980,313.240 88.800,312.800 88.800 C 312.360 88.800,312.000 88.620,312.000 88.400 C 312.000 88.180,311.460 88.000,310.800 88.000 C 310.140 88.000,309.600 87.820,309.600 87.600 C 309.600 87.380,309.240 87.200,308.800 87.200 C 308.360 87.200,308.000 87.020,308.000 86.800 C 308.000 86.580,307.651 86.400,307.224 86.400 C 306.797 86.400,306.336 86.220,306.200 86.000 C 306.064 85.780,305.603 85.600,305.176 85.600 C 304.749 85.600,304.400 85.420,304.400 85.200 C 304.400 84.980,304.051 84.800,303.624 84.800 C 303.197 84.800,302.736 84.620,302.600 84.400 C 302.464 84.180,301.913 84.000,301.376 84.000 C 300.839 84.000,300.400 83.820,300.400 83.600 C 300.400 83.380,300.040 83.200,299.600 83.200 C 299.160 83.200,298.800 83.020,298.800 82.800 C 298.800 82.580,298.361 82.400,297.824 82.400 C 297.287 82.400,296.736 82.220,296.600 82.000 C 296.464 81.780,296.003 81.600,295.576 81.600 C 295.149 81.600,294.800 81.420,294.800 81.200 C 294.800 80.980,294.451 80.800,294.024 80.800 C 293.597 80.800,293.136 80.620,293.000 80.400 C 292.864 80.180,292.313 80.000,291.776 80.000 C 291.239 80.000,290.799 79.865,290.797 79.700 C 290.793 79.294,288.814 78.400,287.920 78.400 C 287.524 78.400,287.200 78.220,287.200 78.000 C 287.200 77.780,286.928 77.600,286.595 77.600 C 286.262 77.600,285.677 77.441,285.295 77.247 C 284.913 77.052,284.150 76.717,283.600 76.502 C 283.050 76.287,281.919 75.816,281.086 75.455 C 280.254 75.095,279.129 74.800,278.586 74.800 C 278.044 74.800,277.600 74.620,277.600 74.400 C 277.600 74.180,277.240 74.000,276.800 74.000 C 276.360 74.000,276.000 73.820,276.000 73.600 C 276.000 73.380,275.651 73.200,275.224 73.200 C 274.797 73.200,274.336 73.020,274.200 72.800 C 274.064 72.580,273.603 72.400,273.176 72.400 C 272.749 72.400,272.400 72.220,272.400 72.000 C 272.400 71.780,272.040 71.600,271.600 71.600 C 271.160 71.600,270.800 71.420,270.800 71.200 C 270.800 70.980,270.260 70.800,269.600 70.800 C 268.940 70.800,268.400 70.620,268.400 70.400 C 268.400 70.180,268.040 70.000,267.600 70.000 C 267.160 70.000,266.800 69.820,266.800 69.600 C 266.800 69.380,266.361 69.200,265.824 69.200 C 265.287 69.200,264.736 69.020,264.600 68.800 C 264.464 68.580,264.003 68.400,263.576 68.400 C 263.149 68.400,262.800 68.220,262.800 68.000 C 262.800 67.780,262.440 67.600,262.000 67.600 C 261.560 67.600,261.200 67.420,261.200 67.200 C 261.200 66.980,260.660 66.800,260.000 66.800 C 259.340 66.800,258.800 66.620,258.800 66.400 C 258.800 66.180,258.440 66.000,258.000 66.000 C 257.560 66.000,257.200 65.820,257.200 65.600 C 257.200 65.380,256.851 65.200,256.424 65.200 C 255.997 65.200,255.536 65.020,255.400 64.800 C 255.264 64.580,254.803 64.400,254.376 64.400 C 253.949 64.400,253.600 64.253,253.600 64.072 C 253.600 63.892,252.700 63.500,251.600 63.200 C 250.500 62.900,249.600 62.508,249.600 62.328 C 249.600 62.147,249.251 62.000,248.824 62.000 C 248.397 62.000,247.936 61.820,247.800 61.600 C 247.664 61.380,247.113 61.200,246.576 61.200 C 246.039 61.200,245.600 61.020,245.600 60.800 C 245.600 60.580,245.364 60.400,245.075 60.400 C 244.786 60.400,243.795 60.035,242.873 59.590 C 241.950 59.144,240.656 58.671,239.998 58.540 C 239.339 58.408,238.800 58.142,238.800 57.950 C 238.800 57.758,238.260 57.600,237.600 57.600 C 236.940 57.600,236.400 57.420,236.400 57.200 C 236.400 56.980,236.040 56.800,235.600 56.800 C 235.160 56.800,234.800 56.620,234.800 56.400 C 234.800 56.180,234.350 56.000,233.800 56.000 C 233.250 56.000,232.800 55.820,232.800 55.600 C 232.800 55.380,232.350 55.200,231.800 55.200 C 231.250 55.200,230.800 55.020,230.800 54.800 C 230.800 54.580,230.440 54.400,230.000 54.400 C 229.560 54.400,229.200 54.220,229.200 54.000 C 229.200 53.780,228.660 53.600,228.000 53.600 C 227.340 53.600,226.800 53.420,226.800 53.200 C 226.800 52.980,226.535 52.800,226.212 52.800 C 225.889 52.800,224.983 52.440,224.200 52.000 C 223.417 51.560,222.511 51.200,222.188 51.200 C 221.865 51.200,221.600 51.020,221.600 50.800 C 221.600 50.580,221.251 50.400,220.824 50.400 C 220.397 50.400,219.936 50.220,219.800 50.000 C 219.664 49.780,219.113 49.600,218.576 49.600 C 218.039 49.600,217.600 49.420,217.600 49.200 C 217.600 48.980,217.240 48.800,216.800 48.800 C 216.360 48.800,216.000 48.620,216.000 48.400 C 216.000 48.180,215.561 48.000,215.024 48.000 C 214.487 48.000,213.936 47.820,213.800 47.600 C 213.664 47.380,213.203 47.200,212.776 47.200 C 212.349 47.200,212.000 47.020,212.000 46.800 C 212.000 46.580,211.651 46.400,211.224 46.400 C 210.797 46.400,210.336 46.220,210.200 46.000 C 210.064 45.780,209.513 45.600,208.976 45.600 C 208.439 45.600,208.000 45.420,208.000 45.200 C 208.000 44.980,207.640 44.800,207.200 44.800 C 206.760 44.800,206.400 44.620,206.400 44.400 C 206.400 44.180,206.074 44.000,205.675 44.000 C 205.276 44.000,204.017 43.550,202.877 43.000 C 201.737 42.450,200.531 42.000,200.197 42.000 C 199.607 42.000,199.183 41.833,197.305 40.862 C 196.813 40.608,196.048 40.400,195.605 40.400 C 195.162 40.400,194.800 40.220,194.800 40.000 C 194.800 39.780,194.440 39.600,194.000 39.600 C 193.560 39.600,193.200 39.420,193.200 39.200 C 193.200 38.980,192.851 38.800,192.424 38.800 C 191.997 38.800,191.536 38.620,191.400 38.400 C 191.264 38.180,190.803 38.000,190.376 38.000 C 189.949 38.000,189.600 37.820,189.600 37.600 C 189.600 37.380,189.251 37.200,188.824 37.200 C 188.397 37.200,187.936 37.020,187.800 36.800 C 187.664 36.580,187.113 36.400,186.576 36.400 C 186.039 36.400,185.600 36.220,185.600 36.000 C 185.600 35.780,185.240 35.600,184.800 35.600 C 184.360 35.600,184.000 35.420,184.000 35.200 C 184.000 34.980,183.561 34.800,183.024 34.800 C 182.487 34.800,181.936 34.620,181.800 34.400 C 181.664 34.180,181.203 34.000,180.776 34.000 C 180.349 34.000,180.000 33.820,180.000 33.600 C 180.000 33.380,179.640 33.200,179.200 33.200 C 178.760 33.200,178.400 33.020,178.400 32.800 C 178.400 32.580,177.860 32.400,177.200 32.400 C 176.540 32.400,176.000 32.220,176.000 32.000 C 176.000 31.780,175.640 31.600,175.200 31.600 C 174.760 31.600,174.400 31.420,174.400 31.200 C 174.400 30.980,174.128 30.800,173.795 30.800 C 173.462 30.800,172.877 30.635,172.495 30.433 C 170.793 29.533,167.956 28.400,167.404 28.400 C 167.072 28.400,166.800 28.220,166.800 28.000 C 166.800 27.780,166.451 27.600,166.024 27.600 C 165.597 27.600,165.136 27.420,165.000 27.200 C 164.864 26.980,164.313 26.800,163.776 26.800 C 163.239 26.800,162.800 26.641,162.800 26.447 C 162.800 26.252,162.395 26.001,161.900 25.887 C 161.027 25.687,159.360 25.113,157.100 24.233 C 156.495 23.997,156.000 23.669,156.000 23.502 C 156.000 23.336,155.460 23.200,154.800 23.200 C 154.140 23.200,153.600 23.020,153.600 22.800 C 153.600 22.580,153.240 22.400,152.800 22.400 C 152.360 22.400,152.000 22.220,152.000 22.000 C 152.000 21.780,151.550 21.600,151.000 21.600 C 150.450 21.600,150.000 21.420,150.000 21.200 C 150.000 20.980,149.550 20.800,149.000 20.800 C 148.450 20.800,148.000 20.620,148.000 20.400 C 148.000 20.180,147.640 20.000,147.200 20.000 C 146.760 20.000,146.400 19.820,146.400 19.600 C 146.400 19.380,145.860 19.200,145.200 19.200 C 144.540 19.200,144.000 19.020,144.000 18.800 C 144.000 18.580,143.640 18.400,143.200 18.400 C 142.760 18.400,142.400 18.220,142.400 18.000 C 142.400 17.780,142.051 17.600,141.624 17.600 C 141.197 17.600,140.736 17.420,140.600 17.200 C 140.464 16.980,140.003 16.800,139.576 16.800 C 139.149 16.800,138.800 16.620,138.800 16.400 C 138.800 16.180,138.451 16.000,138.024 16.000 C 137.597 16.000,137.136 15.820,137.000 15.600 C 136.864 15.380,136.313 15.200,135.776 15.200 C 135.239 15.200,134.800 15.020,134.800 14.800 C 134.800 14.580,134.440 14.400,134.000 14.400 C 133.560 14.400,133.200 14.220,133.200 14.000 C 133.200 13.780,132.761 13.600,132.224 13.600 C 131.687 13.600,131.136 13.420,131.000 13.200 C 130.864 12.980,130.403 12.800,129.976 12.800 C 129.549 12.800,129.200 12.653,129.200 12.472 C 129.200 12.292,128.300 11.900,127.200 11.600 C 126.100 11.300,125.200 10.908,125.200 10.728 C 125.200 10.547,124.928 10.400,124.595 10.400 C 124.262 10.400,123.677 10.235,123.295 10.034 C 121.720 9.203,119.640 8.400,119.063 8.400 C 118.724 8.400,118.336 8.220,118.200 8.000 C 118.064 7.780,117.513 7.600,116.976 7.600 C 116.439 7.600,116.000 7.420,116.000 7.200 C 116.000 6.980,115.640 6.800,115.200 6.800 C 114.760 6.800,114.400 6.620,114.400 6.400 C 114.400 6.180,113.860 6.000,113.200 6.000 C 112.540 6.000,112.000 5.820,112.000 5.600 C 112.000 5.380,111.010 5.200,109.800 5.200 C 108.590 5.200,107.600 5.380,107.600 5.600 M116.800 21.200 C 116.800 21.420,117.072 21.600,117.405 21.600 C 117.738 21.600,118.323 21.759,118.705 21.953 C 119.087 22.148,119.850 22.489,120.400 22.713 C 120.950 22.936,122.030 23.386,122.800 23.713 C 123.570 24.040,124.920 24.545,125.800 24.836 C 126.680 25.126,127.571 25.507,127.780 25.682 C 127.989 25.857,128.484 26.000,128.880 26.000 C 129.276 26.000,129.600 26.180,129.600 26.400 C 129.600 26.620,130.050 26.800,130.600 26.800 C 131.150 26.800,131.600 26.980,131.600 27.200 C 131.600 27.420,131.960 27.600,132.400 27.600 C 132.840 27.600,133.200 27.780,133.200 28.000 C 133.200 28.220,133.740 28.400,134.400 28.400 C 135.060 28.400,135.600 28.580,135.600 28.800 C 135.600 29.020,135.960 29.200,136.400 29.200 C 136.840 29.200,137.200 29.380,137.200 29.600 C 137.200 29.820,137.740 30.000,138.400 30.000 C 139.060 30.000,139.600 30.180,139.600 30.400 C 139.600 30.620,139.960 30.800,140.400 30.800 C 140.840 30.800,141.200 30.980,141.200 31.200 C 141.200 31.420,141.560 31.600,142.000 31.600 C 142.440 31.600,142.800 31.780,142.800 32.000 C 142.800 32.220,143.250 32.400,143.800 32.400 C 144.350 32.400,144.800 32.580,144.800 32.800 C 144.800 33.020,145.149 33.200,145.576 33.200 C 146.003 33.200,146.464 33.380,146.600 33.600 C 146.736 33.820,147.287 34.000,147.824 34.000 C 148.361 34.000,148.800 34.180,148.800 34.400 C 148.800 34.620,149.160 34.800,149.600 34.800 C 150.040 34.800,150.400 34.980,150.400 35.200 C 150.400 35.420,150.839 35.600,151.376 35.600 C 151.913 35.600,152.464 35.780,152.600 36.000 C 152.736 36.220,153.197 36.400,153.624 36.400 C 154.051 36.400,154.400 36.580,154.400 36.800 C 154.400 37.020,154.749 37.200,155.176 37.200 C 155.603 37.200,156.064 37.380,156.200 37.600 C 156.336 37.820,156.887 38.000,157.424 38.000 C 157.961 38.000,158.400 38.180,158.400 38.400 C 158.400 38.620,158.760 38.800,159.200 38.800 C 159.640 38.800,160.000 38.980,160.000 39.200 C 160.000 39.420,160.265 39.600,160.589 39.600 C 160.912 39.600,162.195 40.050,163.438 40.600 C 164.682 41.150,166.127 41.600,166.650 41.600 C 167.172 41.600,167.600 41.780,167.600 42.000 C 167.600 42.220,167.960 42.400,168.400 42.400 C 168.840 42.400,169.200 42.580,169.200 42.800 C 169.200 43.020,169.549 43.200,169.976 43.200 C 170.403 43.200,170.864 43.380,171.000 43.600 C 171.136 43.820,171.687 44.000,172.224 44.000 C 172.761 44.000,173.200 44.180,173.200 44.400 C 173.200 44.620,173.560 44.800,174.000 44.800 C 174.440 44.800,174.800 44.980,174.800 45.200 C 174.800 45.420,175.250 45.600,175.800 45.600 C 176.350 45.600,176.800 45.780,176.800 46.000 C 176.800 46.220,177.149 46.400,177.576 46.400 C 178.003 46.400,178.464 46.580,178.600 46.800 C 178.736 47.020,179.287 47.200,179.824 47.200 C 180.361 47.200,180.800 47.380,180.800 47.600 C 180.800 47.820,181.160 48.000,181.600 48.000 C 182.040 48.000,182.400 48.180,182.400 48.400 C 182.400 48.620,182.749 48.800,183.176 48.800 C 183.603 48.800,184.064 48.980,184.200 49.200 C 184.336 49.420,184.887 49.600,185.424 49.600 C 185.961 49.600,186.400 49.780,186.400 50.000 C 186.400 50.220,186.760 50.400,187.200 50.400 C 187.640 50.400,188.000 50.580,188.000 50.800 C 188.000 51.020,188.540 51.200,189.200 51.200 C 189.860 51.200,190.400 51.380,190.400 51.600 C 190.400 51.820,190.760 52.000,191.200 52.000 C 191.640 52.000,192.000 52.180,192.000 52.400 C 192.000 52.620,192.272 52.800,192.605 52.800 C 192.938 52.800,193.523 52.965,193.905 53.167 C 195.607 54.067,198.444 55.200,198.996 55.200 C 199.328 55.200,199.600 55.380,199.600 55.600 C 199.600 55.820,200.050 56.000,200.600 56.000 C 201.150 56.000,201.600 56.180,201.600 56.400 C 201.600 56.620,201.949 56.800,202.376 56.800 C 202.803 56.800,203.254 56.964,203.378 57.165 C 203.503 57.366,204.323 57.652,205.202 57.800 C 206.081 57.949,206.800 58.234,206.800 58.435 C 206.800 58.636,207.126 58.800,207.525 58.800 C 207.924 58.800,208.995 59.160,209.906 59.600 C 210.816 60.040,211.750 60.400,211.981 60.400 C 212.211 60.400,212.400 60.580,212.400 60.800 C 212.400 61.020,212.850 61.200,213.400 61.200 C 213.950 61.200,214.400 61.380,214.400 61.600 C 214.400 61.820,214.749 62.000,215.176 62.000 C 215.603 62.000,216.064 62.180,216.200 62.400 C 216.336 62.620,216.887 62.800,217.424 62.800 C 217.961 62.800,218.400 62.980,218.400 63.200 C 218.400 63.420,218.760 63.600,219.200 63.600 C 219.640 63.600,220.000 63.780,220.000 64.000 C 220.000 64.220,220.540 64.400,221.200 64.400 C 221.860 64.400,222.400 64.580,222.400 64.800 C 222.400 65.020,222.760 65.200,223.200 65.200 C 223.640 65.200,224.000 65.380,224.000 65.600 C 224.000 65.820,224.360 66.000,224.800 66.000 C 225.240 66.000,225.600 66.180,225.600 66.400 C 225.600 66.620,226.050 66.800,226.600 66.800 C 227.150 66.800,227.600 66.980,227.600 67.200 C 227.600 67.420,227.949 67.600,228.376 67.600 C 228.803 67.600,229.264 67.780,229.400 68.000 C 229.536 68.220,230.087 68.400,230.624 68.400 C 231.161 68.400,231.600 68.580,231.600 68.800 C 231.600 69.020,231.960 69.200,232.400 69.200 C 232.840 69.200,233.200 69.380,233.200 69.600 C 233.200 69.820,233.740 70.000,234.400 70.000 C 235.060 70.000,235.600 70.180,235.600 70.400 C 235.600 70.620,235.960 70.800,236.400 70.800 C 236.840 70.800,237.200 70.980,237.200 71.200 C 237.200 71.420,237.650 71.600,238.200 71.600 C 238.750 71.600,239.200 71.780,239.200 72.000 C 239.200 72.220,239.650 72.400,240.200 72.400 C 240.750 72.400,241.200 72.580,241.200 72.800 C 241.200 73.020,241.524 73.200,241.920 73.200 C 242.316 73.200,242.811 73.355,243.020 73.544 C 243.229 73.733,244.390 74.220,245.600 74.625 C 246.810 75.030,247.971 75.505,248.180 75.681 C 248.389 75.856,248.974 76.000,249.480 76.000 C 249.986 76.000,250.400 76.180,250.400 76.400 C 250.400 76.620,250.760 76.800,251.200 76.800 C 251.640 76.800,252.000 76.980,252.000 77.200 C 252.000 77.420,252.349 77.600,252.776 77.600 C 253.203 77.600,253.664 77.780,253.800 78.000 C 253.936 78.220,254.487 78.400,255.024 78.400 C 255.561 78.400,256.000 78.580,256.000 78.800 C 256.000 79.020,256.360 79.200,256.800 79.200 C 257.240 79.200,257.600 79.380,257.600 79.600 C 257.600 79.820,258.050 80.000,258.600 80.000 C 259.150 80.000,259.600 80.180,259.600 80.400 C 259.600 80.620,259.949 80.800,260.376 80.800 C 260.803 80.800,261.264 80.980,261.400 81.200 C 261.536 81.420,262.087 81.600,262.624 81.600 C 263.161 81.600,263.600 81.780,263.600 82.000 C 263.600 82.220,263.960 82.400,264.400 82.400 C 264.840 82.400,265.200 82.580,265.200 82.800 C 265.200 83.020,265.549 83.200,265.976 83.200 C 266.403 83.200,266.864 83.380,267.000 83.600 C 267.136 83.820,267.687 84.000,268.224 84.000 C 268.761 84.000,269.200 84.180,269.200 84.400 C 269.200 84.620,269.661 84.800,270.224 84.800 C 270.804 84.800,271.140 84.973,271.000 85.200 C 270.856 85.433,271.263 85.600,271.976 85.600 C 272.649 85.600,273.200 85.780,273.200 86.000 C 273.200 86.220,273.560 86.400,274.000 86.400 C 274.440 86.400,274.800 86.580,274.800 86.800 C 274.800 87.020,275.143 87.200,275.562 87.200 C 275.981 87.200,277.106 87.586,278.062 88.057 C 279.018 88.528,280.160 89.050,280.600 89.217 C 281.040 89.384,282.289 89.915,283.375 90.397 C 284.461 90.880,285.946 91.371,286.675 91.490 C 291.431 92.261,281.034 92.400,218.400 92.400 C 180.120 92.400,148.760 92.445,148.711 92.500 C 148.662 92.555,148.527 100.160,148.411 109.400 L 148.200 126.200 130.436 126.090 C 109.307 125.960,108.868 125.860,105.692 120.458 L 104.600 118.600 104.480 104.902 C 104.279 81.803,104.712 81.532,140.900 82.080 L 148.801 82.200 148.800 80.700 C 148.800 79.875,148.620 79.200,148.400 79.200 C 148.180 79.200,148.000 78.838,148.000 78.395 C 148.000 76.839,144.305 72.400,143.011 72.400 C 142.675 72.400,142.400 72.220,142.400 72.000 C 142.400 71.780,141.950 71.600,141.400 71.600 C 140.850 71.600,140.400 71.420,140.400 71.200 C 140.400 70.942,136.067 70.800,128.200 70.800 L 116.000 70.800 116.000 45.800 C 116.000 29.400,116.138 20.800,116.400 20.800 C 116.620 20.800,116.800 20.980,116.800 21.200 M103.600 51.600 L 103.600 70.800 91.400 70.800 C 83.533 70.800,79.200 70.942,79.200 71.200 C 79.200 71.420,78.660 71.600,78.000 71.600 C 77.340 71.600,76.800 71.780,76.800 72.000 C 76.800 72.220,76.602 72.400,76.360 72.400 C 76.119 72.400,75.393 72.965,74.749 73.655 C 73.237 75.273,72.941 74.967,74.211 73.098 C 74.755 72.298,75.200 71.493,75.200 71.310 C 75.200 71.126,75.560 70.717,76.000 70.400 C 76.440 70.083,76.800 69.591,76.800 69.308 C 76.800 69.025,77.340 68.228,78.000 67.537 C 78.660 66.846,79.200 66.078,79.200 65.829 C 79.200 65.580,79.560 65.117,80.000 64.800 C 80.440 64.483,80.800 63.975,80.800 63.672 C 80.800 63.369,81.340 62.617,82.000 62.000 C 82.660 61.383,83.200 60.631,83.200 60.328 C 83.200 60.025,83.560 59.517,84.000 59.200 C 84.440 58.883,84.800 58.473,84.800 58.288 C 84.800 57.966,86.641 55.483,88.100 53.838 C 88.485 53.404,88.800 52.813,88.800 52.525 C 88.800 52.236,88.942 52.000,89.116 52.000 C 89.290 52.000,89.958 51.100,90.600 50.000 C 91.242 48.900,91.910 48.000,92.084 48.000 C 92.258 48.000,92.400 47.680,92.400 47.288 C 92.400 46.897,92.760 46.317,93.200 46.000 C 93.640 45.683,94.000 45.175,94.000 44.872 C 94.000 44.569,94.540 43.817,95.200 43.200 C 95.860 42.583,96.400 41.909,96.400 41.702 C 96.400 41.494,96.760 40.998,97.200 40.600 C 97.640 40.202,98.000 39.674,98.000 39.426 C 98.000 39.179,98.360 38.717,98.800 38.400 C 99.240 38.083,99.600 37.620,99.600 37.371 C 99.600 37.122,100.140 36.354,100.800 35.663 C 101.460 34.972,102.000 34.218,102.000 33.987 C 102.000 33.490,102.871 32.437,103.300 32.415 C 103.465 32.407,103.600 41.040,103.600 51.600 M71.600 78.200 C 71.600 78.750,71.420 79.200,71.200 79.200 C 70.949 79.200,70.800 81.667,70.800 85.800 L 70.800 92.400 65.600 92.400 C 60.339 92.400,59.756 92.241,61.200 91.200 C 61.640 90.883,62.000 90.433,62.000 90.200 C 62.000 89.967,62.360 89.517,62.800 89.200 C 63.240 88.883,63.600 88.391,63.600 88.108 C 63.600 87.825,64.140 87.028,64.800 86.337 C 65.460 85.646,66.000 84.878,66.000 84.629 C 66.000 84.380,66.360 83.917,66.800 83.600 C 67.240 83.283,67.600 82.769,67.600 82.459 C 67.600 82.148,67.916 81.603,68.303 81.247 C 68.689 80.891,69.260 80.105,69.570 79.500 C 69.881 78.895,70.285 78.400,70.468 78.400 C 70.650 78.400,70.800 78.130,70.800 77.800 C 70.800 77.470,70.980 77.200,71.200 77.200 C 71.420 77.200,71.600 77.650,71.600 78.200 M169.200 115.200 L 169.200 125.200 163.600 125.200 L 158.000 125.200 158.000 115.200 L 158.000 105.200 163.600 105.200 L 169.200 105.200 169.200 115.200 M202.000 115.200 L 202.000 125.200 191.800 125.200 L 181.600 125.200 181.600 115.200 L 181.600 105.200 191.800 105.200 L 202.000 105.200 202.000 115.200 M234.800 115.200 L 234.800 125.200 224.600 125.200 L 214.400 125.200 214.400 115.200 L 214.400 105.200 224.600 105.200 L 234.800 105.200 234.800 115.200 M267.600 115.200 L 267.600 125.200 257.400 125.200 L 247.200 125.200 247.200 115.200 L 247.200 105.200 257.400 105.200 L 267.600 105.200 267.600 115.200 M300.400 115.200 L 300.400 125.200 290.200 125.200 L 280.000 125.200 280.000 115.200 L 280.000 105.200 290.200 105.200 L 300.400 105.200 300.400 115.200 M333.200 115.200 L 333.200 125.200 323.000 125.200 L 312.800 125.200 312.800 115.200 L 312.800 105.200 323.000 105.200 L 333.200 105.200 333.200 115.200 M363.638 106.027 C 364.277 106.482,364.800 107.112,364.800 107.427 C 364.800 107.742,365.070 108.000,365.400 108.000 C 365.911 108.000,366.000 109.051,366.000 115.062 L 366.000 122.125 364.431 123.662 L 362.863 125.200 354.231 125.200 L 345.600 125.200 345.600 115.200 L 345.600 105.200 354.038 105.200 C 361.928 105.200,362.552 105.254,363.638 106.027 M125.600 138.229 C 125.600 138.600,124.654 139.424,123.900 139.710 C 123.515 139.856,123.200 140.251,123.200 140.587 C 123.200 140.924,122.931 141.200,122.603 141.200 C 122.070 141.200,120.880 142.048,119.375 143.500 C 119.090 143.775,118.686 144.000,118.477 144.000 C 118.268 144.000,117.355 144.720,116.448 145.600 C 115.541 146.480,114.641 147.200,114.448 147.200 C 114.255 147.200,113.355 147.920,112.448 148.800 C 111.541 149.680,110.619 150.400,110.400 150.400 C 110.180 150.400,109.997 150.625,109.994 150.900 C 109.990 151.210,109.876 151.248,109.694 151.000 C 109.532 150.780,109.211 150.567,108.979 150.526 C 108.747 150.486,107.743 149.676,106.747 148.726 C 104.173 146.273,102.757 145.085,100.753 143.697 C 99.789 143.030,98.460 142.015,97.800 141.442 C 97.140 140.870,96.457 140.401,96.282 140.400 C 95.926 140.400,94.000 138.558,94.000 138.218 C 94.000 138.098,101.110 138.000,109.800 138.000 C 118.490 138.000,125.600 138.103,125.600 138.229 M87.553 154.319 C 87.909 154.714,88.830 155.477,89.600 156.013 C 90.999 156.988,92.447 158.156,93.425 159.100 C 93.710 159.375,94.124 159.600,94.344 159.600 C 94.565 159.600,94.860 159.960,95.000 160.400 C 95.140 160.840,95.512 161.200,95.827 161.200 C 96.710 161.200,96.511 161.730,95.300 162.605 C 94.695 163.042,93.496 164.075,92.636 164.900 C 91.776 165.725,90.927 166.400,90.750 166.400 C 90.572 166.400,89.797 167.030,89.027 167.800 C 88.257 168.570,87.462 169.200,87.262 169.200 C 87.061 169.200,86.155 169.920,85.248 170.800 C 84.341 171.680,83.509 172.400,83.400 172.400 C 83.017 172.400,83.203 169.245,83.600 169.000 C 83.820 168.864,84.000 167.773,84.000 166.576 C 84.000 165.379,84.180 164.400,84.400 164.400 C 84.622 164.400,84.800 163.333,84.800 162.000 C 84.800 160.667,84.978 159.600,85.200 159.600 C 85.420 159.600,85.600 158.736,85.600 157.680 C 85.600 154.604,86.467 153.112,87.553 154.319 M133.500 154.683 C 133.775 155.275,134.000 156.624,134.000 157.680 C 134.000 158.736,134.180 159.600,134.400 159.600 C 134.620 159.600,134.800 160.579,134.800 161.776 C 134.800 162.973,134.980 164.064,135.200 164.200 C 135.420 164.336,135.600 165.326,135.600 166.400 C 135.600 167.474,135.780 168.464,136.000 168.600 C 136.396 168.845,136.584 172.400,136.200 172.400 C 136.091 172.400,135.259 171.680,134.352 170.800 C 133.445 169.920,132.545 169.200,132.352 169.200 C 132.159 169.200,131.259 168.480,130.352 167.600 C 129.445 166.720,128.539 166.000,128.338 166.000 C 128.138 166.000,127.378 165.415,126.649 164.700 C 125.921 163.985,124.802 163.016,124.163 162.546 L 123.000 161.692 124.000 160.834 C 124.550 160.361,125.596 159.486,126.325 158.888 C 127.054 158.289,127.864 157.614,128.125 157.387 C 128.386 157.160,129.230 156.540,130.000 156.010 C 130.770 155.479,131.670 154.723,132.000 154.328 C 132.789 153.384,132.910 153.413,133.500 154.683 M111.991 174.372 C 112.756 174.937,113.908 175.895,114.550 176.500 C 115.193 177.105,115.871 177.600,116.057 177.600 C 116.244 177.600,117.315 178.500,118.439 179.600 C 119.562 180.700,120.657 181.600,120.872 181.600 C 121.087 181.600,121.954 182.320,122.800 183.200 C 123.646 184.080,124.468 184.800,124.627 184.800 C 124.890 184.800,126.824 186.458,130.266 189.632 C 130.962 190.275,131.727 190.800,131.966 190.800 C 132.205 190.800,132.400 190.980,132.400 191.200 C 132.400 191.420,132.682 191.600,133.026 191.600 C 133.370 191.600,134.529 192.500,135.600 193.600 C 136.671 194.700,137.830 195.600,138.174 195.600 C 139.062 195.600,138.957 197.096,138.049 197.384 C 137.636 197.516,136.781 198.067,136.149 198.611 C 135.517 199.154,134.775 199.599,134.500 199.600 C 134.225 199.600,134.000 199.750,134.000 199.932 C 134.000 200.115,133.505 200.520,132.900 200.832 C 132.295 201.145,131.451 201.715,131.025 202.100 C 130.598 202.485,130.013 202.800,129.725 202.800 C 129.436 202.800,129.200 202.950,129.200 203.132 C 129.200 203.315,128.705 203.720,128.100 204.032 C 127.495 204.345,126.795 204.780,126.545 205.000 C 125.169 206.208,124.356 206.800,124.071 206.800 C 123.895 206.800,123.391 207.115,122.952 207.500 C 122.512 207.885,121.624 208.483,120.976 208.829 C 118.827 209.978,117.849 210.593,117.045 211.300 C 116.607 211.685,116.013 212.000,115.725 212.000 C 115.436 212.000,115.200 212.168,115.200 212.373 C 115.200 212.578,114.841 212.860,114.402 212.999 C 113.964 213.138,113.379 213.472,113.102 213.739 C 111.377 215.412,108.804 216.584,108.798 215.700 C 108.797 215.535,107.808 214.770,106.600 214.000 C 105.392 213.230,104.403 212.465,104.402 212.300 C 104.401 212.135,104.210 212.000,103.977 212.000 C 103.744 212.000,102.395 211.190,100.979 210.200 C 99.562 209.210,98.173 208.400,97.890 208.400 C 97.608 208.400,97.117 208.040,96.800 207.600 C 96.483 207.160,95.943 206.800,95.600 206.800 C 95.257 206.800,94.717 206.440,94.400 206.000 C 94.083 205.560,93.543 205.200,93.200 205.200 C 92.857 205.200,92.317 204.840,92.000 204.400 C 91.683 203.960,91.193 203.600,90.912 203.600 C 90.630 203.600,90.400 203.420,90.400 203.200 C 90.400 202.980,90.130 202.800,89.800 202.800 C 89.470 202.800,89.200 202.620,89.200 202.400 C 89.200 202.180,89.012 202.000,88.783 202.000 C 88.554 202.000,87.980 201.640,87.508 201.200 C 87.036 200.760,86.413 200.400,86.125 200.400 C 85.836 200.400,85.600 200.250,85.600 200.068 C 85.600 199.885,85.105 199.480,84.500 199.168 C 83.895 198.855,83.051 198.285,82.625 197.900 C 82.198 197.515,81.613 197.200,81.325 197.200 C 81.036 197.200,80.803 196.795,80.806 196.300 C 80.811 195.555,80.885 195.503,81.237 196.000 C 81.558 196.455,81.710 196.478,81.865 196.097 C 82.188 195.299,85.092 192.400,85.569 192.400 C 85.806 192.400,86.000 192.220,86.000 192.000 C 86.000 191.780,86.188 191.600,86.417 191.600 C 86.646 191.600,87.231 191.222,87.717 190.759 C 88.203 190.297,89.228 189.442,89.994 188.859 C 90.761 188.277,91.982 187.215,92.708 186.500 C 93.433 185.785,94.184 185.200,94.377 185.200 C 94.570 185.200,95.758 184.210,97.018 183.000 C 98.277 181.790,99.477 180.800,99.685 180.800 C 99.893 180.800,100.754 180.080,101.600 179.200 C 102.446 178.320,103.296 177.600,103.490 177.600 C 103.685 177.600,104.492 177.015,105.285 176.300 C 109.653 172.360,109.377 172.439,111.991 174.372 M76.800 215.532 C 76.800 215.715,77.295 216.120,77.900 216.432 C 78.505 216.745,79.349 217.315,79.775 217.700 C 80.202 218.085,80.704 218.400,80.892 218.400 C 81.080 218.400,81.620 218.760,82.092 219.200 C 82.564 219.640,83.187 220.000,83.475 220.000 C 83.764 220.000,84.000 220.158,84.000 220.351 C 84.000 220.545,84.540 220.927,85.200 221.200 C 85.860 221.473,86.400 221.855,86.400 222.049 C 86.400 222.242,86.577 222.400,86.792 222.400 C 87.008 222.400,88.169 223.030,89.373 223.800 C 90.577 224.570,91.684 225.200,91.834 225.200 C 92.812 225.200,93.638 226.992,92.827 227.353 C 92.372 227.556,92.000 227.853,92.000 228.013 C 92.000 228.172,91.460 228.527,90.800 228.800 C 90.140 229.073,89.600 229.443,89.600 229.622 C 89.600 229.800,89.262 230.053,88.849 230.184 C 88.436 230.316,87.581 230.867,86.949 231.411 C 86.317 231.954,85.575 232.399,85.300 232.400 C 85.025 232.400,84.800 232.550,84.800 232.732 C 84.800 232.915,84.305 233.320,83.700 233.632 C 83.095 233.945,82.251 234.515,81.825 234.900 C 81.398 235.285,80.813 235.600,80.525 235.600 C 80.236 235.600,80.000 235.750,80.000 235.932 C 80.000 236.115,79.505 236.520,78.900 236.832 C 78.295 237.145,77.595 237.580,77.345 237.800 C 75.969 239.008,75.156 239.600,74.871 239.600 C 74.695 239.600,74.202 239.924,73.775 240.320 C 72.086 241.889,71.600 241.743,71.600 239.667 C 71.600 238.618,71.763 237.589,71.963 237.380 C 72.163 237.171,72.428 236.100,72.552 235.000 C 72.677 233.900,72.883 232.100,73.010 231.000 C 73.138 229.900,73.404 228.640,73.602 228.200 C 73.799 227.760,74.049 226.500,74.156 225.400 C 74.920 217.553,75.364 215.200,76.081 215.200 C 76.477 215.200,76.800 215.350,76.800 215.532 M144.000 216.976 C 144.000 217.953,144.180 218.864,144.400 219.000 C 144.620 219.136,144.800 220.126,144.800 221.200 C 144.800 222.274,144.999 223.276,145.243 223.427 C 145.511 223.592,145.594 224.278,145.453 225.159 C 145.305 226.083,145.436 227.033,145.810 227.754 C 146.134 228.380,146.400 229.670,146.400 230.622 C 146.400 231.574,146.580 232.464,146.800 232.600 C 147.020 232.736,147.200 233.827,147.200 235.024 C 147.200 236.221,147.380 237.200,147.600 237.200 C 147.820 237.200,148.000 238.100,148.000 239.200 C 148.000 241.423,147.118 241.952,146.000 240.400 C 145.683 239.960,145.143 239.600,144.800 239.600 C 144.457 239.600,143.917 239.240,143.600 238.800 C 143.283 238.360,142.743 238.000,142.400 238.000 C 142.057 238.000,141.517 237.640,141.200 237.200 C 140.883 236.760,140.393 236.400,140.112 236.400 C 139.830 236.400,139.600 236.220,139.600 236.000 C 139.600 235.780,139.330 235.600,139.000 235.600 C 138.670 235.600,138.400 235.420,138.400 235.200 C 138.400 234.980,138.212 234.800,137.983 234.800 C 137.754 234.800,137.180 234.440,136.708 234.000 C 136.236 233.560,135.613 233.200,135.325 233.200 C 135.036 233.200,134.800 233.050,134.800 232.868 C 134.800 232.685,134.305 232.280,133.700 231.968 C 133.095 231.655,132.251 231.085,131.825 230.700 C 131.398 230.315,130.813 230.000,130.525 230.000 C 130.236 230.000,130.000 229.842,130.000 229.649 C 130.000 229.455,129.460 229.073,128.800 228.800 C 128.140 228.527,127.600 228.157,127.600 227.978 C 127.600 227.800,127.240 227.540,126.800 227.400 C 125.813 227.087,125.754 226.174,126.700 225.864 C 127.085 225.737,128.120 225.178,129.000 224.620 C 129.880 224.062,131.185 223.301,131.900 222.929 C 132.615 222.557,133.200 222.105,133.200 221.926 C 133.200 221.747,133.436 221.600,133.725 221.600 C 134.013 221.600,134.598 221.285,135.025 220.900 C 135.451 220.515,136.295 219.945,136.900 219.632 C 137.505 219.320,138.000 218.915,138.000 218.732 C 138.000 218.550,138.270 218.400,138.600 218.400 C 138.930 218.400,139.200 218.220,139.200 218.000 C 139.200 217.780,139.470 217.600,139.800 217.600 C 140.130 217.600,140.400 217.420,140.400 217.200 C 140.400 216.980,140.630 216.800,140.912 216.800 C 141.193 216.800,141.683 216.440,142.000 216.000 C 143.066 214.520,144.000 214.976,144.000 216.976 M289.600 215.800 C 289.600 216.130,289.780 216.400,290.000 216.400 C 290.220 216.400,290.400 216.130,290.400 215.800 C 290.400 215.470,290.220 215.200,290.000 215.200 C 289.780 215.200,289.600 215.470,289.600 215.800 M289.600 222.600 C 289.600 222.930,289.780 223.200,290.000 223.200 C 290.220 223.200,290.400 222.930,290.400 222.600 C 290.400 222.270,290.220 222.000,290.000 222.000 C 289.780 222.000,289.600 222.270,289.600 222.600 M289.900 224.247 C 289.745 224.492,289.975 225.015,290.409 225.409 C 290.861 225.817,291.200 225.926,291.200 225.662 C 291.200 225.408,291.033 225.200,290.829 225.200 C 290.625 225.200,290.396 224.885,290.320 224.500 C 290.231 224.052,290.080 223.961,289.900 224.247 M116.790 241.600 C 117.373 241.600,118.161 242.379,118.510 243.300 C 118.806 244.082,119.600 244.256,119.600 243.539 C 119.600 243.285,119.936 243.465,120.347 243.939 C 120.758 244.412,121.305 244.800,121.564 244.800 C 121.822 244.800,122.420 245.160,122.892 245.600 C 123.364 246.040,123.966 246.400,124.229 246.400 C 124.492 246.400,124.801 246.760,124.916 247.200 C 125.041 247.679,125.462 248.000,125.963 248.000 C 126.423 248.000,126.800 248.150,126.800 248.332 C 126.800 248.515,127.295 248.920,127.900 249.232 C 128.505 249.545,129.349 250.115,129.775 250.500 C 130.202 250.885,130.704 251.200,130.892 251.200 C 131.080 251.200,131.620 251.560,132.092 252.000 C 132.564 252.440,133.187 252.800,133.475 252.800 C 133.764 252.800,134.000 252.980,134.000 253.200 C 134.000 253.420,134.236 253.600,134.525 253.600 C 134.813 253.600,135.436 253.960,135.908 254.400 C 136.380 254.840,136.926 255.200,137.121 255.200 C 137.316 255.200,137.802 255.560,138.200 256.000 C 138.598 256.440,139.237 256.800,139.619 256.800 C 140.002 256.800,140.418 257.070,140.545 257.400 C 140.671 257.730,141.128 258.000,141.560 258.000 C 141.995 258.000,142.460 258.358,142.600 258.800 C 142.753 259.282,143.205 259.600,143.739 259.600 C 144.225 259.600,144.883 259.960,145.200 260.400 C 145.517 260.840,146.020 261.200,146.317 261.200 C 147.432 261.200,148.208 262.420,147.252 262.670 C 146.784 262.793,146.400 263.052,146.400 263.247 C 146.400 263.441,146.040 263.600,145.600 263.600 C 145.160 263.600,144.800 263.746,144.800 263.925 C 144.800 264.104,144.170 264.498,143.400 264.800 C 142.630 265.102,142.000 265.496,142.000 265.675 C 142.000 265.854,141.640 266.000,141.200 266.000 C 140.760 266.000,140.400 266.158,140.400 266.351 C 140.400 266.545,139.860 266.927,139.200 267.200 C 138.540 267.473,138.000 267.855,138.000 268.049 C 138.000 268.242,137.640 268.400,137.200 268.400 C 136.760 268.400,136.400 268.580,136.400 268.800 C 136.400 269.020,136.040 269.200,135.600 269.200 C 135.160 269.200,134.800 269.380,134.800 269.600 C 134.800 269.820,134.440 270.000,134.000 270.000 C 133.560 270.000,133.200 270.180,133.200 270.400 C 133.200 270.620,132.840 270.800,132.400 270.800 C 131.960 270.800,131.600 270.980,131.600 271.200 C 131.600 271.420,131.330 271.600,131.000 271.600 C 130.670 271.600,130.400 271.780,130.400 272.000 C 130.400 272.220,130.130 272.400,129.800 272.400 C 129.470 272.400,129.200 272.580,129.200 272.800 C 129.200 273.020,128.840 273.200,128.400 273.200 C 127.960 273.200,127.600 273.380,127.600 273.600 C 127.600 273.820,127.255 274.000,126.833 274.000 C 126.412 274.000,126.007 274.135,125.933 274.300 C 125.860 274.465,124.678 275.140,123.307 275.800 C 121.935 276.460,120.810 277.135,120.807 277.300 C 120.803 277.465,120.440 277.600,120.000 277.600 C 119.560 277.600,119.200 277.780,119.200 278.000 C 119.200 278.220,118.855 278.400,118.433 278.400 C 118.012 278.400,117.607 278.535,117.533 278.700 C 117.413 278.970,115.311 280.178,112.903 281.360 C 112.410 281.602,112.005 281.935,112.003 282.100 C 112.001 282.265,111.640 282.400,111.200 282.400 C 110.760 282.400,110.400 282.580,110.400 282.800 C 110.400 283.020,110.040 283.200,109.600 283.200 C 109.160 283.200,108.800 283.020,108.800 282.800 C 108.800 282.580,108.564 282.400,108.275 282.400 C 107.987 282.400,107.402 282.085,106.975 281.699 C 106.549 281.314,105.300 280.549,104.200 279.999 C 103.100 279.450,102.140 278.865,102.067 278.700 C 101.993 278.535,101.588 278.400,101.167 278.400 C 100.745 278.400,100.400 278.220,100.400 278.000 C 100.400 277.780,100.055 277.600,99.633 277.600 C 99.212 277.600,98.807 277.443,98.733 277.251 C 98.553 276.779,94.581 274.800,93.813 274.800 C 93.476 274.800,93.200 274.620,93.200 274.400 C 93.200 274.180,92.840 274.000,92.400 274.000 C 91.960 274.000,91.600 273.820,91.600 273.600 C 91.600 273.380,91.330 273.200,91.000 273.200 C 90.670 273.200,90.400 273.020,90.400 272.800 C 90.400 272.580,90.130 272.400,89.800 272.400 C 89.470 272.400,89.200 272.254,89.200 272.075 C 89.200 271.896,88.570 271.502,87.800 271.200 C 87.030 270.898,86.400 270.504,86.400 270.325 C 86.400 270.146,86.040 270.000,85.600 270.000 C 85.160 270.000,84.800 269.820,84.800 269.600 C 84.800 269.380,84.440 269.200,84.000 269.200 C 83.560 269.200,83.200 269.020,83.200 268.800 C 83.200 268.580,82.922 268.400,82.583 268.400 C 82.244 268.400,81.580 268.040,81.108 267.600 C 80.636 267.160,80.013 266.800,79.725 266.800 C 79.436 266.800,79.200 266.620,79.200 266.400 C 79.200 266.180,78.840 266.000,78.400 266.000 C 77.960 266.000,77.600 265.820,77.600 265.600 C 77.600 265.380,77.240 265.200,76.800 265.200 C 76.360 265.200,76.000 265.020,76.000 264.800 C 76.000 264.580,75.640 264.400,75.200 264.400 C 74.760 264.400,74.400 264.220,74.400 264.000 C 74.400 263.780,74.130 263.600,73.800 263.600 C 73.470 263.600,73.200 263.441,73.200 263.247 C 73.200 263.052,72.816 262.793,72.348 262.670 C 71.478 262.443,72.122 261.200,73.109 261.200 C 73.311 261.200,73.802 260.840,74.200 260.400 C 74.598 259.960,75.166 259.600,75.462 259.600 C 75.758 259.600,76.000 259.449,76.000 259.265 C 76.000 259.081,77.035 258.411,78.300 257.775 C 79.565 257.140,80.949 256.301,81.375 255.910 C 81.802 255.520,82.387 255.200,82.675 255.200 C 82.964 255.200,83.200 255.042,83.200 254.849 C 83.200 254.655,83.740 254.273,84.400 254.000 C 85.060 253.727,85.600 253.345,85.600 253.151 C 85.600 252.958,85.870 252.800,86.200 252.800 C 86.530 252.800,86.800 252.620,86.800 252.400 C 86.800 252.180,87.070 252.000,87.400 252.000 C 87.730 252.000,88.000 251.820,88.000 251.600 C 88.000 251.380,88.270 251.200,88.600 251.200 C 88.930 251.200,89.200 251.020,89.200 250.800 C 89.200 250.580,89.470 250.400,89.800 250.400 C 90.130 250.400,90.400 250.220,90.400 250.000 C 90.400 249.780,90.630 249.600,90.912 249.600 C 91.193 249.600,91.683 249.240,92.000 248.800 C 92.317 248.360,92.857 248.000,93.200 248.000 C 93.543 248.000,94.083 247.640,94.400 247.200 C 94.717 246.760,95.257 246.400,95.600 246.400 C 95.943 246.400,96.483 246.040,96.800 245.600 C 97.117 245.160,97.657 244.800,98.000 244.800 C 98.343 244.800,98.883 244.440,99.200 244.000 C 99.517 243.560,100.097 243.200,100.488 243.200 C 100.880 243.200,101.200 243.020,101.200 242.800 C 101.200 242.580,101.470 242.400,101.800 242.400 C 102.130 242.400,102.400 242.220,102.400 242.000 C 102.400 241.780,102.589 241.600,102.819 241.600 C 103.228 241.600,107.602 238.938,108.000 238.447 C 109.016 237.193,109.806 237.353,113.047 239.465 C 114.849 240.639,116.533 241.600,116.790 241.600 M155.200 280.847 C 155.200 282.149,155.379 283.200,155.600 283.200 C 155.820 283.200,156.000 284.102,156.000 285.205 C 156.000 286.308,156.224 287.569,156.497 288.007 C 156.863 288.593,156.879 288.985,156.557 289.496 C 156.222 290.027,156.292 290.496,156.860 291.507 C 157.294 292.280,157.600 293.618,157.600 294.745 C 157.600 295.802,157.735 296.801,157.900 296.965 C 158.065 297.128,158.434 299.183,158.721 301.531 C 159.008 303.879,159.374 306.835,159.536 308.100 C 159.761 309.861,159.709 310.400,159.315 310.400 C 159.032 310.400,158.800 310.238,158.800 310.040 C 158.800 309.841,157.991 309.346,157.001 308.940 C 156.012 308.533,155.202 308.065,155.201 307.900 C 155.201 307.735,154.840 307.600,154.400 307.600 C 153.960 307.600,153.600 307.420,153.600 307.200 C 153.600 306.980,153.240 306.800,152.800 306.800 C 152.360 306.800,152.000 306.620,152.000 306.400 C 152.000 306.180,151.680 306.000,151.288 306.000 C 150.897 306.000,150.317 305.640,150.000 305.200 C 149.683 304.760,149.103 304.400,148.712 304.400 C 148.320 304.400,148.000 304.220,148.000 304.000 C 148.000 303.780,147.640 303.600,147.200 303.600 C 146.760 303.600,146.400 303.420,146.400 303.200 C 146.400 302.980,146.040 302.800,145.600 302.800 C 145.160 302.800,144.800 302.620,144.800 302.400 C 144.800 302.180,144.440 302.000,144.000 302.000 C 143.560 302.000,143.200 301.820,143.200 301.600 C 143.200 301.380,142.880 301.200,142.488 301.200 C 142.097 301.200,141.517 300.840,141.200 300.400 C 140.883 299.960,140.303 299.600,139.912 299.600 C 139.520 299.600,139.200 299.454,139.200 299.275 C 139.200 299.096,138.570 298.702,137.800 298.400 C 137.030 298.098,136.400 297.704,136.400 297.525 C 136.400 297.346,136.040 297.200,135.600 297.200 C 135.160 297.200,134.800 297.020,134.800 296.800 C 134.800 296.580,134.440 296.400,134.000 296.400 C 133.560 296.400,133.200 296.257,133.200 296.081 C 133.200 295.906,131.805 295.054,130.100 294.188 C 128.198 293.221,127.270 292.560,127.700 292.477 C 128.085 292.402,128.400 292.175,128.400 291.971 C 128.400 291.767,128.738 291.600,129.151 291.600 C 129.564 291.600,130.126 291.330,130.400 291.000 C 130.674 290.670,131.221 290.400,131.616 290.400 C 132.010 290.400,132.393 290.258,132.467 290.085 C 132.540 289.912,133.590 289.281,134.800 288.684 C 137.278 287.459,139.301 286.314,139.600 285.968 C 139.710 285.840,140.385 285.481,141.100 285.170 C 141.815 284.859,142.400 284.469,142.400 284.302 C 142.400 284.136,142.760 284.000,143.200 284.000 C 143.640 284.000,144.000 283.820,144.000 283.600 C 144.000 283.380,144.360 283.200,144.800 283.200 C 145.240 283.200,145.600 283.020,145.600 282.800 C 145.600 282.580,145.836 282.400,146.125 282.400 C 146.413 282.400,147.036 282.040,147.508 281.600 C 147.980 281.160,148.644 280.800,148.983 280.800 C 149.322 280.800,149.600 280.620,149.600 280.400 C 149.600 280.180,149.960 280.000,150.400 280.000 C 150.840 280.000,151.200 279.820,151.200 279.600 C 151.200 279.380,151.483 279.200,151.829 279.200 C 152.174 279.200,152.711 278.946,153.022 278.636 C 154.279 277.378,155.200 278.313,155.200 280.847 M66.800 278.800 C 66.800 279.020,67.160 279.200,67.600 279.200 C 68.040 279.200,68.400 279.380,68.400 279.600 C 68.400 279.820,68.760 280.000,69.200 280.000 C 69.640 280.000,70.000 280.180,70.000 280.400 C 70.000 280.620,70.278 280.800,70.617 280.800 C 70.956 280.800,71.620 281.160,72.092 281.600 C 72.564 282.040,73.187 282.400,73.475 282.400 C 73.764 282.400,74.000 282.591,74.000 282.824 C 74.000 283.057,74.165 283.145,74.368 283.020 C 74.570 282.895,74.975 283.030,75.268 283.321 C 75.560 283.611,76.385 284.107,77.100 284.422 C 77.815 284.737,78.400 285.131,78.400 285.298 C 78.400 285.464,78.760 285.600,79.200 285.600 C 79.640 285.600,80.001 285.735,80.003 285.900 C 80.005 286.065,80.410 286.398,80.903 286.640 C 83.311 287.822,85.413 289.030,85.533 289.300 C 85.607 289.465,86.012 289.600,86.433 289.600 C 86.855 289.600,87.200 289.780,87.200 290.000 C 87.200 290.220,87.560 290.400,88.000 290.400 C 88.440 290.400,88.800 290.566,88.800 290.768 C 88.800 290.971,89.340 291.255,90.000 291.400 C 90.660 291.545,91.200 291.816,91.200 292.002 C 91.200 292.189,91.515 292.404,91.900 292.480 C 92.542 292.607,91.696 293.135,87.303 295.348 C 86.810 295.597,86.405 295.935,86.403 296.100 C 86.401 296.265,86.040 296.400,85.600 296.400 C 85.160 296.400,84.800 296.580,84.800 296.800 C 84.800 297.020,84.440 297.200,84.000 297.200 C 83.560 297.200,83.200 297.380,83.200 297.600 C 83.200 297.820,82.840 298.000,82.400 298.000 C 81.960 298.000,81.600 298.159,81.600 298.353 C 81.600 298.548,81.285 298.807,80.900 298.929 C 80.153 299.166,77.933 300.446,77.600 300.832 C 77.490 300.960,76.815 301.319,76.100 301.630 C 75.385 301.941,74.800 302.331,74.800 302.498 C 74.800 302.664,74.440 302.800,74.000 302.800 C 73.560 302.800,73.200 302.980,73.200 303.200 C 73.200 303.420,72.840 303.600,72.400 303.600 C 71.960 303.600,71.600 303.780,71.600 304.000 C 71.600 304.220,71.364 304.400,71.075 304.400 C 70.787 304.400,70.164 304.760,69.692 305.200 C 69.220 305.640,68.556 306.000,68.217 306.000 C 67.878 306.000,67.600 306.180,67.600 306.400 C 67.600 306.620,67.240 306.800,66.800 306.800 C 66.360 306.800,66.000 306.980,66.000 307.200 C 66.000 307.420,65.640 307.600,65.200 307.600 C 64.760 307.600,64.400 307.780,64.400 308.000 C 64.400 308.220,64.126 308.400,63.792 308.400 C 63.458 308.400,62.471 308.850,61.600 309.400 C 59.544 310.698,59.600 310.726,59.600 308.400 C 59.600 307.300,59.780 306.400,60.000 306.400 C 60.220 306.400,60.400 305.410,60.400 304.200 C 60.400 302.990,60.580 302.000,60.800 302.000 C 61.022 302.000,61.200 300.933,61.200 299.600 C 61.200 298.267,61.378 297.200,61.600 297.200 C 61.822 297.200,62.000 296.133,62.000 294.800 C 62.000 293.467,62.178 292.400,62.400 292.400 C 62.620 292.400,62.800 291.410,62.800 290.200 C 62.800 288.990,62.980 288.000,63.200 288.000 C 63.420 288.000,63.600 287.021,63.600 285.824 C 63.600 284.627,63.780 283.536,64.000 283.400 C 64.220 283.264,64.400 282.299,64.400 281.256 C 64.400 280.213,64.616 279.144,64.880 278.880 C 65.461 278.299,66.800 278.243,66.800 278.800 M111.500 303.230 C 112.215 303.541,112.800 303.931,112.800 304.098 C 112.800 304.264,113.145 304.400,113.567 304.400 C 113.988 304.400,114.393 304.540,114.467 304.710 C 114.660 305.158,120.311 308.000,121.010 308.000 C 121.335 308.000,121.600 308.180,121.600 308.400 C 121.600 308.620,121.878 308.800,122.217 308.800 C 122.556 308.800,123.220 309.160,123.692 309.600 C 124.164 310.040,124.787 310.400,125.075 310.400 C 125.364 310.400,125.600 310.546,125.600 310.725 C 125.600 310.904,126.230 311.298,127.000 311.600 C 127.770 311.902,128.400 312.296,128.400 312.475 C 128.400 312.654,128.760 312.800,129.200 312.800 C 129.640 312.800,130.000 312.980,130.000 313.200 C 130.000 313.420,130.345 313.600,130.767 313.600 C 131.188 313.600,131.593 313.735,131.667 313.900 C 131.834 314.276,133.964 315.575,134.900 315.871 C 135.285 315.993,135.600 316.252,135.600 316.447 C 135.600 316.641,135.960 316.800,136.400 316.800 C 136.840 316.800,137.200 316.980,137.200 317.200 C 137.200 317.420,137.560 317.600,138.000 317.600 C 138.440 317.600,138.800 317.780,138.800 318.000 C 138.800 318.220,139.145 318.400,139.567 318.400 C 139.988 318.400,140.393 318.541,140.467 318.713 C 140.634 319.106,142.874 320.438,147.014 322.604 C 148.782 323.529,150.582 324.480,151.014 324.717 C 151.446 324.954,152.385 325.383,153.100 325.671 C 153.815 325.960,154.400 326.331,154.400 326.498 C 154.400 326.664,154.760 326.800,155.200 326.800 C 155.640 326.800,156.000 326.980,156.000 327.200 C 156.000 327.420,156.278 327.600,156.617 327.600 C 156.956 327.600,157.620 327.960,158.092 328.400 C 158.564 328.840,159.187 329.200,159.475 329.200 C 159.764 329.200,160.000 329.336,160.000 329.502 C 160.000 329.669,160.585 330.063,161.300 330.378 C 162.901 331.084,163.600 331.750,163.600 332.571 C 163.600 332.917,163.780 333.200,164.000 333.200 C 164.220 333.200,164.400 334.179,164.400 335.376 C 164.400 336.573,164.580 337.664,164.800 337.800 C 165.020 337.936,165.200 339.027,165.200 340.224 C 165.200 341.568,165.372 342.400,165.650 342.400 C 165.951 342.400,166.038 343.138,165.914 344.637 C 165.782 346.228,165.876 346.931,166.241 347.071 C 166.571 347.198,166.737 347.971,166.708 349.245 C 166.683 350.333,166.874 351.434,167.132 351.692 C 167.389 351.949,167.600 353.013,167.600 354.056 C 167.600 355.099,167.780 356.064,168.000 356.200 C 168.220 356.336,168.400 357.337,168.400 358.424 C 168.400 359.511,168.580 360.400,168.800 360.400 C 169.022 360.400,169.200 361.467,169.200 362.800 C 169.200 364.133,169.378 365.200,169.600 365.200 C 169.822 365.200,170.000 366.267,170.000 367.600 C 170.000 368.933,170.178 370.000,170.400 370.000 C 170.620 370.000,170.800 370.975,170.800 372.167 C 170.800 373.526,170.986 374.409,171.300 374.535 C 171.575 374.646,144.125 374.751,110.300 374.768 L 48.800 374.800 48.800 372.824 C 48.800 371.737,48.980 370.736,49.200 370.600 C 49.420 370.464,49.600 369.373,49.600 368.176 C 49.600 366.979,49.780 366.000,50.000 366.000 C 50.222 366.000,50.400 364.933,50.400 363.600 C 50.400 362.267,50.578 361.200,50.800 361.200 C 51.020 361.200,51.200 360.221,51.200 359.024 C 51.200 357.827,51.380 356.736,51.600 356.600 C 51.820 356.464,52.000 355.474,52.000 354.400 C 52.000 353.326,52.180 352.336,52.400 352.200 C 52.620 352.064,52.800 350.984,52.800 349.800 C 52.800 348.616,52.980 347.536,53.200 347.400 C 53.420 347.264,53.600 346.274,53.600 345.200 C 53.600 344.126,53.780 343.136,54.000 343.000 C 54.220 342.864,54.400 341.874,54.400 340.800 C 54.400 339.726,54.580 338.736,54.800 338.600 C 55.020 338.464,55.200 337.409,55.200 336.256 C 55.200 335.103,55.365 333.989,55.566 333.780 C 55.768 333.571,55.993 332.950,56.066 332.400 C 56.142 331.831,56.588 331.230,57.100 331.005 C 57.595 330.788,58.000 330.473,58.000 330.305 C 58.000 330.137,58.360 330.000,58.800 330.000 C 59.240 330.000,59.600 329.820,59.600 329.600 C 59.600 329.380,59.920 329.200,60.312 329.200 C 60.703 329.200,61.283 328.840,61.600 328.400 C 61.917 327.960,62.497 327.600,62.888 327.600 C 63.280 327.600,63.600 327.420,63.600 327.200 C 63.600 326.980,63.960 326.800,64.400 326.800 C 64.840 326.800,65.200 326.620,65.200 326.400 C 65.200 326.180,65.560 326.000,66.000 326.000 C 66.440 326.000,66.800 325.820,66.800 325.600 C 66.800 325.380,67.074 325.200,67.408 325.200 C 67.742 325.200,68.687 324.789,69.508 324.288 C 70.329 323.786,71.900 322.931,73.000 322.388 C 74.100 321.844,75.060 321.265,75.133 321.100 C 75.207 320.935,75.612 320.800,76.033 320.800 C 76.455 320.800,76.800 320.620,76.800 320.400 C 76.800 320.180,77.036 320.000,77.325 320.000 C 77.613 320.000,78.236 319.640,78.708 319.200 C 79.180 318.760,79.844 318.400,80.183 318.400 C 80.522 318.400,80.800 318.220,80.800 318.000 C 80.800 317.780,81.160 317.600,81.600 317.600 C 82.040 317.600,82.400 317.420,82.400 317.200 C 82.400 316.980,82.760 316.800,83.200 316.800 C 83.640 316.800,84.000 316.620,84.000 316.400 C 84.000 316.180,84.360 316.000,84.800 316.000 C 85.240 316.000,85.600 315.820,85.600 315.600 C 85.600 315.380,85.836 315.200,86.125 315.200 C 86.413 315.200,87.036 314.840,87.508 314.400 C 87.980 313.960,88.644 313.600,88.983 313.600 C 89.322 313.600,89.600 313.454,89.600 313.275 C 89.600 313.096,90.230 312.702,91.000 312.400 C 91.770 312.098,92.400 311.704,92.400 311.525 C 92.400 311.346,92.760 311.200,93.200 311.200 C 93.640 311.200,94.000 311.020,94.000 310.800 C 94.000 310.580,94.320 310.400,94.712 310.400 C 95.103 310.400,95.683 310.040,96.000 309.600 C 96.317 309.160,96.897 308.800,97.288 308.800 C 97.680 308.800,98.000 308.620,98.000 308.400 C 98.000 308.180,98.289 308.000,98.642 308.000 C 99.260 308.000,104.792 305.286,105.200 304.783 C 105.310 304.647,105.985 304.281,106.700 303.970 C 107.415 303.659,108.000 303.269,108.000 303.102 C 108.000 302.936,108.360 302.800,108.800 302.800 C 109.240 302.800,109.603 302.575,109.606 302.300 C 109.610 301.961,109.707 301.939,109.906 302.232 C 110.068 302.470,110.785 302.919,111.500 303.230 " stroke="none" fill="#bc2434" fill-rule="evenodd"></path><path id="path4" d="M112.767 82.772 C 109.849 83.342,106.625 86.139,105.156 89.374 C 104.295 91.269,104.013 115.591,104.818 118.490 C 106.315 123.881,109.825 125.765,118.667 125.926 L 125.600 126.052 125.600 104.226 L 125.600 82.400 119.900 82.446 C 116.765 82.471,113.555 82.618,112.767 82.772 " stroke="none" fill="#4c545c" fill-rule="evenodd"></path></g></svg>