<svg id="svg" version="1.1" xmlns="http://www.w3.org/2000/svg" xmlns:xlink="http://www.w3.org/1999/xlink" width="400" height="400" viewBox="0, 0, 400,400"><g id="svgg"><path id="path0" d="M179.297 78.379 C 178.115 78.440,172.754 78.682,167.383 78.917 C 137.722 80.218,115.853 92.528,109.215 111.659 C 107.435 116.788,107.439 117.754,109.225 114.258 C 115.190 102.583,129.055 93.551,141.380 93.310 C 142.576 93.286,143.742 93.118,143.971 92.935 C 148.031 89.690,187.887 92.910,224.414 99.435 C 251.528 104.278,255.170 105.251,262.727 109.668 C 277.479 118.293,283.792 141.558,277.965 165.817 C 277.655 167.104,277.433 168.172,277.471 168.190 C 282.919 170.742,289.309 176.117,291.718 180.176 C 292.575 181.619,292.744 181.552,293.663 179.395 C 302.448 158.776,300.051 118.777,289.272 106.145 C 280.339 95.675,270.621 90.768,249.654 86.141 C 235.851 83.094,217.785 80.291,205.664 79.314 C 200.535 78.901,183.114 78.083,182.031 78.204 C 181.709 78.240,180.479 78.319,179.297 78.379 M147.852 99.656 C 123.300 101.728,113.369 111.597,108.590 138.672 C 107.351 145.686,107.991 153.023,110.003 154.887 C 110.513 155.360,111.190 156.369,111.508 157.130 C 112.249 158.902,115.325 161.591,118.575 163.305 L 121.121 164.648 122.944 162.500 C 130.873 153.157,139.202 149.006,144.987 151.515 C 148.772 153.157,149.527 156.030,145.911 155.032 C 142.743 154.157,139.485 154.714,136.491 156.641 C 133.981 158.257,126.953 164.823,126.953 165.552 C 126.953 166.077,152.790 171.455,161.040 172.648 C 164.212 173.106,167.425 173.740,168.182 174.056 C 173.815 176.410,207.792 180.574,230.557 181.701 C 241.207 182.229,240.879 182.269,240.013 180.534 C 239.675 179.856,238.967 177.691,238.441 175.724 C 235.765 165.727,231.288 161.719,222.799 161.719 C 219.033 161.719,217.761 160.804,218.690 158.765 C 220.698 154.357,234.504 157.218,239.139 163.003 C 243.122 167.974,246.101 178.692,244.152 181.041 C 243.311 182.055,243.988 182.229,248.582 182.180 C 259.923 182.058,265.733 178.652,268.303 170.617 C 273.154 155.452,272.373 135.345,266.558 125.689 C 261.105 116.632,255.527 113.477,239.453 110.353 C 196.552 102.018,164.381 98.261,147.852 99.656 M100.391 156.700 C 86.908 164.381,76.228 191.289,77.080 215.430 C 77.862 237.572,88.268 255.859,100.087 255.859 C 108.400 255.859,111.652 246.830,108.458 232.617 C 104.312 214.164,102.954 192.398,104.460 168.497 C 105.312 154.984,104.998 154.075,100.391 156.700 M272.979 178.889 C 272.005 180.463,270.751 181.777,269.073 182.982 C 265.523 185.531,265.591 185.437,263.586 190.549 C 253.941 215.142,250.314 247.132,255.907 258.284 C 261.856 270.144,277.523 267.867,286.872 253.783 C 301.038 232.443,296.452 194.042,277.931 178.908 C 274.445 176.059,274.730 176.060,272.979 178.889 M129.199 224.494 C 129.683 224.588,130.474 224.588,130.957 224.494 C 131.440 224.401,131.045 224.325,130.078 224.325 C 129.111 224.325,128.716 224.401,129.199 224.494 M175.077 283.150 C 173.827 286.737,185.903 290.867,190.121 288.295 C 191.277 287.590,193.263 284.539,192.840 284.116 C 192.739 284.015,190.938 283.770,188.837 283.571 C 185.205 283.228,181.264 282.758,177.300 282.195 C 175.550 281.947,175.487 281.974,175.077 283.150 M218.304 282.217 C 217.888 282.633,209.610 283.632,204.387 283.897 L 198.813 284.180 200.587 286.206 C 206.080 292.479,212.159 291.780,217.244 284.291 C 218.567 282.343,218.974 281.547,218.304 282.217 " stroke="none" fill="#29b150" fill-rule="evenodd"></path><path id="path1" d="M0.000 200.000 L 0.000 400.000 60.892 400.000 L 121.785 400.000 122.056 397.754 C 126.122 364.112,145.292 313.187,164.923 283.880 C 166.448 281.603,167.048 280.401,166.714 280.293 C 166.437 280.203,164.301 279.665,161.966 279.096 C 143.536 274.603,126.865 265.187,117.143 253.780 L 114.656 250.862 113.379 253.252 C 103.020 272.640,78.719 258.063,72.669 228.833 C 66.754 200.254,78.835 162.980,97.182 153.201 L 99.457 151.989 99.120 148.748 C 98.778 145.454,99.264 132.968,100.045 125.007 C 102.498 99.972,115.366 84.633,141.016 76.167 C 165.397 68.119,219.605 70.702,261.328 81.899 C 285.617 88.417,298.720 99.198,303.144 116.302 C 309.753 141.863,307.844 168.937,298.217 186.151 L 296.824 188.643 298.185 192.075 C 310.997 224.374,301.002 261.150,276.777 270.848 C 269.943 273.583,261.176 272.546,255.453 268.324 C 254.972 267.970,254.344 268.208,252.328 269.511 C 246.402 273.342,234.410 278.589,228.221 280.060 C 225.560 280.692,225.565 280.675,227.090 284.040 C 228.697 287.584,230.268 292.776,234.521 308.594 C 242.128 336.887,243.573 343.016,250.367 375.781 L 255.348 399.805 327.674 399.903 L 400.000 400.002 400.000 200.001 L 400.000 0.000 200.000 0.000 L 0.000 0.000 0.000 200.000 M226.563 187.098 C 226.885 187.312,227.749 187.491,228.483 187.494 C 230.234 187.502,229.922 187.281,227.734 186.963 C 226.506 186.785,226.153 186.825,226.563 187.098 M118.530 190.332 L 117.383 191.602 118.652 190.454 C 119.836 189.385,120.101 189.063,119.800 189.063 C 119.732 189.063,119.161 189.634,118.530 190.332 M110.664 197.266 C 110.664 198.447,110.737 198.931,110.827 198.340 C 110.916 197.749,110.916 196.782,110.827 196.191 C 110.737 195.601,110.664 196.084,110.664 197.266 M245.438 211.719 C 245.438 213.115,245.508 213.687,245.595 212.988 C 245.682 212.290,245.682 211.147,245.595 210.449 C 245.508 209.751,245.438 210.322,245.438 211.719 M207.547 218.750 C 207.547 220.146,207.618 220.718,207.704 220.020 C 207.791 219.321,207.791 218.179,207.704 217.480 C 207.618 216.782,207.547 217.354,207.547 218.750 M222.949 237.783 C 223.647 237.869,224.790 237.869,225.488 237.783 C 226.187 237.696,225.615 237.625,224.219 237.625 C 222.822 237.625,222.251 237.696,222.949 237.783 M246.605 243.945 C 246.608 245.234,246.681 245.715,246.767 245.013 C 246.854 244.310,246.853 243.256,246.763 242.669 C 246.674 242.082,246.603 242.656,246.605 243.945 M129.297 246.289 C 130.464 247.471,131.507 248.438,131.614 248.438 C 131.721 248.438,130.854 247.471,129.688 246.289 C 128.521 245.107,127.478 244.141,127.370 244.141 C 127.263 244.141,128.130 245.107,129.297 246.289 M183.301 258.863 C 183.677 258.961,184.292 258.961,184.668 258.863 C 185.044 258.765,184.736 258.684,183.984 258.684 C 183.232 258.684,182.925 258.765,183.301 258.863 " stroke="none" fill="#fbdb6c" fill-rule="evenodd"></path><path id="path2" d="M166.602 72.090 C 133.559 73.863,111.322 86.846,103.654 108.843 C 100.266 118.564,98.130 138.583,99.325 149.414 L 99.627 152.148 97.763 153.009 C 92.165 155.594,83.124 166.353,79.047 175.281 C 66.085 203.668,69.596 240.466,86.748 255.988 C 96.179 264.523,108.490 263.157,113.447 253.025 L 114.490 250.893 120.233 256.622 C 131.301 267.664,144.538 274.710,162.500 279.120 C 164.971 279.727,167.064 280.277,167.151 280.342 C 167.239 280.408,166.308 281.951,165.084 283.773 C 145.388 313.069,127.250 361.275,122.046 398.155 L 121.783 400.020 127.914 399.912 L 134.044 399.805 136.509 390.039 C 142.460 366.465,153.822 330.255,154.923 331.356 C 155.042 331.475,155.295 336.817,155.484 343.227 C 155.984 360.166,155.403 359.200,166.016 360.760 C 178.680 362.621,179.411 362.253,181.201 353.125 C 184.743 335.057,185.081 328.180,182.525 326.169 C 181.013 324.979,161.111 325.606,158.655 326.921 C 157.721 327.420,156.250 327.481,156.250 327.020 C 156.250 325.849,164.962 305.316,169.808 295.067 L 172.787 288.767 174.577 290.038 C 181.776 295.151,189.793 295.480,194.421 290.853 L 196.460 288.815 198.328 290.717 C 204.861 297.369,214.129 296.661,219.791 289.078 C 220.748 287.796,221.349 287.281,221.518 287.599 C 222.625 289.679,226.838 316.578,231.446 350.977 C 234.255 371.951,236.507 386.994,238.099 395.418 C 238.414 397.087,238.672 398.801,238.672 399.227 C 238.672 399.973,238.960 400.000,246.875 400.000 C 253.787 400.000,255.078 399.911,255.078 399.433 C 255.078 398.616,246.391 356.721,244.307 347.485 C 239.476 326.081,229.766 290.324,227.083 284.061 C 226.318 282.277,225.757 280.769,225.835 280.710 C 225.913 280.651,227.383 280.197,229.102 279.702 C 236.478 277.575,246.588 273.086,252.245 269.427 L 254.910 267.702 256.837 269.004 C 271.224 278.721,292.484 266.546,299.913 244.336 C 305.421 227.872,304.869 209.269,298.381 192.675 C 296.969 189.065,296.831 188.442,297.278 187.730 C 310.411 166.796,310.059 120.034,296.636 102.471 C 287.165 90.080,272.882 83.553,242.578 77.769 C 213.266 72.175,193.103 70.668,166.602 72.090 M191.602 78.522 C 208.627 79.249,218.888 80.372,234.615 83.233 C 268.132 89.329,278.706 93.761,289.272 106.145 C 300.051 118.777,302.448 158.776,293.663 179.395 C 292.744 181.552,292.575 181.619,291.718 180.176 C 289.309 176.117,282.919 170.742,277.471 168.190 C 277.433 168.172,277.655 167.104,277.965 165.817 C 283.792 141.558,277.479 118.293,262.727 109.668 C 255.170 105.251,251.528 104.278,224.414 99.435 C 187.887 92.910,148.031 89.690,143.971 92.935 C 143.742 93.118,142.576 93.286,141.380 93.310 C 127.974 93.572,112.838 104.289,108.007 116.940 C 106.651 120.490,107.012 118.386,108.591 113.533 C 112.732 100.803,118.902 94.226,133.387 87.101 C 145.503 81.141,151.924 79.595,167.383 78.917 C 178.379 78.435,181.186 78.299,182.031 78.204 C 182.354 78.168,186.660 78.311,191.602 78.522 M162.891 99.615 C 185.565 100.996,206.157 103.884,239.453 110.353 C 255.527 113.477,261.105 116.632,266.558 125.689 C 272.373 135.345,273.154 155.452,268.303 170.617 C 265.733 178.652,259.923 182.058,248.582 182.180 C 243.988 182.229,243.311 182.055,244.152 181.041 C 246.101 178.692,243.122 167.974,239.139 163.003 C 234.504 157.218,220.698 154.357,218.690 158.765 C 217.761 160.804,219.033 161.719,222.799 161.719 C 231.288 161.719,235.765 165.727,238.441 175.724 C 238.967 177.691,239.675 179.856,240.013 180.534 C 240.879 182.269,241.207 182.229,230.557 181.701 C 207.792 180.574,173.815 176.410,168.182 174.056 C 167.425 173.740,164.212 173.106,161.040 172.648 C 152.790 171.455,126.953 166.077,126.953 165.552 C 126.953 164.823,133.981 158.257,136.491 156.641 C 139.485 154.714,142.743 154.157,145.911 155.032 C 149.527 156.030,148.772 153.157,144.987 151.515 C 139.202 149.006,130.873 153.157,122.944 162.500 L 121.121 164.648 118.575 163.305 C 115.325 161.591,112.249 158.902,111.508 157.130 C 111.190 156.369,110.513 155.360,110.003 154.887 C 106.560 151.697,107.697 136.718,112.370 123.710 C 119.103 104.964,134.006 97.856,162.891 99.615 M104.433 156.876 C 105.065 158.203,105.067 158.871,104.460 168.497 C 102.954 192.398,104.312 214.164,108.458 232.617 C 115.658 264.655,87.464 263.196,79.259 231.107 C 73.025 206.723,80.000 176.505,95.508 160.709 C 100.229 155.901,103.332 154.568,104.433 156.876 M117.480 168.779 C 118.202 169.093,118.750 169.619,118.750 169.999 C 118.750 172.337,120.265 173.226,121.967 171.887 C 122.941 171.120,122.955 171.121,125.203 171.911 C 131.042 173.963,137.933 175.254,151.038 176.753 C 155.731 177.289,162.734 178.349,166.602 179.108 C 194.344 184.554,235.533 188.637,253.783 187.750 L 258.542 187.519 257.400 190.287 C 248.293 212.372,244.206 244.598,248.815 257.974 C 249.253 259.245,249.567 260.322,249.513 260.368 C 238.636 269.624,209.541 275.322,189.453 272.130 C 139.743 264.231,113.065 241.071,110.881 203.920 C 110.453 196.642,110.656 168.383,111.151 166.355 L 111.401 165.327 113.806 166.777 C 115.129 167.575,116.782 168.475,117.480 168.779 M277.931 178.908 C 296.452 194.042,301.038 232.443,286.872 253.783 C 277.523 267.867,261.856 270.144,255.907 258.284 C 250.314 247.132,253.941 215.142,263.586 190.549 C 265.591 185.437,265.523 185.531,269.073 182.982 C 270.751 181.777,272.005 180.463,272.979 178.889 C 274.730 176.060,274.445 176.059,277.931 178.908 M133.508 180.685 C 126.806 182.310,117.680 190.075,114.174 197.136 L 112.305 200.902 112.305 205.272 L 112.305 209.641 114.151 213.362 C 118.049 221.216,122.297 224.023,130.286 224.023 L 135.022 224.023 138.350 222.374 C 143.752 219.696,146.803 216.049,151.834 206.250 C 158.922 192.446,147.977 177.177,133.508 180.685 M223.707 188.425 C 214.983 192.114,207.813 205.868,207.813 218.914 C 207.813 242.219,238.000 244.124,244.207 221.211 C 249.224 202.687,236.837 182.875,223.707 188.425 M153.739 237.723 C 151.436 240.026,156.363 248.176,162.630 252.432 C 175.264 261.012,194.954 260.498,204.102 251.350 C 209.705 245.747,207.849 242.122,201.478 246.225 C 187.138 255.460,165.636 251.611,156.134 238.107 C 155.328 236.962,154.615 236.847,153.739 237.723 M182.060 282.831 C 183.687 283.039,186.737 283.373,188.837 283.571 C 193.387 284.002,193.231 283.893,192.199 285.915 C 189.983 290.259,181.735 290.161,176.323 285.727 C 173.899 283.740,174.438 281.789,177.300 282.195 C 178.291 282.336,180.433 282.622,182.060 282.831 M217.244 284.291 C 212.159 291.780,206.080 292.479,200.587 286.206 L 198.813 284.180 204.387 283.897 C 209.610 283.632,217.888 282.633,218.304 282.217 C 218.974 281.547,218.567 282.343,217.244 284.291 M192.794 304.257 C 191.921 305.945,191.499 308.209,190.816 314.873 C 190.476 318.187,189.243 329.248,188.075 339.453 C 185.267 364.002,182.813 391.458,182.813 398.316 L 182.813 400.000 184.535 400.000 L 186.258 400.000 186.497 396.777 C 186.628 395.005,187.086 388.721,187.513 382.813 C 188.493 369.260,189.169 361.886,190.649 348.633 C 194.929 310.300,195.472 299.079,192.794 304.257 M198.730 325.454 C 198.140 325.670,197.656 325.977,197.656 326.137 C 197.656 326.298,197.108 327.256,196.438 328.267 L 195.221 330.106 194.825 344.679 C 194.298 364.111,192.857 362.259,208.842 362.686 C 223.204 363.070,222.231 363.946,223.238 349.714 C 223.553 345.252,224.008 339.452,224.247 336.824 C 224.774 331.042,224.371 329.999,220.976 328.346 C 216.756 326.293,201.770 324.344,198.730 325.454 M176.872 330.661 C 177.314 331.053,167.539 344.141,166.804 344.141 C 166.294 344.141,160.938 331.475,160.938 330.271 C 160.938 330.177,176.762 330.564,176.872 330.661 M209.766 331.893 C 212.451 332.422,214.809 333.015,215.006 333.211 C 215.739 333.941,211.731 346.154,209.520 349.926 L 208.479 351.702 207.765 350.819 C 206.550 349.319,201.953 333.959,201.953 331.401 C 201.953 330.288,201.458 330.257,209.766 331.893 M178.131 341.870 C 177.660 344.730,176.851 349.160,176.333 351.714 C 175.815 354.268,175.391 356.421,175.391 356.499 C 175.391 356.802,172.493 356.614,168.469 356.050 C 166.153 355.725,163.525 355.364,162.629 355.249 C 160.681 354.999,160.691 355.038,160.355 346.680 L 160.136 341.211 161.359 343.555 C 165.161 350.841,168.326 350.281,175.195 341.105 C 177.129 338.522,178.773 336.467,178.849 336.539 C 178.925 336.611,178.602 339.010,178.131 341.870 M200.194 342.871 C 205.746 360.440,210.683 360.890,217.179 344.420 C 217.670 343.176,218.120 342.210,218.181 342.271 C 218.404 342.497,217.297 358.223,217.040 358.481 C 216.737 358.783,198.577 358.894,198.374 358.594 C 198.198 358.333,198.424 338.281,198.603 338.281 C 198.680 338.281,199.396 340.347,200.194 342.871 " stroke="none" fill="#2b1309" fill-rule="evenodd"></path><path id="path3" d="M119.922 256.836 C 121.306 258.232,122.526 259.375,122.634 259.375 C 122.741 259.375,121.697 258.232,120.313 256.836 C 118.928 255.439,117.708 254.297,117.601 254.297 C 117.493 254.297,118.538 255.439,119.922 256.836 M219.791 289.078 C 214.129 296.661,204.861 297.369,198.328 290.717 L 196.460 288.815 194.421 290.853 C 189.793 295.480,181.776 295.151,174.577 290.038 L 172.787 288.767 169.808 295.067 C 164.962 305.316,156.250 325.849,156.250 327.020 C 156.250 327.481,157.721 327.420,158.655 326.921 C 161.111 325.606,181.013 324.979,182.525 326.169 C 185.081 328.180,184.743 335.057,181.201 353.125 C 179.411 362.253,178.680 362.621,166.016 360.760 C 155.403 359.200,155.984 360.166,155.484 343.227 C 155.295 336.817,155.042 331.475,154.923 331.356 C 153.621 330.054,139.083 377.759,134.212 399.316 C 134.066 399.962,135.416 400.000,158.344 400.000 L 182.630 400.000 183.527 387.207 C 184.723 370.157,185.605 360.827,187.896 341.016 C 188.952 331.885,190.181 320.905,190.628 316.617 C 191.505 308.195,191.888 306.009,192.794 304.257 C 195.472 299.079,194.929 310.300,190.649 348.633 C 189.169 361.886,188.493 369.260,187.513 382.813 C 187.086 388.721,186.628 395.005,186.497 396.777 L 186.258 400.000 212.465 400.000 C 238.322 400.000,238.672 399.990,238.672 399.227 C 238.672 398.801,238.414 397.087,238.099 395.418 C 236.507 386.994,234.255 371.951,231.446 350.977 C 226.838 316.578,222.625 289.679,221.518 287.599 C 221.349 287.281,220.748 287.796,219.791 289.078 M207.813 325.597 C 223.002 327.312,224.990 328.670,224.247 336.824 C 224.008 339.452,223.553 345.252,223.238 349.714 C 222.231 363.946,223.204 363.070,208.842 362.686 C 192.857 362.259,194.298 364.111,194.825 344.679 L 195.221 330.106 196.438 328.267 C 197.108 327.256,197.656 326.298,197.656 326.137 C 197.656 324.995,200.939 324.820,207.813 325.597 M160.938 330.271 C 160.938 331.475,166.294 344.141,166.804 344.141 C 167.539 344.141,177.314 331.053,176.872 330.661 C 176.762 330.564,160.938 330.177,160.938 330.271 M201.953 331.401 C 201.953 333.959,206.550 349.319,207.765 350.819 L 208.479 351.702 209.520 349.926 C 211.731 346.154,215.739 333.941,215.006 333.211 C 214.701 332.907,208.329 331.517,203.418 330.682 C 202.052 330.450,201.953 330.499,201.953 331.401 M175.195 341.105 C 168.326 350.281,165.161 350.841,161.359 343.555 L 160.136 341.211 160.355 346.680 C 160.691 355.038,160.681 354.999,162.629 355.249 C 163.525 355.364,166.153 355.725,168.469 356.050 C 172.493 356.614,175.391 356.802,175.391 356.499 C 175.391 356.421,175.815 354.268,176.333 351.714 C 177.504 345.943,179.034 336.714,178.849 336.539 C 178.773 336.467,177.129 338.522,175.195 341.105 M198.353 348.340 C 198.292 353.872,198.302 358.486,198.374 358.594 C 198.577 358.894,216.737 358.783,217.040 358.481 C 217.297 358.223,218.404 342.497,218.181 342.271 C 218.120 342.210,217.670 343.176,217.179 344.420 C 210.683 360.890,205.746 360.440,200.194 342.871 C 199.396 340.347,198.680 338.281,198.603 338.281 C 198.526 338.281,198.413 342.808,198.353 348.340 " stroke="none" fill="#f06324" fill-rule="evenodd"></path><path id="path4" d="M111.187 167.480 C 109.872 177.521,110.700 208.077,112.472 214.938 C 120.787 247.133,145.401 265.373,189.281 271.858 C 210.386 274.977,232.618 271.019,247.544 261.485 L 249.581 260.184 248.979 258.742 C 244.133 247.146,247.576 215.446,256.059 193.555 C 257.058 190.977,257.958 188.604,258.059 188.281 C 258.219 187.773,257.119 187.695,249.727 187.695 C 245.043 187.695,238.574 187.574,235.352 187.426 C 230.316 187.194,229.743 187.224,231.278 187.641 C 242.144 190.589,248.528 207.438,244.283 221.965 C 239.154 239.514,216.885 243.657,209.741 228.391 C 203.510 215.074,212.556 191.001,225.013 187.752 C 227.648 187.064,227.028 186.869,221.094 186.517 C 205.484 185.593,182.735 182.509,165.156 178.934 C 161.997 178.292,156.811 177.489,153.632 177.149 C 140.136 175.707,133.385 174.520,125.678 172.232 C 123.270 171.518,122.959 171.502,122.173 172.052 C 120.405 173.291,118.750 172.465,118.750 170.345 C 118.750 169.772,118.169 169.250,116.705 168.508 C 115.580 167.938,114.001 167.056,113.197 166.548 C 111.337 165.375,111.471 165.313,111.187 167.480 M142.695 180.864 C 153.054 184.063,157.433 196.529,151.807 206.804 C 151.091 208.111,149.733 210.583,148.788 212.299 C 140.223 227.854,121.927 228.870,114.356 214.211 C 109.547 204.900,111.953 195.681,121.204 187.978 C 122.754 186.686,124.651 185.097,125.417 184.446 C 130.074 180.494,136.909 179.076,142.695 180.864 M155.841 237.598 C 156.062 237.866,156.954 239.010,157.821 240.140 C 166.070 250.881,188.029 254.615,199.707 247.262 C 200.728 246.619,202.437 245.543,203.505 244.870 C 208.762 241.558,208.628 247.590,203.341 252.244 C 189.826 264.140,162.430 258.997,154.076 242.995 C 152.166 239.335,153.615 234.900,155.841 237.598 " stroke="none" fill="#fbfbfb" fill-rule="evenodd"></path></g></svg>