<svg id="svg" version="1.1" xmlns="http://www.w3.org/2000/svg" xmlns:xlink="http://www.w3.org/1999/xlink" width="400" height="400" viewBox="0, 0, 400,400"><g id="svgg"><path id="path0" d="M190.000 53.464 C 183.869 53.723,169.329 56.076,162.800 57.866 C 155.760 59.796,151.542 61.093,149.400 61.986 C 148.960 62.169,147.970 62.544,147.200 62.820 C 145.472 63.437,143.961 64.056,141.504 65.153 C 140.462 65.619,139.507 66.000,139.382 66.000 C 139.086 66.000,130.826 70.141,128.001 71.706 C 110.605 81.341,94.779 94.867,82.725 110.400 C 80.762 112.930,78.895 115.317,78.578 115.705 C 78.260 116.092,78.000 116.572,78.000 116.771 C 78.000 116.970,77.862 117.193,77.692 117.267 C 76.412 117.822,65.998 135.823,63.846 141.201 C 63.502 142.062,62.838 143.629,62.370 144.683 C 61.158 147.417,60.985 147.857,59.807 151.200 C 59.226 152.850,58.581 154.513,58.375 154.895 C 58.169 155.277,58.000 155.941,58.000 156.371 C 58.000 156.801,57.843 157.250,57.652 157.368 C 57.460 157.486,57.193 158.082,57.059 158.692 C 56.925 159.301,56.344 161.510,55.768 163.600 C 53.865 170.508,52.393 177.868,51.569 184.600 C 50.305 194.919,50.126 213.812,51.221 221.261 C 52.284 228.486,52.539 230.034,53.288 233.800 C 53.726 236.000,54.237 238.430,54.424 239.200 C 54.610 239.970,54.934 241.320,55.143 242.200 C 56.202 246.661,59.482 256.813,60.912 260.052 C 61.239 260.793,61.892 262.263,62.364 263.317 C 62.835 264.371,63.522 265.991,63.891 266.917 C 64.727 269.011,68.174 275.737,70.187 279.200 C 71.018 280.630,72.054 282.430,72.490 283.200 C 72.925 283.970,73.533 284.884,73.841 285.231 C 74.148 285.579,74.400 286.008,74.400 286.184 C 74.400 286.479,79.854 294.341,80.377 294.800 C 80.502 294.910,81.345 295.990,82.250 297.200 C 83.156 298.410,84.463 300.030,85.156 300.800 C 85.848 301.570,86.997 302.964,87.707 303.899 C 92.689 310.445,116.920 331.200,119.580 331.200 C 119.775 331.200,119.993 331.338,120.067 331.508 C 120.538 332.595,141.456 343.600,143.051 343.600 C 143.177 343.600,143.936 343.888,144.740 344.241 C 152.447 347.622,155.610 348.213,158.640 346.838 C 162.480 345.094,162.764 343.586,162.451 326.600 L 162.200 313.000 161.200 313.042 C 160.650 313.065,158.760 313.306,157.000 313.576 C 136.030 316.803,119.141 310.024,112.578 295.746 C 106.329 282.153,102.895 277.386,96.200 273.009 C 87.350 267.224,87.313 262.800,96.115 262.800 C 104.707 262.800,113.151 268.271,119.507 277.955 C 129.274 292.837,140.562 297.468,156.557 293.155 C 157.461 292.911,158.560 292.564,159.000 292.382 C 159.440 292.201,160.478 291.824,161.307 291.544 C 162.874 291.014,163.062 290.657,163.804 286.800 C 164.727 281.999,168.081 275.134,171.047 271.972 L 172.012 270.944 168.106 270.431 C 163.944 269.884,159.097 269.026,156.800 268.428 C 156.030 268.227,154.590 267.860,153.600 267.610 C 150.302 266.781,145.005 265.089,144.620 264.742 C 144.411 264.554,143.992 264.400,143.688 264.400 C 141.652 264.400,130.555 257.960,126.200 254.251 C 119.086 248.191,112.467 238.679,109.603 230.400 C 109.337 229.630,108.975 228.640,108.800 228.200 C 104.636 217.780,102.937 195.429,105.393 183.400 C 105.817 181.325,107.399 175.668,107.966 174.200 C 109.848 169.330,115.540 159.819,118.485 156.625 C 119.262 155.782,119.410 154.393,118.839 153.295 C 116.345 148.495,115.885 133.449,117.981 125.200 C 119.031 121.067,120.893 115.621,121.399 115.201 C 123.155 113.744,135.363 116.036,142.000 119.069 C 148.834 122.191,153.416 124.662,158.607 128.025 L 162.471 130.528 164.935 130.031 C 166.291 129.757,168.120 129.357,169.000 129.142 C 174.094 127.894,179.210 127.144,190.314 126.017 C 201.172 124.916,218.860 126.271,231.400 129.164 C 237.108 130.482,237.957 130.563,238.724 129.869 C 239.130 129.501,239.568 129.200,239.696 129.200 C 239.825 129.200,241.738 128.053,243.948 126.652 C 247.415 124.454,256.335 119.798,259.100 118.743 C 259.595 118.554,260.405 118.238,260.900 118.040 C 263.118 117.154,266.364 116.209,270.506 115.244 C 273.334 114.585,278.211 114.668,278.930 115.387 C 280.002 116.459,281.982 123.319,283.014 129.540 C 283.851 134.582,283.621 145.031,282.581 149.200 C 282.224 150.630,281.837 152.297,281.720 152.905 C 281.603 153.513,281.349 154.108,281.154 154.229 C 280.324 154.741,280.600 155.208,284.644 160.130 C 288.068 164.298,292.276 173.027,293.933 179.400 C 298.245 195.979,295.827 220.374,288.383 235.400 C 283.463 245.331,277.816 251.936,269.477 257.512 C 265.165 260.395,262.681 261.686,255.400 264.827 C 254.500 265.215,248.641 267.012,246.200 267.649 C 242.695 268.563,241.669 268.788,238.400 269.362 C 236.530 269.690,233.442 270.183,231.537 270.457 L 228.075 270.956 229.852 272.978 C 231.666 275.041,234.647 280.518,235.524 283.400 C 237.426 289.646,237.372 288.749,237.418 315.400 C 237.441 329.260,237.597 341.314,237.764 342.186 C 238.686 346.994,243.182 348.709,249.276 346.577 C 252.271 345.530,252.734 345.349,255.260 344.241 C 256.064 343.888,256.823 343.600,256.949 343.600 C 258.544 343.600,279.462 332.595,279.933 331.508 C 280.007 331.338,280.225 331.200,280.420 331.200 C 283.080 331.200,307.311 310.445,312.293 303.899 C 313.003 302.964,314.152 301.570,314.844 300.800 C 315.537 300.030,316.844 298.410,317.750 297.200 C 318.655 295.990,319.498 294.910,319.623 294.800 C 320.146 294.341,325.600 286.479,325.600 286.184 C 325.600 286.008,325.852 285.579,326.159 285.231 C 326.467 284.884,327.075 283.970,327.510 283.200 C 327.946 282.430,328.982 280.630,329.813 279.200 C 331.826 275.737,335.273 269.011,336.109 266.917 C 336.478 265.991,337.144 264.416,337.590 263.417 C 338.035 262.418,338.737 260.835,339.149 259.900 C 339.561 258.965,340.803 255.410,341.908 252.000 C 343.812 246.126,344.425 244.043,345.201 240.800 C 345.386 240.030,345.722 238.680,345.949 237.800 C 349.509 223.974,350.552 201.455,348.432 184.200 C 347.621 177.598,346.086 169.870,344.380 163.800 C 343.886 162.040,343.276 159.844,343.027 158.919 C 342.777 157.995,342.443 157.110,342.286 156.953 C 342.129 156.795,342.000 156.334,342.000 155.928 C 342.000 155.522,341.831 154.877,341.625 154.495 C 341.419 154.113,340.771 152.450,340.186 150.800 C 339.601 149.150,338.889 147.260,338.603 146.600 C 338.317 145.940,337.671 144.410,337.166 143.200 C 335.923 140.218,330.187 128.986,329.197 127.596 C 328.759 126.980,328.400 126.348,328.400 126.190 C 328.400 125.643,321.555 115.632,318.487 111.693 C 302.965 91.759,281.686 74.991,260.300 65.842 C 259.475 65.489,258.215 64.946,257.500 64.636 C 256.785 64.326,254.670 63.503,252.800 62.807 C 250.930 62.111,249.040 61.394,248.600 61.213 C 247.042 60.573,240.943 58.800,240.300 58.800 C 239.941 58.800,239.548 58.640,239.427 58.444 C 239.306 58.249,238.621 57.996,237.904 57.884 C 237.187 57.771,235.340 57.383,233.800 57.021 C 220.409 53.872,206.705 52.759,190.000 53.464 " stroke="none" fill="#141414" fill-rule="evenodd"></path><path id="path1" d="M0.000 200.000 L 0.000 400.000 200.000 400.000 L 400.000 400.000 400.000 200.000 L 400.000 0.000 200.000 0.000 L 0.000 0.000 0.000 200.000 M216.400 53.396 C 219.370 53.723,222.700 54.162,223.800 54.371 C 230.238 55.597,231.986 55.961,237.800 57.289 C 238.900 57.540,239.971 57.893,240.180 58.073 C 240.389 58.253,240.976 58.400,241.485 58.400 C 241.994 58.400,242.723 58.561,243.105 58.757 C 243.487 58.954,245.420 59.619,247.400 60.235 C 249.380 60.851,251.270 61.486,251.600 61.646 C 251.930 61.805,253.280 62.335,254.600 62.822 C 260.308 64.930,272.298 70.852,276.891 73.832 C 277.712 74.365,278.489 74.800,278.620 74.800 C 278.750 74.800,281.448 76.605,284.616 78.811 C 304.222 92.466,320.500 110.345,331.400 130.200 C 333.176 133.434,337.200 141.461,337.200 141.768 C 337.200 141.883,337.635 142.927,338.166 144.088 C 340.226 148.591,344.400 160.600,344.400 162.022 C 344.400 162.424,344.560 162.852,344.756 162.973 C 344.951 163.094,345.202 163.779,345.313 164.496 C 345.424 165.213,345.898 167.420,346.367 169.400 C 347.173 172.808,347.403 173.948,348.348 179.200 C 350.811 192.898,350.832 214.184,348.396 228.200 C 347.150 235.365,345.804 241.570,344.795 244.800 C 344.623 245.350,344.179 246.880,343.809 248.200 C 343.074 250.820,342.506 252.561,341.980 253.800 C 341.793 254.240,341.353 255.487,341.001 256.570 C 340.306 258.713,339.134 261.681,337.988 264.200 C 336.292 267.929,331.455 277.816,331.237 278.000 C 331.107 278.110,330.804 278.560,330.564 279.000 C 326.596 286.282,322.197 292.700,315.335 301.222 C 311.517 305.963,299.920 317.569,295.771 320.801 C 293.880 322.274,290.982 324.620,290.800 324.826 C 290.036 325.689,277.078 334.400,276.558 334.400 C 276.429 334.400,275.830 334.752,275.226 335.181 C 273.816 336.185,262.477 341.985,259.600 343.174 C 258.390 343.674,256.770 344.353,256.000 344.682 C 253.589 345.714,253.054 345.920,251.000 346.604 C 249.900 346.971,248.687 347.435,248.305 347.635 C 247.007 348.317,242.485 348.059,240.818 347.209 C 236.691 345.104,236.632 344.693,236.915 319.890 C 237.189 295.943,236.785 287.870,235.157 284.705 C 234.961 284.323,234.800 283.766,234.800 283.467 C 234.800 283.168,234.564 282.400,234.275 281.761 C 232.469 277.771,231.765 276.412,231.500 276.406 C 231.335 276.403,231.200 276.199,231.200 275.954 C 231.200 275.709,230.292 274.460,229.181 273.178 C 226.988 270.647,227.120 270.000,229.828 270.000 C 231.407 270.000,238.916 268.761,242.000 267.991 C 249.771 266.051,252.753 265.206,254.600 264.419 C 255.040 264.231,256.660 263.570,258.200 262.950 C 271.011 257.790,280.998 248.683,287.126 236.574 C 289.672 231.541,289.970 230.771,292.371 223.000 C 295.024 214.412,296.253 196.361,294.835 186.800 C 293.773 179.642,289.523 167.163,287.909 166.467 C 287.739 166.393,287.600 166.164,287.600 165.958 C 287.600 165.177,284.272 160.489,281.314 157.102 C 280.039 155.643,280.019 155.564,280.555 154.102 C 284.051 144.548,283.844 131.513,280.004 119.400 C 278.639 115.093,278.014 114.806,272.084 115.765 C 262.396 117.332,254.218 120.805,241.902 128.582 L 237.688 131.243 234.344 130.472 C 232.505 130.048,230.010 129.504,228.800 129.264 C 227.590 129.024,226.060 128.717,225.400 128.583 C 216.116 126.699,199.318 125.892,188.269 126.800 C 181.590 127.349,178.029 127.898,169.800 129.646 C 161.555 131.397,162.554 131.450,159.204 129.083 C 157.992 128.226,156.640 127.360,156.200 127.158 C 155.760 126.955,154.860 126.458,154.200 126.052 C 150.581 123.825,145.007 120.972,141.600 119.602 C 138.105 118.197,137.866 118.104,136.600 117.659 C 132.822 116.331,125.384 115.097,123.235 115.441 C 121.474 115.722,121.239 116.068,119.994 120.200 C 116.438 132.006,116.275 143.006,119.502 153.457 L 120.137 155.515 118.120 158.057 C 114.183 163.021,108.800 172.303,108.800 174.128 C 108.800 174.409,108.657 174.811,108.482 175.020 C 108.071 175.510,107.438 177.536,106.676 180.800 C 106.343 182.230,105.833 184.390,105.544 185.600 C 104.858 188.474,104.869 206.570,105.560 210.800 C 106.674 217.620,106.874 218.715,107.458 221.200 C 112.221 241.456,124.428 256.020,142.800 263.369 C 144.890 264.206,146.960 265.034,147.400 265.211 C 147.840 265.388,148.560 265.626,149.000 265.740 C 149.440 265.853,150.790 266.233,152.000 266.584 C 156.656 267.933,161.920 268.965,169.072 269.931 C 173.023 270.464,173.041 270.497,170.860 273.203 C 169.808 274.509,168.690 276.077,168.374 276.688 C 168.059 277.300,167.707 277.890,167.592 278.000 C 166.875 278.688,164.729 285.073,163.994 288.708 C 163.427 291.516,163.343 291.584,158.400 293.218 C 141.833 298.696,129.140 293.869,119.049 278.253 C 113.004 268.899,104.598 263.455,96.200 263.456 C 88.138 263.456,88.349 268.300,96.588 272.408 C 99.255 273.737,108.000 283.477,108.000 285.117 C 108.000 285.346,108.138 285.593,108.307 285.667 C 108.614 285.800,110.501 289.561,111.786 292.600 C 113.370 296.347,114.026 297.554,115.975 300.308 C 119.333 305.055,126.098 309.804,132.000 311.558 C 132.990 311.852,134.250 312.242,134.800 312.425 C 139.738 314.065,152.054 313.944,161.436 312.163 L 162.672 311.928 162.936 318.028 C 163.672 335.035,163.266 342.781,161.505 345.309 C 159.927 347.575,154.199 348.936,151.695 347.641 C 151.313 347.443,149.650 346.795,148.000 346.201 C 146.350 345.607,144.460 344.888,143.800 344.602 C 143.140 344.317,141.610 343.674,140.400 343.174 C 137.523 341.985,126.184 336.185,124.774 335.181 C 124.170 334.752,123.571 334.400,123.442 334.400 C 122.922 334.400,109.964 325.689,109.200 324.826 C 109.018 324.620,106.120 322.274,104.229 320.801 C 100.080 317.569,88.483 305.963,84.665 301.222 C 80.775 296.391,77.420 291.873,74.996 288.200 C 72.465 284.366,71.401 282.606,69.436 279.000 C 69.196 278.560,68.893 278.110,68.763 278.000 C 68.545 277.816,63.708 267.929,62.012 264.200 C 60.866 261.681,59.694 258.713,58.999 256.570 C 58.647 255.487,58.207 254.240,58.020 253.800 C 57.494 252.561,56.926 250.820,56.191 248.200 C 55.821 246.880,55.377 245.350,55.205 244.800 C 54.196 241.570,52.850 235.365,51.604 228.200 C 49.191 214.312,49.200 193.289,51.625 179.700 C 52.718 173.579,54.471 165.464,55.234 163.000 C 55.438 162.340,56.066 160.270,56.630 158.400 C 57.193 156.530,57.807 154.640,57.995 154.200 C 58.182 153.760,58.827 152.050,59.427 150.400 C 60.028 148.750,60.870 146.590,61.299 145.600 C 61.729 144.610,62.231 143.440,62.416 143.000 C 64.211 138.737,69.044 129.374,71.032 126.309 C 71.565 125.488,72.000 124.725,72.000 124.613 C 72.000 124.350,75.627 118.665,75.964 118.400 C 76.104 118.290,76.541 117.693,76.936 117.074 C 77.330 116.454,77.896 115.644,78.193 115.274 C 78.489 114.903,79.948 112.980,81.433 111.000 C 82.918 109.020,84.238 107.310,84.367 107.200 C 84.495 107.090,85.676 105.740,86.992 104.200 C 91.911 98.441,101.849 88.987,107.594 84.600 C 108.746 83.720,109.894 82.812,110.145 82.582 C 113.344 79.642,126.407 71.639,134.200 67.844 C 139.188 65.415,140.268 64.941,146.600 62.396 C 149.822 61.101,154.948 59.393,158.600 58.399 C 162.410 57.360,166.093 56.450,168.200 56.025 C 169.520 55.758,171.230 55.386,172.000 55.198 C 173.947 54.722,178.210 54.060,183.400 53.427 C 189.702 52.658,209.530 52.639,216.400 53.396 " stroke="none" fill="#fbfbfb" fill-rule="evenodd"></path><path id="path2" d="M121.600 249.725 C 121.600 249.794,122.185 250.379,122.900 251.025 L 124.200 252.200 123.025 250.900 C 121.930 249.688,121.600 249.416,121.600 249.725 M125.600 286.600 C 126.346 287.370,127.047 288.000,127.157 288.000 C 127.267 288.000,126.746 287.370,126.000 286.600 C 125.254 285.830,124.553 285.200,124.443 285.200 C 124.333 285.200,124.854 285.830,125.600 286.600 M145.100 295.082 C 145.595 295.178,146.405 295.178,146.900 295.082 C 147.395 294.987,146.990 294.909,146.000 294.909 C 145.010 294.909,144.605 294.987,145.100 295.082 " stroke="none" fill="#848484" fill-rule="evenodd"></path><path id="path3" d="M185.800 53.200 C 183.908 53.460,183.886 53.475,185.400 53.494 C 186.280 53.504,188.080 53.379,189.400 53.215 L 191.800 52.918 189.800 52.922 C 188.700 52.924,186.900 53.049,185.800 53.200 M209.705 53.087 C 210.314 53.179,211.214 53.177,211.705 53.082 C 212.197 52.987,211.700 52.911,210.600 52.914 C 209.500 52.917,209.097 52.995,209.705 53.087 M213.705 53.487 C 214.314 53.579,215.214 53.577,215.705 53.482 C 216.197 53.387,215.700 53.311,214.600 53.314 C 213.500 53.317,213.097 53.395,213.705 53.487 M177.905 54.283 C 178.402 54.379,179.122 54.375,179.505 54.275 C 179.887 54.175,179.480 54.096,178.600 54.101 C 177.720 54.105,177.407 54.187,177.905 54.283 M220.033 54.144 C 220.125 54.223,221.190 54.389,222.400 54.512 C 223.769 54.651,224.298 54.608,223.800 54.396 C 223.033 54.070,219.689 53.847,220.033 54.144 M172.000 55.206 C 171.578 55.482,171.815 55.523,172.800 55.342 C 174.525 55.025,174.851 54.798,173.567 54.806 C 173.035 54.809,172.330 54.989,172.000 55.206 M225.633 54.947 C 225.725 55.028,226.520 55.204,227.400 55.338 C 228.515 55.507,228.758 55.471,228.200 55.219 C 227.432 54.871,225.290 54.644,225.633 54.947 M168.200 56.000 C 167.696 56.217,167.622 56.344,168.000 56.344 C 168.330 56.344,168.960 56.189,169.400 56.000 C 169.904 55.783,169.978 55.656,169.600 55.656 C 169.270 55.656,168.640 55.811,168.200 56.000 M231.000 56.000 C 231.440 56.189,232.070 56.344,232.400 56.344 C 232.778 56.344,232.704 56.217,232.200 56.000 C 231.760 55.811,231.130 55.656,230.800 55.656 C 230.422 55.656,230.496 55.783,231.000 56.000 M164.400 56.800 C 163.596 57.057,163.557 57.123,164.200 57.132 C 164.640 57.138,165.360 56.989,165.800 56.800 C 166.819 56.362,165.768 56.362,164.400 56.800 M160.000 58.018 C 159.562 58.315,159.724 58.352,160.600 58.156 C 162.071 57.827,162.390 57.598,161.367 57.606 C 160.945 57.609,160.330 57.795,160.000 58.018 M247.200 60.333 C 247.530 60.536,248.250 60.824,248.800 60.971 C 249.495 61.157,249.617 61.125,249.200 60.867 C 248.870 60.664,248.150 60.376,247.600 60.229 C 246.905 60.043,246.783 60.075,247.200 60.333 M256.400 63.734 C 256.400 63.837,256.981 64.124,257.691 64.372 C 258.401 64.619,258.806 64.657,258.591 64.456 C 258.135 64.029,256.400 63.458,256.400 63.734 M262.833 66.551 C 263.242 66.921,266.400 68.395,266.400 68.216 C 266.400 67.989,263.381 66.400,262.949 66.400 C 262.794 66.400,262.742 66.468,262.833 66.551 M278.400 74.990 C 278.400 75.094,278.985 75.465,279.700 75.814 L 281.000 76.448 280.000 75.633 C 279.037 74.848,278.400 74.592,278.400 74.990 M118.900 76.446 C 117.537 77.319,117.095 77.906,118.300 77.243 C 119.218 76.739,120.656 75.627,120.400 75.619 C 120.290 75.616,119.615 75.988,118.900 76.446 M112.514 80.737 C 111.367 81.541,110.422 82.335,110.414 82.499 C 110.398 82.834,114.271 80.132,114.623 79.563 C 114.941 79.049,114.840 79.105,112.514 80.737 M289.200 82.133 C 289.200 82.243,289.920 82.903,290.800 83.600 C 291.680 84.297,292.400 84.777,292.400 84.667 C 292.400 84.557,291.680 83.897,290.800 83.200 C 289.920 82.503,289.200 82.023,289.200 82.133 M104.139 87.434 L 102.200 89.268 104.300 87.571 C 105.455 86.638,106.400 85.813,106.400 85.737 C 106.400 85.385,105.938 85.732,104.139 87.434 M297.200 88.525 C 297.200 88.594,297.785 89.179,298.500 89.825 L 299.800 91.000 298.625 89.700 C 297.530 88.488,297.200 88.216,297.200 88.525 M100.254 90.633 C 99.623 91.187,99.174 91.707,99.254 91.787 C 99.335 91.868,99.988 91.409,100.707 90.767 C 101.425 90.125,101.875 89.606,101.706 89.613 C 101.538 89.620,100.884 90.079,100.254 90.633 M305.800 96.800 C 308.433 99.440,310.677 101.600,310.787 101.600 C 310.897 101.600,308.833 99.440,306.200 96.800 C 303.567 94.160,301.323 92.000,301.213 92.000 C 301.103 92.000,303.167 94.160,305.800 96.800 M93.775 96.900 L 92.600 98.200 93.900 97.025 C 95.112 95.930,95.384 95.600,95.075 95.600 C 95.006 95.600,94.421 96.185,93.775 96.900 M87.066 104.027 C 84.039 107.623,84.368 107.606,87.572 104.000 C 88.941 102.460,89.912 101.212,89.730 101.227 C 89.549 101.241,88.350 102.501,87.066 104.027 M313.602 105.202 C 314.746 106.523,315.889 107.730,316.141 107.883 C 316.394 108.037,315.543 106.957,314.251 105.482 C 312.959 104.007,311.816 102.800,311.712 102.800 C 311.607 102.800,312.457 103.881,313.602 105.202 M317.154 109.536 C 317.599 110.160,318.283 110.925,318.674 111.236 C 319.065 111.546,318.788 111.035,318.059 110.100 C 316.574 108.196,315.902 107.777,317.154 109.536 M81.200 111.200 C 80.503 112.080,80.023 112.800,80.133 112.800 C 80.243 112.800,80.903 112.080,81.600 111.200 C 82.297 110.320,82.777 109.600,82.667 109.600 C 82.557 109.600,81.897 110.320,81.200 111.200 M319.940 113.116 C 320.433 113.809,321.044 114.504,321.297 114.660 C 321.550 114.817,321.354 114.377,320.860 113.684 C 320.367 112.991,319.756 112.296,319.503 112.140 C 319.250 111.983,319.446 112.423,319.940 113.116 M277.400 115.489 C 277.840 115.598,278.470 115.892,278.800 116.143 C 279.322 116.540,279.328 116.509,278.851 115.900 C 278.549 115.515,277.919 115.221,277.451 115.246 C 276.643 115.290,276.640 115.303,277.400 115.489 M77.053 116.900 L 76.333 118.200 77.158 117.200 C 77.889 116.313,78.214 115.600,77.886 115.600 C 77.824 115.600,77.449 116.185,77.053 116.900 M128.900 115.876 C 129.285 115.976,129.915 115.976,130.300 115.876 C 130.685 115.775,130.370 115.693,129.600 115.693 C 128.830 115.693,128.515 115.775,128.900 115.876 M270.100 115.876 C 270.485 115.976,271.115 115.976,271.500 115.876 C 271.885 115.775,271.570 115.693,270.800 115.693 C 270.030 115.693,269.715 115.775,270.100 115.876 M265.600 116.818 C 265.162 117.115,265.324 117.152,266.200 116.956 C 267.671 116.627,267.990 116.398,266.967 116.406 C 266.545 116.409,265.930 116.595,265.600 116.818 M323.200 117.600 C 323.670 118.260,324.144 118.800,324.254 118.800 C 324.364 118.800,324.070 118.260,323.600 117.600 C 323.130 116.940,322.656 116.400,322.546 116.400 C 322.436 116.400,322.730 116.940,323.200 117.600 M75.235 119.300 C 74.929 119.795,74.415 120.605,74.093 121.100 C 73.046 122.711,73.830 122.048,75.157 120.200 C 75.868 119.210,76.302 118.400,76.121 118.400 C 75.940 118.400,75.542 118.805,75.235 119.300 M325.549 121.000 C 325.765 121.440,326.234 122.160,326.593 122.600 L 327.244 123.400 326.851 122.600 C 326.635 122.160,326.166 121.440,325.807 121.000 L 325.156 120.200 325.549 121.000 M146.800 121.784 C 146.800 121.894,147.520 122.351,148.400 122.800 C 149.280 123.249,150.000 123.526,150.000 123.416 C 150.000 123.306,149.280 122.849,148.400 122.400 C 147.520 121.951,146.800 121.674,146.800 121.784 M72.614 123.435 C 72.241 124.004,72.005 124.538,72.089 124.622 C 72.173 124.707,72.558 124.241,72.944 123.588 C 73.806 122.128,73.548 122.009,72.614 123.435 M281.206 123.833 C 281.209 124.255,281.395 124.870,281.618 125.200 C 281.915 125.638,281.952 125.476,281.756 124.600 C 281.427 123.129,281.198 122.810,281.206 123.833 M118.446 124.867 C 118.421 125.234,118.296 125.864,118.170 126.267 C 117.952 126.962,117.963 126.963,118.397 126.287 C 118.648 125.896,118.773 125.266,118.673 124.887 C 118.511 124.268,118.488 124.266,118.446 124.867 M152.800 125.164 C 153.350 125.614,153.980 125.983,154.200 125.985 C 154.628 125.988,153.905 125.434,152.600 124.760 C 152.069 124.485,152.136 124.621,152.800 125.164 M197.318 126.298 C 199.033 126.373,201.733 126.372,203.318 126.297 C 204.903 126.221,203.500 126.159,200.200 126.160 C 196.900 126.161,195.603 126.222,197.318 126.298 M187.907 126.690 C 188.626 126.779,189.706 126.777,190.307 126.686 C 190.908 126.595,190.320 126.522,189.000 126.524 C 187.680 126.526,187.188 126.601,187.907 126.690 M209.233 126.545 C 209.325 126.625,210.930 126.788,212.800 126.908 C 215.173 127.060,215.717 127.023,214.600 126.786 C 213.016 126.450,208.912 126.265,209.233 126.545 M184.500 127.076 C 184.885 127.176,185.515 127.176,185.900 127.076 C 186.285 126.975,185.970 126.893,185.200 126.893 C 184.430 126.893,184.115 126.975,184.500 127.076 M282.028 127.633 C 282.044 128.165,282.219 128.960,282.419 129.400 C 282.671 129.958,282.707 129.715,282.538 128.600 C 282.255 126.743,281.987 126.236,282.028 127.633 M329.800 128.000 C 330.141 128.660,330.511 129.200,330.621 129.200 C 330.731 129.200,330.541 128.660,330.200 128.000 C 329.859 127.340,329.489 126.800,329.379 126.800 C 329.269 126.800,329.459 127.340,329.800 128.000 M179.000 127.600 C 177.922 127.874,177.902 127.906,178.800 127.913 C 179.350 127.917,180.250 127.776,180.800 127.600 C 182.144 127.169,180.692 127.169,179.000 127.600 M219.400 127.581 C 220.168 127.929,222.310 128.156,221.967 127.853 C 221.875 127.772,221.080 127.596,220.200 127.462 C 219.085 127.293,218.842 127.329,219.400 127.581 M174.200 128.400 C 173.111 128.677,173.093 128.707,174.000 128.725 C 174.550 128.735,175.360 128.589,175.800 128.400 C 176.786 127.976,175.866 127.976,174.200 128.400 M224.400 128.379 C 224.730 128.604,225.525 128.791,226.167 128.794 C 227.704 128.802,227.384 128.570,225.400 128.238 C 224.254 128.046,223.970 128.086,224.400 128.379 M240.900 128.846 C 239.537 129.719,239.095 130.306,240.300 129.643 C 241.218 129.139,242.656 128.027,242.400 128.019 C 242.290 128.016,241.615 128.388,240.900 128.846 M117.400 130.000 C 117.246 130.910,117.211 131.744,117.321 131.854 C 117.431 131.964,117.646 131.310,117.800 130.400 C 117.954 129.490,117.989 128.656,117.879 128.546 C 117.769 128.436,117.554 129.090,117.400 130.000 M160.200 129.750 C 160.860 130.312,161.580 130.772,161.800 130.773 C 162.257 130.775,160.996 129.742,159.800 129.135 C 159.360 128.912,159.540 129.188,160.200 129.750 M228.600 129.181 C 229.368 129.529,231.510 129.756,231.167 129.453 C 231.075 129.372,230.280 129.196,229.400 129.062 C 228.285 128.893,228.042 128.929,228.600 129.181 M165.000 130.400 C 164.496 130.617,164.422 130.744,164.800 130.744 C 165.130 130.744,165.760 130.589,166.200 130.400 C 166.704 130.183,166.778 130.056,166.400 130.056 C 166.070 130.056,165.440 130.211,165.000 130.400 M282.914 134.200 C 282.917 135.300,282.995 135.703,283.087 135.095 C 283.179 134.486,283.177 133.586,283.082 133.095 C 282.987 132.603,282.911 133.100,282.914 134.200 M66.380 134.439 C 65.920 135.340,65.613 136.146,65.697 136.230 C 65.781 136.314,66.241 135.576,66.719 134.591 C 67.809 132.347,67.515 132.215,66.380 134.439 M116.928 138.000 C 116.928 139.430,117.001 140.015,117.089 139.300 C 117.178 138.585,117.178 137.415,117.089 136.700 C 117.001 135.985,116.928 136.570,116.928 138.000 M283.314 138.200 C 283.317 139.300,283.395 139.703,283.487 139.095 C 283.579 138.486,283.577 137.586,283.482 137.095 C 283.387 136.603,283.311 137.100,283.314 138.200 M282.914 142.200 C 282.917 143.300,282.995 143.703,283.087 143.095 C 283.179 142.486,283.177 141.586,283.082 141.095 C 282.987 140.603,282.911 141.100,282.914 142.200 M117.287 145.000 C 117.291 145.440,117.432 146.340,117.600 147.000 C 117.874 148.078,117.906 148.098,117.913 147.200 C 117.917 146.650,117.776 145.750,117.600 145.200 C 117.349 144.416,117.281 144.373,117.287 145.000 M339.029 146.800 C 339.176 147.350,339.464 148.070,339.667 148.400 C 339.925 148.817,339.957 148.695,339.771 148.000 C 339.624 147.450,339.336 146.730,339.133 146.400 C 338.875 145.983,338.843 146.105,339.029 146.800 M282.200 147.600 C 282.048 148.291,282.007 148.941,282.109 149.042 C 282.211 149.144,282.409 148.653,282.550 147.950 C 282.883 146.283,282.560 145.960,282.200 147.600 M118.244 150.200 C 118.573 151.671,118.802 151.990,118.794 150.967 C 118.791 150.545,118.605 149.930,118.382 149.600 C 118.085 149.162,118.048 149.324,118.244 150.200 M280.275 154.836 C 280.118 155.434,280.462 156.091,281.479 157.136 L 282.902 158.600 281.682 157.122 C 280.871 156.138,280.535 155.370,280.678 154.822 C 280.797 154.370,280.803 154.000,280.693 154.000 C 280.583 154.000,280.395 154.376,280.275 154.836 M284.000 160.400 C 284.697 161.280,285.357 162.000,285.467 162.000 C 285.577 162.000,285.097 161.280,284.400 160.400 C 283.703 159.520,283.043 158.800,282.933 158.800 C 282.823 158.800,283.303 159.520,284.000 160.400 M115.873 160.500 C 114.675 162.111,113.311 164.342,113.856 163.800 C 114.487 163.173,117.219 159.200,117.020 159.200 C 116.921 159.200,116.405 159.785,115.873 160.500 M285.949 163.000 C 286.165 163.440,286.634 164.160,286.993 164.600 L 287.644 165.400 287.251 164.600 C 287.035 164.160,286.566 163.440,286.207 163.000 L 285.556 162.200 285.949 163.000 M345.444 166.600 C 345.773 168.071,346.002 168.390,345.994 167.367 C 345.991 166.945,345.805 166.330,345.582 166.000 C 345.285 165.562,345.248 165.724,345.444 166.600 M289.234 168.600 C 289.234 168.820,289.578 169.630,290.000 170.400 C 290.422 171.170,290.766 171.620,290.766 171.400 C 290.766 171.180,290.422 170.370,290.000 169.600 C 289.578 168.830,289.234 168.380,289.234 168.600 M346.468 170.600 C 346.462 171.040,346.611 171.760,346.800 172.200 C 347.238 173.219,347.238 172.168,346.800 170.800 C 346.543 169.996,346.477 169.957,346.468 170.600 M53.050 171.650 C 52.717 173.317,53.040 173.640,53.400 172.000 C 53.552 171.309,53.593 170.659,53.491 170.558 C 53.389 170.456,53.191 170.947,53.050 171.650 M347.268 174.800 C 347.288 175.839,347.918 177.546,347.932 176.600 C 347.938 176.160,347.789 175.440,347.600 175.000 C 347.389 174.510,347.261 174.432,347.268 174.800 M52.200 176.000 C 52.048 176.691,52.007 177.341,52.109 177.442 C 52.211 177.544,52.409 177.053,52.550 176.350 C 52.883 174.683,52.560 174.360,52.200 176.000 M106.629 179.429 C 106.481 180.015,106.438 180.572,106.532 180.666 C 106.627 180.760,106.824 180.358,106.971 179.771 C 107.119 179.185,107.162 178.628,107.068 178.534 C 106.973 178.440,106.776 178.842,106.629 179.429 M348.282 180.600 C 348.409 181.700,348.577 182.675,348.656 182.767 C 348.955 183.114,348.728 180.164,348.397 179.400 C 348.174 178.885,348.133 179.313,348.282 180.600 M51.456 180.084 C 51.321 180.588,51.230 181.540,51.253 182.200 C 51.281 183.028,51.397 182.784,51.626 181.413 C 51.976 179.323,51.874 178.526,51.456 180.084 M294.028 182.433 C 294.044 182.965,294.219 183.760,294.419 184.200 C 294.671 184.758,294.707 184.515,294.538 183.400 C 294.255 181.543,293.987 181.036,294.028 182.433 M105.654 183.600 C 105.619 184.150,105.496 185.050,105.383 185.600 L 105.177 186.600 105.607 185.615 C 105.843 185.074,105.965 184.174,105.878 183.615 L 105.720 182.600 105.654 183.600 M294.847 187.233 C 294.873 187.985,295.041 189.140,295.220 189.800 C 295.435 190.589,295.470 190.178,295.323 188.600 C 295.077 185.955,294.773 185.081,294.847 187.233 M349.324 188.200 C 349.326 189.520,349.401 190.012,349.490 189.293 C 349.579 188.574,349.577 187.494,349.486 186.893 C 349.395 186.292,349.322 186.880,349.324 188.200 M50.524 188.600 C 50.526 189.920,50.601 190.412,50.690 189.693 C 50.779 188.974,50.777 187.894,50.686 187.293 C 50.595 186.692,50.522 187.280,50.524 188.600 M104.661 190.700 C 104.360 193.884,104.403 200.575,104.752 204.800 C 104.890 206.468,105.000 203.406,105.000 197.900 C 105.000 192.455,104.981 188.000,104.958 188.000 C 104.935 188.000,104.801 189.215,104.661 190.700 M349.709 192.800 C 349.709 193.790,349.787 194.195,349.882 193.700 C 349.978 193.205,349.978 192.395,349.882 191.900 C 349.787 191.405,349.709 191.810,349.709 192.800 M50.109 193.200 C 50.109 194.190,50.187 194.595,50.282 194.100 C 50.378 193.605,50.378 192.795,50.282 192.300 C 50.187 191.805,50.109 192.210,50.109 193.200 M350.144 203.200 C 350.144 205.290,350.212 206.145,350.294 205.100 C 350.376 204.055,350.376 202.345,350.294 201.300 C 350.212 200.255,350.144 201.110,350.144 203.200 M49.742 203.400 C 49.741 205.380,49.808 206.240,49.892 205.312 C 49.976 204.384,49.977 202.764,49.895 201.712 C 49.812 200.660,49.743 201.420,49.742 203.400 M295.000 206.400 C 294.842 208.185,294.799 209.732,294.903 209.837 C 295.008 209.942,295.222 208.565,295.378 206.778 C 295.534 204.990,295.577 203.444,295.474 203.341 C 295.371 203.238,295.158 204.615,295.000 206.400 M105.701 213.000 C 105.705 213.880,105.787 214.193,105.883 213.695 C 105.979 213.198,105.975 212.478,105.875 212.095 C 105.775 211.713,105.696 212.120,105.701 213.000 M294.253 212.836 C 294.114 213.531,294.021 214.572,294.047 215.150 C 294.072 215.728,294.255 215.227,294.452 214.039 C 294.837 211.721,294.673 210.734,294.253 212.836 M50.114 215.000 C 50.117 216.100,50.195 216.503,50.287 215.895 C 50.379 215.286,50.377 214.386,50.282 213.895 C 50.187 213.403,50.111 213.900,50.114 215.000 M349.714 215.000 C 349.717 216.100,349.795 216.503,349.887 215.895 C 349.979 215.286,349.977 214.386,349.882 213.895 C 349.787 213.403,349.711 213.900,349.714 215.000 M50.524 219.400 C 50.526 220.720,50.601 221.212,50.690 220.493 C 50.779 219.774,50.777 218.694,50.686 218.093 C 50.595 217.492,50.522 218.080,50.524 219.400 M349.324 219.400 C 349.326 220.720,349.401 221.212,349.490 220.493 C 349.579 219.774,349.577 218.694,349.486 218.093 C 349.395 217.492,349.322 218.080,349.324 219.400 M107.256 221.600 C 107.256 221.930,107.411 222.560,107.600 223.000 C 107.817 223.504,107.944 223.578,107.944 223.200 C 107.944 222.870,107.789 222.240,107.600 221.800 C 107.383 221.296,107.256 221.222,107.256 221.600 M51.228 226.033 C 51.244 226.785,51.412 227.760,51.603 228.200 C 51.826 228.715,51.867 228.287,51.718 227.000 C 51.444 224.622,51.189 224.119,51.228 226.033 M348.459 225.800 C 348.420 226.460,348.296 227.450,348.183 228.000 L 347.977 229.000 348.408 228.014 C 348.644 227.472,348.768 226.482,348.683 225.814 L 348.528 224.600 348.459 225.800 M52.068 231.000 C 52.062 231.440,52.211 232.160,52.400 232.600 C 52.838 233.619,52.838 232.568,52.400 231.200 C 52.143 230.396,52.077 230.357,52.068 231.000 M347.450 231.650 C 347.309 232.353,347.269 233.002,347.359 233.092 C 347.450 233.183,347.648 232.691,347.800 232.000 C 347.952 231.309,347.993 230.659,347.891 230.558 C 347.789 230.456,347.591 230.947,347.450 231.650 M52.868 235.200 C 52.888 236.239,53.518 237.946,53.532 237.000 C 53.538 236.560,53.389 235.840,53.200 235.400 C 52.989 234.910,52.861 234.832,52.868 235.200 M346.600 236.000 C 346.448 236.691,346.407 237.341,346.509 237.442 C 346.611 237.544,346.809 237.053,346.950 236.350 C 347.091 235.647,347.131 234.998,347.041 234.908 C 346.950 234.817,346.752 235.309,346.600 236.000 M286.400 238.000 C 285.951 238.880,285.674 239.600,285.784 239.600 C 285.894 239.600,286.351 238.880,286.800 238.000 C 287.249 237.120,287.526 236.400,287.416 236.400 C 287.306 236.400,286.849 237.120,286.400 238.000 M54.006 240.433 C 54.009 240.965,54.189 241.670,54.406 242.000 C 54.682 242.422,54.723 242.185,54.542 241.200 C 54.225 239.475,53.998 239.149,54.006 240.433 M345.654 240.267 C 345.625 240.744,345.496 241.464,345.370 241.867 C 345.152 242.561,345.164 242.562,345.596 241.888 C 345.847 241.497,345.975 240.777,345.881 240.288 C 345.709 239.401,345.709 239.401,345.654 240.267 M284.953 240.500 C 283.576 242.836,283.486 243.035,284.187 242.200 C 285.000 241.232,285.700 240.000,285.438 240.000 C 285.333 240.000,285.115 240.225,284.953 240.500 M122.600 250.338 C 124.140 251.945,126.120 253.817,127.000 254.499 C 128.826 255.912,128.749 255.832,123.600 250.990 C 120.060 247.661,119.992 247.617,122.600 250.338 M56.648 249.800 C 56.791 250.460,57.066 251.270,57.259 251.600 C 57.484 251.984,57.518 251.768,57.352 251.000 C 57.209 250.340,56.934 249.530,56.741 249.200 C 56.516 248.816,56.482 249.032,56.648 249.800 M277.381 250.500 L 275.800 252.200 277.500 250.619 C 279.081 249.148,279.384 248.800,279.081 248.800 C 279.016 248.800,278.251 249.565,277.381 250.500 M342.840 250.240 C 342.610 251.073,342.494 251.827,342.582 251.915 C 342.670 252.003,342.930 251.393,343.160 250.560 C 343.390 249.727,343.506 248.973,343.418 248.885 C 343.330 248.797,343.070 249.407,342.840 250.240 M274.093 253.233 C 273.375 253.875,272.925 254.394,273.094 254.387 C 273.507 254.370,275.731 252.398,275.546 252.213 C 275.465 252.132,274.812 252.591,274.093 253.233 M270.647 255.998 C 268.745 257.437,268.344 257.847,269.400 257.274 C 270.317 256.776,272.701 254.830,272.400 254.826 C 272.290 254.824,271.501 255.351,270.647 255.998 M90.744 264.424 L 89.800 265.247 91.000 264.545 C 92.579 263.620,92.603 263.600,92.111 263.600 C 91.879 263.600,91.264 263.971,90.744 264.424 M105.200 265.384 C 105.200 265.494,105.920 265.951,106.800 266.400 C 107.680 266.849,108.400 267.126,108.400 267.016 C 108.400 266.906,107.680 266.449,106.800 266.000 C 105.920 265.551,105.200 265.274,105.200 265.384 M246.800 266.800 C 245.976 267.064,245.941 267.126,246.600 267.154 C 247.040 267.173,247.670 267.013,248.000 266.800 C 248.701 266.347,248.214 266.347,246.800 266.800 M155.633 267.744 C 155.725 267.823,156.340 268.008,157.000 268.156 C 157.876 268.352,158.038 268.315,157.600 268.018 C 157.060 267.653,155.232 267.398,155.633 267.744 M242.000 268.006 C 241.578 268.282,241.815 268.323,242.800 268.142 C 244.525 267.825,244.851 267.598,243.567 267.606 C 243.035 267.609,242.330 267.789,242.000 268.006 M110.400 268.458 C 112.919 270.959,116.390 273.956,114.800 272.257 C 113.810 271.200,112.280 269.778,111.400 269.098 C 110.520 268.419,110.070 268.131,110.400 268.458 M159.233 268.543 C 159.325 268.621,160.030 268.801,160.800 268.942 C 161.785 269.123,162.022 269.082,161.600 268.806 C 161.058 268.450,158.837 268.203,159.233 268.543 M238.200 268.800 C 237.181 269.238,238.232 269.238,239.600 268.800 C 240.404 268.543,240.443 268.477,239.800 268.468 C 239.360 268.462,238.640 268.611,238.200 268.800 M92.000 269.333 C 92.000 269.443,92.720 270.103,93.600 270.800 C 94.480 271.497,95.200 271.977,95.200 271.867 C 95.200 271.757,94.480 271.097,93.600 270.400 C 92.720 269.703,92.000 269.223,92.000 269.333 M164.800 269.600 C 165.350 269.776,166.250 269.917,166.800 269.913 C 167.698 269.906,167.678 269.874,166.600 269.600 C 164.908 269.169,163.456 269.169,164.800 269.600 M233.000 269.600 C 231.930 269.872,231.908 269.905,232.800 269.905 C 233.350 269.905,234.340 269.768,235.000 269.600 C 236.070 269.328,236.092 269.295,235.200 269.295 C 234.650 269.295,233.660 269.432,233.000 269.600 M227.900 270.500 C 227.317 270.947,227.426 271.193,228.923 272.814 C 229.846 273.811,230.335 274.261,230.012 273.814 C 229.688 273.366,228.988 272.515,228.457 271.921 L 227.491 270.843 228.646 270.586 C 230.479 270.179,230.670 270.065,229.576 270.032 C 229.014 270.014,228.259 270.225,227.900 270.500 M171.929 270.675 C 172.323 270.832,172.221 271.156,171.529 271.943 L 170.600 273.000 171.688 272.042 C 172.748 271.108,172.835 270.368,171.876 270.432 C 171.561 270.452,171.579 270.535,171.929 270.675 M97.600 273.258 C 100.119 275.759,103.590 278.756,102.000 277.057 C 101.010 276.000,99.480 274.578,98.600 273.898 C 97.720 273.219,97.270 272.931,97.600 273.258 M169.479 274.500 C 168.394 275.968,167.662 277.232,168.263 276.600 C 169.005 275.820,170.838 273.200,170.641 273.200 C 170.531 273.200,170.008 273.785,169.479 274.500 M120.643 280.727 C 121.059 281.457,121.748 282.357,122.174 282.727 C 122.624 283.118,122.466 282.731,121.796 281.800 C 120.193 279.574,119.750 279.161,120.643 280.727 M233.818 280.900 C 233.968 281.395,234.255 281.976,234.456 282.191 C 234.657 282.406,234.619 282.001,234.372 281.291 C 233.865 279.838,233.397 279.508,233.818 280.900 M71.215 282.200 C 71.217 282.420,71.586 283.050,72.036 283.600 C 72.579 284.264,72.715 284.331,72.440 283.800 C 71.766 282.495,71.212 281.772,71.215 282.200 M327.853 283.300 L 327.133 284.600 327.958 283.600 C 328.689 282.713,329.014 282.000,328.686 282.000 C 328.624 282.000,328.249 282.585,327.853 283.300 M73.949 286.600 C 74.165 287.040,74.634 287.760,74.993 288.200 L 75.644 289.000 75.251 288.200 C 75.035 287.760,74.566 287.040,74.207 286.600 L 73.556 285.800 73.949 286.600 M235.656 286.400 C 235.656 286.730,235.811 287.360,236.000 287.800 C 236.217 288.304,236.344 288.378,236.344 288.000 C 236.344 287.670,236.189 287.040,236.000 286.600 C 235.783 286.096,235.656 286.022,235.656 286.400 M325.753 286.500 C 324.376 288.836,324.286 289.035,324.987 288.200 C 325.800 287.232,326.500 286.000,326.238 286.000 C 326.133 286.000,325.915 286.225,325.753 286.500 M163.800 288.000 C 163.648 288.691,163.607 289.341,163.709 289.442 C 163.811 289.544,164.009 289.053,164.150 288.350 C 164.483 286.683,164.160 286.360,163.800 288.000 M127.200 288.191 C 127.200 288.478,131.605 291.731,131.757 291.556 C 131.831 291.470,130.836 290.637,129.546 289.704 C 128.256 288.771,127.200 288.090,127.200 288.191 M77.205 291.432 C 78.116 292.770,79.310 294.390,79.857 295.032 C 80.404 295.675,80.106 295.105,79.195 293.768 C 78.284 292.430,77.090 290.810,76.543 290.168 C 75.996 289.525,76.294 290.095,77.205 291.432 M323.130 290.500 C 321.091 293.245,319.172 296.147,320.132 295.032 C 321.390 293.572,324.485 289.200,324.261 289.200 C 324.170 289.200,323.661 289.785,323.130 290.500 M236.712 293.200 C 236.821 295.290,236.975 297.075,237.055 297.167 C 237.321 297.472,237.110 291.819,236.810 290.600 C 236.648 289.940,236.604 291.110,236.712 293.200 M132.600 291.956 C 132.820 292.177,133.720 292.657,134.600 293.021 C 136.690 293.887,136.113 293.301,133.905 292.315 C 132.967 291.896,132.380 291.735,132.600 291.956 M154.600 294.000 C 154.096 294.217,154.022 294.344,154.400 294.344 C 154.730 294.344,155.360 294.189,155.800 294.000 C 156.304 293.783,156.378 293.656,156.000 293.656 C 155.670 293.656,155.040 293.811,154.600 294.000 M140.600 294.804 C 141.367 295.130,144.711 295.353,144.367 295.056 C 144.275 294.977,143.210 294.811,142.000 294.688 C 140.631 294.549,140.102 294.592,140.600 294.804 M149.400 294.800 L 147.400 295.074 149.400 295.131 C 150.500 295.162,151.670 295.013,152.000 294.800 C 152.696 294.350,152.679 294.350,149.400 294.800 M81.824 297.582 C 82.791 298.989,84.399 300.838,84.388 300.531 C 84.381 300.349,83.706 299.472,82.888 298.582 C 82.070 297.693,81.591 297.243,81.824 297.582 M317.003 298.622 C 316.182 299.624,315.576 300.503,315.655 300.576 C 315.735 300.649,316.488 299.829,317.329 298.754 C 319.259 296.288,319.002 296.183,317.003 298.622 M114.125 298.200 C 114.464 298.860,115.302 300.030,115.988 300.800 C 117.123 302.076,117.102 302.005,115.746 300.000 C 113.908 297.281,113.315 296.623,114.125 298.200 M85.250 301.843 C 86.012 303.011,88.834 306.101,88.988 305.936 C 89.058 305.861,88.121 304.720,86.907 303.400 C 85.694 302.080,84.948 301.379,85.250 301.843 M312.865 303.600 C 311.703 304.920,310.854 306.000,310.977 306.000 C 311.229 306.000,313.916 303.089,314.723 301.943 C 315.699 300.555,314.984 301.193,312.865 303.600 M117.200 302.525 C 117.200 302.594,117.785 303.179,118.500 303.825 L 119.800 305.000 118.625 303.700 C 117.530 302.488,117.200 302.216,117.200 302.525 M93.400 310.800 C 95.812 313.220,97.876 315.200,97.986 315.200 C 98.096 315.200,96.212 313.220,93.800 310.800 C 91.388 308.380,89.324 306.400,89.214 306.400 C 89.104 306.400,90.988 308.380,93.400 310.800 M306.193 310.900 L 301.800 315.400 306.300 311.007 C 310.480 306.926,310.982 306.400,310.693 306.400 C 310.634 306.400,308.609 308.425,306.193 310.900 M236.982 326.400 C 236.982 335.090,237.035 338.645,237.100 334.300 C 237.164 329.955,237.164 322.845,237.100 318.500 C 237.035 314.155,236.982 317.710,236.982 326.400 M160.200 312.382 C 159.623 312.617,159.872 312.693,161.098 312.654 C 162.031 312.624,162.796 312.465,162.798 312.300 C 162.801 311.913,161.231 311.962,160.200 312.382 M154.800 313.200 L 153.000 313.480 154.600 313.500 C 155.480 313.511,156.650 313.376,157.200 313.200 C 158.463 312.795,157.402 312.795,154.800 313.200 M138.500 313.476 C 138.885 313.576,139.515 313.576,139.900 313.476 C 140.285 313.375,139.970 313.293,139.200 313.293 C 138.430 313.293,138.115 313.375,138.500 313.476 M144.100 313.897 C 145.585 313.974,148.015 313.974,149.500 313.897 C 150.985 313.820,149.770 313.757,146.800 313.757 C 143.830 313.757,142.615 313.820,144.100 313.897 M101.200 318.150 C 101.750 318.771,102.740 319.650,103.400 320.104 C 104.826 321.085,104.443 320.664,102.000 318.568 C 100.804 317.541,100.536 317.401,101.200 318.150 M297.400 319.076 C 296.300 320.087,295.940 320.547,296.600 320.097 C 297.724 319.330,299.944 317.178,299.570 317.218 C 299.476 317.228,298.500 318.064,297.400 319.076 M162.976 331.000 C 162.976 337.160,163.032 339.624,163.099 336.476 C 163.167 333.327,163.167 328.287,163.099 325.276 C 163.031 322.264,162.976 324.840,162.976 331.000 M109.215 324.666 C 109.230 324.995,112.400 327.347,112.400 327.030 C 112.400 326.940,111.680 326.297,110.800 325.600 C 109.920 324.903,109.207 324.483,109.215 324.666 M288.991 325.855 L 287.400 327.261 289.000 326.147 C 289.880 325.534,290.675 324.980,290.767 324.916 C 290.858 324.852,290.854 324.721,290.757 324.624 C 290.660 324.527,289.865 325.081,288.991 325.855 M118.600 331.407 C 119.040 331.766,119.760 332.235,120.200 332.451 L 121.000 332.844 120.200 332.193 C 119.760 331.834,119.040 331.365,118.600 331.149 L 117.800 330.756 118.600 331.407 M280.500 331.646 C 279.137 332.519,278.695 333.106,279.900 332.443 C 280.818 331.939,282.256 330.827,282.000 330.819 C 281.890 330.816,281.215 331.188,280.500 331.646 M160.200 346.250 C 159.481 346.862,159.334 347.105,159.833 346.857 C 160.566 346.493,161.941 345.176,161.549 345.214 C 161.467 345.222,160.860 345.688,160.200 346.250 M238.767 345.745 C 239.300 346.401,240.800 347.393,240.800 347.089 C 240.800 347.013,240.215 346.522,239.500 345.999 C 238.696 345.410,238.416 345.313,238.767 345.745 M151.800 347.600 C 151.936 347.820,152.442 347.987,152.924 347.972 C 153.769 347.945,153.771 347.931,153.000 347.600 C 151.899 347.127,151.508 347.127,151.800 347.600 " stroke="none" fill="#a5a4a4" fill-rule="evenodd"></path><path id="path4" d="M196.500 53.098 C 198.425 53.171,201.575 53.171,203.500 53.098 C 205.425 53.025,203.850 52.965,200.000 52.965 C 196.150 52.965,194.575 53.025,196.500 53.098 M189.705 53.487 C 190.314 53.579,191.214 53.577,191.705 53.482 C 192.197 53.387,191.700 53.311,190.600 53.314 C 189.500 53.317,189.097 53.395,189.705 53.487 M208.905 53.487 C 209.514 53.579,210.414 53.577,210.905 53.482 C 211.397 53.387,210.900 53.311,209.800 53.314 C 208.700 53.317,208.297 53.395,208.905 53.487 M182.000 54.000 C 180.650 54.284,180.643 54.295,181.800 54.300 C 182.460 54.303,183.540 54.168,184.200 54.000 C 185.860 53.578,184.007 53.578,182.000 54.000 M176.200 54.800 C 175.122 55.074,175.102 55.106,176.000 55.113 C 176.550 55.117,177.450 54.976,178.000 54.800 C 179.344 54.369,177.892 54.369,176.200 54.800 M222.200 54.781 C 222.968 55.129,225.110 55.356,224.767 55.053 C 224.675 54.972,223.880 54.796,223.000 54.662 C 221.885 54.493,221.642 54.529,222.200 54.781 M232.800 56.800 C 234.168 57.238,235.219 57.238,234.200 56.800 C 233.760 56.611,233.040 56.462,232.600 56.468 C 231.957 56.477,231.996 56.543,232.800 56.800 M267.200 68.984 C 267.200 69.094,267.920 69.551,268.800 70.000 C 269.680 70.449,270.400 70.726,270.400 70.616 C 270.400 70.506,269.680 70.049,268.800 69.600 C 267.920 69.151,267.200 68.874,267.200 68.984 M277.800 75.007 C 278.240 75.366,278.960 75.835,279.400 76.051 L 280.200 76.444 279.400 75.793 C 278.960 75.434,278.240 74.965,277.800 74.749 L 277.000 74.356 277.800 75.007 M109.985 83.229 L 108.600 84.458 110.100 83.381 C 111.426 82.430,111.857 82.000,111.485 82.000 C 111.422 82.000,110.747 82.553,109.985 83.229 M289.600 82.925 C 289.600 83.024,290.261 83.609,291.068 84.225 C 291.876 84.841,292.411 85.141,292.256 84.891 C 291.940 84.379,289.600 82.647,289.600 82.925 M103.178 88.700 L 101.800 90.200 103.300 88.822 C 104.125 88.063,104.800 87.388,104.800 87.322 C 104.800 87.016,104.462 87.304,103.178 88.700 M297.600 89.325 C 297.600 89.394,298.185 89.979,298.900 90.625 L 300.200 91.800 299.025 90.500 C 297.930 89.288,297.600 89.016,297.600 89.325 M100.175 91.300 L 99.000 92.600 100.300 91.425 C 101.512 90.330,101.784 90.000,101.475 90.000 C 101.406 90.000,100.821 90.585,100.175 91.300 M300.455 91.900 C 300.485 92.065,302.510 94.087,304.955 96.393 L 309.400 100.587 305.007 96.093 C 300.572 91.557,300.356 91.358,300.455 91.900 M93.600 97.400 C 92.405 98.610,91.601 99.581,91.814 99.557 C 92.194 99.514,96.286 95.200,95.947 95.200 C 95.851 95.200,94.795 96.190,93.600 97.400 M89.600 101.800 C 88.628 102.790,87.923 103.600,88.033 103.600 C 88.143 103.600,89.028 102.790,90.000 101.800 C 90.972 100.810,91.677 100.000,91.567 100.000 C 91.457 100.000,90.572 100.810,89.600 101.800 M82.000 110.800 C 81.303 111.680,80.823 112.400,80.933 112.400 C 81.043 112.400,81.703 111.680,82.400 110.800 C 83.097 109.920,83.577 109.200,83.467 109.200 C 83.357 109.200,82.697 109.920,82.000 110.800 M79.365 114.211 C 78.773 114.987,78.359 115.687,78.444 115.767 C 78.530 115.846,79.093 115.212,79.696 114.356 C 81.065 112.414,80.818 112.306,79.365 114.211 M121.149 115.500 C 120.652 116.134,120.666 116.148,121.299 115.652 C 121.818 115.245,122.985 115.148,125.842 115.273 C 127.956 115.365,129.352 115.309,128.943 115.148 C 127.313 114.507,121.730 114.759,121.149 115.500 M271.113 115.128 C 270.735 115.278,272.382 115.400,274.773 115.400 C 277.164 115.400,278.913 115.268,278.660 115.106 C 278.088 114.741,272.048 114.758,271.113 115.128 M131.800 116.000 C 132.240 116.189,132.870 116.344,133.200 116.344 C 133.578 116.344,133.504 116.217,133.000 116.000 C 132.560 115.811,131.930 115.656,131.600 115.656 C 131.222 115.656,131.296 115.783,131.800 116.000 M76.246 118.600 C 75.891 119.150,75.309 120.095,74.953 120.700 L 74.305 121.800 75.110 120.826 C 76.060 119.676,77.321 117.600,77.069 117.600 C 76.971 117.600,76.601 118.050,76.246 118.600 M117.849 125.415 C 117.712 125.773,117.618 126.456,117.641 126.933 C 117.667 127.481,117.803 127.286,118.010 126.403 C 118.360 124.916,118.265 124.333,117.849 125.415 M191.000 125.972 C 189.900 126.108,192.960 126.156,197.800 126.079 C 202.640 126.002,206.780 125.877,207.000 125.801 C 207.702 125.559,193.081 125.716,191.000 125.972 M208.300 126.282 C 208.795 126.378,209.605 126.378,210.100 126.282 C 210.595 126.187,210.190 126.109,209.200 126.109 C 208.210 126.109,207.805 126.187,208.300 126.282 M181.105 127.083 C 181.602 127.179,182.322 127.175,182.705 127.075 C 183.087 126.975,182.680 126.896,181.800 126.901 C 180.920 126.905,180.607 126.987,181.105 127.083 M217.505 127.083 C 218.002 127.179,218.722 127.175,219.105 127.075 C 219.487 126.975,219.080 126.896,218.200 126.901 C 217.320 126.905,217.007 126.987,217.505 127.083 M222.833 127.744 C 222.925 127.824,223.810 127.996,224.800 128.127 C 226.002 128.286,226.334 128.247,225.800 128.010 C 225.036 127.672,222.486 127.443,222.833 127.744 M170.400 128.818 C 169.962 129.115,170.124 129.152,171.000 128.956 C 172.471 128.627,172.790 128.398,171.767 128.406 C 171.345 128.409,170.730 128.595,170.400 128.818 M228.400 128.800 C 229.768 129.238,230.819 129.238,229.800 128.800 C 229.360 128.611,228.640 128.462,228.200 128.468 C 227.557 128.477,227.596 128.543,228.400 128.800 M232.200 129.600 C 232.640 129.789,233.270 129.944,233.600 129.944 C 233.978 129.944,233.904 129.817,233.400 129.600 C 232.960 129.411,232.330 129.256,232.000 129.256 C 231.622 129.256,231.696 129.383,232.200 129.600 M238.764 129.843 C 238.361 130.329,237.789 130.433,236.416 130.268 C 235.212 130.124,234.870 130.167,235.400 130.397 C 236.741 130.978,238.023 130.840,239.091 130.000 C 239.650 129.560,239.926 129.200,239.703 129.200 C 239.480 129.200,239.058 129.489,238.764 129.843 M282.893 130.400 C 282.893 131.170,282.975 131.485,283.076 131.100 C 283.176 130.715,283.176 130.085,283.076 129.700 C 282.975 129.315,282.893 129.630,282.893 130.400 M161.941 130.501 C 162.143 130.703,162.733 130.801,163.254 130.719 C 164.055 130.593,163.998 130.537,162.887 130.352 C 162.093 130.221,161.719 130.279,161.941 130.501 M116.914 132.600 C 116.917 133.700,116.995 134.103,117.087 133.495 C 117.179 132.886,117.177 131.986,117.082 131.495 C 116.987 131.003,116.911 131.500,116.914 132.600 M283.301 133.400 C 283.305 134.280,283.387 134.593,283.483 134.095 C 283.579 133.598,283.575 132.878,283.475 132.495 C 283.375 132.113,283.296 132.520,283.301 133.400 M66.000 136.000 C 65.551 136.880,65.274 137.600,65.384 137.600 C 65.494 137.600,65.951 136.880,66.400 136.000 C 66.849 135.120,67.126 134.400,67.016 134.400 C 66.906 134.400,66.449 135.120,66.000 136.000 M116.537 138.200 C 116.539 139.960,116.609 140.630,116.693 139.689 C 116.778 138.749,116.777 137.309,116.691 136.489 C 116.605 135.670,116.536 136.440,116.537 138.200 M283.301 143.000 C 283.305 143.880,283.387 144.193,283.483 143.695 C 283.579 143.198,283.575 142.478,283.475 142.095 C 283.375 141.713,283.296 142.120,283.301 143.000 M116.914 143.800 C 116.917 144.900,116.995 145.303,117.087 144.695 C 117.179 144.086,117.177 143.186,117.082 142.695 C 116.987 142.203,116.911 142.700,116.914 143.800 M282.893 146.000 C 282.893 146.770,282.975 147.085,283.076 146.700 C 283.176 146.315,283.176 145.685,283.076 145.300 C 282.975 144.915,282.893 145.230,282.893 146.000 M117.606 149.233 C 117.609 149.765,117.789 150.470,118.006 150.800 C 118.282 151.222,118.323 150.985,118.142 150.000 C 117.825 148.275,117.598 147.949,117.606 149.233 M282.046 150.067 C 282.021 150.434,281.896 151.064,281.770 151.467 C 281.552 152.162,281.563 152.163,281.997 151.487 C 282.248 151.096,282.373 150.466,282.273 150.087 C 282.111 149.468,282.088 149.466,282.046 150.067 M59.244 151.644 C 58.998 152.351,58.866 153.000,58.952 153.085 C 59.038 153.171,59.309 152.662,59.556 151.956 C 59.802 151.249,59.934 150.600,59.848 150.515 C 59.762 150.429,59.491 150.938,59.244 151.644 M285.458 161.900 C 286.062 162.725,286.734 163.580,286.951 163.800 C 287.316 164.169,287.096 163.773,285.565 161.300 C 285.258 160.805,284.862 160.400,284.683 160.400 C 284.505 160.400,284.854 161.075,285.458 161.900 M345.656 168.800 C 345.656 169.130,345.811 169.760,346.000 170.200 C 346.217 170.704,346.344 170.778,346.344 170.400 C 346.344 170.070,346.189 169.440,346.000 169.000 C 345.783 168.496,345.656 168.422,345.656 168.800 M53.829 169.829 C 53.681 170.415,53.638 170.972,53.732 171.066 C 53.827 171.160,54.024 170.758,54.171 170.171 C 54.319 169.585,54.362 169.028,54.268 168.934 C 54.173 168.840,53.976 169.242,53.829 169.829 M53.056 173.284 C 52.921 173.788,52.827 174.560,52.846 175.000 C 52.865 175.440,53.045 175.098,53.246 174.240 C 53.636 172.578,53.470 171.740,53.056 173.284 M347.628 179.033 C 347.644 179.675,347.816 180.560,348.010 181.000 C 348.247 181.534,348.286 181.202,348.127 180.000 C 347.846 177.880,347.588 177.380,347.628 179.033 M52.054 179.200 C 52.019 179.750,51.896 180.650,51.783 181.200 L 51.577 182.200 52.007 181.215 C 52.243 180.674,52.365 179.774,52.278 179.215 L 52.120 178.200 52.054 179.200 M348.440 184.833 C 348.462 185.585,348.630 186.650,348.813 187.200 C 349.029 187.846,349.066 187.420,348.919 186.000 C 348.659 183.483,348.381 182.807,348.440 184.833 M51.260 184.850 C 51.227 185.428,51.111 186.508,51.001 187.250 L 50.803 188.600 51.224 187.257 C 51.455 186.519,51.572 185.439,51.482 184.857 L 51.320 183.800 51.260 184.850 M105.049 184.615 C 104.912 184.973,104.821 185.746,104.846 186.333 C 104.880 187.132,104.970 186.998,105.204 185.800 C 105.535 184.100,105.462 183.540,105.049 184.615 M295.742 192.200 C 295.741 194.180,295.808 195.040,295.892 194.112 C 295.976 193.184,295.977 191.564,295.895 190.512 C 295.812 189.460,295.743 190.220,295.742 192.200 M104.158 197.000 C 104.158 200.080,104.221 201.287,104.297 199.682 C 104.373 198.078,104.373 195.558,104.296 194.082 C 104.219 192.607,104.157 193.920,104.158 197.000 M349.314 193.400 C 349.317 194.500,349.395 194.903,349.487 194.295 C 349.579 193.686,349.577 192.786,349.482 192.295 C 349.387 191.803,349.311 192.300,349.314 193.400 M50.514 193.800 C 50.517 194.900,50.595 195.303,50.687 194.695 C 50.779 194.086,50.777 193.186,50.682 192.695 C 50.587 192.203,50.511 192.700,50.514 193.800 M349.688 202.600 C 349.637 206.560,349.515 211.330,349.417 213.200 L 349.240 216.600 349.628 213.200 C 349.842 211.330,349.963 206.560,349.899 202.600 L 349.781 195.400 349.688 202.600 M50.078 203.600 C 50.087 207.890,50.214 212.570,50.362 214.000 C 50.509 215.430,50.564 212.100,50.483 206.600 C 50.403 201.100,50.275 196.420,50.200 196.200 C 50.125 195.980,50.070 199.310,50.078 203.600 M295.754 201.600 C 295.754 204.350,295.818 205.475,295.896 204.100 C 295.974 202.725,295.974 200.475,295.896 199.100 C 295.818 197.725,295.754 198.850,295.754 201.600 M104.501 205.000 C 104.505 205.880,104.587 206.193,104.683 205.695 C 104.779 205.198,104.775 204.478,104.675 204.095 C 104.575 203.713,104.496 204.120,104.501 205.000 M104.901 210.200 C 104.905 211.080,104.987 211.393,105.083 210.895 C 105.179 210.398,105.175 209.678,105.075 209.295 C 104.975 208.913,104.896 209.320,104.901 210.200 M294.854 212.000 C 294.819 212.550,294.696 213.450,294.583 214.000 L 294.377 215.000 294.807 214.015 C 295.043 213.474,295.165 212.574,295.078 212.015 L 294.920 211.000 294.854 212.000 M105.668 215.800 C 105.662 216.240,105.811 216.960,106.000 217.400 C 106.438 218.419,106.438 217.368,106.000 216.000 C 105.743 215.196,105.677 215.157,105.668 215.800 M293.850 217.650 C 293.709 218.353,293.669 219.002,293.759 219.092 C 293.850 219.183,294.048 218.691,294.200 218.000 C 294.352 217.309,294.393 216.659,294.291 216.558 C 294.189 216.456,293.991 216.947,293.850 217.650 M50.870 220.200 C 50.857 220.640,50.995 221.720,51.177 222.600 C 51.455 223.945,51.508 224.009,51.507 223.000 C 51.505 221.599,50.908 218.970,50.870 220.200 M348.600 221.600 C 348.445 222.728,348.402 223.736,348.506 223.839 C 348.609 223.942,348.816 223.100,348.967 221.967 C 349.117 220.834,349.159 219.826,349.061 219.728 C 348.963 219.629,348.755 220.472,348.600 221.600 M293.000 221.600 C 292.848 222.291,292.807 222.941,292.909 223.042 C 293.011 223.144,293.209 222.653,293.350 221.950 C 293.491 221.247,293.531 220.598,293.441 220.508 C 293.350 220.417,293.152 220.909,293.000 221.600 M52.093 228.800 C 52.093 229.570,52.175 229.885,52.276 229.500 C 52.376 229.115,52.376 228.485,52.276 228.100 C 52.175 227.715,52.093 228.030,52.093 228.800 M347.693 228.800 C 347.693 229.570,347.775 229.885,347.876 229.500 C 347.976 229.115,347.976 228.485,347.876 228.100 C 347.775 227.715,347.693 228.030,347.693 228.800 M110.218 232.100 C 110.368 232.595,110.655 233.176,110.856 233.391 C 111.057 233.606,111.019 233.201,110.772 232.491 C 110.265 231.038,109.797 230.708,110.218 232.100 M288.865 233.817 C 288.195 235.288,288.323 235.602,289.047 234.265 C 289.386 233.640,289.588 233.054,289.496 232.963 C 289.405 232.871,289.121 233.256,288.865 233.817 M53.656 237.200 C 53.656 237.530,53.811 238.160,54.000 238.600 C 54.217 239.104,54.344 239.178,54.344 238.800 C 54.344 238.470,54.189 237.840,54.000 237.400 C 53.783 236.896,53.656 236.822,53.656 237.200 M345.829 237.829 C 345.681 238.415,345.638 238.972,345.732 239.066 C 345.827 239.160,346.024 238.758,346.171 238.171 C 346.319 237.585,346.362 237.028,346.268 236.934 C 346.173 236.840,345.976 237.242,345.829 237.829 M54.644 241.400 C 54.973 242.871,55.202 243.190,55.194 242.167 C 55.191 241.745,55.005 241.130,54.782 240.800 C 54.485 240.362,54.448 240.524,54.644 241.400 M283.301 243.637 C 282.367 244.937,281.686 246.000,281.788 246.000 C 282.062 246.000,285.295 241.561,285.136 241.406 C 285.061 241.333,284.235 242.337,283.301 243.637 M120.229 248.438 C 120.873 249.229,121.481 249.808,121.579 249.725 C 121.678 249.642,121.151 248.995,120.409 248.287 L 119.058 247.000 120.229 248.438 M277.586 250.700 L 275.400 253.000 277.700 250.814 C 279.837 248.782,280.183 248.400,279.886 248.400 C 279.824 248.400,278.789 249.435,277.586 250.700 M123.635 252.100 C 123.728 252.155,124.433 252.740,125.202 253.400 L 126.600 254.600 125.425 253.300 C 124.779 252.585,124.074 252.000,123.858 252.000 C 123.643 252.000,123.543 252.045,123.635 252.100 M138.000 261.796 C 138.000 262.070,140.449 263.284,140.632 263.101 C 140.719 263.014,140.162 262.644,139.395 262.278 C 138.628 261.912,138.000 261.695,138.000 261.796 M62.173 263.796 C 62.845 265.405,63.570 266.714,63.588 266.351 C 63.607 265.948,61.980 262.400,61.776 262.400 C 61.673 262.400,61.852 263.028,62.173 263.796 M92.200 263.200 C 91.181 263.638,92.232 263.638,93.600 263.200 C 94.404 262.943,94.443 262.877,93.800 262.868 C 93.360 262.862,92.640 263.011,92.200 263.200 M98.800 263.200 C 99.350 263.376,100.160 263.520,100.600 263.520 C 101.233 263.520,101.192 263.454,100.400 263.200 C 99.850 263.024,99.040 262.880,98.600 262.880 C 97.967 262.880,98.008 262.946,98.800 263.200 M89.354 265.376 C 89.232 265.692,89.303 266.256,89.512 266.628 C 89.810 267.161,89.881 267.038,89.845 266.053 C 89.795 264.669,89.684 264.515,89.354 265.376 M91.700 269.427 C 92.745 270.528,94.185 271.744,94.900 272.131 C 96.154 272.810,96.165 272.810,95.200 272.121 C 94.650 271.728,93.210 270.512,92.000 269.417 L 89.800 267.427 91.700 269.427 M241.800 268.400 C 240.693 268.682,240.677 268.709,241.600 268.747 C 242.150 268.769,242.870 268.613,243.200 268.400 C 243.881 267.960,243.529 267.960,241.800 268.400 M114.400 271.800 C 115.817 273.230,117.067 274.400,117.177 274.400 C 117.287 274.400,116.217 273.230,114.800 271.800 C 113.383 270.370,112.133 269.200,112.023 269.200 C 111.913 269.200,112.983 270.370,114.400 271.800 M229.800 270.400 C 228.730 270.672,228.708 270.705,229.600 270.705 C 230.150 270.705,231.140 270.568,231.800 270.400 C 232.870 270.128,232.892 270.095,232.000 270.095 C 231.450 270.095,230.460 270.232,229.800 270.400 M171.155 271.900 C 169.881 273.308,169.056 274.400,169.266 274.400 C 169.357 274.400,170.108 273.590,170.935 272.600 C 172.587 270.624,172.735 270.153,171.155 271.900 M229.082 272.440 C 229.787 273.277,230.845 274.690,231.435 275.581 C 232.024 276.471,232.583 277.200,232.676 277.200 C 233.091 277.200,231.238 274.567,229.600 272.828 C 228.610 271.778,228.377 271.603,229.082 272.440 M101.183 277.000 C 104.700 280.842,105.137 281.259,103.702 279.400 C 103.022 278.520,101.600 276.990,100.543 276.000 C 99.069 274.621,99.218 274.854,101.183 277.000 M69.600 278.800 C 70.049 279.680,70.506 280.400,70.616 280.400 C 70.726 280.400,70.449 279.680,70.000 278.800 C 69.551 277.920,69.094 277.200,68.984 277.200 C 68.874 277.200,69.151 277.920,69.600 278.800 M330.000 278.800 C 329.551 279.680,329.274 280.400,329.384 280.400 C 329.494 280.400,329.951 279.680,330.400 278.800 C 330.849 277.920,331.126 277.200,331.016 277.200 C 330.906 277.200,330.449 277.920,330.000 278.800 M122.700 283.000 C 123.381 283.880,125.073 285.680,126.460 287.000 C 128.676 289.109,128.597 288.987,125.812 286.000 C 121.500 281.375,121.278 281.161,122.700 283.000 M235.444 284.200 C 235.773 285.671,236.002 285.990,235.994 284.967 C 235.991 284.545,235.805 283.930,235.582 283.600 C 235.285 283.162,235.248 283.324,235.444 284.200 M163.246 289.267 C 163.221 289.634,163.096 290.264,162.970 290.667 C 162.752 291.362,162.763 291.363,163.197 290.687 C 163.448 290.296,163.573 289.666,163.473 289.287 C 163.311 288.668,163.288 288.666,163.246 289.267 M151.700 294.276 C 152.085 294.376,152.715 294.376,153.100 294.276 C 153.485 294.175,153.170 294.093,152.400 294.093 C 151.630 294.093,151.315 294.175,151.700 294.276 M237.385 313.600 C 237.385 324.490,237.437 328.945,237.500 323.500 C 237.563 318.055,237.563 309.145,237.500 303.700 C 237.437 298.255,237.385 302.710,237.385 313.600 M113.966 298.700 C 114.183 299.085,114.834 299.940,115.412 300.600 C 116.208 301.508,116.148 301.338,115.164 299.900 C 113.880 298.022,113.202 297.344,113.966 298.700 M85.600 301.800 C 86.346 302.570,87.029 303.200,87.118 303.200 C 87.454 303.200,84.982 300.456,84.622 300.429 C 84.413 300.413,84.854 301.030,85.600 301.800 M313.821 301.929 L 312.643 303.400 314.121 302.022 C 315.649 300.597,315.810 300.380,315.300 300.429 C 315.135 300.445,314.470 301.120,313.821 301.929 M116.400 302.125 C 116.400 302.194,116.985 302.779,117.700 303.425 L 119.000 304.600 117.825 303.300 C 116.730 302.088,116.400 301.816,116.400 302.125 M94.600 311.600 C 96.792 313.800,98.675 315.600,98.785 315.600 C 98.895 315.600,97.192 313.800,95.000 311.600 C 92.808 309.400,90.925 307.600,90.815 307.600 C 90.705 307.600,92.408 309.400,94.600 311.600 M304.992 311.700 L 301.000 315.800 305.100 311.808 C 307.355 309.612,309.200 307.767,309.200 307.708 C 309.200 307.418,308.701 307.892,304.992 311.700 M161.700 312.832 C 162.337 313.203,162.408 314.257,162.493 324.520 L 162.586 335.800 162.706 325.000 C 162.834 313.379,162.754 312.394,161.692 312.412 C 161.041 312.424,161.041 312.448,161.700 312.832 M140.200 314.039 C 140.860 314.185,143.920 314.306,147.000 314.306 C 154.204 314.307,153.188 314.083,145.200 313.908 C 141.790 313.833,139.540 313.892,140.200 314.039 M100.783 317.300 C 102.441 319.066,102.800 319.384,102.800 319.083 C 102.800 319.019,101.945 318.164,100.900 317.183 L 99.000 315.400 100.783 317.300 M298.800 317.400 C 297.828 318.390,297.123 319.200,297.233 319.200 C 297.343 319.200,298.228 318.390,299.200 317.400 C 300.172 316.410,300.877 315.600,300.767 315.600 C 300.657 315.600,299.772 316.410,298.800 317.400 M107.600 322.933 C 107.600 323.043,108.320 323.703,109.200 324.400 C 110.080 325.097,110.800 325.577,110.800 325.467 C 110.800 325.357,110.080 324.697,109.200 324.000 C 108.320 323.303,107.600 322.823,107.600 322.933 M290.800 324.049 C 289.406 325.271,289.405 325.272,290.688 324.419 C 291.396 323.948,292.082 323.391,292.212 323.181 C 292.597 322.557,292.277 322.754,290.800 324.049 M162.446 341.267 C 162.421 341.634,162.296 342.264,162.170 342.667 C 161.952 343.362,161.963 343.363,162.397 342.687 C 162.648 342.296,162.773 341.666,162.673 341.287 C 162.511 340.668,162.488 340.666,162.446 341.267 M237.206 341.433 C 237.209 341.855,237.395 342.470,237.618 342.800 C 237.915 343.238,237.952 343.076,237.756 342.200 C 237.427 340.729,237.198 340.410,237.206 341.433 M142.800 343.734 C 142.800 343.837,143.381 344.124,144.091 344.372 C 144.801 344.619,145.206 344.657,144.991 344.456 C 144.535 344.029,142.800 343.458,142.800 343.734 M255.700 344.012 C 254.361 344.551,254.611 344.824,256.000 344.340 C 256.660 344.110,257.200 343.849,257.200 343.761 C 257.200 343.524,256.713 343.605,255.700 344.012 " stroke="none" fill="#7c7c7c" fill-rule="evenodd"></path></g></svg>