<svg id="svg" version="1.1" xmlns="http://www.w3.org/2000/svg" xmlns:xlink="http://www.w3.org/1999/xlink" width="400" height="400" viewBox="0, 0, 400,400"><g id="svgg"><path id="path0" d="M192.800 32.800 C 192.800 33.040,191.200 33.200,188.800 33.200 C 186.400 33.200,184.800 33.360,184.800 33.600 C 184.800 33.822,183.741 34.000,182.424 34.000 C 181.117 34.000,179.936 34.180,179.800 34.400 C 179.664 34.620,178.663 34.800,177.576 34.800 C 176.489 34.800,175.600 34.980,175.600 35.200 C 175.600 35.420,174.880 35.600,174.000 35.600 C 173.120 35.600,172.400 35.780,172.400 36.000 C 172.400 36.220,171.781 36.400,171.024 36.400 C 170.267 36.400,169.536 36.580,169.400 36.800 C 169.264 37.020,168.623 37.200,167.976 37.200 C 167.329 37.200,166.800 37.380,166.800 37.600 C 166.800 37.820,166.260 38.000,165.600 38.000 C 164.940 38.000,164.400 38.180,164.400 38.400 C 164.400 38.620,163.860 38.800,163.200 38.800 C 162.540 38.800,162.000 38.980,162.000 39.200 C 162.000 39.420,161.550 39.600,161.000 39.600 C 160.450 39.600,160.000 39.780,160.000 40.000 C 160.000 40.220,159.638 40.400,159.195 40.400 C 158.752 40.400,158.077 40.565,157.695 40.766 C 156.098 41.608,154.036 42.400,153.440 42.400 C 153.088 42.400,152.800 42.580,152.800 42.800 C 152.800 43.020,152.520 43.200,152.178 43.200 C 151.475 43.200,146.672 45.639,146.467 46.100 C 146.393 46.265,146.071 46.400,145.750 46.400 C 145.429 46.400,144.780 46.760,144.308 47.200 C 143.836 47.640,143.163 48.000,142.813 48.000 C 142.463 48.000,141.917 48.360,141.600 48.800 C 141.283 49.240,140.743 49.600,140.400 49.600 C 140.057 49.600,139.517 49.960,139.200 50.400 C 138.883 50.840,138.343 51.200,138.000 51.200 C 137.657 51.200,137.117 51.560,136.800 52.000 C 136.483 52.440,136.038 52.800,135.812 52.801 C 135.585 52.801,134.770 53.341,134.000 54.000 C 133.230 54.659,132.447 55.199,132.260 55.199 C 132.074 55.200,131.444 55.696,130.860 56.301 C 130.277 56.907,129.080 57.930,128.200 58.574 C 127.320 59.219,125.745 60.624,124.700 61.697 C 123.655 62.769,122.800 63.570,122.800 63.475 C 122.800 63.381,121.990 64.058,121.000 64.980 C 120.010 65.902,119.200 66.774,119.200 66.918 C 119.200 67.062,117.850 68.557,116.200 70.239 C 114.550 71.922,113.200 73.453,113.200 73.642 C 113.200 73.831,112.570 74.634,111.800 75.427 C 111.030 76.220,110.400 77.033,110.400 77.234 C 110.400 77.435,110.248 77.600,110.063 77.600 C 109.878 77.600,109.383 78.275,108.963 79.100 C 108.543 79.925,107.885 80.891,107.500 81.247 C 107.115 81.603,106.800 82.148,106.800 82.459 C 106.800 82.769,106.440 83.283,106.000 83.600 C 105.560 83.917,105.200 84.457,105.200 84.800 C 105.200 85.143,104.840 85.683,104.400 86.000 C 103.960 86.317,103.600 86.897,103.600 87.288 C 103.600 87.680,103.420 88.000,103.200 88.000 C 102.980 88.000,102.800 88.360,102.800 88.800 C 102.800 89.240,102.620 89.600,102.400 89.600 C 102.180 89.600,102.000 89.960,102.000 90.400 C 102.000 90.840,101.820 91.200,101.600 91.200 C 101.380 91.200,101.200 91.470,101.200 91.800 C 101.200 92.130,101.020 92.400,100.800 92.400 C 100.580 92.400,100.400 92.760,100.400 93.200 C 100.400 93.640,100.265 94.001,100.100 94.003 C 99.741 94.007,98.800 95.944,98.800 96.680 C 98.800 96.966,98.620 97.200,98.400 97.200 C 98.180 97.200,98.000 97.434,98.000 97.720 C 98.000 98.456,97.059 100.393,96.700 100.397 C 96.535 100.399,96.400 100.852,96.400 101.405 C 96.400 102.287,95.790 103.810,95.200 104.400 C 95.090 104.510,94.939 105.050,94.865 105.600 C 94.791 106.150,94.566 106.771,94.365 106.980 C 94.164 107.189,94.000 107.763,94.000 108.256 C 94.000 108.749,93.841 109.251,93.646 109.371 C 93.451 109.492,93.203 110.087,93.093 110.695 C 92.984 111.303,92.513 113.224,92.047 114.964 C 91.581 116.704,91.200 118.729,91.200 119.464 C 91.200 120.199,91.020 120.800,90.800 120.800 C 90.580 120.800,90.400 121.700,90.400 122.800 C 90.400 123.900,90.236 124.800,90.036 124.800 C 89.630 124.800,89.272 127.790,88.957 133.800 C 88.842 136.000,88.580 137.971,88.374 138.180 C 88.152 138.406,88.000 146.643,88.000 158.453 C 88.000 180.784,87.800 179.404,90.898 178.454 C 93.880 177.539,101.104 177.192,117.100 177.196 L 134.000 177.200 134.000 158.024 C 134.000 145.671,134.142 138.759,134.400 138.600 C 134.620 138.464,134.800 137.204,134.800 135.800 C 134.800 134.396,134.980 133.136,135.200 133.000 C 135.420 132.864,135.600 131.968,135.600 131.010 C 135.600 130.051,135.772 129.207,135.982 129.133 C 136.193 129.060,136.410 128.325,136.464 127.500 C 136.519 126.675,136.707 126.000,136.882 126.000 C 137.057 126.000,137.200 125.460,137.200 124.800 C 137.200 124.140,137.380 123.600,137.600 123.600 C 137.820 123.600,138.000 123.238,138.000 122.795 C 138.000 122.352,138.174 121.677,138.386 121.295 C 139.079 120.048,140.335 116.997,140.615 115.882 C 140.766 115.283,141.049 114.694,141.244 114.573 C 141.440 114.452,141.600 114.043,141.600 113.665 C 141.600 113.286,141.960 112.717,142.400 112.400 C 142.840 112.083,143.200 111.503,143.200 111.112 C 143.200 110.720,143.380 110.400,143.600 110.400 C 143.820 110.400,144.000 110.080,144.000 109.688 C 144.000 109.297,144.360 108.717,144.800 108.400 C 145.240 108.083,145.601 107.638,145.602 107.412 C 145.603 107.185,146.143 106.425,146.802 105.722 C 147.461 105.019,148.000 104.331,148.000 104.195 C 148.000 104.058,149.078 102.878,150.395 101.573 C 151.712 100.268,152.681 99.200,152.547 99.200 C 152.413 99.200,153.861 97.670,155.765 95.800 C 157.669 93.930,159.409 92.400,159.630 92.400 C 159.852 92.400,160.431 92.028,160.917 91.574 C 161.403 91.119,162.385 90.469,163.100 90.128 C 163.815 89.787,164.400 89.349,164.400 89.154 C 164.400 88.959,164.760 88.800,165.200 88.800 C 165.640 88.800,166.000 88.620,166.000 88.400 C 166.000 88.180,166.270 88.000,166.600 88.000 C 166.930 88.000,167.200 87.820,167.200 87.600 C 167.200 87.380,167.470 87.200,167.800 87.200 C 168.130 87.200,168.400 87.020,168.400 86.800 C 168.400 86.580,168.745 86.400,169.167 86.400 C 169.588 86.400,169.993 86.256,170.067 86.080 C 170.253 85.633,175.413 83.200,176.175 83.200 C 176.519 83.200,176.800 83.020,176.800 82.800 C 176.800 82.580,177.340 82.400,178.000 82.400 C 178.660 82.400,179.200 82.220,179.200 82.000 C 179.200 81.780,179.740 81.600,180.400 81.600 C 181.060 81.600,181.600 81.420,181.600 81.200 C 181.600 80.980,182.230 80.800,183.000 80.800 C 183.770 80.800,184.400 80.620,184.400 80.400 C 184.400 80.180,185.300 80.000,186.400 80.000 C 187.500 80.000,188.400 79.820,188.400 79.600 C 188.400 79.378,189.467 79.200,190.800 79.200 C 192.133 79.200,193.200 79.022,193.200 78.800 C 193.200 78.549,195.733 78.400,200.000 78.400 C 204.267 78.400,206.800 78.549,206.800 78.800 C 206.800 79.026,207.933 79.200,209.400 79.200 C 210.867 79.200,212.000 79.374,212.000 79.600 C 212.000 79.820,212.810 80.000,213.800 80.000 C 214.790 80.000,215.600 80.180,215.600 80.400 C 215.600 80.620,216.230 80.800,217.000 80.800 C 217.770 80.800,218.400 80.980,218.400 81.200 C 218.400 81.420,218.940 81.600,219.600 81.600 C 220.260 81.600,220.800 81.780,220.800 82.000 C 220.800 82.220,221.340 82.400,222.000 82.400 C 222.660 82.400,223.200 82.580,223.200 82.800 C 223.200 83.020,223.472 83.200,223.805 83.200 C 224.138 83.200,224.723 83.360,225.105 83.556 C 225.487 83.752,226.700 84.337,227.800 84.856 C 228.900 85.375,229.860 85.935,229.933 86.100 C 230.007 86.265,230.412 86.400,230.833 86.400 C 231.255 86.400,231.600 86.580,231.600 86.800 C 231.600 87.020,231.870 87.200,232.200 87.200 C 232.530 87.200,232.800 87.380,232.800 87.600 C 232.800 87.820,233.070 88.000,233.400 88.000 C 233.730 88.000,234.000 88.180,234.000 88.400 C 234.000 88.620,234.278 88.800,234.617 88.800 C 234.956 88.800,235.620 89.160,236.092 89.600 C 236.564 90.040,237.187 90.400,237.475 90.400 C 237.764 90.400,238.000 90.539,238.000 90.709 C 238.000 90.879,238.669 91.374,239.487 91.809 C 241.102 92.668,248.000 99.320,248.000 100.018 C 248.000 100.254,248.180 100.336,248.400 100.200 C 248.620 100.064,248.800 100.122,248.800 100.328 C 248.800 100.535,249.475 101.411,250.300 102.277 C 252.232 104.303,254.400 107.059,254.400 107.488 C 254.400 107.673,254.760 108.083,255.200 108.400 C 255.640 108.717,256.000 109.297,256.000 109.688 C 256.000 110.080,256.136 110.400,256.302 110.400 C 256.469 110.400,256.857 110.985,257.165 111.700 C 257.473 112.415,258.034 113.450,258.410 114.000 C 258.787 114.550,259.230 115.450,259.395 116.000 C 259.560 116.550,260.021 117.727,260.420 118.617 C 260.818 119.506,261.380 120.991,261.669 121.917 C 261.958 122.842,262.331 123.600,262.497 123.600 C 262.664 123.600,262.800 124.129,262.800 124.776 C 262.800 125.423,262.980 126.064,263.200 126.200 C 263.420 126.336,263.600 126.966,263.600 127.600 C 263.600 128.234,263.780 128.864,264.000 129.000 C 264.220 129.136,264.400 130.011,264.400 130.944 C 264.400 131.877,264.565 132.811,264.768 133.020 C 265.447 133.723,265.669 138.903,265.843 158.100 L 266.015 177.200 282.908 177.196 C 298.896 177.192,306.120 177.539,309.102 178.454 C 312.200 179.404,312.000 180.791,312.000 158.397 C 312.000 145.529,311.858 138.359,311.600 138.200 C 311.377 138.062,311.200 136.204,311.200 134.000 C 311.200 131.796,311.023 129.938,310.800 129.800 C 310.580 129.664,310.400 128.483,310.400 127.176 C 310.400 125.859,310.222 124.800,310.000 124.800 C 309.780 124.800,309.600 123.821,309.600 122.624 C 309.600 121.427,309.420 120.336,309.200 120.200 C 308.980 120.064,308.800 119.536,308.800 119.027 C 308.800 118.518,308.424 116.684,307.963 114.951 C 307.503 113.218,307.033 111.303,306.917 110.695 C 306.802 110.087,306.549 109.492,306.354 109.371 C 306.159 109.251,306.000 108.749,306.000 108.256 C 306.000 107.763,305.836 107.189,305.635 106.980 C 305.434 106.771,305.209 106.150,305.135 105.600 C 305.061 105.050,304.910 104.510,304.800 104.400 C 304.210 103.810,303.600 102.287,303.600 101.405 C 303.600 100.852,303.465 100.399,303.300 100.397 C 302.941 100.393,302.000 98.456,302.000 97.720 C 302.000 97.434,301.820 97.200,301.600 97.200 C 301.380 97.200,301.200 96.966,301.200 96.680 C 301.200 95.944,300.259 94.007,299.900 94.003 C 299.735 94.001,299.600 93.640,299.600 93.200 C 299.600 92.760,299.420 92.400,299.200 92.400 C 298.980 92.400,298.800 92.130,298.800 91.800 C 298.800 91.470,298.620 91.200,298.400 91.200 C 298.180 91.200,298.000 90.840,298.000 90.400 C 298.000 89.960,297.820 89.600,297.600 89.600 C 297.380 89.600,297.200 89.280,297.200 88.888 C 297.200 88.497,296.840 87.917,296.400 87.600 C 295.960 87.283,295.600 86.703,295.600 86.312 C 295.600 85.920,295.420 85.600,295.200 85.600 C 294.980 85.600,294.800 85.280,294.800 84.888 C 294.800 84.497,294.440 83.917,294.000 83.600 C 293.560 83.283,293.200 82.743,293.200 82.400 C 293.200 82.057,292.840 81.517,292.400 81.200 C 291.960 80.883,291.600 80.381,291.600 80.085 C 291.600 79.443,289.908 77.127,288.100 75.292 C 287.385 74.567,286.800 73.807,286.800 73.604 C 286.800 73.401,285.405 71.810,283.700 70.068 C 280.054 66.345,279.200 65.339,279.200 64.772 C 279.200 64.541,279.029 64.458,278.820 64.588 C 278.611 64.717,278.237 64.442,277.988 63.977 C 277.739 63.512,277.445 63.222,277.334 63.332 C 277.224 63.443,276.193 62.603,275.044 61.467 C 272.681 59.129,270.907 57.600,270.557 57.600 C 270.427 57.600,269.817 57.060,269.200 56.400 C 268.583 55.740,267.908 55.200,267.699 55.200 C 267.490 55.200,266.754 54.660,266.063 54.000 C 265.372 53.340,264.575 52.800,264.292 52.800 C 264.009 52.800,263.517 52.440,263.200 52.000 C 262.883 51.560,262.343 51.200,262.000 51.200 C 261.657 51.200,261.117 50.840,260.800 50.400 C 260.483 49.960,259.903 49.600,259.512 49.600 C 259.120 49.600,258.800 49.453,258.800 49.274 C 258.800 48.981,256.908 47.821,254.503 46.640 C 254.010 46.398,253.605 46.065,253.603 45.900 C 253.601 45.735,253.338 45.600,253.018 45.600 C 252.698 45.600,251.753 45.137,250.918 44.570 C 250.083 44.004,248.905 43.441,248.300 43.320 C 247.695 43.199,247.200 42.943,247.200 42.750 C 247.200 42.558,246.912 42.400,246.560 42.400 C 245.964 42.400,243.902 41.608,242.305 40.766 C 241.923 40.565,241.248 40.400,240.805 40.400 C 240.362 40.400,240.000 40.220,240.000 40.000 C 240.000 39.780,239.550 39.600,239.000 39.600 C 238.450 39.600,238.000 39.420,238.000 39.200 C 238.000 38.980,237.460 38.800,236.800 38.800 C 236.140 38.800,235.600 38.620,235.600 38.400 C 235.600 38.180,235.060 38.000,234.400 38.000 C 233.740 38.000,233.200 37.820,233.200 37.600 C 233.200 37.380,232.671 37.200,232.024 37.200 C 231.377 37.200,230.736 37.020,230.600 36.800 C 230.464 36.580,229.733 36.400,228.976 36.400 C 228.219 36.400,227.600 36.220,227.600 36.000 C 227.600 35.780,226.880 35.600,226.000 35.600 C 225.120 35.600,224.400 35.437,224.400 35.239 C 224.400 34.881,222.546 34.580,217.700 34.152 C 216.325 34.031,215.200 33.767,215.200 33.566 C 215.200 33.365,213.400 33.200,211.200 33.200 C 208.800 33.200,207.200 33.040,207.200 32.800 C 207.200 32.548,204.533 32.400,200.000 32.400 C 195.467 32.400,192.800 32.548,192.800 32.800 " stroke="none" fill="#acbbc3" fill-rule="evenodd"></path><path id="path1" d="M133.700 177.589 C 133.222 178.354,132.599 178.383,113.303 178.526 C 100.901 178.618,92.495 178.843,91.000 179.123 C 88.875 179.521,88.541 179.494,88.084 178.888 C 87.769 178.470,87.458 178.359,87.284 178.603 C 87.128 178.823,86.460 179.063,85.800 179.136 C 85.140 179.209,84.429 179.433,84.220 179.634 C 84.011 179.835,83.516 180.000,83.120 180.000 C 82.724 180.000,82.400 180.180,82.400 180.400 C 82.400 180.620,82.147 180.800,81.838 180.800 C 81.320 180.800,78.060 182.339,77.600 182.801 C 77.490 182.911,76.863 183.271,76.207 183.601 C 75.551 183.930,74.489 184.695,73.848 185.300 C 73.206 185.905,72.531 186.400,72.348 186.400 C 71.890 186.400,63.600 194.605,63.600 195.058 C 63.600 195.259,63.240 195.683,62.800 196.000 C 62.360 196.317,62.000 196.897,62.000 197.288 C 62.000 197.680,61.853 198.000,61.674 198.000 C 61.150 198.000,58.400 203.865,58.400 204.981 C 58.400 205.542,58.220 206.000,58.000 206.000 C 57.780 206.000,57.600 206.360,57.600 206.800 C 57.600 207.240,57.420 207.600,57.200 207.600 C 56.980 207.600,56.800 208.230,56.800 209.000 C 56.800 209.770,56.620 210.400,56.400 210.400 C 56.180 210.400,56.000 211.210,56.000 212.200 C 56.000 213.190,55.820 214.000,55.600 214.000 C 55.335 214.000,55.200 239.200,55.200 288.800 C 55.200 338.400,55.335 363.600,55.600 363.600 C 55.820 363.600,56.000 364.500,56.000 365.600 C 56.000 366.700,56.180 367.600,56.400 367.600 C 56.620 367.600,56.800 368.140,56.800 368.800 C 56.800 369.460,56.980 370.000,57.200 370.000 C 57.420 370.000,57.600 370.540,57.600 371.200 C 57.600 371.860,57.780 372.400,58.000 372.400 C 58.220 372.400,58.400 372.692,58.400 373.050 C 58.400 373.963,60.436 378.400,60.855 378.400 C 61.045 378.400,61.200 378.760,61.200 379.200 C 61.200 379.640,61.350 380.000,61.532 380.000 C 61.715 380.000,62.119 380.495,62.430 381.100 C 62.740 381.705,63.274 382.470,63.616 382.800 C 63.958 383.130,64.674 384.030,65.206 384.800 C 66.641 386.874,70.275 390.281,72.066 391.230 C 72.580 391.503,73.291 392.057,73.647 392.463 C 74.003 392.868,74.588 393.200,74.947 393.200 C 75.306 393.200,75.600 393.380,75.600 393.600 C 75.600 393.820,75.870 394.000,76.200 394.000 C 76.530 394.000,76.800 394.147,76.800 394.326 C 76.800 394.798,79.936 396.400,80.861 396.400 C 81.294 396.400,81.536 396.580,81.400 396.800 C 81.260 397.027,81.596 397.200,82.176 397.200 C 82.739 397.200,83.200 397.380,83.200 397.600 C 83.200 397.820,83.740 398.000,84.400 398.000 C 85.060 398.000,85.600 398.180,85.600 398.400 C 85.600 398.620,86.125 398.800,86.767 398.800 C 87.408 398.800,88.008 399.025,88.100 399.300 C 88.345 400.036,311.655 400.036,311.900 399.300 C 311.992 399.025,312.592 398.800,313.233 398.800 C 313.875 398.800,314.400 398.620,314.400 398.400 C 314.400 398.180,314.940 398.000,315.600 398.000 C 316.260 398.000,316.800 397.820,316.800 397.600 C 316.800 397.380,317.261 397.200,317.824 397.200 C 318.404 397.200,318.740 397.027,318.600 396.800 C 318.464 396.580,318.706 396.400,319.139 396.400 C 320.064 396.400,323.200 394.798,323.200 394.326 C 323.200 394.147,323.470 394.000,323.800 394.000 C 324.130 394.000,324.400 393.820,324.400 393.600 C 324.400 393.380,324.694 393.200,325.053 393.200 C 325.412 393.200,325.997 392.868,326.353 392.463 C 326.709 392.057,327.420 391.503,327.934 391.230 C 329.725 390.281,333.359 386.874,334.794 384.800 C 335.326 384.030,336.042 383.130,336.384 382.800 C 336.726 382.470,337.260 381.705,337.570 381.100 C 337.881 380.495,338.285 380.000,338.468 380.000 C 338.650 380.000,338.800 379.655,338.800 379.233 C 338.800 378.812,338.966 378.407,339.170 378.333 C 339.373 378.260,339.598 377.934,339.670 377.610 C 339.741 377.285,340.031 376.771,340.313 376.468 C 340.594 376.166,341.037 375.126,341.295 374.159 C 341.554 373.192,341.909 372.400,342.083 372.400 C 342.257 372.400,342.400 371.860,342.400 371.200 C 342.400 370.540,342.580 370.000,342.800 370.000 C 343.020 370.000,343.200 369.460,343.200 368.800 C 343.200 368.140,343.380 367.600,343.600 367.600 C 343.820 367.600,344.000 366.700,344.000 365.600 C 344.000 364.500,344.180 363.600,344.400 363.600 C 344.665 363.600,344.800 338.475,344.800 289.024 C 344.800 239.737,344.664 214.363,344.400 214.200 C 344.180 214.064,344.000 213.153,344.000 212.176 C 344.000 211.199,343.820 210.400,343.600 210.400 C 343.380 210.400,343.200 209.770,343.200 209.000 C 343.200 208.230,343.020 207.600,342.800 207.600 C 342.580 207.600,342.400 207.251,342.400 206.824 C 342.400 206.397,342.220 205.936,342.000 205.800 C 341.780 205.664,341.600 205.201,341.600 204.772 C 341.600 203.775,338.836 198.000,338.359 198.000 C 338.162 198.000,338.000 197.680,338.000 197.288 C 338.000 196.897,337.640 196.317,337.200 196.000 C 336.760 195.683,336.400 195.254,336.400 195.046 C 336.400 194.538,327.228 185.600,326.706 185.600 C 326.479 185.600,326.003 185.271,325.647 184.870 C 325.291 184.468,324.415 183.884,323.700 183.572 C 322.985 183.260,322.400 182.869,322.400 182.702 C 322.400 182.536,322.130 182.400,321.800 182.400 C 321.470 182.400,321.200 182.220,321.200 182.000 C 321.200 181.780,320.851 181.600,320.424 181.600 C 319.997 181.600,319.536 181.420,319.400 181.200 C 319.264 180.980,318.803 180.800,318.376 180.800 C 317.949 180.800,317.600 180.620,317.600 180.400 C 317.600 180.180,317.251 180.000,316.824 180.000 C 316.397 180.000,315.936 179.820,315.800 179.600 C 315.664 179.380,315.201 179.200,314.771 179.200 C 314.341 179.200,313.650 178.988,313.236 178.730 C 312.634 178.354,312.357 178.386,311.850 178.893 C 311.183 179.560,308.973 179.506,306.640 178.767 C 306.002 178.565,296.782 178.400,286.144 178.400 C 267.240 178.400,266.796 178.382,266.307 177.600 C 265.524 176.346,134.483 176.335,133.700 177.589 " stroke="none" fill="#fcac34" fill-rule="evenodd"></path><path id="path2" d="M107.727 177.900 C 112.527 177.964,120.267 177.963,124.927 177.899 C 129.587 177.836,125.660 177.783,116.200 177.783 C 106.740 177.783,102.927 177.836,107.727 177.900 M275.327 177.900 C 280.127 177.964,287.867 177.963,292.527 177.899 C 297.187 177.836,293.260 177.783,283.800 177.783 C 274.340 177.783,270.527 177.836,275.327 177.900 " stroke="none" fill="#d4b47c" fill-rule="evenodd"></path><path id="path3" d="M97.000 177.557 C 95.443 177.793,129.007 177.702,132.200 177.461 C 133.080 177.394,125.880 177.334,116.200 177.327 C 106.520 177.319,97.880 177.423,97.000 177.557 M267.800 177.461 C 271.221 177.719,304.497 177.785,302.800 177.530 C 301.810 177.381,293.170 177.277,283.600 177.300 C 274.030 177.322,266.920 177.394,267.800 177.461 M90.800 178.400 C 90.036 178.894,90.858 178.894,92.400 178.400 L 93.400 178.080 92.400 178.046 C 91.850 178.027,91.130 178.187,90.800 178.400 M307.600 178.400 C 309.142 178.894,309.964 178.894,309.200 178.400 C 308.870 178.187,308.150 178.027,307.600 178.046 L 306.600 178.080 307.600 178.400 " stroke="none" fill="#ccb488" fill-rule="evenodd"></path><path id="path4" d="M133.364 177.596 C 133.117 177.843,125.764 178.033,113.784 178.100 L 94.600 178.208 113.851 178.304 C 130.555 178.387,133.168 178.321,133.600 177.800 C 134.156 177.131,133.981 176.979,133.364 177.596 M266.349 177.700 C 266.860 178.352,268.224 178.393,286.149 178.304 L 305.400 178.208 286.236 178.100 C 271.732 178.018,266.918 177.872,266.436 177.496 C 265.873 177.057,265.863 177.081,266.349 177.700 M91.400 178.800 L 90.200 179.105 91.400 179.125 C 92.060 179.135,92.960 178.989,93.400 178.800 L 94.200 178.456 93.400 178.475 C 92.960 178.486,92.060 178.632,91.400 178.800 M306.600 178.780 C 307.361 179.126,310.317 179.364,309.967 179.051 C 309.875 178.969,308.900 178.793,307.800 178.659 C 306.454 178.495,306.061 178.535,306.600 178.780 " stroke="none" fill="#ecb45c" fill-rule="evenodd"></path></g></svg>