<svg id="visual" viewBox="0 0 960 300" width="960" height="300" xmlns="http://www.w3.org/2000/svg" xmlns:xlink="http://www.w3.org/1999/xlink" version="1.1"><rect x="0" y="0" width="960" height="300" fill="#1c1c1e"></rect><path d="M0 213L16 208.8C32 204.7 64 196.3 96 199.5C128 202.7 160 217.3 192 218C224 218.7 256 205.3 288 203C320 200.7 352 209.3 384 214.2C416 219 448 220 480 216C512 212 544 203 576 205.2C608 207.3 640 220.7 672 223.5C704 226.3 736 218.7 768 217.8C800 217 832 223 864 227C896 231 928 233 944 234L960 235L960 301L944 301C928 301 896 301 864 301C832 301 800 301 768 301C736 301 704 301 672 301C640 301 608 301 576 301C544 301 512 301 480 301C448 301 416 301 384 301C352 301 320 301 288 301C256 301 224 301 192 301C160 301 128 301 96 301C64 301 32 301 16 301L0 301Z" fill="#7289da"></path><path d="M0 245L16 248.3C32 251.7 64 258.3 96 260.3C128 262.3 160 259.7 192 255.8C224 252 256 247 288 248.8C320 250.7 352 259.3 384 262.8C416 266.3 448 264.7 480 261.2C512 257.7 544 252.3 576 253C608 253.7 640 260.3 672 260.2C704 260 736 253 768 246.8C800 240.7 832 235.3 864 236C896 236.7 928 243.3 944 246.7L960 250L960 301L944 301C928 301 896 301 864 301C832 301 800 301 768 301C736 301 704 301 672 301C640 301 608 301 576 301C544 301 512 301 480 301C448 301 416 301 384 301C352 301 320 301 288 301C256 301 224 301 192 301C160 301 128 301 96 301C64 301 32 301 16 301L0 301Z" fill="#ffd769"></path></svg>