<?xml version="1.0" encoding="UTF-8"?>
<svg xmlns="http://www.w3.org/2000/svg" xmlns:xlink="http://www.w3.org/1999/xlink" width="960px" height="900px" viewBox="0 0 960 900" version="1.1">
<g id="surface1">
<rect x="0" y="0" width="960" height="900" style="fill:rgb(10.980392%,10.980392%,11.764706%);fill-opacity:1;stroke:none;"/>
<path style=" stroke:none;fill-rule:nonzero;fill:rgb(44.705882%,53.72549%,85.490196%);fill-opacity:1;" d="M 0 639 L 16 626.402344 C 32 614.097656 64 588.902344 96 598.5 C 128 608.097656 160 651.902344 192 654 C 224 656.097656 256 615.902344 288 609 C 320 602.097656 352 627.902344 384 642.597656 C 416 657 448 660 480 648 C 512 636 544 609 576 615.597656 C 608 621.902344 640 662.097656 672 670.5 C 704 678.902344 736 656.097656 768 653.402344 C 800 651 832 669 864 681 C 896 693 928 699 944 702 L 960 705 L 960 903 L 944 903 C 928 903 896 903 864 903 C 832 903 800 903 768 903 C 736 903 704 903 672 903 C 640 903 608 903 576 903 C 544 903 512 903 480 903 C 448 903 416 903 384 903 C 352 903 320 903 288 903 C 256 903 224 903 192 903 C 160 903 128 903 96 903 C 64 903 32 903 16 903 L 0 903 Z M 0 639 "/>
<path style=" stroke:none;fill-rule:nonzero;fill:rgb(100%,84.313725%,41.176471%);fill-opacity:1;" d="M 0 735 L 16 744.902344 C 32 755.097656 64 774.902344 96 780.902344 C 128 786.902344 160 779.097656 192 767.402344 C 224 756 256 741 288 746.402344 C 320 752.097656 352 777.902344 384 788.402344 C 416 798.902344 448 794.097656 480 783.597656 C 512 773.097656 544 756.902344 576 759 C 608 761.097656 640 780.902344 672 780.597656 C 704 780 736 759 768 740.402344 C 800 722.097656 832 705.902344 864 708 C 896 710.097656 928 729.902344 944 740.097656 L 960 750 L 960 903 L 944 903 C 928 903 896 903 864 903 C 832 903 800 903 768 903 C 736 903 704 903 672 903 C 640 903 608 903 576 903 C 544 903 512 903 480 903 C 448 903 416 903 384 903 C 352 903 320 903 288 903 C 256 903 224 903 192 903 C 160 903 128 903 96 903 C 64 903 32 903 16 903 L 0 903 Z M 0 735 "/>
</g>
</svg>
