<?xml version="1.0" encoding="UTF-8"?>
<svg id="Layer_1" data-name="Layer 1" xmlns="http://www.w3.org/2000/svg" viewBox="0 0 512 512">
  <defs>
    <style>
      .cls-1 {
        fill: #f06324;
      }

      .cls-1, .cls-2, .cls-3, .cls-4, .cls-5 {
        fill-rule: evenodd;
        stroke-width: 0px;
      }

      .cls-2 {
        fill: #2b1309;
      }

      .cls-3 {
        fill: #fbdb6c;
      }

      .cls-4 {
        fill: #29b150;
      }

      .cls-5 {
        fill: #fbfbfb;
      }
    </style>
  </defs>
  <g id="svgg">
    <path id="path0" class="cls-4" d="m229.5,100.32c-1.51.08-8.38.39-15.25.69-37.97,1.67-65.96,17.42-74.46,41.91-2.28,6.56-2.27,7.8.01,3.33,7.64-14.94,25.38-26.5,41.16-26.81,1.53-.03,3.02-.25,3.32-.48,5.2-4.15,56.21-.03,102.97,8.32,34.71,6.2,39.37,7.44,49.04,13.1,18.88,11.04,26.96,40.82,19.5,71.87-.4,1.65-.68,3.01-.63,3.04,6.97,3.27,15.15,10.15,18.24,15.34,1.1,1.85,1.31,1.76,2.49-1,11.24-26.39,8.18-77.59-5.62-93.76-11.43-13.4-23.87-19.68-50.71-25.6-17.67-3.9-40.79-7.49-56.31-8.74-6.57-.53-28.86-1.58-30.25-1.42-.41.05-1.99.15-3.5.22m-40.25,27.23c-31.43,2.65-44.14,15.28-50.26,49.94-1.59,8.98-.77,18.37,1.81,20.75.65.61,1.52,1.9,1.93,2.87.95,2.27,4.89,5.71,9.05,7.9l3.26,1.72,2.33-2.75c10.15-11.96,20.81-17.27,28.22-14.06,4.84,2.1,5.81,5.78,1.18,4.5-4.06-1.12-8.23-.41-12.06,2.06-3.21,2.07-12.21,10.47-12.21,11.41,0,.67,33.07,7.56,43.63,9.08,4.06.59,8.17,1.4,9.14,1.8,7.21,3.01,50.7,8.34,79.84,9.79,13.63.68,13.21.73,12.1-1.49-.43-.87-1.34-3.64-2.01-6.16-3.43-12.8-9.16-17.93-20.02-17.93-4.82,0-6.45-1.17-5.26-3.78,2.57-5.64,20.24-1.98,26.17,5.42,5.1,6.36,8.91,20.08,6.42,23.09-1.08,1.3-.21,1.52,5.67,1.46,14.52-.16,21.95-4.52,25.24-14.8,6.21-19.41,5.21-45.15-2.23-57.5-6.98-11.59-14.12-15.63-34.69-19.63-54.91-10.67-96.09-15.48-117.25-13.69m-60.75,73.01c-17.26,9.83-30.93,44.27-29.84,75.17,1,28.34,14.32,51.75,29.45,51.75,10.64,0,14.8-11.56,10.71-29.75-5.31-23.62-7.05-51.48-5.12-82.07,1.09-17.3.69-18.46-5.21-15.1m220.91,28.4c-1.25,2.01-2.85,3.7-5,5.24-4.54,3.26-4.46,3.14-7.02,9.69-12.35,31.48-16.99,72.42-9.83,86.7,7.61,15.18,27.67,12.27,39.64-5.76,18.13-27.31,12.26-76.46-11.44-95.84-4.46-3.65-4.1-3.65-6.34-.02m-184.04,58.37c.62.12,1.63.12,2.25,0,.62-.12.11-.22-1.13-.22s-1.74.1-1.13.22m58.72,75.08c-1.6,4.59,13.86,9.88,19.26,6.59,1.48-.9,4.02-4.81,3.48-5.35-.13-.13-2.43-.44-5.12-.7-4.65-.44-9.69-1.04-14.77-1.76-2.24-.32-2.32-.28-2.85,1.22m55.33-1.19c-.53.53-11.13,1.81-17.81,2.15l-7.13.36,2.27,2.59c7.03,8.03,14.81,7.13,21.32-2.45,1.69-2.49,2.21-3.51,1.36-2.65"/>
    <path id="path1" class="cls-3" d="m0,255.99v255.99h155.88l.35-2.87c5.2-43.06,29.74-108.24,54.87-145.75,1.95-2.91,2.72-4.45,2.29-4.59-.35-.12-3.09-.8-6.08-1.53-23.59-5.75-44.93-17.8-57.37-32.4l-3.18-3.73-1.63,3.06c-13.26,24.82-44.36,6.16-52.11-31.25-7.57-36.58,7.89-84.29,31.38-96.8l2.91-1.55-.43-4.15c-.44-4.22.18-20.2,1.18-30.39,3.14-32.04,19.61-51.68,52.44-62.51,31.21-10.3,100.59-6.99,154,7.34,31.09,8.34,47.86,22.14,53.52,44.03,8.46,32.72,6.02,67.37-6.31,89.4l-1.78,3.19,1.74,4.39c16.4,41.34,3.61,88.41-27.4,100.82-8.75,3.5-19.97,2.17-27.29-3.23-.62-.45-1.42-.15-4,1.52-7.59,4.9-22.94,11.62-30.86,13.5-3.41.81-3.4.79-1.45,5.09,2.06,4.54,4.07,11.18,9.51,31.43,9.74,36.21,11.59,44.06,20.28,86l6.38,30.75,92.58.13,92.58.13V0H0v255.99m290-16.51c.41.27,1.52.5,2.46.51,2.24.01,1.84-.27-.96-.68-1.57-.23-2.02-.18-1.5.17m-138.28,4.14l-1.47,1.63,1.62-1.47c1.52-1.37,1.85-1.78,1.47-1.78-.09,0-.82.73-1.63,1.62m-10.07,8.88c0,1.51.09,2.13.21,1.37.11-.76.11-1.99,0-2.75-.12-.76-.21-.14-.21,1.38m172.51,18.5c0,1.79.09,2.52.2,1.62.11-.89.11-2.36,0-3.25s-.2-.16-.2,1.63m-48.5,9c0,1.79.09,2.52.2,1.63.11-.89.11-2.36,0-3.25-.11-.89-.2-.16-.2,1.63m19.71,24.36c.89.11,2.36.11,3.25,0,.89-.11.16-.2-1.62-.2s-2.52.09-1.63.2m30.28,7.89c0,1.65.1,2.27.21,1.37.11-.9.11-2.25,0-3-.11-.75-.2-.02-.2,1.63m-150.15,3c1.49,1.51,2.83,2.75,2.97,2.75s-.97-1.24-2.47-2.75c-1.49-1.51-2.83-2.75-2.97-2.75s.97,1.24,2.47,2.75m69.13,16.09c.48.13,1.27.13,1.75,0,.48-.13.09-.23-.88-.23s-1.36.1-.87.23"/>
    <path id="path2" class="cls-2" d="m213.25,92.27c-42.3,2.27-70.76,18.89-80.57,47.04-4.34,12.44-7.07,38.07-5.54,51.93l.39,3.5-2.39,1.1c-7.17,3.31-18.74,17.08-23.96,28.51-16.59,36.33-12.1,83.43,9.86,103.3,12.07,10.92,27.83,9.18,34.17-3.79l1.34-2.73,7.35,7.33c14.17,14.13,31.11,23.15,54.1,28.8,3.16.78,5.84,1.48,5.95,1.56.11.08-1.08,2.06-2.65,4.39-25.21,37.5-48.43,99.2-55.09,146.4l-.34,2.39,7.85-.14,7.85-.14,3.16-12.5c7.62-30.17,22.16-76.52,23.57-75.11.15.15.48,6.99.72,15.19.64,21.68-.1,20.44,13.48,22.44,16.21,2.38,17.15,1.91,19.44-9.77,4.53-23.13,4.97-31.93,1.69-34.5-1.94-1.52-27.41-.72-30.55.96-1.2.64-3.08.72-3.08.13,0-1.5,11.15-27.78,17.35-40.9l3.81-8.06,2.29,1.63c9.21,6.54,19.48,6.97,25.4,1.04l2.61-2.61,2.39,2.43c8.36,8.51,20.23,7.61,27.47-2.1,1.22-1.64,1.99-2.3,2.21-1.89,1.42,2.66,6.81,37.09,12.71,81.12,3.6,26.85,6.48,46.1,8.52,56.88.4,2.14.73,4.33.73,4.88,0,.95.37.99,10.5.99,8.85,0,10.5-.11,10.5-.73,0-1.05-11.12-54.67-13.79-66.49-6.18-27.4-18.61-73.16-22.05-81.18-.98-2.28-1.7-4.21-1.6-4.29.1-.08,1.98-.66,4.18-1.29,9.44-2.72,22.38-8.47,29.62-13.15l3.41-2.21,2.47,1.67c18.42,12.44,45.63-3.15,55.14-31.57,7.05-21.07,6.34-44.88-1.96-66.12-1.81-4.62-1.98-5.42-1.41-6.33,16.81-26.79,16.36-86.65-.82-109.13-12.12-15.86-30.41-24.21-69.19-31.62-37.52-7.16-63.33-9.09-97.25-7.27m32,8.23c21.79.93,34.93,2.37,55.06,6.03,42.9,7.8,56.44,13.48,69.96,29.33,13.8,16.17,16.87,67.36,5.62,93.76-1.18,2.76-1.39,2.85-2.49,1-3.08-5.2-11.26-12.07-18.24-15.34-.05-.02.24-1.39.63-3.04,7.46-31.05-.62-60.83-19.5-71.87-9.67-5.65-14.33-6.9-49.04-13.1-46.75-8.35-97.77-12.47-102.97-8.32-.29.23-1.79.45-3.32.48-17.16.34-36.53,14.05-42.72,30.24-1.74,4.54-1.27,1.85.75-4.36,5.3-16.29,13.2-24.71,31.74-33.83,15.51-7.63,23.73-9.61,43.51-10.47,14.07-.62,17.67-.79,18.75-.91.41-.05,5.93.14,12.25.41m-36.75,27c29.02,1.77,55.38,5.46,98,13.74,20.57,4,27.71,8.04,34.69,19.63,7.44,12.36,8.44,38.09,2.23,57.5-3.29,10.28-10.73,14.64-25.24,14.8-5.88.06-6.75-.16-5.67-1.46,2.49-3.01-1.32-16.72-6.42-23.09-5.93-7.4-23.6-11.07-26.17-5.42-1.19,2.61.44,3.78,5.26,3.78,10.87,0,16.6,5.13,20.02,17.93.67,2.52,1.58,5.29,2.01,6.16,1.11,2.22,1.53,2.17-12.1,1.49-29.14-1.44-72.63-6.77-79.84-9.79-.97-.4-5.08-1.22-9.14-1.8-10.56-1.53-43.63-8.41-43.63-9.08,0-.93,9-9.34,12.21-11.41,3.83-2.47,8-3.18,12.06-2.06,4.63,1.28,3.66-2.4-1.18-4.5-7.4-3.21-18.07,2.1-28.22,14.06l-2.33,2.75-3.26-1.72c-4.16-2.19-8.1-5.64-9.05-7.9-.41-.97-1.27-2.27-1.93-2.87-4.41-4.08-2.95-23.26,3.03-39.9,8.62-23.99,27.69-33.09,64.67-30.84m-74.83,73.29c.81,1.7.81,2.55.03,14.87-1.93,30.59-.19,58.45,5.12,82.07,9.22,41.01-26.87,39.14-37.37-1.93-7.98-31.21.95-69.89,20.8-90.1,6.04-6.15,10.01-7.86,11.42-4.91m16.7,15.24c.92.4,1.63,1.08,1.63,1.56,0,2.99,1.94,4.13,4.12,2.42,1.25-.98,1.26-.98,4.14.03,7.47,2.63,16.29,4.28,33.07,6.2,6.01.69,14.97,2.04,19.92,3.01,35.51,6.97,88.23,12.2,111.59,11.06l6.09-.3-1.46,3.54c-11.66,28.27-16.89,69.51-10.99,86.64.56,1.63.96,3.01.89,3.06-13.92,11.85-51.16,19.14-76.88,15.05-63.63-10.11-97.78-39.75-100.57-87.3-.55-9.32-.29-45.49.35-48.08l.32-1.32,3.08,1.86c1.69,1.02,3.81,2.17,4.7,2.56m205.38,12.96c23.71,19.37,29.58,68.52,11.44,95.84-11.97,18.03-32.02,20.94-39.64,5.76-7.16-14.27-2.52-55.22,9.83-86.7,2.57-6.54,2.48-6.42,7.02-9.69,2.15-1.54,3.75-3.22,5-5.24,2.24-3.62,1.88-3.62,6.34.02m-184.86,2.27c-8.58,2.08-20.26,12.02-24.75,21.06l-2.39,4.82v11.19l2.36,4.76c4.99,10.05,10.43,13.65,20.65,13.65h6.06l4.26-2.11c6.91-3.43,10.82-8.1,17.26-20.64,9.07-17.67-4.94-37.21-23.46-32.72m115.45,9.91c-11.17,4.72-20.34,22.33-20.34,39.02,0,29.83,38.64,32.27,46.58,2.94,6.42-23.71-9.43-49.07-26.24-41.96m-89.56,63.1c-2.95,2.95,3.36,13.38,11.38,18.83,16.17,10.98,41.37,10.32,53.08-1.38,7.17-7.17,4.8-11.81-3.36-6.56-18.36,11.82-45.88,6.89-58.04-10.39-1.03-1.47-1.94-1.61-3.07-.49m36.25,57.74c2.08.27,5.99.69,8.67.95,5.82.55,5.62.41,4.3,3-2.84,5.56-13.39,5.43-20.32-.24-3.1-2.54-2.41-5.04,1.25-4.52,1.27.18,4.01.55,6.09.81m45.04,1.87c-6.51,9.59-14.29,10.48-21.32,2.45l-2.27-2.59,7.13-.36c6.69-.34,17.28-1.62,17.81-2.15.86-.86.34.16-1.36,2.65m-31.3,25.56c-1.12,2.16-1.66,5.06-2.53,13.59-.44,4.24-2.01,18.4-3.51,31.46-3.59,31.42-6.74,66.56-6.74,75.34v2.16h4.41l.31-4.13c.17-2.27.75-10.31,1.3-17.87,1.25-17.35,2.12-26.79,4.01-43.75,5.48-49.06,6.17-63.43,2.75-56.8m7.6,27.13c-.76.28-1.37.67-1.37.87s-.7,1.43-1.56,2.73l-1.56,2.35-.51,18.65c-.67,24.87-2.52,22.5,17.94,23.05,18.38.49,17.14,1.61,18.43-16.6.4-5.71.99-13.13,1.29-16.5.67-7.4.16-8.74-4.19-10.85-5.4-2.63-24.58-5.12-28.47-3.7m-27.98,6.66c.57.5-11.95,17.25-12.89,17.25-.65,0-7.51-16.21-7.51-17.75,0-.12,20.25.38,20.4.5m42.1,1.58c3.44.68,6.46,1.44,6.71,1.69.94.93-4.19,16.57-7.02,21.39l-1.33,2.27-.91-1.13c-1.56-1.92-7.44-21.58-7.44-24.85,0-1.42-.63-1.46,10,.63m-40.49,12.77c-.6,3.66-1.64,9.33-2.3,12.6-.66,3.27-1.21,6.02-1.21,6.12,0,.39-3.71.15-8.86-.57-2.96-.42-6.33-.88-7.48-1.03-2.49-.32-2.48-.27-2.91-10.97l-.28-7,1.57,3c4.87,9.33,8.92,8.61,17.71-3.14,2.48-3.31,4.58-5.94,4.68-5.84s-.32,3.16-.92,6.82m28.24,1.28c7.11,22.49,13.43,23.06,21.74,1.98.63-1.59,1.2-2.83,1.28-2.75.29.29-1.13,20.42-1.46,20.75-.39.39-23.63.53-23.89.14-.23-.33.06-26,.29-26,.1,0,1.02,2.64,2.04,5.87"/>
    <path id="path3" class="cls-1" d="m153.5,328.73c1.77,1.79,3.33,3.25,3.47,3.25s-1.2-1.46-2.97-3.25c-1.77-1.79-3.33-3.25-3.47-3.25s1.2,1.46,2.97,3.25m127.83,41.27c-7.25,9.71-19.11,10.61-27.47,2.1l-2.39-2.43-2.61,2.61c-5.92,5.92-16.19,5.5-25.4-1.04l-2.29-1.63-3.81,8.06c-6.2,13.12-17.35,39.4-17.35,40.9,0,.59,1.88.51,3.08-.13,3.14-1.68,28.62-2.49,30.55-.96,3.27,2.57,2.84,11.38-1.69,34.5-2.29,11.68-3.23,12.15-19.44,9.77-13.58-2-12.84-.76-13.48-22.44-.24-8.2-.57-15.04-.72-15.19-1.67-1.67-20.28,59.39-26.51,86.98-.19.83,1.54.88,30.89.88h31.09l1.15-16.37c1.53-21.82,2.66-33.76,5.59-59.12,1.35-11.69,2.92-25.74,3.5-31.23,1.12-10.78,1.61-13.58,2.77-15.82,3.43-6.63,2.73,7.73-2.75,56.8-1.89,16.96-2.76,26.4-4.01,43.75-.55,7.56-1.13,15.61-1.3,17.87l-.31,4.13h33.54c33.1,0,33.54-.01,33.54-.99,0-.55-.33-2.74-.73-4.88-2.04-10.78-4.92-30.04-8.52-56.88-5.9-44.03-11.29-78.46-12.71-81.12-.22-.41-.99.25-2.21,1.89m-15.33,46.74c19.44,2.2,21.99,3.93,21.04,14.37-.31,3.36-.89,10.79-1.29,16.5-1.29,18.22-.04,17.09-18.43,16.6-20.46-.55-18.62,1.82-17.94-23.05l.51-18.65,1.56-2.35c.86-1.29,1.56-2.52,1.56-2.73,0-1.46,4.2-1.69,13-.69m-60,5.98c0,1.54,6.86,17.75,7.51,17.75.94,0,13.45-16.75,12.89-17.25-.14-.12-20.4-.62-20.4-.5m52.5,1.45c0,3.27,5.88,22.93,7.44,24.85l.91,1.13,1.33-2.27c2.83-4.83,7.96-20.46,7.02-21.39-.39-.39-8.55-2.17-14.83-3.24-1.75-.3-1.88-.23-1.88.92m-34.25,12.42c-8.79,11.74-12.84,12.46-17.71,3.14l-1.57-3,.28,7c.43,10.7.42,10.65,2.91,10.97,1.15.15,4.51.61,7.48,1.03,5.15.72,8.86.96,8.86.57,0-.1.54-2.86,1.21-6.12,1.5-7.39,3.46-19.2,3.22-19.42-.1-.09-2.2,2.54-4.68,5.84m29.64,9.26c-.08,7.08-.07,12.99.03,13.12.26.38,23.5.24,23.89-.14.33-.33,1.75-20.46,1.46-20.75-.08-.08-.65,1.16-1.28,2.75-8.31,21.08-14.63,20.5-21.74-1.98-1.02-3.23-1.94-5.87-2.04-5.87s-.24,5.79-.32,12.87"/>
    <path id="path4" class="cls-5" d="m142.32,214.36c-1.68,12.85-.62,51.96,1.64,60.74,10.64,41.21,42.15,64.55,98.32,72.85,27.01,3.99,55.47-1.07,74.58-13.28l2.61-1.67-.77-1.85c-6.2-14.84-1.8-55.42,9.06-83.44,1.28-3.3,2.43-6.34,2.56-6.75.2-.65-1.2-.75-10.66-.75-6,0-14.28-.15-18.4-.34-6.45-.3-7.18-.26-5.21.28,13.91,3.77,22.08,25.34,16.65,43.93-6.57,22.46-35.07,27.76-44.21,8.22-7.98-17.04,3.6-47.86,19.55-52.02,3.37-.88,2.58-1.13-5.02-1.58-19.98-1.18-49.1-5.13-71.6-9.71-4.04-.82-10.68-1.85-14.75-2.28-17.27-1.85-25.92-3.36-35.78-6.29-3.08-.91-3.48-.93-4.49-.23-2.26,1.59-4.38.53-4.38-2.18,0-.73-.74-1.4-2.62-2.35-1.44-.73-3.46-1.86-4.49-2.51-2.38-1.5-2.21-1.58-2.57,1.19m40.33,17.13c13.26,4.09,18.86,20.05,11.66,33.2-.92,1.67-2.65,4.84-3.86,7.03-10.96,19.91-34.38,21.21-44.07,2.45-6.16-11.92-3.08-23.72,8.77-33.58,1.98-1.65,4.41-3.69,5.39-4.52,5.96-5.06,14.71-6.87,22.12-4.58m16.83,72.62c.28.34,1.42,1.81,2.53,3.25,10.56,13.75,38.67,18.53,53.61,9.12,1.31-.82,3.49-2.2,4.86-3.06,6.73-4.24,6.56,3.48-.21,9.44-17.3,15.23-52.37,8.64-63.06-11.84-2.44-4.68-.59-10.36,2.26-6.91"/>
  </g>
</svg>