<svg id="svg" version="1.1" xmlns="http://www.w3.org/2000/svg" xmlns:xlink="http://www.w3.org/1999/xlink" width="400" height="400" viewBox="0, 0, 400,400"><g id="svgg"><path id="path0" d="M128.577 120.712 C 125.533 121.314,122.488 122.606,119.701 124.480 L 118.037 125.599 116.880 125.288 C 108.043 122.911,99.033 130.702,99.030 140.723 C 99.029 144.435,101.293 149.219,103.050 149.219 C 105.237 149.219,107.810 151.525,107.812 153.486 C 107.814 156.579,104.782 157.538,101.300 155.547 C 99.179 154.334,96.753 155.898,95.535 159.264 C 93.371 165.244,96.291 170.058,104.075 173.340 C 110.391 176.004,114.191 175.107,119.066 169.800 C 123.170 165.333,123.082 165.414,123.965 165.296 C 126.472 164.959,128.038 166.559,128.692 170.126 C 129.664 175.423,133.719 179.205,139.258 179.979 C 139.741 180.046,140.789 180.240,141.587 180.410 C 147.245 181.614,154.190 179.071,161.366 173.169 C 162.729 172.047,164.092 171.082,164.393 171.024 C 167.160 170.493,167.872 170.670,170.336 172.505 C 176.175 176.853,179.638 178.491,185.696 179.768 C 190.003 180.677,190.416 180.513,193.914 176.507 C 196.770 173.236,198.505 172.495,200.925 173.513 C 202.217 174.057,202.473 174.224,205.883 176.734 C 212.214 181.394,218.196 182.051,228.818 179.253 C 237.027 177.091,239.326 177.971,244.562 185.279 C 248.261 190.442,252.447 194.959,254.395 195.890 C 255.890 196.606,259.721 197.131,266.605 197.567 C 268.492 197.686,268.729 197.661,269.494 197.262 C 271.555 196.188,274.132 197.361,275.634 200.059 C 277.385 203.205,279.476 205.701,280.594 205.981 C 285.822 207.294,296.069 200.444,299.303 193.475 C 300.037 191.894,300.484 191.262,302.202 189.381 C 309.148 181.775,311.520 176.603,310.755 170.737 C 310.012 165.043,307.946 162.422,302.650 160.454 L 300.710 159.732 299.818 160.130 C 296.204 161.743,293.490 159.627,292.850 154.699 C 292.307 150.518,289.585 147.030,283.438 142.639 C 276.613 137.763,269.432 137.347,264.632 141.547 C 261.428 144.351,259.019 144.345,250.596 141.512 C 237.627 137.149,225.680 136.746,222.061 140.550 C 219.937 142.782,217.076 142.561,213.965 139.925 C 208.273 135.103,200.332 129.948,195.835 128.157 C 190.303 125.953,188.106 126.020,183.885 128.517 C 179.900 130.875,178.449 130.748,173.729 127.627 C 168.453 124.139,163.093 122.493,160.640 123.608 C 159.592 124.084,158.238 125.627,157.330 127.379 C 156.016 129.914,155.251 130.465,152.830 130.616 C 150.702 130.748,150.171 130.479,148.357 128.342 C 146.324 125.949,144.190 123.984,142.748 123.179 C 139.203 121.200,132.241 119.988,128.577 120.712 M345.996 133.995 C 337.224 136.154,330.469 142.890,330.469 149.477 C 330.469 150.833,331.542 151.921,333.465 152.515 C 337.342 153.713,337.624 156.776,334.047 158.838 C 328.692 161.928,322.900 172.714,325.342 175.050 C 329.138 178.681,339.457 177.946,344.371 173.695 C 347.034 171.390,350.036 173.714,349.744 177.853 C 349.588 180.068,350.267 180.503,354.502 180.897 C 361.389 181.538,368.080 175.766,369.732 167.758 C 370.629 163.414,370.205 161.885,367.871 161.046 C 364.128 159.700,364.312 157.002,368.322 154.426 C 370.374 153.108,372.714 147.420,372.366 144.596 C 372.188 143.150,370.976 142.734,366.228 142.489 C 365.002 142.426,363.806 142.326,363.572 142.267 C 363.231 142.182,363.094 142.283,362.891 142.772 C 362.577 143.530,361.551 144.336,360.901 144.336 C 360.100 144.336,359.747 143.698,359.054 140.992 C 358.338 138.196,358.001 137.501,356.857 136.468 C 355.126 134.904,348.465 133.387,345.996 133.995 M123.153 177.295 C 121.268 182.677,116.059 191.131,111.848 195.643 L 110.707 196.864 110.728 199.751 C 110.776 206.593,111.196 210.440,112.415 215.203 C 112.891 217.066,113.281 218.620,113.281 218.657 C 113.281 218.770,116.221 220.799,118.016 221.925 C 119.435 222.816,119.928 223.019,120.945 223.134 C 121.618 223.209,122.695 223.395,123.340 223.547 C 125.055 223.950,125.066 223.895,123.413 223.173 C 115.133 219.558,109.895 208.808,112.379 200.528 C 113.668 196.231,117.098 191.038,120.228 188.645 C 121.373 187.770,122.515 186.817,124.902 184.746 C 125.654 184.093,126.816 183.231,127.484 182.831 L 128.698 182.103 127.608 181.042 C 126.282 179.750,125.010 178.054,124.392 176.752 C 123.797 175.499,123.779 175.507,123.153 177.295 M165.815 178.620 C 163.997 180.810,157.061 184.890,153.223 186.028 C 152.256 186.314,151.359 186.583,151.229 186.624 C 151.074 186.674,151.222 187.078,151.660 187.806 C 155.527 194.228,154.978 202.292,150.193 209.375 C 149.794 209.966,149.135 211.108,148.730 211.914 C 144.883 219.559,138.304 224.057,130.490 224.385 L 127.483 224.512 129.513 225.127 C 130.630 225.465,133.037 226.200,134.863 226.760 C 146.014 230.180,147.353 230.429,154.985 230.493 C 170.022 230.619,175.690 231.342,188.453 234.759 C 194.759 236.448,196.127 236.569,204.395 236.174 C 213.183 235.754,215.964 235.355,214.908 234.666 C 209.387 231.064,206.381 222.094,207.874 213.672 C 210.010 201.622,215.179 192.432,221.830 188.859 L 222.754 188.362 218.555 188.367 C 211.332 188.375,207.239 187.079,201.871 183.083 L 199.411 181.252 197.997 182.742 C 193.364 187.620,190.285 188.330,182.416 186.335 C 176.697 184.884,170.853 182.059,166.999 178.883 C 166.210 178.232,166.148 178.218,165.815 178.620 M231.348 186.427 C 229.252 186.996,228.455 187.280,228.928 187.290 C 230.910 187.331,233.220 188.115,235.120 189.390 C 236.818 190.529,236.749 190.547,236.805 188.965 C 236.862 187.343,235.587 185.402,234.570 185.564 C 234.517 185.572,233.066 185.961,231.348 186.427 M118.750 228.185 C 116.279 229.027,114.788 235.475,114.517 246.484 C 114.196 259.558,117.736 264.100,133.398 270.710 C 138.530 272.876,139.078 273.312,140.465 276.332 C 140.894 277.264,141.550 278.687,141.923 279.492 C 145.211 286.590,150.792 289.821,159.981 289.945 C 165.083 290.014,165.906 290.414,167.091 293.396 C 168.587 297.162,171.149 298.906,176.660 299.910 C 181.323 300.760,184.895 300.035,190.939 297.014 C 194.129 295.419,195.304 295.018,197.363 294.821 C 204.187 294.171,208.745 291.482,213.305 285.417 C 215.900 281.967,216.328 281.701,218.805 281.999 C 221.330 282.303,222.770 281.038,226.934 274.861 C 229.845 270.542,231.606 269.651,233.639 271.468 L 234.253 272.017 235.199 271.337 L 236.144 270.658 234.654 269.168 C 229.345 263.859,228.243 257.582,231.475 251.059 C 233.263 247.451,236.402 244.121,239.495 242.551 L 240.026 242.281 239.025 240.842 C 238.475 240.051,237.571 238.511,237.016 237.420 L 236.009 235.437 233.873 236.451 C 229.734 238.418,218.842 242.250,215.708 242.843 C 210.154 243.893,199.962 243.941,195.020 242.940 C 192.064 242.342,186.827 241.069,184.961 240.497 C 175.632 237.633,168.009 236.358,157.715 235.940 C 145.720 235.453,145.213 235.355,130.788 230.742 C 126.644 229.417,120.104 227.796,119.481 227.941 C 119.455 227.947,119.126 228.057,118.750 228.185 M144.896 246.363 C 146.967 247.872,149.153 248.623,152.917 249.119 C 156.914 249.647,158.357 249.458,161.307 248.024 C 163.778 246.823,165.120 247.040,166.895 248.930 C 171.146 253.460,176.275 253.779,180.726 249.791 C 182.706 248.017,184.619 248.063,186.564 249.930 C 188.790 252.068,190.531 252.603,192.726 251.823 C 196.522 250.475,198.349 254.528,194.756 256.327 C 191.653 257.882,185.926 256.775,183.797 254.208 C 183.591 253.961,183.412 254.028,182.523 254.685 C 177.052 258.726,169.774 258.342,164.832 253.750 L 163.242 252.274 162.334 252.620 C 156.132 254.985,146.850 253.439,142.649 249.341 C 140.176 246.927,142.124 244.343,144.896 246.363 " stroke="none" fill="#f7f5f0" fill-rule="evenodd"></path><path id="path1" d="M225.000 45.048 C 206.742 46.690,195.509 49.489,181.500 55.884 C 153.353 68.735,131.468 86.030,116.055 107.604 C 112.935 111.972,108.587 119.003,108.845 119.262 C 108.891 119.308,109.765 119.243,110.788 119.117 C 112.145 118.950,113.085 118.945,114.270 119.096 L 115.894 119.303 117.140 118.161 C 120.616 114.977,127.929 112.561,132.813 112.984 C 140.751 113.672,146.395 115.814,150.648 119.751 L 152.257 121.240 152.837 120.461 C 157.563 114.121,166.978 114.299,177.165 120.922 C 179.619 122.517,179.209 122.470,180.984 121.363 C 186.139 118.150,191.501 117.922,198.504 120.619 C 203.999 122.734,211.872 127.577,217.676 132.413 C 218.535 133.129,219.338 133.775,219.460 133.847 C 219.582 133.920,220.241 133.727,220.925 133.417 C 228.428 130.018,239.993 130.421,253.777 134.560 C 259.209 136.191,259.046 136.179,260.570 135.056 C 266.120 130.965,274.413 130.021,281.051 132.726 C 287.836 135.491,296.099 142.597,298.758 147.955 L 299.677 149.805 300.738 149.805 C 301.952 149.805,303.657 150.207,305.020 150.814 C 305.831 151.176,306.496 151.252,309.961 151.382 C 314.806 151.563,322.562 152.742,324.960 153.662 C 325.176 153.745,325.165 153.632,324.904 153.128 C 323.617 150.639,323.704 145.989,325.119 141.654 C 326.868 136.293,331.382 131.314,337.549 127.941 C 338.381 127.486,339.063 127.085,339.063 127.050 C 339.063 126.415,335.330 118.951,332.926 114.776 C 324.102 99.457,319.924 93.944,304.785 77.640 C 289.592 61.277,284.077 56.742,273.891 52.234 C 266.861 49.124,255.741 46.576,244.041 45.396 C 241.075 45.096,227.264 44.844,225.000 45.048 M90.526 173.216 C 89.773 173.606,88.104 174.264,86.815 174.677 C 80.036 176.852,76.082 177.283,73.634 176.111 L 72.660 175.645 72.778 176.738 C 73.531 183.680,76.247 187.695,80.188 187.695 C 83.314 187.695,84.416 190.940,81.691 192.119 C 81.287 192.294,80.744 192.535,80.484 192.654 C 78.401 193.609,74.547 200.531,73.072 205.965 C 69.835 217.897,71.399 223.266,79.269 227.233 C 81.082 228.147,81.321 228.462,81.412 230.068 C 81.545 232.424,81.045 233.037,78.183 234.025 C 73.168 235.756,69.823 236.100,67.107 235.163 C 65.645 234.659,65.653 234.637,66.726 236.245 C 72.778 245.314,82.468 248.483,91.140 244.231 C 92.336 243.644,93.470 243.164,93.660 243.164 C 94.294 243.164,96.045 244.125,96.589 244.770 L 97.125 245.408 96.959 248.436 C 96.741 252.425,96.787 253.359,97.248 254.263 C 98.346 256.415,101.805 257.921,106.164 258.146 C 110.013 258.345,110.995 258.047,110.373 256.872 C 109.705 255.612,109.154 244.392,109.679 242.739 C 109.741 242.542,109.279 241.260,108.600 239.744 C 105.940 233.808,103.590 225.256,101.665 214.511 C 100.986 210.720,99.503 206.437,98.873 206.448 C 98.794 206.449,97.771 206.932,96.598 207.522 C 94.140 208.757,93.424 208.847,91.858 208.118 C 90.131 207.314,89.922 206.336,90.619 202.329 C 90.831 201.113,90.968 200.083,90.925 200.039 C 90.881 199.996,89.391 200.452,87.614 201.054 C 83.532 202.436,82.683 202.426,81.937 200.983 C 80.870 198.919,81.817 198.088,87.402 196.185 C 94.717 193.693,96.753 194.921,95.590 201.125 C 95.212 203.142,95.125 203.078,96.838 202.034 C 104.855 197.146,110.983 190.761,116.481 181.567 C 118.097 178.864,118.158 178.641,117.108 179.260 C 111.160 182.770,100.391 180.321,93.576 173.910 C 92.729 173.113,92.004 172.471,91.965 172.484 C 91.926 172.496,91.279 172.826,90.526 173.216 M242.188 195.074 C 242.188 195.223,242.357 196.019,242.564 196.842 C 242.771 197.666,242.985 198.604,243.038 198.926 C 243.092 199.248,243.400 200.259,243.724 201.172 C 245.896 207.301,245.921 214.998,243.787 220.540 C 243.152 222.187,242.261 224.657,241.807 226.029 L 240.981 228.523 241.497 230.326 C 242.788 234.831,246.262 239.862,249.245 241.545 C 251.425 242.774,251.996 245.135,250.558 246.964 C 249.783 247.950,249.139 248.135,246.484 248.140 C 239.755 248.152,234.590 255.955,237.561 261.621 C 239.079 264.515,248.652 271.738,249.482 270.616 C 250.091 269.794,252.990 270.008,255.273 271.043 C 264.348 275.158,267.421 275.065,267.987 270.655 C 268.322 268.044,268.351 267.961,269.294 266.953 C 271.176 264.941,271.700 264.942,276.295 266.970 C 287.889 272.087,292.582 271.207,299.489 262.620 C 301.288 260.383,301.283 260.547,299.561 260.546 C 293.723 260.541,291.731 259.393,291.837 256.092 L 291.895 254.275 293.085 253.163 C 293.739 252.551,295.384 251.014,296.740 249.747 C 305.260 241.787,306.551 233.779,300.500 226.427 C 298.386 223.858,298.226 223.216,299.193 221.191 C 299.954 219.600,300.319 219.322,303.027 218.271 C 309.183 215.881,312.836 213.351,316.235 209.126 C 318.037 206.885,318.037 206.930,316.238 207.209 C 311.634 207.923,305.050 205.907,302.266 202.931 L 301.323 201.923 299.246 203.989 C 291.708 211.485,281.872 214.476,276.378 210.943 C 275.024 210.073,273.222 208.065,271.509 205.518 C 270.624 204.202,270.610 204.193,269.788 204.508 C 268.426 205.030,258.894 204.679,255.371 203.977 C 251.127 203.131,249.850 202.370,245.560 198.134 C 243.705 196.302,242.188 194.925,242.188 195.074 M218.625 290.255 C 216.492 292.465,211.799 296.216,209.570 297.493 C 207.132 298.890,202.286 300.352,198.474 300.842 C 196.361 301.113,196.134 301.190,193.298 302.588 C 187.838 305.280,184.218 306.184,179.688 305.986 C 175.107 305.786,169.881 304.259,167.462 302.414 C 166.545 301.715,166.561 301.695,164.785 305.713 C 162.377 311.162,156.055 326.700,156.055 327.169 C 156.055 327.378,157.581 327.145,158.789 326.751 C 160.517 326.188,166.911 325.639,176.660 325.217 C 182.839 324.950,183.874 325.720,184.126 330.766 C 184.408 336.419,180.841 357.303,179.148 359.910 C 178.024 361.642,174.872 362.118,170.215 361.258 C 167.508 360.759,163.015 360.114,160.530 359.868 C 156.045 359.425,155.641 358.017,155.260 341.504 C 154.996 330.069,154.957 329.769,154.054 332.275 C 147.992 349.106,144.348 360.531,139.836 376.855 C 138.023 383.413,133.984 399.328,133.984 399.914 C 133.984 399.962,144.909 400.000,158.261 400.000 L 182.538 400.000 182.866 394.873 C 183.448 385.782,184.359 373.704,184.970 366.992 C 185.587 360.208,186.031 356.101,187.683 341.895 C 188.932 331.159,190.112 320.531,190.621 315.430 C 191.505 306.567,192.342 303.125,193.610 303.125 C 194.606 303.125,194.679 303.629,194.340 308.105 C 194.234 309.502,194.054 312.446,193.940 314.648 C 193.706 319.175,192.939 326.991,191.116 343.457 C 189.159 361.121,188.766 365.047,188.094 373.633 C 187.560 380.464,186.570 394.480,186.408 397.510 L 186.275 400.000 212.499 400.000 L 238.723 400.000 238.615 399.268 C 238.555 398.865,238.018 395.679,237.422 392.188 C 235.598 381.497,233.815 369.484,231.640 353.223 C 227.184 319.898,225.026 305.483,222.629 293.018 L 221.831 288.867 220.898 288.867 C 219.997 288.867,219.918 288.915,218.625 290.255 M204.004 325.105 C 209.678 325.522,217.312 326.754,219.629 327.625 C 223.619 329.127,224.848 331.018,224.334 334.866 C 224.176 336.046,223.998 337.803,223.937 338.770 C 222.549 360.887,222.508 361.112,219.551 362.686 C 219.051 362.952,204.232 362.672,199.387 362.304 C 194.362 361.923,194.425 362.064,194.607 351.563 C 194.980 330.187,195.102 328.661,196.479 328.224 C 196.737 328.143,196.875 327.929,196.875 327.614 C 196.875 325.994,198.910 324.740,201.270 324.907 C 201.914 324.953,203.145 325.042,204.004 325.105 M160.742 330.067 C 160.742 330.191,160.864 330.530,161.014 330.820 C 161.163 331.110,161.918 333.105,162.690 335.254 C 164.254 339.604,166.253 343.945,166.692 343.945 C 167.049 343.945,168.647 342.354,169.772 340.878 C 170.802 339.527,176.766 330.869,176.892 330.542 C 176.957 330.371,175.024 330.293,169.203 330.230 C 164.925 330.184,161.272 330.077,161.084 329.993 C 160.868 329.897,160.742 329.924,160.742 330.067 M201.758 330.863 C 201.758 334.108,207.190 351.563,208.200 351.563 C 208.791 351.563,211.196 346.401,212.749 341.797 C 213.739 338.864,215.234 333.778,215.234 333.344 C 215.234 332.906,206.997 331.058,202.881 330.573 C 201.819 330.448,201.758 330.464,201.758 330.863 M175.392 340.643 C 168.188 350.306,165.068 350.991,161.423 343.710 C 160.816 342.497,160.273 341.460,160.217 341.406 C 160.078 341.272,160.324 348.908,160.563 352.147 C 160.796 355.294,160.501 354.976,163.458 355.263 C 164.791 355.393,167.472 355.755,169.416 356.069 C 172.625 356.586,175.195 356.797,175.195 356.542 C 175.195 356.487,175.453 355.279,175.768 353.856 C 176.888 348.794,178.783 337.647,178.672 336.777 C 178.625 336.417,177.942 337.222,175.392 340.643 M198.413 342.106 C 198.399 344.460,198.361 346.606,198.329 346.875 C 198.210 347.871,198.225 358.446,198.346 358.567 C 198.524 358.745,214.727 358.644,216.015 358.457 L 217.088 358.301 217.218 357.227 C 217.290 356.636,217.447 354.395,217.568 352.246 C 217.689 350.098,217.825 347.769,217.872 347.070 C 218.118 343.365,218.151 341.917,217.980 342.285 C 217.881 342.500,217.301 343.862,216.693 345.313 C 212.921 354.304,209.934 357.389,206.580 355.757 C 204.216 354.607,202.863 351.909,200.074 342.780 C 199.271 340.152,198.574 337.962,198.526 337.914 C 198.477 337.865,198.426 339.752,198.413 342.106 " stroke="none" fill="#ed3414" fill-rule="evenodd"></path><path id="path2" d="M0.000 200.000 L 0.000 400.000 60.815 400.000 L 121.629 400.000 121.760 398.975 C 124.179 380.058,128.766 362.634,137.406 339.551 C 142.814 325.103,150.773 307.489,156.241 297.869 C 156.999 296.535,157.597 295.426,157.569 295.404 C 157.542 295.381,156.772 295.257,155.859 295.128 C 146.367 293.785,140.541 289.082,136.368 279.391 C 135.276 276.856,135.308 276.883,131.421 275.286 C 123.013 271.831,116.699 267.689,113.553 263.563 C 113.105 262.977,113.024 262.946,112.347 263.109 C 108.386 264.058,102.454 263.524,98.551 261.868 C 93.683 259.801,91.422 256.397,91.642 251.464 C 91.692 250.337,91.707 249.414,91.674 249.414 C 91.642 249.414,91.155 249.596,90.591 249.818 C 75.962 255.584,56.315 239.923,59.184 224.783 C 59.781 221.629,63.453 221.618,64.362 224.767 C 65.662 229.270,68.458 231.103,72.721 230.246 C 74.048 229.980,74.074 229.875,72.998 229.135 C 65.213 223.778,64.429 210.661,71.100 197.363 C 72.259 195.053,72.894 194.037,74.900 191.285 C 75.041 191.091,74.963 190.933,74.607 190.694 C 70.236 187.767,67.748 180.044,68.386 171.387 C 68.590 168.622,68.743 168.172,69.785 167.280 C 71.716 165.627,73.159 166.332,74.123 169.401 C 74.862 171.750,75.520 172.461,76.956 172.461 C 79.896 172.461,90.039 170.085,90.039 169.397 C 90.039 169.245,89.918 168.884,89.770 168.594 C 87.112 163.393,89.260 154.600,94.079 150.951 L 95.273 150.047 94.844 149.291 C 90.335 141.335,93.601 128.972,101.855 122.760 L 103.269 121.696 103.170 119.447 C 103.018 116.003,104.879 111.823,109.967 104.179 C 124.623 82.160,147.572 63.224,173.438 51.809 C 184.679 46.847,191.391 44.560,201.660 42.192 C 227.308 36.277,259.626 38.727,278.822 48.041 C 289.388 53.168,298.123 60.866,316.602 81.335 C 324.618 90.214,329.491 96.704,334.722 105.469 C 339.487 113.454,342.042 118.199,344.055 122.803 L 345.187 125.391 346.787 125.391 C 353.740 125.391,361.647 130.428,363.384 135.964 C 363.729 137.065,363.730 137.065,364.335 136.885 C 365.955 136.404,371.775 136.735,374.006 137.436 C 380.324 139.422,380.768 147.984,374.955 155.746 L 373.971 157.060 374.752 157.876 C 380.823 164.214,374.088 180.774,363.379 185.838 C 359.751 187.554,353.343 187.781,349.160 186.341 C 346.344 185.373,343.555 182.788,343.555 181.147 C 343.555 180.916,343.450 180.849,343.213 180.929 C 343.025 180.993,341.977 181.356,340.884 181.736 C 332.016 184.820,321.039 182.026,319.101 176.190 C 318.002 172.884,319.689 166.859,323.341 161.042 C 323.936 160.094,324.395 159.291,324.360 159.256 C 324.097 158.993,314.803 156.641,314.027 156.641 C 313.943 156.641,314.227 157.102,314.660 157.666 C 318.404 162.549,319.175 171.787,316.484 179.524 C 314.818 184.313,312.771 187.524,308.086 192.702 C 306.709 194.223,305.589 195.663,305.230 196.374 C 304.906 197.018,304.422 197.889,304.157 198.310 C 303.384 199.534,304.352 200.464,307.422 201.446 C 311.057 202.608,313.357 202.575,317.834 201.294 C 322.256 200.029,322.278 200.028,323.969 200.876 C 327.487 202.641,327.194 205.363,322.856 211.230 C 318.421 217.229,315.443 219.739,309.275 222.674 C 307.880 223.338,306.708 223.907,306.671 223.939 C 306.633 223.970,306.856 224.376,307.166 224.840 C 312.767 233.238,311.135 243.901,302.949 252.392 C 301.939 253.440,301.162 254.297,301.223 254.297 C 301.283 254.297,302.022 254.165,302.864 254.004 C 305.321 253.534,306.962 253.893,308.466 255.231 C 310.372 256.926,309.349 261.275,305.998 265.723 C 300.502 273.019,296.719 275.711,290.344 276.858 C 286.523 277.546,281.327 276.415,275.916 273.717 C 273.601 272.563,273.531 272.557,273.333 273.489 C 273.013 274.998,270.701 277.819,268.911 278.884 C 265.893 280.679,260.973 279.978,254.681 276.854 L 253.015 276.027 251.166 276.310 C 248.290 276.750,246.352 276.469,243.437 275.189 L 242.440 274.751 240.019 275.794 C 238.687 276.368,236.587 277.204,235.352 277.653 L 233.105 278.469 231.613 280.564 C 230.792 281.717,229.577 283.266,228.914 284.006 L 227.708 285.353 228.608 288.038 C 229.904 291.907,231.931 299.112,235.817 313.672 C 241.723 335.797,244.094 345.701,247.929 364.258 C 248.517 367.104,249.800 373.301,250.779 378.027 C 251.759 382.754,253.125 389.434,253.816 392.871 C 254.508 396.309,255.120 399.319,255.177 399.561 L 255.281 400.000 327.640 400.000 L 400.000 400.000 400.000 200.000 L 400.000 0.000 200.000 0.000 L 0.000 0.000 0.000 200.000 " stroke="none" fill="#fbdb6b" fill-rule="evenodd"></path><path id="path3" d="M224.219 39.195 C 203.514 40.705,189.501 44.442,169.160 53.877 C 141.852 66.545,113.516 93.096,104.195 114.749 L 103.272 116.895 103.286 119.354 L 103.301 121.814 102.053 122.730 C 94.033 128.619,90.669 140.385,94.655 148.605 L 95.421 150.185 94.497 150.784 C 89.484 154.033,87.352 162.216,89.877 168.524 C 90.221 169.384,90.248 169.598,90.028 169.733 C 88.681 170.566,77.806 172.823,76.407 172.561 C 75.360 172.364,74.720 171.525,74.023 169.434 C 72.975 166.288,71.397 165.703,69.459 167.743 C 68.016 169.260,68.013 177.853,69.453 182.464 C 70.578 186.068,73.014 189.796,74.879 190.770 C 75.215 190.945,75.127 191.129,73.859 192.893 C 71.260 196.510,69.315 200.901,68.063 205.981 C 65.176 217.695,66.601 224.202,73.128 229.110 L 74.284 229.979 73.226 230.217 C 68.458 231.289,65.823 229.720,64.331 224.921 C 63.579 222.502,61.479 221.721,59.993 223.307 C 58.746 224.638,58.824 229.807,60.150 233.705 C 64.447 246.338,79.935 254.317,90.975 249.585 L 91.848 249.211 91.751 250.826 C 91.202 259.972,100.306 265.311,112.500 262.996 C 113.149 262.873,113.223 262.917,113.962 263.887 C 116.744 267.538,122.537 271.346,130.585 274.813 C 135.662 276.999,135.335 276.759,136.326 279.040 C 139.491 286.325,142.597 289.984,147.825 292.584 C 150.391 293.860,154.828 295.117,156.766 295.117 C 157.929 295.117,157.931 295.108,156.215 298.145 C 150.104 308.962,141.743 327.771,136.073 343.457 C 128.565 364.232,124.813 378.503,122.365 395.605 C 122.088 397.539,121.819 399.319,121.767 399.561 L 121.672 400.000 127.779 399.997 L 133.887 399.993 136.364 390.085 C 141.500 369.543,150.253 341.044,154.553 330.859 C 154.897 330.045,155.028 331.806,155.250 340.234 C 155.666 355.992,155.901 357.680,157.851 358.911 C 158.997 359.634,159.270 359.704,162.319 360.046 C 163.869 360.220,167.026 360.677,169.336 361.061 C 175.337 362.062,177.215 361.872,178.868 360.102 C 180.597 358.251,184.477 336.357,184.103 330.566 C 183.739 324.946,182.897 324.677,168.750 325.676 C 161.879 326.160,160.174 326.354,159.007 326.784 C 158.404 327.006,157.665 327.182,157.366 327.175 C 157.067 327.169,156.606 327.246,156.341 327.346 C 156.076 327.447,155.859 327.495,155.859 327.453 C 155.859 326.902,166.093 302.241,166.508 301.791 C 166.540 301.756,167.016 302.036,167.565 302.414 C 169.932 304.042,173.287 305.205,177.246 305.769 C 182.616 306.535,186.711 305.714,193.347 302.542 C 196.403 301.081,196.690 300.984,198.521 300.786 C 203.063 300.295,208.184 298.523,211.280 296.370 C 213.374 294.913,217.490 291.464,218.683 290.166 C 219.814 288.937,221.416 288.282,221.794 288.895 C 222.004 289.233,223.423 296.850,224.591 303.906 C 226.573 315.873,228.042 326.127,232.132 356.543 C 234.168 371.687,236.230 385.356,237.955 395.151 L 238.791 399.902 246.935 399.953 C 251.414 399.981,255.078 399.928,255.078 399.836 C 255.078 398.650,245.123 351.231,242.853 341.602 C 238.980 325.176,229.986 291.831,228.031 286.646 L 227.525 285.304 228.572 284.205 C 229.523 283.206,230.930 281.389,232.535 279.086 C 233.049 278.348,233.333 278.156,234.488 277.764 C 236.447 277.099,239.129 276.040,240.879 275.242 L 242.402 274.546 243.125 274.898 C 245.983 276.289,248.249 276.642,251.285 276.170 L 252.937 275.913 254.838 276.817 C 263.170 280.784,267.240 280.813,271.067 276.932 C 272.126 275.857,273.085 274.233,273.331 273.096 C 273.501 272.313,273.272 272.276,275.637 273.463 C 286.309 278.819,294.745 277.916,301.661 270.679 C 309.336 262.648,311.357 256.685,307.131 254.542 C 305.585 253.758,305.270 253.723,303.095 254.094 C 300.565 254.525,300.591 254.634,302.711 252.494 C 310.754 244.376,312.578 234.131,307.502 225.597 C 307.019 224.785,306.606 224.054,306.584 223.973 C 306.561 223.891,307.394 223.441,308.435 222.972 C 314.874 220.072,318.297 217.249,322.791 211.133 C 327.062 205.319,327.358 202.726,323.953 200.961 C 322.416 200.164,321.584 200.238,317.285 201.557 C 313.092 202.844,309.138 202.599,305.670 200.838 C 303.830 199.904,303.431 199.322,303.994 198.386 C 304.203 198.039,304.668 197.183,305.027 196.484 C 305.423 195.715,306.487 194.320,307.729 192.943 C 311.582 188.671,313.260 186.362,314.911 183.062 C 319.137 174.618,318.982 163.632,314.553 157.726 C 314.074 157.087,313.704 156.543,313.731 156.517 C 313.887 156.361,320.300 157.882,322.880 158.686 L 324.568 159.213 323.260 161.394 C 318.793 168.838,317.720 174.649,320.186 178.050 C 323.635 182.808,334.367 184.365,342.081 181.227 C 343.444 180.672,343.739 180.703,343.747 181.399 C 343.770 183.282,347.195 185.849,350.819 186.699 C 360.328 188.929,369.209 184.410,374.210 174.798 C 377.532 168.413,377.654 160.471,374.472 157.693 L 373.776 157.085 374.767 155.792 C 380.430 148.403,380.311 139.987,374.512 137.737 C 372.417 136.925,367.704 136.554,364.636 136.960 L 363.549 137.104 363.306 136.155 C 362.205 131.860,358.409 128.644,351.855 126.454 C 349.782 125.762,346.997 125.313,345.967 125.507 C 345.228 125.645,345.059 125.437,344.136 123.266 C 340.016 113.566,331.066 98.904,323.614 89.648 C 316.991 81.423,300.726 64.219,294.109 58.442 C 281.764 47.662,268.909 42.566,247.461 39.949 C 241.339 39.201,229.426 38.815,224.219 39.195 M244.041 45.396 C 255.741 46.576,266.861 49.124,273.891 52.234 C 284.077 56.742,289.592 61.277,304.785 77.640 C 319.924 93.944,324.102 99.457,332.926 114.776 C 335.330 118.951,339.063 126.415,339.063 127.050 C 339.063 127.085,338.381 127.486,337.549 127.941 C 331.382 131.314,326.868 136.293,325.119 141.654 C 323.704 145.989,323.617 150.639,324.904 153.128 C 325.165 153.632,325.176 153.745,324.960 153.662 C 322.562 152.742,314.806 151.563,309.961 151.382 C 306.496 151.252,305.831 151.176,305.020 150.814 C 303.657 150.207,301.952 149.805,300.738 149.805 L 299.677 149.805 298.758 147.955 C 296.099 142.597,287.836 135.491,281.051 132.726 C 274.413 130.021,266.120 130.965,260.570 135.056 C 259.046 136.179,259.209 136.191,253.777 134.560 C 239.993 130.421,228.428 130.018,220.925 133.417 C 220.241 133.727,219.582 133.920,219.460 133.847 C 219.338 133.775,218.535 133.129,217.676 132.413 C 211.872 127.577,203.999 122.734,198.504 120.619 C 191.501 117.922,186.139 118.150,180.984 121.363 C 179.209 122.470,179.619 122.517,177.165 120.922 C 166.978 114.299,157.563 114.121,152.837 120.461 L 152.257 121.240 150.648 119.751 C 146.395 115.814,140.751 113.672,132.813 112.984 C 127.929 112.561,120.616 114.977,117.140 118.161 L 115.894 119.303 114.270 119.096 C 113.085 118.945,112.145 118.950,110.788 119.117 C 109.765 119.243,108.891 119.308,108.845 119.262 C 108.587 119.003,112.935 111.972,116.055 107.604 C 131.468 86.030,153.353 68.735,181.500 55.884 C 195.509 49.489,206.742 46.690,225.000 45.048 C 227.264 44.844,241.075 45.096,244.041 45.396 M136.346 120.891 C 141.788 121.944,144.269 123.428,148.176 127.966 C 150.182 130.296,150.603 130.544,152.497 130.508 C 155.001 130.461,155.808 129.898,157.316 127.148 C 159.260 123.602,160.980 122.648,164.196 123.329 C 167.736 124.079,170.309 125.203,173.821 127.535 C 178.377 130.559,180.037 130.720,183.727 128.493 C 187.704 126.093,189.603 125.890,194.128 127.379 C 198.984 128.978,207.831 134.528,214.264 140.013 C 217.049 142.386,220.370 142.557,222.045 140.412 C 224.976 136.659,237.557 137.099,250.685 141.412 C 259.125 144.186,261.497 144.198,264.515 141.485 C 268.026 138.328,274.250 137.667,279.052 139.940 C 286.553 143.491,292.494 149.761,292.940 154.597 C 293.375 159.310,296.528 161.742,299.936 159.993 L 300.676 159.613 302.340 160.197 C 307.317 161.942,309.612 164.408,310.572 169.043 C 311.949 175.690,309.725 181.279,302.572 189.155 C 300.601 191.326,300.076 192.036,299.577 193.208 C 297.257 198.661,290.561 204.269,284.485 205.847 C 280.372 206.916,278.873 205.948,275.457 200.017 C 273.934 197.373,271.397 196.277,269.454 197.423 L 268.729 197.851 264.687 197.557 C 258.103 197.079,255.441 196.657,254.133 195.885 C 252.000 194.627,248.090 190.394,244.679 185.649 C 239.244 178.090,237.241 177.231,229.628 179.190 C 217.566 182.294,212.453 181.718,205.273 176.443 C 199.406 172.132,197.779 172.166,193.917 176.682 C 191.073 180.006,190.000 180.614,187.606 180.252 C 181.263 179.294,176.503 177.261,171.166 173.231 C 168.356 171.110,167.688 170.818,165.948 170.953 C 164.080 171.099,164.237 171.013,160.738 173.811 C 153.533 179.571,147.634 181.564,141.049 180.462 C 133.429 179.186,129.666 176.060,128.541 170.075 C 128.074 167.594,127.161 166.102,125.767 165.544 C 124.135 164.891,123.154 165.368,120.987 167.871 C 114.926 174.870,111.652 176.160,105.478 173.982 C 97.031 171.001,93.301 165.860,95.208 159.825 C 96.484 155.787,98.760 154.247,101.545 155.537 C 104.322 156.824,105.670 156.861,106.849 155.681 C 109.041 153.489,107.104 150.217,103.094 149.335 C 100.309 148.722,98.239 142.882,99.107 138.086 C 100.737 129.080,108.488 123.295,116.526 125.083 L 118.110 125.435 119.748 124.308 C 124.835 120.808,130.204 119.702,136.346 120.891 M352.548 134.524 C 357.149 135.718,358.127 136.666,359.180 140.951 C 360.098 144.692,361.413 145.235,362.988 142.526 C 363.391 141.833,370.657 142.577,371.985 143.447 C 373.714 144.580,371.013 152.939,368.411 154.510 C 364.702 156.750,364.343 159.778,367.658 160.861 C 369.261 161.385,369.679 161.664,369.889 162.350 C 371.569 167.862,366.797 177.055,360.684 180.082 C 358.059 181.381,353.366 181.426,350.635 180.178 L 349.609 179.709 349.609 177.868 C 349.609 173.393,347.098 171.541,344.294 173.949 C 339.405 178.148,328.250 178.710,325.059 174.918 C 322.973 172.440,328.746 161.820,333.789 158.856 C 337.275 156.808,337.274 153.672,333.787 152.734 C 330.236 151.779,329.618 150.061,331.166 145.442 C 332.668 140.957,337.984 136.476,344.336 134.339 C 346.563 133.589,349.176 133.648,352.548 134.524 M93.509 173.824 C 99.971 180.035,110.160 182.548,116.504 179.496 C 117.363 179.083,118.085 178.763,118.107 178.785 C 118.241 178.917,113.647 186.198,112.243 188.077 C 108.466 193.133,103.034 198.117,97.418 201.678 C 95.148 203.117,95.185 203.131,95.595 200.972 C 96.526 196.061,94.660 193.993,90.416 195.232 C 88.594 195.763,83.727 197.494,82.944 197.889 C 81.576 198.578,81.277 200.364,82.351 201.438 C 83.230 202.317,83.760 202.279,87.470 201.073 C 89.333 200.467,90.896 200.010,90.943 200.058 C 90.991 200.105,90.851 201.138,90.632 202.352 C 89.917 206.320,90.130 207.262,91.929 208.113 C 93.545 208.878,93.970 208.799,97.290 207.121 L 98.975 206.270 99.987 208.445 C 100.908 210.424,101.059 210.954,101.661 214.343 C 103.636 225.454,106.098 234.339,108.818 240.176 L 109.618 241.895 109.581 247.168 C 109.543 252.545,109.736 254.800,110.431 257.057 L 110.710 257.962 109.994 258.080 C 105.925 258.753,99.969 257.411,97.992 255.375 C 96.760 254.107,96.656 253.410,96.943 248.340 C 97.133 244.979,97.074 244.808,95.414 243.880 C 93.840 243.000,93.611 243.018,91.168 244.217 C 82.530 248.456,72.837 245.384,66.909 236.528 C 65.631 234.618,65.634 234.603,67.168 235.134 C 69.481 235.935,71.463 235.865,75.391 234.846 C 80.465 233.530,81.446 232.780,81.445 230.221 C 81.444 228.746,80.986 228.120,79.271 227.246 C 71.641 223.358,70.104 218.915,72.572 207.874 C 74.198 200.603,78.359 193.231,81.428 192.188 C 84.462 191.155,83.527 187.944,80.120 187.698 C 76.253 187.419,73.867 184.238,72.951 178.138 C 72.534 175.357,72.485 175.492,73.682 176.106 C 76.322 177.460,85.462 175.869,90.625 173.155 C 91.323 172.788,91.939 172.482,91.993 172.474 C 92.047 172.467,92.729 173.074,93.509 173.824 M124.732 177.090 C 125.352 178.196,126.263 179.400,127.344 180.539 C 128.257 181.501,128.904 182.322,128.783 182.364 C 128.103 182.595,126.193 183.920,124.723 185.179 C 123.797 185.972,122.360 187.178,121.529 187.858 C 112.677 195.109,109.792 204.193,113.704 212.500 C 115.832 217.019,117.811 219.591,120.593 221.451 C 129.976 227.727,142.911 223.186,148.707 211.583 C 149.093 210.810,149.794 209.579,150.265 208.848 C 154.813 201.797,155.218 193.714,151.330 187.639 C 150.618 186.528,150.515 186.666,152.441 186.143 C 156.054 185.163,160.126 183.008,163.807 180.132 C 166.409 178.098,166.274 178.150,167.149 178.847 C 171.118 182.014,176.293 184.568,181.641 185.998 C 190.015 188.237,192.656 187.763,197.316 183.186 L 199.421 181.119 201.894 182.958 C 205.671 185.766,208.947 187.207,213.338 187.989 C 215.218 188.324,221.818 188.321,223.828 187.984 C 224.349 187.897,224.209 188.003,223.236 188.430 C 212.418 193.180,204.661 213.959,209.055 226.420 C 210.028 229.180,212.816 232.932,215.037 234.471 C 215.464 234.767,215.774 235.074,215.725 235.153 C 215.466 235.572,210.531 236.019,202.454 236.354 C 195.149 236.657,194.776 236.604,183.984 233.689 C 176.392 231.639,170.085 230.935,156.934 230.670 C 146.663 230.463,145.154 230.185,132.557 226.184 C 127.910 224.708,125.498 224.070,122.949 223.641 C 121.553 223.407,120.158 223.137,119.850 223.041 C 119.069 222.800,115.013 220.184,113.953 219.238 L 113.077 218.457 112.219 215.039 C 111.109 210.618,110.556 205.166,110.549 198.565 L 110.547 196.837 111.784 195.538 C 115.950 191.161,121.475 182.090,123.250 176.709 C 123.778 175.110,123.598 175.064,124.732 177.090 M235.351 185.840 C 236.532 186.450,236.914 187.254,236.914 189.130 C 236.914 190.060,236.874 190.820,236.826 190.820 C 236.777 190.820,236.170 190.423,235.476 189.938 C 233.262 188.391,230.717 187.518,228.308 187.480 C 226.869 187.457,226.675 187.537,231.055 186.357 C 234.323 185.477,234.588 185.445,235.351 185.840 M246.254 198.864 C 250.472 202.924,252.686 203.874,259.379 204.496 C 261.504 204.694,268.858 204.671,270.296 204.463 C 270.690 204.406,270.923 204.620,271.710 205.762 C 274.092 209.216,275.966 210.971,278.125 211.768 C 283.710 213.830,292.288 210.733,298.951 204.249 L 301.321 201.943 302.565 203.169 C 305.319 205.883,311.543 207.796,315.830 207.246 C 318.104 206.955,318.080 206.874,316.350 209.021 C 312.799 213.429,308.997 216.057,302.826 218.369 C 300.344 219.298,299.965 219.595,299.198 221.210 C 298.219 223.273,298.360 223.799,300.655 226.630 C 307.041 234.511,305.220 242.309,294.835 251.561 C 291.964 254.118,291.797 254.377,291.797 256.260 C 291.797 259.339,293.148 260.167,298.682 260.478 C 299.944 260.549,300.977 260.649,300.977 260.701 C 300.977 260.753,300.297 261.640,299.467 262.673 C 292.586 271.233,287.656 272.136,276.172 266.940 C 271.838 264.978,271.141 264.979,269.304 266.943 C 268.365 267.946,268.318 268.085,268.054 270.666 C 267.909 272.083,267.178 273.233,266.016 273.870 C 264.681 274.603,262.357 274.030,256.456 271.511 L 253.418 270.215 251.577 270.240 C 250.104 270.260,249.689 270.330,249.499 270.590 C 248.560 271.874,238.965 264.473,237.384 261.246 C 234.635 255.634,240.761 247.154,246.880 248.101 C 251.301 248.785,253.120 243.611,249.172 241.581 C 246.327 240.117,242.380 234.174,241.312 229.747 L 240.992 228.418 241.797 225.992 C 242.240 224.658,243.046 222.417,243.588 221.012 C 245.072 217.168,245.122 216.919,245.220 212.793 C 245.337 207.884,244.953 204.964,243.728 201.436 C 243.398 200.485,243.055 199.268,242.966 198.730 C 242.876 198.193,242.622 197.051,242.401 196.191 C 242.179 195.332,241.997 194.558,241.995 194.472 C 241.994 194.386,242.418 194.826,242.938 195.449 C 243.458 196.072,244.951 197.609,246.254 198.864 M123.730 228.608 C 125.020 228.900,127.612 229.622,129.492 230.214 C 144.559 234.958,146.673 235.429,153.809 235.632 C 166.517 235.993,173.438 237.019,184.180 240.133 C 198.265 244.217,209.845 244.695,219.718 241.600 C 224.175 240.203,230.915 237.678,233.569 236.412 C 236.316 235.100,235.966 235.025,237.031 237.158 C 237.527 238.152,238.412 239.690,238.998 240.575 C 240.227 242.434,240.251 242.291,238.538 243.281 C 236.901 244.227,234.172 246.903,232.977 248.734 C 228.094 256.216,228.759 263.201,234.932 269.274 C 236.088 270.412,236.353 270.771,236.128 270.897 C 235.970 270.986,235.495 271.333,235.074 271.668 L 234.307 272.277 233.647 271.636 C 233.030 271.039,232.896 270.996,231.644 270.996 C 229.835 270.996,229.638 271.167,227.022 275.018 C 222.911 281.069,221.666 282.129,218.666 282.129 C 215.969 282.129,215.880 282.184,213.550 285.308 C 208.817 291.651,204.426 294.224,196.973 295.021 C 195.111 295.220,194.033 295.606,190.811 297.227 C 184.305 300.501,180.475 301.075,174.763 299.632 C 170.506 298.556,168.362 296.877,166.987 293.540 C 165.720 290.467,164.885 290.037,160.212 290.049 C 150.223 290.076,144.586 286.450,140.918 277.637 C 139.235 273.594,138.614 273.037,133.301 270.812 C 121.415 265.833,116.319 261.350,114.762 254.506 C 113.499 248.949,114.753 234.217,116.842 230.085 C 118.041 227.715,118.932 227.524,123.730 228.608 M142.202 246.209 C 141.176 247.073,141.335 247.869,142.822 249.313 C 146.580 252.962,155.766 254.741,161.205 252.873 L 163.328 252.144 164.721 253.464 C 169.822 258.303,177.366 258.656,182.819 254.311 L 183.509 253.761 184.284 254.427 C 187.034 256.789,191.443 257.637,194.295 256.352 C 198.103 254.637,196.603 250.435,192.732 251.973 C 190.749 252.760,188.696 252.155,186.617 250.171 C 184.383 248.037,183.014 248.031,180.495 250.147 C 178.038 252.209,175.847 252.931,173.188 252.553 C 170.388 252.156,169.529 251.701,167.163 249.361 C 165.017 247.239,163.671 246.913,161.667 248.032 C 157.460 250.380,149.817 249.765,145.153 246.703 C 143.419 245.565,143.043 245.502,142.202 246.209 M193.239 303.274 C 192.809 303.558,192.188 305.078,191.812 306.772 C 191.424 308.520,191.248 309.965,189.836 323.047 C 189.402 327.075,188.393 335.996,187.596 342.871 C 185.974 356.856,185.546 360.820,184.974 367.188 C 184.362 373.995,182.626 397.648,182.620 399.268 L 182.617 400.000 184.443 400.000 L 186.268 400.000 186.398 397.217 C 186.955 385.259,188.730 364.721,190.917 344.922 C 193.105 325.120,193.686 319.118,194.040 312.695 C 194.202 309.741,194.391 306.529,194.460 305.558 C 194.606 303.483,194.167 302.663,193.239 303.274 M199.228 325.207 C 197.882 325.690,197.096 326.431,196.948 327.354 C 196.867 327.860,196.674 328.159,196.276 328.394 C 195.198 329.032,195.036 330.753,194.731 344.824 C 194.373 361.348,194.310 360.721,196.432 361.796 C 197.658 362.417,218.302 363.167,219.563 362.636 C 222.258 361.500,222.501 360.382,223.532 344.336 C 223.908 338.494,224.081 336.377,224.326 334.659 C 224.946 330.298,222.664 328.070,216.211 326.737 C 213.932 326.266,206.268 325.274,203.613 325.105 C 202.539 325.037,201.353 324.946,200.977 324.903 C 200.594 324.859,199.823 324.993,199.228 325.207 M170.166 330.172 C 174.006 330.171,177.148 330.201,177.148 330.240 C 177.148 330.421,170.319 340.252,169.320 341.509 C 168.243 342.864,167.068 343.945,166.673 343.945 C 166.121 343.945,164.803 341.123,162.883 335.828 C 162.107 333.686,161.267 331.470,161.018 330.904 L 160.564 329.874 161.874 330.025 C 162.594 330.108,166.326 330.174,170.166 330.172 M204.980 330.848 C 209.906 331.713,214.976 332.854,215.262 333.163 C 215.497 333.418,212.927 341.746,211.495 345.370 C 210.284 348.432,208.620 351.563,208.203 351.563 C 207.230 351.563,202.373 336.352,201.839 331.633 L 201.707 330.469 202.270 330.470 C 202.579 330.471,203.799 330.641,204.980 330.848 M178.328 339.953 C 177.074 348.124,175.403 356.388,174.946 356.678 C 174.663 356.858,173.928 356.779,169.141 356.051 C 167.153 355.749,164.491 355.391,163.224 355.257 C 161.957 355.123,160.879 354.946,160.828 354.863 C 160.625 354.535,160.369 350.622,160.248 345.996 L 160.120 341.113 161.297 343.457 C 165.098 351.030,168.105 350.379,175.572 340.368 C 177.320 338.025,178.783 336.140,178.823 336.180 C 178.863 336.220,178.641 337.918,178.328 339.953 M201.180 346.094 C 205.766 360.279,210.690 359.763,217.023 344.434 C 217.652 342.912,218.155 341.916,218.158 342.188 C 218.176 343.770,217.235 358.221,217.105 358.350 C 216.760 358.695,201.761 358.924,199.219 358.623 L 198.145 358.496 198.185 355.469 C 198.207 353.804,198.288 349.102,198.364 345.020 L 198.502 337.598 199.162 339.746 C 199.525 340.928,200.433 343.784,201.180 346.094 " stroke="none" fill="#2d0f07" fill-rule="evenodd"></path><path id="path4" d="M229.357 39.013 C 230.625 39.047,232.646 39.047,233.849 39.013 C 235.051 38.979,234.014 38.951,231.543 38.951 C 229.072 38.951,228.088 38.979,229.357 39.013 M223.779 39.200 C 224.021 39.247,224.417 39.247,224.658 39.200 C 224.900 39.154,224.702 39.116,224.219 39.116 C 223.735 39.116,223.538 39.154,223.779 39.200 M238.623 39.200 C 238.865 39.247,239.260 39.247,239.502 39.200 C 239.744 39.154,239.546 39.116,239.063 39.116 C 238.579 39.116,238.381 39.154,238.623 39.200 M221.243 39.396 C 221.485 39.443,221.837 39.441,222.024 39.392 C 222.210 39.343,222.012 39.305,221.582 39.307 C 221.152 39.309,221.000 39.349,221.243 39.396 M241.555 39.396 C 241.798 39.443,242.150 39.441,242.336 39.392 C 242.523 39.343,242.324 39.305,241.895 39.307 C 241.465 39.309,241.312 39.349,241.555 39.396 M243.994 39.588 C 244.182 39.637,244.490 39.637,244.678 39.588 C 244.866 39.539,244.712 39.498,244.336 39.498 C 243.960 39.498,243.806 39.539,243.994 39.588 M217.236 39.783 C 217.424 39.832,217.732 39.832,217.920 39.783 C 218.108 39.734,217.954 39.694,217.578 39.694 C 217.202 39.694,217.048 39.734,217.236 39.783 M171.094 52.832 C 170.825 52.986,170.693 53.111,170.801 53.111 C 170.908 53.111,171.216 52.986,171.484 52.832 C 171.753 52.679,171.885 52.553,171.777 52.553 C 171.670 52.553,171.362 52.679,171.094 52.832 M293.555 57.874 C 293.555 57.907,293.840 58.193,294.189 58.508 L 294.824 59.082 294.251 58.447 C 293.716 57.856,293.555 57.723,293.555 57.874 M296.281 60.400 C 297.090 61.263,297.266 61.418,297.266 61.271 C 297.266 61.240,296.848 60.822,296.338 60.343 L 295.410 59.473 296.281 60.400 M300.879 64.844 C 302.380 66.348,303.652 67.578,303.706 67.578 C 303.759 67.578,302.575 66.348,301.074 64.844 C 299.573 63.340,298.301 62.109,298.247 62.109 C 298.194 62.109,299.378 63.340,300.879 64.844 M306.543 70.703 C 307.289 71.455,307.944 72.070,307.997 72.070 C 308.051 72.070,307.484 71.455,306.738 70.703 C 305.992 69.951,305.338 69.336,305.284 69.336 C 305.230 69.336,305.797 69.951,306.543 70.703 M309.668 74.023 C 310.197 74.561,310.674 75.000,310.728 75.000 C 310.781 75.000,310.392 74.561,309.863 74.023 C 309.334 73.486,308.857 73.047,308.804 73.047 C 308.750 73.047,309.139 73.486,309.668 74.023 M312.695 77.246 C 313.387 77.944,313.998 78.516,314.051 78.516 C 314.105 78.516,313.583 77.944,312.891 77.246 C 312.199 76.548,311.588 75.977,311.535 75.977 C 311.481 75.977,312.003 76.548,312.695 77.246 M133.679 77.197 L 133.105 77.832 133.740 77.258 C 134.089 76.943,134.375 76.657,134.375 76.624 C 134.375 76.473,134.214 76.606,133.679 77.197 M131.825 78.857 L 131.152 79.590 131.885 78.917 C 132.566 78.290,132.707 78.125,132.558 78.125 C 132.525 78.125,132.196 78.455,131.825 78.857 M315.031 79.736 C 315.840 80.599,316.016 80.754,316.016 80.607 C 316.016 80.576,315.598 80.158,315.088 79.679 L 314.160 78.809 315.031 79.736 M127.732 82.764 L 125.098 85.449 127.783 82.815 C 130.278 80.368,130.557 80.078,130.417 80.078 C 130.389 80.078,129.180 81.287,127.732 82.764 M318.359 83.460 C 318.359 83.493,318.645 83.779,318.994 84.094 L 319.629 84.668 319.055 84.033 C 318.521 83.442,318.359 83.309,318.359 83.460 M123.438 87.207 C 122.963 87.690,122.619 88.086,122.673 88.086 C 122.726 88.086,123.158 87.690,123.633 87.207 C 124.107 86.724,124.451 86.328,124.398 86.328 C 124.344 86.328,123.912 86.724,123.438 87.207 M121.474 89.404 L 120.801 90.137 121.533 89.464 C 122.215 88.837,122.355 88.672,122.206 88.672 C 122.174 88.672,121.844 89.001,121.474 89.404 M119.812 91.260 L 119.238 91.895 119.873 91.321 C 120.222 91.005,120.508 90.720,120.508 90.686 C 120.508 90.535,120.347 90.668,119.812 91.260 M104.524 113.583 C 104.197 114.301,104.259 114.454,104.613 113.801 C 104.778 113.496,104.877 113.210,104.832 113.166 C 104.787 113.121,104.649 113.309,104.524 113.583 M339.355 113.672 C 339.522 113.994,339.702 114.258,339.756 114.258 C 339.810 114.258,339.717 113.994,339.551 113.672 C 339.384 113.350,339.204 113.086,339.150 113.086 C 339.096 113.086,339.189 113.350,339.355 113.672 M103.178 117.578 C 103.178 118.062,103.216 118.259,103.263 118.018 C 103.309 117.776,103.309 117.380,103.263 117.139 C 103.216 116.897,103.178 117.095,103.178 117.578 M103.174 120.020 C 103.176 120.449,103.216 120.602,103.263 120.359 C 103.310 120.116,103.308 119.765,103.259 119.578 C 103.210 119.391,103.172 119.590,103.174 120.020 M130.615 120.456 C 131.072 120.497,131.819 120.497,132.275 120.456 C 132.732 120.414,132.358 120.381,131.445 120.381 C 130.532 120.381,130.159 120.414,130.615 120.456 M161.966 123.187 C 162.262 123.232,162.702 123.231,162.942 123.184 C 163.182 123.138,162.939 123.101,162.402 123.103 C 161.865 123.104,161.669 123.142,161.966 123.187 M99.506 124.854 L 98.145 126.270 99.561 124.908 C 100.876 123.643,101.066 123.438,100.922 123.438 C 100.893 123.438,100.256 124.075,99.506 124.854 M158.984 124.707 C 158.510 125.190,158.166 125.586,158.219 125.586 C 158.273 125.586,158.705 125.190,159.180 124.707 C 159.654 124.224,159.998 123.828,159.945 123.828 C 159.891 123.828,159.459 124.224,158.984 124.707 M112.549 124.749 C 112.844 124.794,113.328 124.794,113.623 124.749 C 113.918 124.705,113.677 124.668,113.086 124.668 C 112.495 124.668,112.253 124.705,112.549 124.749 M146.582 126.367 C 147.111 126.904,147.588 127.344,147.642 127.344 C 147.695 127.344,147.306 126.904,146.777 126.367 C 146.248 125.830,145.772 125.391,145.718 125.391 C 145.664 125.391,146.053 125.830,146.582 126.367 M347.610 125.529 C 347.853 125.575,348.204 125.574,348.391 125.525 C 348.578 125.476,348.379 125.438,347.949 125.440 C 347.520 125.442,347.367 125.482,347.610 125.529 M189.209 126.505 C 189.451 126.552,189.846 126.552,190.088 126.505 C 190.330 126.458,190.132 126.420,189.648 126.420 C 189.165 126.420,188.967 126.458,189.209 126.505 M103.995 128.760 L 103.223 129.590 104.053 128.818 C 104.509 128.393,104.883 128.020,104.883 127.988 C 104.883 127.840,104.713 127.988,103.995 128.760 M148.828 128.967 C 148.828 129.001,149.114 129.287,149.463 129.602 L 150.098 130.176 149.524 129.541 C 148.989 128.949,148.828 128.816,148.828 128.967 M156.030 129.231 C 155.882 129.409,155.498 129.717,155.176 129.914 C 154.854 130.111,154.701 130.272,154.837 130.273 C 155.082 130.273,156.655 128.922,156.420 128.912 C 156.353 128.909,156.177 129.052,156.030 129.231 M360.343 131.104 C 361.153 131.966,361.328 132.121,361.328 131.974 C 361.328 131.943,360.911 131.525,360.400 131.047 L 359.473 130.176 360.343 131.104 M152.688 130.607 C 152.931 130.654,153.282 130.652,153.469 130.603 C 153.656 130.554,153.457 130.516,153.027 130.518 C 152.598 130.520,152.445 130.560,152.688 130.607 M364.893 136.853 C 365.081 136.903,365.388 136.903,365.576 136.853 C 365.764 136.804,365.610 136.764,365.234 136.764 C 364.858 136.764,364.705 136.804,364.893 136.853 M370.071 136.857 C 370.314 136.904,370.665 136.902,370.852 136.853 C 371.039 136.804,370.840 136.766,370.410 136.768 C 369.980 136.770,369.828 136.810,370.071 136.857 M234.424 138.025 C 234.612 138.074,234.919 138.074,235.107 138.025 C 235.295 137.976,235.142 137.936,234.766 137.936 C 234.390 137.936,234.236 137.976,234.424 138.025 M272.414 138.615 C 272.657 138.661,273.009 138.660,273.196 138.611 C 273.382 138.562,273.184 138.524,272.754 138.526 C 272.324 138.528,272.171 138.568,272.414 138.615 M92.846 140.820 C 92.846 141.948,92.878 142.410,92.917 141.846 C 92.957 141.282,92.957 140.359,92.917 139.795 C 92.878 139.231,92.846 139.692,92.846 140.820 M98.896 140.820 C 98.896 141.733,98.930 142.107,98.971 141.650 C 99.012 141.194,99.012 140.447,98.971 139.990 C 98.930 139.534,98.896 139.907,98.896 140.820 M334.560 140.186 L 333.887 140.918 334.619 140.245 C 335.301 139.618,335.441 139.453,335.292 139.453 C 335.260 139.453,334.930 139.783,334.560 140.186 M264.247 141.748 L 263.574 142.480 264.307 141.807 C 264.988 141.181,265.129 141.016,264.980 141.016 C 264.947 141.016,264.617 141.345,264.247 141.748 M217.822 141.939 C 218.225 141.981,218.884 141.981,219.287 141.939 C 219.690 141.897,219.360 141.863,218.555 141.863 C 217.749 141.863,217.419 141.897,217.822 141.939 M367.336 142.521 C 367.579 142.568,367.931 142.566,368.118 142.517 C 368.304 142.468,368.105 142.430,367.676 142.432 C 367.246 142.434,367.093 142.474,367.336 142.521 M261.914 143.066 C 261.646 143.220,261.514 143.346,261.621 143.346 C 261.729 143.346,262.036 143.220,262.305 143.066 C 262.573 142.913,262.705 142.787,262.598 142.787 C 262.490 142.787,262.183 142.913,261.914 143.066 M359.766 143.481 C 359.766 143.875,360.508 144.369,360.970 144.281 C 361.389 144.201,361.383 144.192,360.900 144.167 C 360.600 144.152,360.243 143.954,360.070 143.707 C 359.902 143.468,359.766 143.366,359.766 143.481 M378.970 144.824 C 378.971 145.576,379.007 145.860,379.049 145.455 C 379.091 145.049,379.090 144.434,379.047 144.087 C 379.004 143.741,378.969 144.072,378.970 144.824 M286.133 144.592 C 286.133 144.626,286.418 144.912,286.768 145.227 L 287.402 145.801 286.829 145.166 C 286.294 144.574,286.133 144.441,286.133 144.592 M288.574 146.875 C 288.994 147.305,289.381 147.656,289.435 147.656 C 289.488 147.656,289.189 147.305,288.770 146.875 C 288.350 146.445,287.963 146.094,287.909 146.094 C 287.855 146.094,288.155 146.445,288.574 146.875 M330.327 149.414 C 330.327 149.897,330.365 150.095,330.411 149.854 C 330.458 149.612,330.458 149.216,330.411 148.975 C 330.365 148.733,330.327 148.931,330.327 149.414 M330.469 150.515 C 330.469 150.619,330.798 151.008,331.201 151.378 L 331.934 152.051 331.250 151.272 C 330.874 150.843,330.544 150.455,330.518 150.409 C 330.491 150.363,330.469 150.411,330.469 150.515 M92.773 152.051 C 92.299 152.534,91.955 152.930,92.009 152.930 C 92.062 152.930,92.494 152.534,92.969 152.051 C 93.443 151.567,93.787 151.172,93.734 151.172 C 93.680 151.172,93.248 151.567,92.773 152.051 M336.373 155.664 C 336.373 156.040,336.414 156.194,336.463 156.006 C 336.512 155.818,336.512 155.510,336.463 155.322 C 336.414 155.134,336.373 155.288,336.373 155.664 M365.935 156.265 C 365.657 156.595,365.432 156.969,365.436 157.095 C 365.439 157.221,365.539 157.148,365.658 156.934 C 365.776 156.719,366.053 156.345,366.272 156.104 C 366.491 155.862,366.618 155.664,366.555 155.664 C 366.492 155.664,366.213 155.934,365.935 156.265 M96.960 156.494 L 96.387 157.129 97.021 156.555 C 97.613 156.021,97.746 155.859,97.595 155.859 C 97.562 155.859,97.276 156.145,96.960 156.494 M374.015 156.748 C 373.807 157.000,373.826 157.107,374.127 157.383 C 374.470 157.696,374.476 157.696,374.233 157.373 C 374.027 157.100,374.024 156.973,374.219 156.738 C 374.352 156.577,374.418 156.445,374.364 156.445 C 374.311 156.445,374.154 156.582,374.015 156.748 M365.284 158.105 C 365.286 158.535,365.326 158.688,365.373 158.445 C 365.419 158.202,365.417 157.850,365.369 157.664 C 365.320 157.477,365.281 157.676,365.284 158.105 M315.834 159.668 C 315.834 159.775,315.960 160.083,316.113 160.352 C 316.267 160.620,316.392 160.752,316.392 160.645 C 316.392 160.537,316.267 160.229,316.113 159.961 C 315.960 159.692,315.834 159.561,315.834 159.668 M330.754 161.182 L 329.785 162.207 330.811 161.238 C 331.375 160.705,331.836 160.243,331.836 160.212 C 331.836 160.067,331.655 160.229,330.754 161.182 M376.825 164.746 C 376.825 165.605,376.860 165.933,376.901 165.473 C 376.942 165.014,376.942 164.311,376.900 163.911 C 376.858 163.511,376.824 163.887,376.825 164.746 M370.163 164.844 C 370.163 165.220,370.203 165.374,370.252 165.186 C 370.301 164.998,370.301 164.690,370.252 164.502 C 370.203 164.314,370.163 164.468,370.163 164.844 M121.570 167.041 L 120.996 167.676 121.631 167.102 C 121.980 166.787,122.266 166.501,122.266 166.467 C 122.266 166.316,122.104 166.449,121.570 167.041 M317.819 166.992 C 317.819 167.368,317.859 167.522,317.908 167.334 C 317.957 167.146,317.957 166.838,317.908 166.650 C 317.859 166.462,317.819 166.616,317.819 166.992 M73.064 167.308 C 73.323 167.643,73.574 167.882,73.622 167.839 C 73.670 167.797,73.458 167.523,73.151 167.230 L 72.592 166.699 73.064 167.308 M69.421 167.627 L 68.848 168.262 69.482 167.688 C 70.074 167.153,70.207 166.992,70.056 166.992 C 70.022 166.992,69.737 167.278,69.421 167.627 M120.203 168.604 L 119.629 169.238 120.264 168.665 C 120.613 168.349,120.898 168.063,120.898 168.030 C 120.898 167.879,120.737 168.012,120.203 168.604 M318.033 170.605 C 318.034 171.357,318.069 171.641,318.111 171.236 C 318.154 170.831,318.153 170.215,318.110 169.869 C 318.067 169.522,318.032 169.854,318.033 170.605 M118.061 170.947 L 116.699 172.363 118.115 171.001 C 119.430 169.736,119.620 169.531,119.477 169.531 C 119.447 169.531,118.810 170.168,118.061 170.947 M68.409 171.191 C 68.411 171.621,68.451 171.774,68.498 171.531 C 68.544 171.288,68.542 170.936,68.494 170.750 C 68.445 170.563,68.406 170.762,68.409 171.191 M166.360 170.841 C 166.603 170.888,166.954 170.886,167.141 170.837 C 167.328 170.788,167.129 170.750,166.699 170.752 C 166.270 170.755,166.117 170.795,166.360 170.841 M76.711 172.599 C 76.954 172.646,77.306 172.644,77.493 172.595 C 77.679 172.546,77.480 172.508,77.051 172.510 C 76.621 172.512,76.468 172.552,76.711 172.599 M324.665 173.535 C 324.667 174.072,324.705 174.269,324.750 173.972 C 324.794 173.675,324.793 173.236,324.747 172.995 C 324.701 172.755,324.664 172.998,324.665 173.535 M198.584 173.185 C 198.826 173.231,199.221 173.231,199.463 173.185 C 199.705 173.138,199.507 173.100,199.023 173.100 C 198.540 173.100,198.342 173.138,198.584 173.185 M344.226 173.877 L 343.652 174.512 344.287 173.938 C 344.879 173.403,345.012 173.242,344.861 173.242 C 344.827 173.242,344.542 173.528,344.226 173.877 M68.223 174.805 C 68.223 175.396,68.259 175.637,68.304 175.342 C 68.349 175.046,68.349 174.563,68.304 174.268 C 68.259 173.972,68.223 174.214,68.223 174.805 M318.803 174.609 C 318.803 175.093,318.841 175.291,318.888 175.049 C 318.934 174.807,318.934 174.412,318.888 174.170 C 318.841 173.928,318.803 174.126,318.803 174.609 M349.037 174.707 C 349.037 174.814,349.163 175.122,349.316 175.391 C 349.470 175.659,349.596 175.791,349.596 175.684 C 349.596 175.576,349.470 175.269,349.316 175.000 C 349.163 174.731,349.037 174.600,349.037 174.707 M109.719 174.943 C 109.962 174.990,110.314 174.988,110.500 174.939 C 110.687 174.890,110.488 174.852,110.059 174.854 C 109.629 174.856,109.476 174.896,109.719 174.943 M365.419 176.123 L 364.746 176.855 365.479 176.182 C 366.160 175.556,366.301 175.391,366.152 175.391 C 366.119 175.391,365.789 175.720,365.419 176.123 M349.673 177.246 C 349.674 177.998,349.710 178.282,349.752 177.877 C 349.794 177.471,349.793 176.856,349.750 176.509 C 349.707 176.163,349.673 176.494,349.673 177.246 M192.278 178.369 L 191.309 179.395 192.334 178.425 C 193.287 177.525,193.449 177.344,193.303 177.344 C 193.272 177.344,192.811 177.805,192.278 178.369 M331.787 177.482 C 332.029 177.528,332.424 177.528,332.666 177.482 C 332.908 177.435,332.710 177.397,332.227 177.397 C 331.743 177.397,331.545 177.435,331.787 177.482 M333.740 177.485 C 334.089 177.528,334.661 177.528,335.010 177.485 C 335.359 177.442,335.073 177.406,334.375 177.406 C 333.677 177.406,333.391 177.442,333.740 177.485 M363.466 178.076 L 362.793 178.809 363.525 178.136 C 364.207 177.509,364.348 177.344,364.198 177.344 C 364.166 177.344,363.836 177.673,363.466 178.076 M134.180 178.221 C 134.180 178.354,135.766 179.143,135.854 179.054 C 135.895 179.013,135.535 178.789,135.054 178.555 C 134.573 178.321,134.180 178.171,134.180 178.221 M127.398 180.772 L 128.721 182.149 127.886 182.613 C 126.785 183.225,124.273 185.145,123.535 185.938 C 123.213 186.285,122.108 187.209,121.080 187.992 C 115.693 192.092,112.044 198.634,111.822 204.590 L 111.742 206.738 111.914 204.696 C 112.466 198.168,115.632 192.641,121.582 187.816 C 122.334 187.206,123.816 185.968,124.876 185.065 C 125.936 184.161,127.276 183.175,127.854 182.873 C 129.148 182.198,129.179 182.381,127.490 180.756 L 126.074 179.395 127.398 180.772 M370.206 180.518 L 369.434 181.348 370.264 180.576 C 371.036 179.858,371.184 179.688,371.036 179.688 C 371.004 179.688,370.630 180.061,370.206 180.518 M139.941 180.273 C 140.264 180.355,140.747 180.423,141.016 180.423 C 141.451 180.423,141.441 180.406,140.918 180.273 C 140.596 180.191,140.112 180.124,139.844 180.124 C 139.408 180.124,139.419 180.140,139.941 180.273 M143.311 180.802 C 143.552 180.848,143.948 180.848,144.189 180.802 C 144.431 180.755,144.233 180.717,143.750 180.717 C 143.267 180.717,143.069 180.755,143.311 180.802 M221.533 180.799 C 221.721 180.848,222.029 180.848,222.217 180.799 C 222.405 180.750,222.251 180.709,221.875 180.709 C 221.499 180.709,221.345 180.750,221.533 180.799 M216.158 181.000 C 216.504 181.043,217.120 181.044,217.525 181.002 C 217.930 180.960,217.646 180.924,216.895 180.923 C 216.143 180.923,215.811 180.957,216.158 181.000 M218.900 181.001 C 219.251 181.044,219.778 181.043,220.072 180.999 C 220.365 180.954,220.078 180.919,219.434 180.920 C 218.789 180.921,218.549 180.957,218.900 181.001 M353.955 180.994 C 354.143 181.043,354.451 181.043,354.639 180.994 C 354.827 180.945,354.673 180.905,354.297 180.905 C 353.921 180.905,353.767 180.945,353.955 180.994 M368.544 182.178 L 367.871 182.910 368.604 182.237 C 369.285 181.611,369.426 181.445,369.277 181.445 C 369.244 181.445,368.914 181.775,368.544 182.178 M197.163 183.447 L 195.801 184.863 197.217 183.501 C 198.532 182.236,198.722 182.031,198.579 182.031 C 198.549 182.031,197.912 182.668,197.163 183.447 M120.215 183.203 C 120.048 183.525,119.956 183.789,120.009 183.789 C 120.063 183.789,120.244 183.525,120.410 183.203 C 120.577 182.881,120.669 182.617,120.616 182.617 C 120.562 182.617,120.381 182.881,120.215 183.203 M331.008 182.951 C 331.251 182.997,331.603 182.996,331.789 182.947 C 331.976 182.898,331.777 182.860,331.348 182.862 C 330.918 182.864,330.765 182.904,331.008 182.951 M334.328 182.951 C 334.571 182.997,334.923 182.996,335.110 182.947 C 335.296 182.898,335.098 182.860,334.668 182.862 C 334.238 182.864,334.085 182.904,334.328 182.951 M156.445 184.668 C 156.177 184.821,156.045 184.947,156.152 184.947 C 156.260 184.947,156.567 184.821,156.836 184.668 C 157.104 184.514,157.236 184.389,157.129 184.389 C 157.021 184.389,156.714 184.514,156.445 184.668 M150.781 186.673 C 150.781 186.756,151.010 187.160,151.289 187.571 C 155.213 193.346,154.806 201.808,150.265 208.848 C 149.794 209.579,149.093 210.810,148.707 211.583 C 144.840 219.324,138.355 223.814,130.469 224.209 L 127.637 224.351 129.817 224.382 C 137.546 224.494,144.794 219.731,148.701 211.973 C 149.090 211.200,149.795 209.969,150.268 209.238 C 154.956 201.992,155.498 194.398,151.781 188.050 C 151.361 187.331,151.066 186.694,151.127 186.634 C 151.187 186.573,151.134 186.523,151.009 186.523 C 150.884 186.523,150.781 186.591,150.781 186.673 M227.441 187.303 C 227.164 187.423,227.416 187.477,228.308 187.486 C 230.706 187.512,233.256 188.386,235.489 189.948 C 236.191 190.438,236.813 190.791,236.872 190.732 C 237.001 190.603,237.128 190.703,235.379 189.556 C 233.635 188.412,231.556 187.589,229.980 187.417 C 229.336 187.346,228.589 187.254,228.320 187.211 C 228.052 187.168,227.656 187.209,227.441 187.303 M354.053 187.247 C 354.294 187.294,354.690 187.294,354.932 187.247 C 355.173 187.201,354.976 187.163,354.492 187.163 C 354.009 187.163,353.811 187.201,354.053 187.247 M357.861 187.244 C 358.049 187.293,358.357 187.293,358.545 187.244 C 358.733 187.195,358.579 187.155,358.203 187.155 C 357.827 187.155,357.673 187.195,357.861 187.244 M188.525 187.439 C 188.713 187.488,189.021 187.488,189.209 187.439 C 189.397 187.390,189.243 187.350,188.867 187.350 C 188.491 187.350,188.337 187.390,188.525 187.439 M302.930 188.574 C 302.455 189.058,302.111 189.453,302.165 189.453 C 302.218 189.453,302.651 189.058,303.125 188.574 C 303.599 188.091,303.944 187.695,303.890 187.695 C 303.836 187.695,303.404 188.091,302.930 188.574 M222.656 188.086 C 222.015 188.186,221.931 188.231,222.344 188.252 C 222.881 188.280,222.861 188.307,221.953 188.785 C 211.917 194.074,204.703 214.264,208.678 225.937 C 209.857 229.398,212.260 232.816,214.705 234.512 C 215.241 234.884,215.376 235.070,215.194 235.185 C 215.005 235.305,215.025 235.346,215.272 235.349 C 215.902 235.354,215.809 235.006,215.037 234.471 C 212.816 232.932,210.028 229.180,209.055 226.420 C 204.663 213.964,212.478 193.037,223.236 188.446 C 224.525 187.895,224.396 187.815,222.656 188.086 M216.642 188.426 C 217.362 188.463,218.593 188.464,219.376 188.426 C 220.160 188.389,219.570 188.359,218.066 188.358 C 216.563 188.358,215.921 188.388,216.642 188.426 M73.039 189.307 C 73.848 190.169,74.023 190.324,74.023 190.177 C 74.023 190.146,73.606 189.729,73.096 189.250 L 72.168 188.379 73.039 189.307 M236.768 189.160 C 236.770 189.590,236.810 189.743,236.857 189.500 C 236.904 189.257,236.902 188.905,236.853 188.718 C 236.804 188.532,236.766 188.730,236.768 189.160 M301.065 190.674 L 300.293 191.504 301.123 190.732 C 301.895 190.014,302.043 189.844,301.895 189.844 C 301.863 189.844,301.490 190.217,301.065 190.674 M309.169 191.357 L 308.496 192.090 309.229 191.417 C 309.910 190.790,310.051 190.625,309.902 190.625 C 309.869 190.625,309.539 190.955,309.169 191.357 M250.586 192.871 C 251.278 193.569,251.888 194.141,251.942 194.141 C 251.996 194.141,251.473 193.569,250.781 192.871 C 250.089 192.173,249.479 191.602,249.425 191.602 C 249.372 191.602,249.894 192.173,250.586 192.871 M299.446 193.075 C 299.119 193.793,299.181 193.946,299.535 193.293 C 299.700 192.988,299.799 192.702,299.754 192.658 C 299.709 192.613,299.571 192.801,299.446 193.075 M307.227 193.457 C 306.752 193.940,306.408 194.336,306.462 194.336 C 306.515 194.336,306.947 193.940,307.422 193.457 C 307.896 192.974,308.241 192.578,308.187 192.578 C 308.133 192.578,307.701 192.974,307.227 193.457 M111.614 195.752 L 110.645 196.777 111.670 195.808 C 112.234 195.275,112.695 194.814,112.695 194.783 C 112.695 194.637,112.514 194.799,111.614 195.752 M260.205 197.205 C 260.393 197.254,260.701 197.254,260.889 197.205 C 261.077 197.156,260.923 197.116,260.547 197.116 C 260.171 197.116,260.017 197.156,260.205 197.205 M296.570 197.705 L 295.996 198.340 296.631 197.766 C 297.223 197.231,297.355 197.070,297.205 197.070 C 297.171 197.070,296.885 197.356,296.570 197.705 M262.258 197.404 C 262.501 197.450,262.853 197.449,263.039 197.400 C 263.226 197.351,263.027 197.313,262.598 197.315 C 262.168 197.317,262.015 197.357,262.258 197.404 M265.088 197.601 C 265.383 197.646,265.867 197.646,266.162 197.601 C 266.458 197.556,266.216 197.519,265.625 197.519 C 265.034 197.519,264.792 197.556,265.088 197.601 M268.262 197.656 L 267.480 197.796 268.201 197.824 C 268.598 197.839,268.977 197.764,269.043 197.656 C 269.109 197.549,269.137 197.473,269.103 197.489 C 269.070 197.504,268.691 197.579,268.262 197.656 M110.619 199.805 C 110.619 200.933,110.651 201.394,110.691 200.830 C 110.730 200.266,110.730 199.343,110.691 198.779 C 110.651 198.215,110.619 198.677,110.619 199.805 M294.812 199.658 L 294.238 200.293 294.873 199.719 C 295.465 199.185,295.598 199.023,295.447 199.023 C 295.413 199.023,295.127 199.309,294.812 199.658 M312.451 202.482 C 312.693 202.528,313.088 202.528,313.330 202.482 C 313.572 202.435,313.374 202.397,312.891 202.397 C 312.407 202.397,312.209 202.435,312.451 202.482 M110.801 205.078 C 110.801 205.669,110.837 205.911,110.882 205.615 C 110.927 205.320,110.927 204.836,110.882 204.541 C 110.837 204.246,110.801 204.487,110.801 205.078 M278.906 204.980 C 279.271 205.356,279.613 205.664,279.666 205.664 C 279.720 205.664,279.466 205.356,279.102 204.980 C 278.737 204.604,278.395 204.297,278.341 204.297 C 278.288 204.297,278.542 204.604,278.906 204.980 M282.275 206.189 C 282.463 206.238,282.771 206.238,282.959 206.189 C 283.147 206.140,282.993 206.100,282.617 206.100 C 282.241 206.100,282.087 206.140,282.275 206.189 M112.019 207.819 C 112.448 213.343,117.982 220.924,123.148 223.066 C 124.027 223.430,124.175 223.551,123.890 223.674 C 123.686 223.762,123.825 223.776,124.219 223.707 C 124.595 223.641,124.832 223.661,124.746 223.750 C 124.528 223.977,126.550 224.415,127.146 224.271 C 127.521 224.180,127.320 224.090,126.267 223.878 C 119.371 222.487,113.662 215.811,112.028 207.227 C 111.977 206.958,111.973 207.225,112.019 207.819 M110.993 207.910 C 110.995 208.447,111.033 208.644,111.078 208.347 C 111.123 208.050,111.121 207.611,111.075 207.370 C 111.029 207.130,110.992 207.373,110.993 207.910 M318.448 216.455 L 317.676 217.285 318.506 216.513 C 319.278 215.795,319.426 215.625,319.278 215.625 C 319.246 215.625,318.872 215.999,318.448 216.455 M59.865 223.240 C 59.558 223.561,59.343 223.849,59.389 223.878 C 59.435 223.908,59.751 223.646,60.091 223.295 C 60.431 222.943,60.645 222.656,60.567 222.656 C 60.489 222.656,60.173 222.919,59.865 223.240 M120.166 223.182 C 120.354 223.231,120.662 223.231,120.850 223.182 C 121.038 223.132,120.884 223.092,120.508 223.092 C 120.132 223.092,119.978 223.132,120.166 223.182 M68.646 224.597 C 68.809 224.912,69.031 225.225,69.140 225.292 C 69.248 225.359,69.152 225.101,68.926 224.719 C 68.432 223.880,68.230 223.793,68.646 224.597 M59.050 227.734 C 59.050 228.540,59.085 228.870,59.127 228.467 C 59.169 228.064,59.169 227.405,59.127 227.002 C 59.085 226.599,59.050 226.929,59.050 227.734 M69.973 230.609 C 70.270 230.654,70.710 230.653,70.950 230.606 C 71.190 230.560,70.947 230.523,70.410 230.525 C 69.873 230.526,69.677 230.564,69.973 230.609 M152.599 230.615 C 153.975 230.648,156.172 230.648,157.482 230.615 C 158.792 230.581,157.666 230.553,154.980 230.553 C 152.295 230.554,151.223 230.581,152.599 230.615 M163.037 230.805 C 163.386 230.849,163.958 230.849,164.307 230.805 C 164.656 230.762,164.370 230.727,163.672 230.727 C 162.974 230.727,162.688 230.762,163.037 230.805 M166.555 230.998 C 166.798 231.044,167.150 231.042,167.336 230.994 C 167.523 230.945,167.324 230.906,166.895 230.909 C 166.465 230.911,166.312 230.951,166.555 230.998 M168.899 231.193 C 169.142 231.240,169.493 231.238,169.680 231.189 C 169.867 231.140,169.668 231.102,169.238 231.104 C 168.809 231.106,168.656 231.146,168.899 231.193 M170.947 231.385 C 171.135 231.434,171.443 231.434,171.631 231.385 C 171.819 231.336,171.665 231.295,171.289 231.295 C 170.913 231.295,170.759 231.336,170.947 231.385 M310.414 235.156 C 310.414 235.854,310.450 236.140,310.493 235.791 C 310.536 235.442,310.536 234.871,310.493 234.521 C 310.450 234.172,310.414 234.458,310.414 235.156 M151.318 235.691 C 151.882 235.730,152.805 235.730,153.369 235.691 C 153.933 235.651,153.472 235.619,152.344 235.619 C 151.216 235.619,150.754 235.651,151.318 235.691 M234.180 236.133 C 233.589 236.445,233.174 236.704,233.258 236.710 C 233.466 236.722,235.352 235.760,235.352 235.641 C 235.352 235.511,235.379 235.499,234.180 236.133 M157.864 235.882 C 158.161 235.927,158.600 235.926,158.841 235.880 C 159.081 235.833,158.838 235.797,158.301 235.798 C 157.764 235.800,157.567 235.837,157.864 235.882 M161.475 236.075 C 161.716 236.122,162.112 236.122,162.354 236.075 C 162.595 236.029,162.397 235.991,161.914 235.991 C 161.431 235.991,161.233 236.029,161.475 236.075 M207.568 236.079 C 207.917 236.122,208.489 236.122,208.838 236.079 C 209.187 236.035,208.901 236.000,208.203 236.000 C 207.505 236.000,207.219 236.035,207.568 236.079 M236.328 236.008 C 236.328 236.220,237.494 238.477,237.603 238.477 C 237.657 238.477,237.426 237.927,237.089 237.256 C 236.451 235.983,236.328 235.782,236.328 236.008 M163.916 236.267 C 164.104 236.317,164.412 236.317,164.600 236.267 C 164.788 236.218,164.634 236.178,164.258 236.178 C 163.882 236.178,163.728 236.218,163.916 236.267 M202.681 236.274 C 203.028 236.317,203.643 236.318,204.048 236.275 C 204.454 236.233,204.170 236.198,203.418 236.197 C 202.666 236.196,202.334 236.231,202.681 236.274 M199.561 236.466 C 199.802 236.513,200.198 236.513,200.439 236.466 C 200.681 236.419,200.483 236.381,200.000 236.381 C 199.517 236.381,199.319 236.419,199.561 236.466 M114.698 239.941 C 114.700 240.371,114.740 240.524,114.787 240.281 C 114.833 240.038,114.832 239.686,114.783 239.500 C 114.734 239.313,114.696 239.512,114.698 239.941 M114.516 242.773 C 114.516 243.472,114.551 243.757,114.594 243.408 C 114.638 243.059,114.638 242.488,114.594 242.139 C 114.551 241.790,114.516 242.075,114.516 242.773 M66.113 243.359 C 66.751 244.004,67.317 244.531,67.371 244.531 C 67.424 244.531,66.946 244.004,66.309 243.359 C 65.671 242.715,65.105 242.188,65.051 242.188 C 64.998 242.188,65.475 242.715,66.113 243.359 M239.026 242.780 C 238.630 242.989,238.255 243.244,238.192 243.346 C 238.128 243.449,238.474 243.310,238.960 243.039 C 239.446 242.767,239.844 242.508,239.844 242.464 C 239.844 242.350,239.830 242.356,239.026 242.780 M197.219 243.302 C 197.462 243.349,197.814 243.347,198.000 243.298 C 198.187 243.249,197.988 243.211,197.559 243.213 C 197.129 243.215,196.976 243.255,197.219 243.302 M199.951 243.501 C 200.300 243.544,200.872 243.544,201.221 243.501 C 201.570 243.457,201.284 243.422,200.586 243.422 C 199.888 243.422,199.602 243.457,199.951 243.501 M209.622 243.500 C 209.919 243.544,210.358 243.543,210.598 243.497 C 210.839 243.451,210.596 243.414,210.059 243.415 C 209.521 243.417,209.325 243.455,209.622 243.500 M205.029 243.696 C 205.378 243.739,205.950 243.739,206.299 243.696 C 206.648 243.653,206.362 243.617,205.664 243.617 C 204.966 243.617,204.680 243.653,205.029 243.696 M237.152 244.092 C 236.685 244.548,236.677 244.571,237.100 244.241 C 237.934 243.592,237.973 243.555,237.835 243.555 C 237.762 243.555,237.454 243.796,237.152 244.092 M235.352 245.605 C 234.877 246.089,234.533 246.484,234.587 246.484 C 234.640 246.484,235.072 246.089,235.547 245.605 C 236.021 245.122,236.366 244.727,236.312 244.727 C 236.258 244.727,235.826 245.122,235.352 245.605 M141.977 246.240 L 141.504 246.777 142.090 246.289 C 142.412 246.021,142.712 245.779,142.757 245.752 C 142.802 245.725,142.751 245.703,142.645 245.703 C 142.538 245.703,142.238 245.945,141.977 246.240 M114.336 248.926 C 114.336 250.537,114.366 251.170,114.403 250.333 C 114.440 249.495,114.440 248.177,114.403 247.403 C 114.366 246.629,114.336 247.314,114.336 248.926 M141.429 247.429 C 141.410 247.971,141.580 248.254,142.432 249.097 C 143.325 249.982,143.347 249.994,142.598 249.190 C 142.042 248.593,141.689 248.006,141.595 247.523 L 141.451 246.777 141.429 247.429 M163.039 247.404 C 163.282 247.450,163.634 247.449,163.821 247.400 C 164.007 247.351,163.809 247.313,163.379 247.315 C 162.949 247.317,162.796 247.357,163.039 247.404 M161.719 247.869 C 161.394 248.134,161.362 248.201,161.621 248.067 C 162.258 247.737,162.611 247.467,162.402 247.468 C 162.295 247.469,161.987 247.649,161.719 247.869 M184.961 248.850 C 185.229 248.956,185.936 249.500,186.530 250.058 C 187.479 250.950,187.464 250.925,186.405 249.854 C 185.742 249.182,185.036 248.638,184.836 248.645 C 184.557 248.655,184.586 248.702,184.961 248.850 M232.692 248.877 C 232.019 250.018,231.975 250.115,232.318 249.707 C 232.715 249.234,233.057 248.633,232.929 248.633 C 232.877 248.633,232.771 248.743,232.692 248.877 M180.945 249.658 L 180.371 250.293 181.006 249.719 C 181.355 249.404,181.641 249.118,181.641 249.085 C 181.641 248.934,181.479 249.067,180.945 249.658 M153.369 249.353 C 153.557 249.403,153.865 249.403,154.053 249.353 C 154.241 249.304,154.087 249.264,153.711 249.264 C 153.335 249.264,153.181 249.304,153.369 249.353 M155.716 249.554 C 156.012 249.599,156.452 249.598,156.692 249.552 C 156.932 249.505,156.689 249.468,156.152 249.470 C 155.615 249.471,155.419 249.509,155.716 249.554 M91.655 250.977 C 91.655 251.460,91.693 251.658,91.739 251.416 C 91.786 251.174,91.786 250.779,91.739 250.537 C 91.693 250.295,91.655 250.493,91.655 250.977 M303.604 251.611 L 302.832 252.441 303.662 251.669 C 304.434 250.951,304.582 250.781,304.434 250.781 C 304.402 250.781,304.029 251.155,303.604 251.611 M163.086 252.284 C 163.247 252.342,163.906 252.885,164.551 253.490 L 165.723 254.590 164.557 253.369 C 163.916 252.698,163.257 252.155,163.092 252.164 C 162.830 252.177,162.830 252.192,163.086 252.284 M174.172 252.677 C 174.415 252.724,174.767 252.722,174.953 252.673 C 175.140 252.624,174.941 252.586,174.512 252.588 C 174.082 252.590,173.929 252.630,174.172 252.677 M91.651 253.418 C 91.653 253.848,91.693 254.000,91.740 253.757 C 91.786 253.515,91.785 253.163,91.736 252.976 C 91.687 252.790,91.649 252.988,91.651 253.418 M301.565 253.610 C 301.202 253.985,300.944 254.321,300.990 254.358 C 301.036 254.395,301.370 254.088,301.732 253.677 C 302.553 252.743,302.447 252.700,301.565 253.610 M156.205 253.852 C 156.556 253.896,157.083 253.895,157.377 253.850 C 157.670 253.806,157.383 253.770,156.738 253.771 C 156.094 253.773,155.854 253.809,156.205 253.852 M183.090 254.147 L 182.715 254.590 183.126 254.243 C 183.500 253.928,183.561 253.925,183.794 254.205 C 183.935 254.375,184.233 254.607,184.457 254.722 C 184.680 254.837,184.775 254.853,184.668 254.757 C 184.561 254.662,184.246 254.386,183.969 254.144 L 183.464 253.705 183.090 254.147 M165.890 254.643 C 166.045 254.893,167.188 255.739,167.188 255.603 C 167.188 255.555,166.865 255.269,166.470 254.968 C 166.076 254.667,165.815 254.521,165.890 254.643 M308.421 255.362 C 308.594 255.582,308.833 255.938,308.952 256.152 C 309.071 256.367,309.170 256.434,309.174 256.302 C 309.177 256.169,308.938 255.814,308.643 255.511 C 308.347 255.209,308.247 255.142,308.421 255.362 M195.825 255.442 C 195.644 255.642,195.146 255.963,194.719 256.156 C 194.291 256.349,193.978 256.543,194.022 256.587 C 194.159 256.724,195.584 255.924,195.978 255.490 C 196.182 255.263,196.306 255.078,196.252 255.078 C 196.198 255.078,196.006 255.242,195.825 255.442 M190.869 257.171 C 191.165 257.216,191.648 257.216,191.943 257.171 C 192.239 257.126,191.997 257.090,191.406 257.090 C 190.815 257.090,190.574 257.126,190.869 257.171 M172.900 257.361 C 173.088 257.410,173.396 257.410,173.584 257.361 C 173.772 257.312,173.618 257.272,173.242 257.272 C 172.866 257.272,172.712 257.312,172.900 257.361 M119.922 263.184 C 120.286 263.560,120.628 263.867,120.682 263.867 C 120.736 263.867,120.482 263.560,120.117 263.184 C 119.753 262.808,119.411 262.500,119.357 262.500 C 119.303 262.500,119.557 262.808,119.922 263.184 M106.986 263.618 C 107.337 263.662,107.864 263.661,108.158 263.616 C 108.451 263.572,108.164 263.536,107.520 263.537 C 106.875 263.538,106.635 263.575,106.986 263.618 M116.406 266.467 C 116.406 266.501,116.692 266.787,117.041 267.102 L 117.676 267.676 117.102 267.041 C 116.567 266.449,116.406 266.316,116.406 266.467 M233.008 267.444 C 233.008 267.478,233.293 267.763,233.643 268.079 L 234.277 268.652 233.704 268.018 C 233.169 267.426,233.008 267.293,233.008 267.444 M235.644 270.063 L 236.132 270.596 235.302 271.347 L 234.473 272.098 235.352 271.451 C 235.835 271.096,236.270 270.779,236.318 270.748 C 236.366 270.716,236.125 270.430,235.781 270.111 C 235.250 269.618,235.229 269.610,235.644 270.063 M301.067 271.338 L 300.098 272.363 301.123 271.394 C 301.687 270.861,302.148 270.400,302.148 270.369 C 302.148 270.223,301.967 270.385,301.067 271.338 M231.201 270.841 C 231.443 270.888,231.838 270.888,232.080 270.841 C 232.322 270.794,232.124 270.756,231.641 270.756 C 231.157 270.756,230.959 270.794,231.201 270.841 M233.203 271.155 C 233.203 271.188,233.489 271.474,233.838 271.790 L 234.473 272.363 233.899 271.729 C 233.364 271.137,233.203 271.004,233.203 271.155 M228.665 272.351 C 228.207 272.935,227.674 273.704,227.482 274.060 C 227.145 274.682,227.145 274.688,227.482 274.221 C 227.674 273.954,228.246 273.185,228.752 272.512 C 229.881 271.011,229.814 270.886,228.665 272.351 M136.230 272.017 C 136.338 272.118,136.865 272.441,137.402 272.734 C 137.939 273.027,138.203 273.123,137.988 272.946 C 137.551 272.588,135.924 271.727,136.230 272.017 M241.211 275.098 C 240.135 275.674,240.329 275.745,241.437 275.180 C 241.953 274.916,242.414 274.816,242.747 274.893 C 243.133 274.982,243.188 274.962,242.969 274.814 C 242.534 274.520,242.185 274.576,241.211 275.098 M239.453 275.879 C 239.185 276.032,239.053 276.158,239.160 276.158 C 239.268 276.158,239.575 276.032,239.844 275.879 C 240.112 275.725,240.244 275.600,240.137 275.600 C 240.029 275.600,239.722 275.725,239.453 275.879 M237.793 276.530 C 237.363 276.722,236.177 277.173,235.156 277.531 C 234.136 277.889,233.125 278.364,232.910 278.586 L 232.520 278.989 232.910 278.686 C 233.125 278.519,234.136 278.088,235.156 277.728 C 237.149 277.026,239.088 276.199,238.770 276.187 C 238.662 276.184,238.223 276.338,237.793 276.530 M247.994 276.508 C 248.340 276.551,248.956 276.552,249.361 276.510 C 249.766 276.467,249.482 276.432,248.730 276.431 C 247.979 276.430,247.647 276.465,247.994 276.508 M286.865 277.096 C 287.322 277.137,288.069 277.137,288.525 277.096 C 288.982 277.055,288.608 277.021,287.695 277.021 C 286.782 277.021,286.409 277.055,286.865 277.096 M269.824 278.060 C 269.395 278.446,269.219 278.670,269.434 278.559 C 269.796 278.371,270.874 277.334,270.688 277.352 C 270.643 277.356,270.254 277.675,269.824 278.060 M215.472 282.764 C 215.005 283.220,214.997 283.243,215.420 282.913 C 216.254 282.264,216.294 282.227,216.155 282.227 C 216.082 282.227,215.774 282.468,215.472 282.764 M228.324 284.469 C 227.852 284.950,227.504 285.372,227.551 285.407 C 227.598 285.441,228.023 285.048,228.494 284.532 C 229.576 283.349,229.464 283.308,228.324 284.469 M145.508 285.059 C 145.872 285.435,146.214 285.742,146.268 285.742 C 146.322 285.742,146.068 285.435,145.703 285.059 C 145.339 284.683,144.997 284.375,144.943 284.375 C 144.889 284.375,145.143 284.683,145.508 285.059 M146.555 285.893 C 146.709 286.143,147.852 286.989,147.852 286.853 C 147.852 286.805,147.529 286.519,147.135 286.218 C 146.740 285.917,146.479 285.771,146.555 285.893 M142.188 288.770 C 142.771 289.360,143.292 289.844,143.346 289.844 C 143.400 289.844,142.966 289.360,142.383 288.770 C 141.799 288.179,141.278 287.695,141.224 287.695 C 141.171 287.695,141.604 288.179,142.188 288.770 M210.346 289.014 L 209.082 290.332 210.400 289.068 C 211.625 287.894,211.808 287.695,211.664 287.695 C 211.634 287.695,211.041 288.289,210.346 289.014 M161.672 289.982 C 161.915 290.029,162.267 290.027,162.453 289.978 C 162.640 289.929,162.441 289.891,162.012 289.893 C 161.582 289.895,161.429 289.935,161.672 289.982 M165.649 291.301 C 166.038 291.735,166.453 292.266,166.571 292.480 C 166.688 292.695,166.788 292.755,166.791 292.612 C 166.794 292.470,166.379 291.939,165.869 291.433 C 165.161 290.729,165.108 290.698,165.649 291.301 M167.188 294.020 C 167.188 294.230,167.769 295.313,167.881 295.313 C 167.935 295.313,167.834 295.027,167.656 294.678 C 167.293 293.965,167.188 293.816,167.188 294.020 M197.610 294.865 C 197.853 294.911,198.204 294.910,198.391 294.861 C 198.578 294.812,198.379 294.774,197.949 294.776 C 197.520 294.778,197.367 294.818,197.610 294.865 M156.445 295.193 C 156.445 295.235,156.747 295.305,157.115 295.348 C 157.484 295.391,157.742 295.357,157.690 295.272 C 157.595 295.119,156.445 295.046,156.445 295.193 M189.648 297.656 C 188.843 298.075,188.252 298.423,188.335 298.428 C 188.543 298.441,191.211 297.089,191.211 296.970 C 191.211 296.838,191.275 296.810,189.648 297.656 M179.255 300.340 C 179.822 300.379,180.701 300.379,181.208 300.339 C 181.714 300.299,181.250 300.266,180.176 300.267 C 179.102 300.267,178.687 300.300,179.255 300.340 M174.902 330.194 C 175.830 330.343,177.148 330.362,177.148 330.226 C 177.148 330.145,176.555 330.090,175.830 330.105 C 175.105 330.119,174.688 330.160,174.902 330.194 M155.323 345.215 C 155.325 345.645,155.365 345.797,155.412 345.554 C 155.458 345.311,155.457 344.960,155.408 344.773 C 155.359 344.586,155.321 344.785,155.323 345.215 M198.295 345.703 C 198.295 346.187,198.333 346.384,198.380 346.143 C 198.427 345.901,198.427 345.505,198.380 345.264 C 198.333 345.022,198.295 345.220,198.295 345.703 M194.584 349.219 C 194.584 349.702,194.623 349.900,194.669 349.658 C 194.716 349.417,194.716 349.021,194.669 348.779 C 194.623 348.538,194.584 348.735,194.584 349.219 M198.111 356.348 C 198.112 357.100,198.147 357.383,198.189 356.978 C 198.232 356.573,198.231 355.958,198.188 355.611 C 198.145 355.264,198.110 355.596,198.111 356.348 M210.791 358.734 C 211.086 358.778,211.570 358.778,211.865 358.734 C 212.161 358.689,211.919 358.652,211.328 358.652 C 210.737 358.652,210.496 358.689,210.791 358.734 M207.861 362.635 C 208.049 362.684,208.357 362.684,208.545 362.635 C 208.733 362.586,208.579 362.545,208.203 362.545 C 207.827 362.545,207.673 362.586,207.861 362.635 M214.307 362.830 C 214.495 362.879,214.802 362.879,214.990 362.830 C 215.178 362.781,215.024 362.741,214.648 362.741 C 214.272 362.741,214.119 362.781,214.307 362.830 " stroke="none" fill="#887873" fill-rule="evenodd"></path></g></svg>