<svg version="1.1" id="Layer_1" xmlns="http://www.w3.org/2000/svg" xmlns:xlink="http://www.w3.org/1999/xlink" x="0px" y="0px"
	 width="100%" viewBox="0 0 1024 1024" enable-background="new 0 0 1024 1024" xml:space="preserve">
<path fill="#000000" opacity="1.000000" stroke="none" 
	d="
M312.468658,1025.000000 
	C316.700562,983.838135 326.752686,943.930176 339.929382,904.725952 
	C354.802429,860.474609 372.584778,817.451599 393.753662,775.838989 
	C396.754883,769.939270 399.986664,764.156982 403.317139,757.936646 
	C399.286377,757.023499 395.766785,756.261169 392.264374,755.426819 
	C373.248230,750.896851 359.599213,739.558777 352.302643,721.626282 
	C348.848175,713.136414 343.697357,708.280273 335.302612,705.113586 
	C318.962860,698.949646 303.865356,690.495483 292.175903,677.040405 
	C289.992645,674.527283 287.319916,675.134033 284.771637,675.565796 
	C274.294525,677.340637 264.193726,675.879700 254.365967,672.196411 
	C240.573318,667.027100 234.566147,657.770996 235.166748,642.956055 
	C235.192368,642.323914 235.106491,641.687317 235.080505,641.201843 
	C233.669189,640.291138 232.522705,640.989868 231.533875,641.368774 
	C207.326096,650.647400 176.602737,635.861206 162.863785,615.627014 
	C155.551559,604.857788 150.941406,593.378357 151.668076,580.109436 
	C151.992737,574.181152 153.994614,570.622925 158.093460,570.193909 
	C163.372772,569.641357 165.151062,573.303162 166.577866,577.570679 
	C170.513962,589.343384 178.437347,593.442139 188.851089,589.072205 
	C188.394501,588.539917 188.069122,587.972107 187.585495,587.624207 
	C173.409058,577.426697 169.689987,563.093445 171.427551,546.649353 
	C173.581223,526.267456 179.471558,507.233032 192.283035,490.594330 
	C189.685059,487.151398 186.142044,484.856995 183.960556,481.265961 
	C175.168167,466.792389 174.614792,450.955933 176.177460,434.830597 
	C176.594833,430.523682 179.583801,427.319427 184.038574,426.975037 
	C188.335236,426.642853 189.714539,430.252747 190.866913,433.717072 
	C193.699722,442.233215 194.720749,442.871613 203.439728,441.673859 
	C211.367432,440.584900 219.127991,438.717346 226.795685,436.458893 
	C229.404572,435.690460 231.135544,434.790405 229.989182,431.187561 
	C224.513062,413.976807 228.256210,399.032623 241.808105,386.833862 
	C243.444473,385.360870 243.768463,384.059448 242.800827,382.067657 
	C230.857468,357.483246 243.852859,327.924469 261.267731,315.024292 
	C262.850830,313.851593 264.897491,312.869965 264.680145,310.470276 
	C263.340363,295.678375 271.446167,284.278351 278.751495,272.880127 
	C304.613617,232.528473 337.772278,199.229401 377.040894,171.772263 
	C421.861084,140.433395 470.677002,118.314667 524.290222,107.403931 
	C556.213928,100.907188 588.525085,98.793243 621.123901,101.549286 
	C643.753540,103.462494 666.063293,107.012093 687.858459,113.298424 
	C715.094543,121.154083 738.967651,135.124161 759.252686,154.914703 
	C788.600403,183.546890 817.723328,212.465240 841.680237,245.927780 
	C857.601074,268.165558 871.574158,291.667206 882.600952,316.785370 
	C884.131592,320.272034 886.092651,321.557556 890.030334,321.880005 
	C903.177246,322.956665 914.826416,327.981018 924.601257,336.989197 
	C927.078552,339.272278 929.305969,341.992889 930.104126,345.214905 
	C931.355530,350.266449 934.488586,351.010956 938.998047,350.742950 
	C944.802002,350.398041 950.641846,350.370605 956.382507,351.860504 
	C967.158936,354.657288 973.004272,363.158752 971.744568,374.253601 
	C970.703674,383.420197 967.221436,391.633636 961.918152,399.053528 
	C960.144409,401.535126 959.740601,403.138214 961.654236,405.963379 
	C968.203796,415.632721 967.380188,426.380005 964.149780,436.753723 
	C957.708313,457.439026 945.283142,473.032257 923.801636,479.568756 
	C914.316956,482.454803 904.632629,481.235291 895.253906,478.388916 
	C888.274292,476.270630 882.666016,472.299500 880.030273,464.637115 
	C872.501709,467.070862 865.230835,469.175049 857.533569,469.632599 
	C847.654358,470.219757 838.270813,468.686035 829.399109,464.427460 
	C818.457397,459.175201 814.205750,449.603851 817.497925,437.866882 
	C819.848145,429.487946 823.393921,421.597321 827.824158,414.105621 
	C828.659119,412.693695 829.456848,411.259705 830.549805,409.349945 
	C824.181030,405.975769 817.471802,404.708405 810.873901,403.708923 
	C807.358887,403.176453 808.359253,406.286041 809.388000,408.257507 
	C815.132690,419.266876 816.477783,431.088379 815.370056,443.188599 
	C813.784729,460.505737 806.526672,475.411133 795.295349,488.576355 
	C790.251709,494.488464 784.383057,499.706787 780.950500,507.017792 
	C779.143127,510.867279 779.692566,512.992188 783.290222,514.501343 
	C791.724182,518.039185 800.345215,520.208191 809.510193,517.448425 
	C813.335571,516.296509 817.195007,515.255798 821.010864,514.074036 
	C826.618774,512.337341 831.319397,514.039429 834.939148,518.263672 
	C838.564758,522.494690 836.998352,527.190247 834.648499,531.331543 
	C824.452881,549.299744 810.926086,563.824158 791.528198,572.111877 
	C790.032349,572.751038 788.316711,573.073914 787.016418,574.786682 
	C804.557312,603.620605 795.741516,628.222656 773.690857,650.990601 
	C778.789429,650.881531 783.486572,649.230774 787.992493,652.132080 
	C791.598511,654.453857 793.439087,657.278076 793.383362,661.526367 
	C793.305420,667.467529 790.744324,672.506165 787.607178,677.253296 
	C781.977112,685.773071 775.516785,693.734192 767.519226,700.050293 
	C755.844055,709.270813 742.503235,712.829529 727.673950,709.411499 
	C720.330750,707.718933 713.285706,705.197876 706.596619,701.764221 
	C703.603455,700.227661 701.907837,700.033691 700.031433,703.678101 
	C693.506409,716.351318 682.737244,720.627869 669.051270,716.461487 
	C663.152588,714.665771 657.335083,712.602234 651.892029,709.656799 
	C649.410583,708.314026 646.869568,707.925537 644.176025,708.604248 
	C637.915955,710.181580 631.881592,709.289978 626.170532,706.595459 
	C622.838135,705.023132 619.831238,704.895020 616.715515,706.822510 
	C616.296082,707.081909 615.814331,707.286926 615.333923,707.394531 
	C602.193848,710.340881 593.377441,718.882385 586.154785,729.638733 
	C584.971436,731.401062 584.840332,732.743835 585.423462,734.657104 
	C608.824524,811.438049 627.759705,889.327271 643.327026,968.054321 
	C647.035889,986.810486 650.972961,1005.521606 654.902527,1024.626709 
	C640.979126,1025.000000 626.958191,1025.000000 612.370850,1024.607056 
	C606.159790,994.975708 601.844849,965.521240 597.692810,936.046692 
	C592.866699,901.786133 588.400940,867.474976 583.606995,833.209778 
	C579.642395,804.872192 575.581238,776.544617 569.898865,748.482605 
	C569.414612,746.091187 569.555298,743.274170 566.500732,742.380859 
	C563.512085,741.506775 561.957703,743.764832 560.214111,745.522949 
	C545.962463,759.894775 529.436829,769.757263 508.821777,771.661804 
	C506.036804,771.919128 503.176453,772.295471 500.720673,773.942688 
	C499.754425,774.590820 498.465393,775.102722 498.796661,776.529663 
	C500.307922,783.039734 498.479340,789.451477 498.348846,795.909424 
	C497.722473,826.907288 492.734467,857.504150 489.849670,888.293518 
	C487.863739,909.488953 485.204193,930.623474 483.377380,951.831055 
	C481.278748,976.194275 479.766785,1000.608154 478.000000,1025.000000 
	C474.969391,1025.000000 471.938812,1025.000000 468.406799,1024.549561 
	C468.989807,1007.992188 470.016815,991.881104 471.176910,975.779663 
	C472.097656,963.000488 472.912537,950.204834 474.249207,937.466370 
	C476.905670,912.149658 479.751709,886.850708 482.776367,861.575256 
	C485.820160,836.139832 487.587463,810.556091 491.667603,785.239075 
	C492.014832,783.084778 493.403473,780.955200 492.554230,778.514038 
	C491.793793,778.631714 491.267151,778.602539 490.840668,778.795105 
	C471.391205,787.581238 452.086090,786.775330 432.864197,778.022766 
	C429.011200,776.268372 426.143280,777.232727 424.435089,781.329285 
	C418.989258,794.389343 413.409088,807.393738 408.021362,820.477478 
	C405.774841,825.933044 403.068542,831.263550 402.074524,837.008911 
	C403.275726,837.992676 404.310364,837.854370 405.253326,837.599060 
	C421.181488,833.286133 437.641846,834.337341 453.845093,832.866333 
	C470.708313,831.335327 473.675751,836.783142 472.849396,852.790161 
	C471.741425,874.251038 467.472778,895.357300 462.336975,916.225891 
	C460.276520,924.598389 456.359833,927.469177 447.584290,927.300476 
	C435.736450,927.072754 424.251709,923.870239 412.500458,922.646423 
	C403.553345,921.714661 400.653290,918.155457 399.662598,908.937073 
	C397.916107,892.686279 398.119873,876.349670 397.742676,860.039917 
	C397.678192,857.250977 397.616608,854.466675 396.470947,851.832703 
	C395.184082,852.246399 395.201233,853.422119 394.879089,854.286133 
	C384.171600,882.999207 374.971436,912.204102 366.247803,941.572021 
	C358.048157,969.176025 351.247742,997.146057 344.000000,1025.000000 
	C333.645782,1025.000000 323.291534,1025.000000 312.468658,1025.000000 
M322.252350,291.618378 
	C343.329742,287.048096 362.974762,290.547089 380.977875,302.415955 
	C388.795593,307.569916 391.007935,307.731598 398.897064,302.500000 
	C406.441376,297.497070 414.635040,295.636841 423.652802,297.540955 
	C433.017639,299.518311 441.927673,302.604675 450.233063,307.395599 
	C455.467163,310.414886 460.981018,312.454651 466.826904,309.451782 
	C482.157074,301.577026 497.282013,304.046356 512.146606,310.431549 
	C527.218994,316.906036 541.102478,325.566528 553.729309,336.001892 
	C559.998596,341.183014 566.320312,342.045197 573.664734,339.526398 
	C578.724304,337.791138 583.950317,336.898193 589.332397,336.663910 
	C610.705994,335.733490 631.561951,338.814880 651.899353,345.128906 
	C659.500183,347.488647 666.139038,346.503540 672.993042,342.975311 
	C686.776917,335.879700 701.468506,333.939728 716.102783,339.026489 
	C737.115479,346.330261 754.613586,358.623352 765.695679,378.658112 
	C766.649719,380.382874 767.320312,383.065460 769.240723,383.266571 
	C775.760193,383.949127 781.574524,387.613556 788.104736,387.725708 
	C799.472900,387.920959 810.678101,389.418060 821.861694,391.219330 
	C828.819641,392.340027 829.909668,391.498871 829.803406,384.569702 
	C829.488708,364.059906 837.948792,347.842102 854.017944,335.462341 
	C858.468567,332.033569 863.285828,329.080811 868.075012,325.813995 
	C867.790894,324.945068 867.588440,324.150513 867.277710,323.400818 
	C857.072998,298.778595 843.136108,276.220245 827.649963,254.728729 
	C804.098816,222.044830 775.824524,193.445068 747.256836,165.205994 
	C728.129395,146.298645 705.264038,133.604126 679.259338,126.830040 
	C642.355591,117.216805 604.898987,113.813995 566.851196,117.457176 
	C537.345032,120.282471 508.605927,126.313400 481.109741,137.583832 
	C446.755249,151.665390 414.444885,169.449997 384.311157,191.190887 
	C348.171112,217.265213 316.903290,248.044281 292.481018,285.512695 
	C290.793182,288.102173 289.105713,290.510590 291.496674,293.643219 
	C293.875366,296.759735 296.699707,297.944244 300.637085,297.089233 
	C307.638977,295.568787 314.644531,294.101288 322.252350,291.618378 
M650.016174,500.601410 
	C655.765259,504.692230 662.644592,504.910004 669.164734,505.319763 
	C676.073547,505.753998 683.101318,507.911285 689.969604,505.942932 
	C697.349182,503.828064 702.534180,505.369324 706.416443,512.017517 
	C709.026245,516.486694 711.686279,520.898132 715.188599,524.743408 
	C717.855286,527.671204 720.990540,528.890930 725.027466,528.106079 
	C742.667419,524.677002 755.773254,514.478821 764.823730,499.600830 
	C768.844421,492.991150 773.140320,486.860443 778.266296,481.183868 
	C782.515625,476.478119 786.567322,471.595367 789.669312,466.043030 
	C795.813477,455.045624 798.324951,443.592255 794.897339,431.004730 
	C791.656494,419.103088 782.766968,414.132050 772.153992,410.889069 
	C771.292297,410.625702 770.189636,410.884125 769.263916,411.137482 
	C758.192139,414.167267 751.744385,409.637695 750.634888,397.988922 
	C750.117126,392.552521 748.452637,387.492523 744.943787,383.297760 
	C736.055054,372.671417 725.602173,363.827515 712.627930,358.766144 
	C700.060730,353.863556 688.079651,355.766357 677.501831,364.483429 
	C672.539368,368.572906 666.909790,369.845306 660.673279,368.879059 
	C655.045227,368.007141 649.688171,366.149841 644.386597,364.166290 
	C628.341553,358.163177 611.764465,354.593994 594.651978,354.466583 
	C585.007141,354.394775 575.422485,355.450134 567.710938,362.778809 
	C564.210510,366.105377 557.002991,365.671326 552.642578,362.751801 
	C550.989197,361.644806 549.541077,360.234558 547.975586,358.992493 
	C532.418945,346.649689 516.620422,334.713989 497.752655,327.651184 
	C489.096161,324.410797 480.735626,324.329041 472.983185,329.798065 
	C463.950073,336.170593 455.397034,335.436035 446.773987,329.005096 
	C440.187164,324.092743 432.964172,320.413757 424.948181,318.252167 
	C413.972168,315.292389 408.831848,316.791534 404.372681,327.201019 
	C400.103760,337.166168 386.316620,339.172974 380.229004,329.760468 
	C375.871521,323.023102 369.777924,317.582428 362.022491,314.648315 
	C343.107178,307.492096 324.835876,307.848450 307.830292,319.972870 
	C304.886688,322.071564 302.175568,322.717133 298.565582,321.885620 
	C289.388184,319.771820 280.726624,321.185730 272.911530,326.800476 
	C263.517059,333.549896 257.771179,342.742401 255.599396,353.920563 
	C254.262772,360.800171 254.385620,367.835236 257.582489,374.476929 
	C260.259247,380.038086 264.889984,382.484314 270.528961,384.421478 
	C276.005737,386.302795 278.666046,393.126709 276.719055,397.525238 
	C274.729309,402.020355 270.112305,403.360199 263.776611,401.249084 
	C262.832886,400.934601 261.922394,400.511536 261.015198,400.097748 
	C255.814041,397.725281 252.046555,398.748962 248.573990,403.493713 
	C242.469284,411.834900 242.711258,423.803253 249.262115,431.857269 
	C254.587585,438.404755 261.781372,442.193970 269.497284,445.125244 
	C283.820435,450.566528 293.222504,448.461517 303.810730,437.348328 
	C307.256470,433.731812 310.357056,429.779633 313.882935,426.247986 
	C317.858429,422.265930 322.837555,422.558533 326.593933,426.715912 
	C328.624725,428.963440 330.127258,431.418121 330.478851,434.619476 
	C331.549561,444.368439 336.269196,451.907684 344.924286,456.675995 
	C355.366333,462.428802 366.613892,463.943848 378.296844,462.191498 
	C392.155731,460.112793 403.325195,452.751373 413.838989,443.984558 
	C424.260376,435.294800 428.797607,435.340820 439.293549,443.721405 
	C451.294464,453.303711 464.950287,459.004486 480.015625,461.598755 
	C485.021149,462.460693 489.244904,461.377777 492.654297,457.503265 
	C494.964844,454.877533 497.250763,452.225952 499.655853,449.688477 
	C506.360352,442.614899 511.789978,441.916473 520.025269,447.213593 
	C523.382080,449.372772 526.573303,451.802795 529.745728,454.232574 
	C538.116577,460.643768 547.556702,463.638763 558.080627,463.787628 
	C570.243347,463.959656 581.857544,461.136505 593.388062,457.806854 
	C604.442200,454.614746 613.376953,458.006989 620.721375,466.343842 
	C623.136047,469.084869 625.244263,472.111755 627.341980,475.113220 
	C633.762451,484.299957 640.888306,492.851654 650.016174,500.601410 
M443.238220,609.340454 
	C428.436646,606.969177 413.589905,605.021362 398.558350,605.208496 
	C383.748291,605.392944 369.474243,602.573914 355.367950,598.264343 
	C341.051910,593.890686 326.972717,588.678467 312.221069,585.786316 
	C305.032227,584.376892 302.166565,585.846436 299.544983,592.752563 
	C298.956665,594.302429 298.513550,595.920776 298.149780,597.540405 
	C294.548157,613.576843 293.633759,629.879395 294.553955,646.190430 
	C295.194427,657.542908 300.009735,667.212402 309.092743,674.718079 
	C319.267792,683.126160 330.699829,689.217407 342.955353,693.625671 
	C353.240417,697.325134 360.041901,703.469421 363.760162,714.015015 
	C367.133179,723.581421 373.403839,731.448120 382.608765,736.551025 
	C392.430023,741.995667 402.982483,743.305603 414.009277,742.810242 
	C423.240845,742.395447 425.905670,744.155334 429.320709,752.451111 
	C432.423187,759.987671 438.079376,764.383301 445.662506,766.679626 
	C460.895081,771.292297 475.325195,769.160706 488.982391,761.327576 
	C495.311737,757.697449 502.026398,755.700928 509.257172,754.836487 
	C522.733032,753.225342 533.963684,747.209656 542.597839,736.639099 
	C545.230652,733.415955 547.666748,730.030334 550.146240,726.684509 
	C552.292542,723.788269 555.168091,721.908142 558.706909,722.567139 
	C565.526245,723.836853 569.906799,720.359131 573.552124,715.514648 
	C577.855469,709.795532 581.763367,703.780334 586.000854,698.009644 
	C589.371033,693.420105 593.816345,692.296936 598.643127,695.208435 
	C601.544556,696.958435 602.787964,695.894470 604.408447,693.282410 
	C592.787842,683.070251 585.988342,670.623108 589.229431,654.851257 
	C592.293152,639.943115 601.138123,628.733948 614.594543,620.875732 
	C610.802490,615.445129 607.852417,610.113098 604.832458,604.233398 
	C595.769104,609.164368 586.355225,611.968445 577.306641,615.688660 
	C552.040222,626.076599 525.876648,627.605408 499.299103,623.129456 
	C480.584076,619.977600 462.752594,612.982605 443.238220,609.340454 
M698.304260,680.070435 
	C708.252380,683.335022 717.510620,688.257751 727.725708,691.067810 
	C746.001099,696.095276 761.224670,683.703125 769.734131,668.403442 
	C764.206299,668.386536 758.972351,667.903625 753.852783,666.433350 
	C750.578918,665.493103 748.544067,663.530334 747.949890,660.361816 
	C747.052979,655.579041 747.480408,651.139648 751.788025,647.746033 
	C757.158020,643.515442 762.267944,638.932678 766.655640,633.680847 
	C776.959595,621.347717 783.608826,608.037842 776.882141,591.526428 
	C775.030212,586.980591 772.029480,583.226990 768.898743,579.520813 
	C762.723572,572.210571 765.002136,563.788086 773.907166,560.462097 
	C777.026489,559.297119 780.150940,558.098938 783.141418,556.645142 
	C792.776794,551.960999 802.141968,546.855408 808.613525,537.878174 
	C809.545166,536.585876 811.032959,535.227112 810.026855,533.424072 
	C809.151794,531.856018 807.378296,532.323975 805.925903,532.287476 
	C795.876587,532.034790 786.513428,529.334045 777.998291,524.046814 
	C773.645569,521.344177 769.961487,521.701538 766.282837,525.091736 
	C758.866760,531.926270 750.613403,537.497009 741.162537,541.134766 
	C735.080078,543.475952 728.842224,545.284058 722.240906,545.257507 
	C711.299866,545.213501 703.757202,539.280090 698.126709,530.645325 
	C695.330933,526.357666 692.023560,524.829285 686.948853,525.244080 
	C680.991821,525.731079 674.939270,525.645020 668.967651,525.233582 
	C656.614990,524.382385 644.286133,523.175720 634.583496,514.032349 
	C633.609924,513.114929 632.439758,512.567444 630.974121,512.609863 
	C626.751953,512.732056 625.349548,514.775391 626.625000,519.986694 
	C631.071106,538.153320 630.878357,555.890015 622.564575,573.099182 
	C620.984863,576.369141 620.235107,580.035034 619.025757,583.491455 
	C618.574707,584.780518 618.214417,586.043457 618.582886,587.388184 
	C622.060425,600.079407 627.947083,611.248352 639.062927,618.943176 
	C643.705811,622.157166 645.762024,626.112122 644.373352,630.168457 
	C642.823547,634.695435 638.808716,636.957336 633.232605,636.445068 
	C623.552368,635.555725 615.212952,641.086365 609.912659,651.910400 
	C605.468567,660.985962 606.472961,668.198914 613.340332,675.787659 
	C618.652161,681.657471 625.147522,685.999573 631.824219,690.151978 
	C635.533569,692.458923 639.149841,693.798767 643.542053,692.375549 
	C646.926758,691.278687 650.093506,692.659851 653.215759,693.869385 
	C659.889893,696.454956 666.451233,699.415405 673.280029,701.496155 
	C681.406189,703.972107 685.970825,700.483948 686.846558,691.978088 
	C687.538269,685.259827 690.781738,681.621460 698.304260,680.070435 
M427.834686,459.160797 
	C425.421844,458.246826 424.193298,460.278656 422.643585,461.344757 
	C419.080200,463.796051 415.644440,466.432068 412.100464,468.912506 
	C405.097443,473.813934 397.014099,476.457672 388.800812,479.366669 
	C389.406464,480.722961 389.731842,481.645142 390.205811,482.483307 
	C395.754059,492.294983 397.515869,502.731537 395.452393,513.815735 
	C392.429779,530.052246 383.337463,543.358093 373.791504,556.098877 
	C363.638489,569.649841 349.215942,576.061035 332.134644,576.550293 
	C353.619019,582.542969 374.308594,591.503296 397.450104,590.841187 
	C427.206818,589.989746 456.601227,593.021362 485.217499,601.997131 
	C494.602051,604.940674 504.328857,606.658508 514.272156,605.650024 
	C521.742859,604.892456 529.250610,605.029358 536.712341,604.499817 
	C541.099854,604.188354 545.805786,604.514648 550.473938,602.354187 
	C546.628418,598.313477 542.933777,595.182312 540.330139,591.052612 
	C532.091980,577.985168 530.100342,563.805603 532.717224,548.813538 
	C537.199707,523.133362 545.457458,499.491302 568.621643,483.607727 
	C546.747314,485.962860 527.847595,479.886444 511.540192,465.473511 
	C509.967896,467.174164 508.848969,468.373199 507.742188,469.583374 
	C499.271790,478.845062 489.356995,483.078888 476.447449,480.478455 
	C458.826294,476.928925 442.632843,470.574188 427.834686,459.160797 
M267.986206,503.491150 
	C277.005493,495.203217 284.818665,486.113617 289.788696,474.645874 
	C292.780640,467.742371 292.090515,465.549164 284.657867,465.037384 
	C267.606537,463.863220 252.622696,457.707397 239.916168,446.293610 
	C237.287659,443.932495 235.249817,443.873322 232.004440,445.146545 
	C219.151535,450.188904 206.166901,455.048401 191.917114,453.399384 
	C188.805725,453.039337 188.098877,454.653473 188.297455,457.234680 
	C188.607590,461.265778 189.809052,465.078094 191.317719,468.790253 
	C194.275192,476.067322 198.573105,481.479431 207.516541,481.051392 
	C210.900894,480.889404 213.196625,483.065826 213.891052,486.343292 
	C214.576736,489.579529 212.823181,491.950317 209.956421,493.074829 
	C206.156555,494.565338 203.765991,497.415619 201.431717,500.499146 
	C191.226288,513.980225 187.650589,529.735229 185.017639,546.022827 
	C182.186951,563.533691 188.676880,575.469971 204.563431,582.737305 
	C208.033768,584.324768 210.073425,586.896362 209.781616,590.981689 
	C209.477188,595.243835 207.610855,598.125305 203.385361,599.514038 
	C199.115326,600.917419 194.870697,602.336304 190.492111,603.413513 
	C184.713242,604.835266 178.825439,604.667969 172.852356,604.291565 
	C172.859009,606.985229 174.016907,608.224609 174.974823,609.547791 
	C189.513077,629.630615 213.508621,635.724854 235.972931,624.846130 
	C239.975784,622.907776 243.394623,623.407410 246.715591,625.822205 
	C249.750549,628.028992 250.295929,631.181458 249.698715,634.751404 
	C249.343674,636.873657 249.313217,639.062012 249.273102,641.223206 
	C249.040680,653.743286 254.095596,659.373230 266.716492,660.686829 
	C268.041107,660.824646 269.376617,660.875793 270.708618,660.922180 
	C277.508301,661.158936 281.062317,657.485352 279.806732,650.809692 
	C278.830536,645.619629 278.866394,640.553223 279.735382,635.428955 
	C281.270020,626.379761 280.592133,617.851135 276.550903,609.244019 
	C271.234863,597.921875 268.475616,585.623291 265.741150,573.437256 
	C263.410126,563.049377 261.699005,552.523926 259.550751,542.092834 
	C258.705627,537.989380 257.390778,533.536133 254.131805,531.103577 
	C251.378738,529.048584 248.436401,532.650391 245.656509,533.818054 
	C241.601135,535.521423 237.878326,535.600403 234.365570,532.900635 
	C231.073975,530.370911 231.601318,526.709839 231.959320,523.223755 
	C232.271561,520.183350 233.496048,517.204895 232.654144,513.737610 
	C227.294479,515.287292 222.248871,516.939697 217.101074,518.161438 
	C214.042099,518.887451 211.470764,517.701050 210.346497,514.474548 
	C209.215424,511.228516 210.581406,508.691315 213.393600,507.406372 
	C220.664017,504.084351 228.101089,500.962158 236.051285,499.822876 
	C243.365051,498.774811 247.702560,503.626434 246.752182,511.060181 
	C246.419876,513.659424 245.981628,516.245178 245.438492,519.855713 
	C253.903534,515.010010 260.862274,509.745697 267.986206,503.491150 
M837.418701,451.057281 
	C853.559509,457.736908 868.613281,455.815521 882.593689,445.357544 
	C888.019531,441.298889 892.622925,442.474304 895.393066,448.599884 
	C896.580261,451.225220 897.364441,453.884186 896.643616,456.819916 
	C895.957153,459.615692 897.316833,461.431519 899.879761,462.138824 
	C908.061096,464.396790 916.327515,465.288513 924.254822,461.403259 
	C938.679077,454.333893 949.044556,435.656586 947.831665,419.730438 
	C947.596985,416.648438 946.449463,414.638214 943.474243,413.863403 
	C939.506775,412.830109 936.210327,411.059448 935.811951,406.481964 
	C935.422852,402.010468 938.492371,399.517181 941.706421,397.311768 
	C950.522095,391.262604 953.174255,382.274597 953.776978,372.298431 
	C953.868469,370.784302 953.694824,369.133331 952.088928,368.415222 
	C945.473633,365.457092 938.369263,366.458893 931.443665,366.094269 
	C930.892395,366.065277 930.276001,367.163635 929.699036,367.747162 
	C925.379700,372.116119 922.688354,371.557983 920.870972,365.811310 
	C920.221191,363.756622 919.895264,361.600677 919.394653,359.497406 
	C918.173340,354.366119 915.521118,350.541504 910.500000,348.211243 
	C886.532593,337.088074 853.961426,352.973785 848.068359,378.786285 
	C846.393982,386.120300 847.745544,388.779907 854.950073,391.201263 
	C858.849548,392.511841 862.007385,394.219818 862.465271,398.781250 
	C862.950562,403.616730 859.804749,405.928436 856.177795,408.011963 
	C842.683105,415.764008 837.161499,428.840485 833.205750,442.867523 
	C832.262329,446.212982 833.168945,449.175323 837.418701,451.057281 
M439.923737,886.439148 
	C436.115326,889.976440 432.292236,893.630676 426.585449,893.329224 
	C418.522400,892.903320 416.861908,885.259827 412.079193,880.477539 
	C412.281403,889.573303 411.401886,898.599182 413.361359,907.516724 
	C413.867157,909.818787 416.053162,909.545776 417.858643,909.790710 
	C425.928833,910.885620 434.006714,911.940308 442.049866,913.211731 
	C448.060699,914.161865 449.212097,913.750732 450.347107,907.843933 
	C452.793945,895.109680 454.971649,882.323608 457.245911,869.556396 
	C457.450043,868.410461 457.700287,867.187561 455.573120,866.586670 
	C450.607239,872.924561 445.514648,879.424255 439.923737,886.439148 
M430.517975,847.116272 
	C424.996490,847.116272 419.475006,847.116272 413.374664,847.116272 
	C416.949249,856.417358 420.189728,865.483398 423.917023,874.344666 
	C426.843658,881.302490 429.080658,881.537476 433.708344,875.301880 
	C439.457733,867.555115 444.770386,859.483765 450.246368,851.535217 
	C450.892181,850.597717 451.638184,849.617004 450.787781,847.635742 
	C444.665802,846.208496 438.039703,847.442810 430.517975,847.116272 
M308.613037,472.032013 
	C302.638123,483.231995 295.831604,493.846527 286.882812,502.958282 
	C285.710266,504.152191 284.456451,505.401917 284.607117,507.230103 
	C285.657227,519.970459 285.354584,532.767395 287.318542,545.497375 
	C289.097260,557.026917 294.449005,565.098450 305.046631,569.886902 
	C307.431946,570.964661 309.595673,572.217957 312.947235,571.180603 
	C299.037994,563.191650 291.596161,550.674744 288.066406,536.425476 
	C282.746704,514.950195 292.736328,498.135406 307.941895,484.197784 
	C314.482330,478.202698 320.985016,472.015717 329.416199,467.106079 
	C324.676422,462.522552 321.287476,457.911743 318.246552,452.606628 
	C314.967072,459.253326 311.973633,465.320282 308.613037,472.032013 
M600.422302,483.835876 
	C602.433228,484.662170 603.819641,486.837128 606.297974,486.884552 
	C607.550110,476.400177 603.941467,474.970276 588.941956,480.267731 
	C593.169739,480.870972 596.602905,481.787872 600.422302,483.835876 
z"/>
<path fill="#000000" opacity="1.000000" stroke="none" 
	d="
M505.986877,836.023438 
	C510.595673,831.540710 515.936951,832.203125 521.288208,832.645935 
	C534.880249,833.770813 548.461182,834.999512 561.642151,838.744629 
	C566.664124,840.171509 571.273315,842.376343 574.180847,847.168640 
	C575.912109,850.022095 576.638672,852.946838 576.085815,856.218140 
	C574.055176,868.233765 574.040039,880.409424 573.255981,892.521973 
	C572.643250,901.989380 571.997864,911.458679 570.333618,920.798950 
	C569.196716,927.179504 565.264587,930.356262 558.836060,930.252869 
	C543.020264,929.998596 527.202148,929.700378 511.395752,929.123108 
	C500.780334,928.735352 497.924194,924.866577 498.354187,914.206543 
	C499.025085,897.573059 499.309509,880.922424 499.619873,864.276489 
	C499.801697,854.524719 498.570465,844.517151 505.986877,836.023438 
M521.161011,863.497009 
	C524.804565,875.484436 527.128296,887.944885 533.172791,899.030457 
	C535.713867,898.461243 536.427063,896.842529 537.170593,895.419861 
	C543.306580,883.678467 546.909851,871.015137 550.503296,858.354980 
	C551.282837,855.608459 550.138489,853.775940 547.428528,853.050598 
	C539.064575,850.811890 530.596863,849.082520 521.980652,848.150391 
	C518.577637,847.782227 517.948181,849.752319 518.543030,852.513245 
	C519.278137,855.925354 520.125793,859.313110 521.161011,863.497009 
M556.517944,915.690369 
	C557.111938,905.302979 558.662964,894.931641 557.391174,884.449829 
	C555.042358,887.941040 553.437622,891.575928 551.549194,895.056946 
	C549.567383,898.710022 547.535706,902.373047 545.137268,905.756226 
	C537.777588,916.137573 528.809875,915.752686 522.455933,904.757874 
	C518.853821,898.524780 516.921875,891.580566 514.672791,884.779541 
	C513.395508,880.917236 512.869873,876.742859 510.373108,872.973816 
	C509.924194,873.702271 509.473022,874.094421 509.467316,874.492920 
	C509.277161,887.821350 509.136017,901.150452 508.970917,914.479248 
	C508.929871,917.793091 510.822601,918.731445 513.781799,918.715515 
	C525.779785,918.651001 537.778564,918.701782 549.776062,918.597412 
	C552.064453,918.577454 554.488342,918.458374 556.517944,915.690369 
z"/>
<path fill="#000000" opacity="1.000000" stroke="none" 
	d="
M457.363220,644.514404 
	C459.810303,642.726196 461.968567,641.171570 464.033234,639.501343 
	C468.830231,635.620667 474.033356,635.615356 478.343567,639.926636 
	C483.428314,645.012573 488.806519,647.860413 496.191162,644.758606 
	C499.495209,643.370789 502.580750,644.747681 503.985565,648.196411 
	C505.508698,651.935608 504.441620,655.079590 500.754120,657.044495 
	C491.817413,661.806580 483.200562,660.093079 475.283875,654.896851 
	C471.724091,652.560303 469.430267,652.821228 466.034485,654.968140 
	C451.831909,663.947754 434.147827,662.054443 421.980621,650.333740 
	C419.596130,648.036682 417.736816,647.646729 414.576965,648.724670 
	C398.635406,654.162903 383.798248,650.140015 369.533905,642.679077 
	C367.814728,641.779907 366.410522,640.208191 364.998718,638.808594 
	C362.943878,636.771545 361.776611,634.375793 363.795563,631.714905 
	C365.915314,628.921265 368.762543,629.010559 371.309998,630.882874 
	C377.269104,635.262573 384.034424,637.258240 391.207703,638.258118 
	C399.588348,639.426453 407.725952,639.398132 415.411102,634.921814 
	C419.933411,632.287781 424.467651,633.339905 428.718018,638.117126 
	C434.183441,644.260010 440.616608,647.484802 448.929871,646.893738 
	C451.820557,646.688232 454.502350,646.061462 457.363220,644.514404 
z"/>
</svg>