<svg id="svg" version="1.1" xmlns="http://www.w3.org/2000/svg" xmlns:xlink="http://www.w3.org/1999/xlink" width="400" height="400" viewBox="0, 0, 400,400"><g id="svgg"><path id="path0" d="M137.800 45.410 C 121.170 46.985,102.939 52.596,99.826 57.098 C 96.978 61.216,98.699 67.894,103.185 70.132 C 107.120 72.095,108.543 71.992,115.800 69.212 C 119.230 67.898,123.029 66.758,129.200 65.191 C 130.819 64.780,134.467 64.184,138.916 63.605 C 142.989 63.076,154.186 63.085,157.554 63.621 C 159.009 63.853,161.460 64.238,163.000 64.476 C 168.482 65.326,176.039 67.562,181.000 69.803 C 193.605 75.496,201.670 60.776,189.600 54.106 C 177.921 47.653,154.908 43.790,137.800 45.410 M269.800 89.593 C 268.700 89.778,266.821 89.946,265.624 89.965 C 264.427 89.984,262.357 90.194,261.024 90.431 C 254.371 91.614,250.673 92.355,249.200 92.803 C 248.650 92.970,247.390 93.332,246.400 93.607 C 237.969 95.949,235.666 97.364,234.180 101.117 C 232.589 105.133,235.090 110.581,239.480 112.665 C 241.026 113.398,246.633 113.527,247.316 112.844 C 247.560 112.600,248.086 112.400,248.485 112.400 C 248.884 112.400,249.523 112.238,249.905 112.039 C 250.287 111.840,251.410 111.468,252.400 111.212 C 253.390 110.956,254.740 110.592,255.400 110.405 C 256.060 110.218,257.401 109.938,258.380 109.783 L 260.160 109.503 256.955 112.651 C 241.128 128.202,245.916 156.979,265.572 164.436 C 270.829 166.431,279.652 164.115,284.744 159.403 C 287.494 156.859,292.000 149.671,292.000 147.828 C 292.000 147.509,292.160 147.148,292.356 147.027 C 292.744 146.788,292.860 146.211,293.756 140.091 C 294.485 135.116,293.989 130.138,292.155 124.000 C 290.638 118.924,285.858 112.851,280.864 109.656 C 278.395 108.076,278.357 108.026,279.423 107.759 C 280.394 107.515,288.163 108.123,290.800 108.650 C 291.350 108.760,292.610 109.010,293.600 109.206 C 296.806 109.842,298.970 110.331,300.400 110.743 C 301.170 110.965,302.250 111.263,302.800 111.406 C 303.350 111.550,304.160 111.815,304.600 111.995 C 305.040 112.176,306.914 112.913,308.764 113.632 C 310.614 114.352,313.632 115.709,315.470 116.647 C 328.913 123.506,337.382 108.357,324.220 100.996 C 321.059 99.228,313.395 95.995,309.600 94.827 C 307.950 94.320,306.240 93.760,305.800 93.582 C 305.360 93.405,304.460 93.149,303.800 93.012 C 303.140 92.876,301.880 92.581,301.000 92.357 C 292.393 90.167,275.350 88.657,269.800 89.593 M142.103 95.370 C 135.468 96.745,128.740 102.480,125.644 109.400 C 125.348 110.060,124.948 110.913,124.753 111.295 C 124.559 111.677,124.400 112.341,124.400 112.771 C 124.400 113.201,124.220 113.664,124.000 113.800 C 123.780 113.936,123.600 114.498,123.600 115.050 C 123.600 115.601,123.408 116.411,123.174 116.849 C 122.128 118.802,122.780 132.041,124.043 134.495 C 124.239 134.877,124.400 135.437,124.400 135.739 C 124.400 136.042,125.106 137.662,125.968 139.339 C 137.981 162.691,165.728 155.164,168.788 127.724 C 170.896 108.817,157.221 92.237,142.103 95.370 M179.000 215.201 C 165.243 216.706,158.800 218.928,158.800 222.166 C 158.800 222.489,158.620 222.864,158.400 223.000 C 157.604 223.492,157.941 228.213,158.900 230.012 C 161.760 235.374,165.293 236.319,175.400 234.426 C 194.318 230.881,220.325 235.498,234.272 244.876 C 235.192 245.494,236.066 246.000,236.215 246.000 C 236.363 246.000,237.191 246.559,238.054 247.243 C 247.338 254.596,258.436 244.707,251.388 235.362 C 249.008 232.207,237.143 225.382,228.200 222.023 C 226.880 221.528,225.440 220.979,225.000 220.805 C 222.348 219.752,215.877 217.951,211.400 217.019 C 202.664 215.201,187.024 214.323,179.000 215.201 " stroke="none" fill="#65451c" fill-rule="evenodd"></path><path id="path1" d="M196.093 62.800 C 196.093 63.570,196.175 63.885,196.276 63.500 C 196.376 63.115,196.376 62.485,196.276 62.100 C 196.175 61.715,196.093 62.030,196.093 62.800 M145.700 63.887 C 146.305 63.978,147.295 63.978,147.900 63.887 C 148.505 63.795,148.010 63.720,146.800 63.720 C 145.590 63.720,145.095 63.795,145.700 63.887 M242.900 114.276 C 243.285 114.376,243.915 114.376,244.300 114.276 C 244.685 114.175,244.370 114.093,243.600 114.093 C 242.830 114.093,242.515 114.175,242.900 114.276 M270.100 165.876 C 270.485 165.976,271.115 165.976,271.500 165.876 C 271.885 165.775,271.570 165.693,270.800 165.693 C 270.030 165.693,269.715 165.775,270.100 165.876 M114.543 199.381 C 108.769 202.007,106.793 208.314,109.148 216.600 C 110.834 222.534,111.217 224.187,111.810 228.097 C 114.017 242.665,110.250 254.340,100.227 264.000 C 73.259 289.991,67.392 299.209,66.170 317.509 C 66.019 319.768,65.732 321.718,65.532 321.842 C 65.085 322.118,65.170 329.319,65.624 329.609 C 65.805 329.724,65.991 331.036,66.039 332.524 C 66.088 334.013,66.278 335.325,66.464 335.439 C 66.649 335.554,66.800 336.432,66.800 337.390 C 66.800 338.349,66.970 339.193,67.179 339.267 C 67.387 339.340,67.600 340.245,67.652 341.278 C 67.704 342.311,67.894 343.065,68.074 342.955 C 68.253 342.844,68.400 343.473,68.400 344.353 C 68.400 345.233,68.580 346.064,68.800 346.200 C 69.020 346.336,69.200 346.987,69.200 347.647 C 69.200 348.345,69.367 348.744,69.600 348.600 C 69.833 348.456,70.000 348.863,70.000 349.576 C 70.000 350.249,70.180 350.800,70.400 350.800 C 70.620 350.800,70.800 351.340,70.800 352.000 C 70.800 352.660,70.980 353.200,71.200 353.200 C 71.420 353.200,71.600 353.549,71.600 353.976 C 71.600 354.403,71.780 354.864,72.000 355.000 C 72.220 355.136,72.400 355.607,72.400 356.047 C 72.400 356.487,72.580 356.736,72.800 356.600 C 73.020 356.464,73.200 356.708,73.200 357.143 C 73.200 357.578,73.378 357.993,73.597 358.067 C 73.815 358.140,74.033 358.682,74.081 359.271 C 74.130 359.860,74.291 360.267,74.439 360.176 C 74.669 360.034,74.900 360.565,75.193 361.909 C 75.228 362.069,75.501 362.470,75.800 362.800 C 76.099 363.130,76.354 363.580,76.368 363.800 C 76.382 364.020,76.620 364.484,76.897 364.832 C 77.651 365.778,78.359 366.904,78.763 367.800 C 78.961 368.240,79.500 368.997,79.962 369.483 C 80.423 369.969,80.800 370.539,80.800 370.750 C 80.800 370.961,80.942 371.193,81.115 371.267 C 81.288 371.340,82.053 372.200,82.815 373.177 C 84.710 375.608,91.011 381.891,93.269 383.600 C 94.286 384.370,95.048 385.116,94.962 385.258 C 94.820 385.490,95.795 386.078,96.466 386.165 C 96.613 386.184,97.084 386.605,97.513 387.100 C 97.943 387.595,98.588 388.000,98.947 388.000 C 99.306 388.000,99.600 388.168,99.600 388.373 C 99.600 388.578,99.977 388.866,100.438 389.012 C 100.898 389.158,102.049 389.800,102.996 390.439 C 103.942 391.077,105.005 391.600,105.358 391.600 C 105.711 391.600,106.000 391.780,106.000 392.000 C 106.000 392.220,106.345 392.400,106.767 392.400 C 107.188 392.400,107.593 392.535,107.667 392.700 C 107.885 393.191,111.216 394.800,112.014 394.800 C 112.420 394.800,112.864 394.980,113.000 395.200 C 113.136 395.420,113.597 395.600,114.024 395.600 C 114.451 395.600,114.800 395.780,114.800 396.000 C 114.800 396.220,115.250 396.400,115.800 396.400 C 116.350 396.400,116.800 396.580,116.800 396.800 C 116.800 397.020,117.441 397.200,118.224 397.200 C 119.007 397.200,119.558 397.344,119.449 397.520 C 119.341 397.696,119.915 397.884,120.726 397.937 C 121.537 397.991,122.260 398.207,122.333 398.418 C 122.407 398.628,123.157 398.800,124.000 398.800 C 124.871 398.800,125.605 399.016,125.700 399.300 C 125.829 399.688,129.169 399.800,140.600 399.800 C 152.031 399.800,155.371 399.688,155.500 399.300 C 155.599 399.002,156.371 398.800,157.410 398.800 C 158.368 398.800,159.264 398.620,159.400 398.400 C 159.536 398.180,160.357 398.000,161.224 398.000 C 162.091 398.000,162.800 397.820,162.800 397.600 C 162.800 397.380,163.711 397.200,164.824 397.200 C 166.071 397.200,166.752 397.047,166.600 396.800 C 166.448 396.553,167.129 396.400,168.376 396.400 C 169.489 396.400,170.400 396.220,170.400 396.000 C 170.400 395.780,171.120 395.600,172.000 395.600 C 172.880 395.600,173.600 395.420,173.600 395.200 C 173.600 394.980,174.500 394.800,175.600 394.800 C 176.700 394.800,177.600 394.620,177.600 394.400 C 177.600 394.180,178.320 394.000,179.200 394.000 C 180.080 394.000,180.800 393.820,180.800 393.600 C 180.800 393.380,181.700 393.200,182.800 393.200 C 183.900 393.200,184.800 393.020,184.800 392.800 C 184.800 392.580,185.621 392.400,186.624 392.400 C 187.737 392.400,188.351 392.244,188.200 392.000 C 188.049 391.756,188.655 391.600,189.753 391.600 C 190.743 391.600,191.659 391.428,191.789 391.217 C 191.919 391.007,192.297 390.939,192.628 391.066 C 192.959 391.193,193.583 390.977,194.015 390.587 C 194.447 390.196,194.800 389.998,194.800 390.147 C 194.800 390.296,195.219 390.144,195.732 389.808 C 196.244 389.472,196.784 389.318,196.932 389.465 C 197.079 389.613,197.200 389.554,197.200 389.335 C 197.200 389.116,198.100 388.515,199.200 388.000 C 200.300 387.485,201.200 386.919,201.200 386.742 C 201.200 386.565,201.740 386.141,202.400 385.800 C 203.060 385.459,203.600 384.926,203.600 384.617 C 203.600 384.307,203.974 383.935,204.430 383.790 C 204.887 383.646,205.160 383.426,205.037 383.303 C 204.914 383.180,205.220 382.702,205.717 382.240 C 206.671 381.355,207.492 379.543,207.547 378.200 C 207.566 377.760,207.698 375.821,207.841 373.890 C 208.206 368.964,205.386 363.200,202.611 363.200 C 201.331 363.200,202.092 362.365,204.464 361.168 C 216.058 355.315,217.356 338.131,206.590 333.022 C 204.761 332.154,204.814 331.970,207.387 330.261 C 215.645 324.778,218.120 312.910,212.529 305.606 C 211.070 303.700,206.753 300.000,205.989 300.000 C 205.738 300.000,205.608 299.775,205.699 299.500 C 205.926 298.819,205.285 298.991,226.900 293.813 C 230.145 293.036,235.455 291.761,238.700 290.979 C 241.945 290.198,246.490 289.108,248.800 288.557 C 267.922 283.997,267.266 284.179,270.744 282.460 C 281.839 276.974,281.164 259.680,269.671 254.953 C 265.484 253.231,262.572 253.516,246.537 257.216 C 231.256 260.743,228.987 261.269,224.100 262.422 C 212.514 265.154,207.145 266.411,205.400 266.800 C 203.722 267.174,199.070 268.262,193.500 269.583 C 191.685 270.013,188.580 270.732,186.600 271.181 C 184.620 271.629,180.390 272.606,177.200 273.352 C 171.858 274.600,165.413 276.088,156.800 278.061 C 151.216 279.340,146.691 280.411,145.154 280.817 C 137.768 282.771,136.317 280.041,141.384 273.725 C 144.655 269.649,146.822 266.022,148.079 262.520 C 152.002 251.591,151.471 237.752,146.559 222.890 C 140.981 206.016,125.290 194.494,114.543 199.381 M185.905 233.883 C 186.402 233.979,187.122 233.975,187.505 233.875 C 187.887 233.775,187.480 233.696,186.600 233.701 C 185.720 233.705,185.407 233.787,185.905 233.883 M193.905 233.883 C 194.402 233.979,195.122 233.975,195.505 233.875 C 195.887 233.775,195.480 233.696,194.600 233.701 C 193.720 233.705,193.407 233.787,193.905 233.883 " stroke="none" fill="#f39424" fill-rule="evenodd"></path><path id="path2" d="M181.222 0.272 C 179.144 0.360,177.248 0.594,177.009 0.792 C 176.770 0.991,175.276 1.191,173.688 1.237 C 172.099 1.283,170.800 1.474,170.800 1.661 C 170.800 1.847,169.911 2.000,168.824 2.000 C 167.737 2.000,166.736 2.180,166.600 2.400 C 166.464 2.620,165.499 2.800,164.456 2.800 C 163.413 2.800,162.389 2.970,162.180 3.179 C 161.971 3.387,161.046 3.601,160.124 3.655 C 159.202 3.709,158.538 3.899,158.647 4.077 C 158.757 4.255,158.027 4.400,157.024 4.400 C 156.021 4.400,155.200 4.580,155.200 4.800 C 155.200 5.020,154.480 5.200,153.600 5.200 C 152.720 5.200,152.000 5.380,152.000 5.600 C 152.000 5.820,151.381 6.000,150.624 6.000 C 149.867 6.000,149.136 6.180,149.000 6.400 C 148.864 6.620,148.223 6.800,147.576 6.800 C 146.929 6.800,146.400 6.980,146.400 7.200 C 146.400 7.420,145.770 7.600,145.000 7.600 C 144.230 7.600,143.600 7.756,143.600 7.946 C 143.600 8.136,142.794 8.402,141.809 8.537 C 140.824 8.672,139.699 8.949,139.309 9.153 C 138.919 9.356,137.250 9.945,135.600 10.461 C 133.950 10.978,132.540 11.535,132.467 11.700 C 132.393 11.865,132.070 12.000,131.747 12.000 C 131.425 12.000,130.416 12.360,129.506 12.800 C 128.595 13.240,127.524 13.600,127.125 13.600 C 126.726 13.600,126.400 13.780,126.400 14.000 C 126.400 14.220,126.040 14.400,125.600 14.400 C 125.160 14.400,124.800 14.580,124.800 14.800 C 124.800 15.020,124.440 15.200,124.000 15.200 C 123.560 15.200,123.200 15.336,123.200 15.502 C 123.200 15.768,121.811 16.348,120.000 16.838 C 119.670 16.927,119.310 17.090,119.200 17.200 C 118.738 17.662,115.479 19.200,114.962 19.200 C 114.653 19.200,114.400 19.380,114.400 19.600 C 114.400 19.820,114.130 20.000,113.800 20.000 C 113.470 20.000,113.200 20.180,113.200 20.400 C 113.200 20.620,112.966 20.800,112.680 20.800 C 111.944 20.800,110.007 21.741,110.003 22.100 C 110.001 22.265,109.629 22.400,109.176 22.400 C 108.723 22.400,108.464 22.580,108.600 22.800 C 108.736 23.020,108.567 23.200,108.224 23.200 C 107.881 23.200,107.600 23.380,107.600 23.600 C 107.600 23.820,107.240 24.000,106.800 24.000 C 106.360 24.000,106.000 24.180,106.000 24.400 C 106.000 24.620,105.713 24.800,105.362 24.800 C 105.011 24.800,104.225 25.155,103.617 25.588 C 103.008 26.022,102.395 26.262,102.255 26.122 C 102.115 25.981,102.000 26.077,102.000 26.333 C 102.000 26.590,101.764 26.800,101.475 26.800 C 101.187 26.800,100.564 27.160,100.092 27.600 C 99.620 28.040,98.996 28.400,98.705 28.400 C 98.414 28.400,97.917 28.760,97.600 29.200 C 97.283 29.640,96.703 30.000,96.312 30.000 C 95.920 30.000,95.600 30.180,95.600 30.400 C 95.600 30.620,95.330 30.800,95.000 30.800 C 94.670 30.800,94.400 30.980,94.400 31.200 C 94.400 31.420,94.173 31.600,93.896 31.600 C 93.619 31.600,93.168 31.960,92.893 32.400 C 92.618 32.840,92.164 33.200,91.885 33.200 C 91.605 33.200,91.117 33.560,90.800 34.000 C 90.483 34.440,89.943 34.800,89.600 34.800 C 89.257 34.800,88.717 35.160,88.400 35.600 C 88.083 36.040,87.631 36.400,87.396 36.400 C 87.160 36.400,86.172 37.120,85.200 38.000 C 84.228 38.880,83.272 39.600,83.076 39.600 C 82.881 39.600,82.217 40.140,81.600 40.800 C 80.983 41.460,80.281 42.000,80.040 42.000 C 79.798 42.000,79.600 42.180,79.600 42.400 C 79.600 42.620,79.389 42.800,79.131 42.800 C 78.873 42.800,77.726 43.745,76.582 44.900 C 75.438 46.055,74.300 47.045,74.052 47.100 C 73.436 47.236,58.000 62.673,58.000 63.153 C 58.000 63.364,56.830 64.742,55.400 66.215 C 53.970 67.688,52.800 69.058,52.800 69.260 C 52.800 69.462,52.170 70.257,51.400 71.027 C 50.630 71.797,50.000 72.595,50.000 72.800 C 50.000 73.005,49.370 73.803,48.600 74.573 C 47.830 75.343,47.200 76.131,47.200 76.325 C 47.200 76.518,46.840 77.002,46.400 77.400 C 45.960 77.798,45.600 78.284,45.600 78.479 C 45.600 78.674,45.422 79.051,45.205 79.317 C 43.554 81.338,42.000 83.707,42.000 84.203 C 42.000 84.532,41.842 84.800,41.649 84.800 C 41.455 84.800,41.073 85.340,40.800 86.000 C 40.527 86.660,40.145 87.200,39.951 87.200 C 39.758 87.200,39.600 87.436,39.600 87.725 C 39.600 88.013,39.240 88.636,38.800 89.108 C 38.360 89.580,38.000 90.229,38.000 90.550 C 38.000 90.871,37.865 91.193,37.700 91.267 C 37.245 91.469,35.600 93.910,35.600 94.384 C 35.600 94.613,35.420 94.800,35.200 94.800 C 34.980 94.800,34.800 95.160,34.800 95.600 C 34.800 96.040,34.648 96.400,34.463 96.400 C 34.277 96.400,33.692 97.255,33.163 98.300 C 32.633 99.345,32.065 100.260,31.900 100.333 C 31.735 100.407,31.600 100.812,31.600 101.233 C 31.600 101.655,31.420 102.000,31.200 102.000 C 30.980 102.000,30.800 102.360,30.800 102.800 C 30.800 103.240,30.620 103.600,30.400 103.600 C 30.180 103.600,30.000 103.960,30.000 104.400 C 30.000 104.840,29.820 105.200,29.600 105.200 C 29.380 105.200,29.200 105.560,29.200 106.000 C 29.200 106.440,29.020 106.800,28.800 106.800 C 28.580 106.800,28.400 107.072,28.400 107.405 C 28.400 107.738,28.224 108.323,28.009 108.705 C 26.808 110.835,24.800 115.795,24.800 116.629 C 24.800 117.163,24.620 117.600,24.400 117.600 C 24.180 117.600,24.000 117.960,24.000 118.400 C 24.000 118.840,23.820 119.200,23.600 119.200 C 23.380 119.200,23.200 119.740,23.200 120.400 C 23.200 121.060,23.020 121.600,22.800 121.600 C 22.580 121.600,22.400 121.960,22.400 122.400 C 22.400 122.840,22.220 123.200,22.000 123.200 C 21.780 123.200,21.600 123.740,21.600 124.400 C 21.600 125.060,21.420 125.600,21.200 125.600 C 20.980 125.600,20.800 126.039,20.800 126.576 C 20.800 127.113,20.620 127.664,20.400 127.800 C 20.180 127.936,20.000 128.587,20.000 129.247 C 20.000 129.945,19.833 130.344,19.600 130.200 C 19.367 130.056,19.200 130.463,19.200 131.176 C 19.200 131.849,19.020 132.400,18.800 132.400 C 18.580 132.400,18.400 133.120,18.400 134.000 C 18.400 134.880,18.220 135.600,18.000 135.600 C 17.780 135.600,17.600 136.140,17.600 136.800 C 17.600 137.460,17.420 138.000,17.200 138.000 C 16.980 138.000,16.800 138.720,16.800 139.600 C 16.800 140.480,16.620 141.200,16.400 141.200 C 16.180 141.200,16.000 141.819,16.000 142.576 C 16.000 143.333,15.820 144.064,15.600 144.200 C 15.380 144.336,15.200 145.056,15.200 145.800 C 15.200 146.544,15.020 147.264,14.800 147.400 C 14.580 147.536,14.400 148.447,14.400 149.424 C 14.400 150.401,14.220 151.200,14.000 151.200 C 13.780 151.200,13.600 152.100,13.600 153.200 C 13.600 154.300,13.451 155.200,13.268 155.200 C 13.086 155.200,12.895 156.231,12.844 157.491 C 12.793 158.752,12.612 159.877,12.442 159.991 C 12.271 160.106,12.088 161.369,12.034 162.798 C 11.980 164.227,11.780 165.584,11.589 165.813 C 11.399 166.042,11.210 167.978,11.171 170.115 C 11.131 172.252,10.934 174.000,10.733 174.000 C 10.515 174.000,10.448 180.100,10.569 189.100 C 10.793 205.928,11.074 212.000,11.627 212.000 C 11.832 212.000,12.000 213.350,12.000 215.000 C 12.000 216.733,12.169 218.000,12.400 218.000 C 12.622 218.000,12.800 219.067,12.800 220.400 C 12.800 221.733,12.978 222.800,13.200 222.800 C 13.420 222.800,13.600 223.700,13.600 224.800 C 13.600 225.900,13.780 226.800,14.000 226.800 C 14.220 226.800,14.400 227.610,14.400 228.600 C 14.400 229.590,14.580 230.400,14.800 230.400 C 15.020 230.400,15.200 231.210,15.200 232.200 C 15.200 233.190,15.380 234.000,15.600 234.000 C 15.820 234.000,16.000 234.720,16.000 235.600 C 16.000 236.480,16.180 237.200,16.400 237.200 C 16.620 237.200,16.800 237.729,16.800 238.376 C 16.800 239.023,16.980 239.664,17.200 239.800 C 17.420 239.936,17.600 240.577,17.600 241.224 C 17.600 241.871,17.780 242.400,18.000 242.400 C 18.220 242.400,18.400 243.019,18.400 243.776 C 18.400 244.533,18.580 245.264,18.800 245.400 C 19.020 245.536,19.200 246.076,19.200 246.600 C 19.200 247.124,19.380 247.664,19.600 247.800 C 19.820 247.936,20.000 248.577,20.000 249.224 C 20.000 249.871,20.180 250.400,20.400 250.400 C 20.620 250.400,20.800 250.951,20.800 251.624 C 20.800 252.337,20.967 252.744,21.200 252.600 C 21.433 252.456,21.600 252.855,21.600 253.553 C 21.600 254.213,21.780 254.864,22.000 255.000 C 22.220 255.136,22.400 255.597,22.400 256.024 C 22.400 256.451,22.580 256.800,22.800 256.800 C 23.020 256.800,23.200 257.250,23.200 257.800 C 23.200 258.350,23.380 258.800,23.600 258.800 C 23.820 258.800,24.000 259.160,24.000 259.600 C 24.000 260.040,24.180 260.400,24.400 260.400 C 24.620 260.400,24.800 260.940,24.800 261.600 C 24.800 262.260,25.010 262.800,25.267 262.800 C 25.523 262.800,25.621 262.913,25.483 263.051 C 25.345 263.189,25.488 263.796,25.800 264.400 C 26.112 265.004,26.255 265.611,26.117 265.749 C 25.979 265.887,26.077 266.000,26.333 266.000 C 26.590 266.000,26.800 266.272,26.800 266.605 C 26.800 266.938,26.961 267.523,27.158 267.905 C 27.355 268.287,28.116 269.860,28.850 271.400 C 29.584 272.940,30.277 274.290,30.392 274.400 C 30.850 274.840,32.400 278.111,32.400 278.638 C 32.400 278.947,32.580 279.200,32.800 279.200 C 33.020 279.200,33.200 279.470,33.200 279.800 C 33.200 280.130,33.380 280.400,33.600 280.400 C 33.820 280.400,34.000 280.670,34.000 281.000 C 34.000 281.330,34.180 281.600,34.400 281.600 C 34.620 281.600,34.800 281.960,34.800 282.400 C 34.800 282.840,34.980 283.200,35.200 283.200 C 35.420 283.200,35.600 283.560,35.600 284.000 C 35.600 284.440,35.780 284.800,36.000 284.800 C 36.220 284.800,36.400 285.036,36.400 285.325 C 36.400 285.613,36.760 286.236,37.200 286.708 C 37.640 287.180,38.000 287.762,38.000 288.000 C 38.000 288.238,38.331 288.789,38.736 289.223 C 39.141 289.658,39.725 290.505,40.033 291.107 C 40.342 291.708,40.911 292.491,41.297 292.847 C 41.684 293.203,42.000 293.788,42.000 294.147 C 42.000 294.506,42.191 294.800,42.424 294.800 C 42.657 294.800,42.736 294.980,42.600 295.200 C 42.464 295.420,42.531 295.600,42.749 295.600 C 42.968 295.600,43.262 295.966,43.404 296.413 C 43.546 296.860,44.098 297.662,44.631 298.195 C 45.164 298.728,45.600 299.402,45.600 299.694 C 45.600 299.985,45.960 300.483,46.400 300.800 C 46.840 301.117,47.200 301.564,47.200 301.793 C 47.200 302.220,49.195 304.688,51.500 307.112 C 52.215 307.865,52.800 308.641,52.800 308.837 C 52.800 309.034,53.880 310.292,55.200 311.632 C 56.520 312.973,57.600 314.335,57.600 314.659 C 57.600 314.982,57.780 315.136,58.000 315.000 C 58.220 314.864,58.400 314.942,58.400 315.173 C 58.400 316.353,64.763 322.529,65.418 321.985 C 65.696 321.754,66.013 319.865,66.171 317.493 C 67.391 299.211,73.265 289.984,100.227 264.000 C 110.250 254.340,114.017 242.665,111.810 228.097 C 111.217 224.187,110.834 222.534,109.148 216.600 C 103.044 195.123,127.231 191.420,140.960 211.729 C 145.725 218.777,148.607 227.327,150.222 239.200 C 151.178 246.232,150.963 250.533,149.252 258.600 C 148.212 263.500,145.674 268.379,141.384 273.725 C 136.317 280.041,137.768 282.771,145.154 280.817 C 146.691 280.411,151.216 279.340,156.800 278.061 C 165.413 276.088,171.858 274.600,177.200 273.352 C 180.390 272.606,184.620 271.629,186.600 271.181 C 188.580 270.732,191.685 270.013,193.500 269.583 C 199.070 268.262,203.722 267.174,205.400 266.800 C 207.145 266.411,212.514 265.154,224.100 262.422 C 228.987 261.269,231.256 260.743,246.537 257.216 C 262.572 253.516,265.484 253.231,269.671 254.953 C 281.164 259.680,281.839 276.974,270.744 282.460 C 267.266 284.179,267.922 283.997,248.800 288.557 C 246.490 289.108,241.945 290.198,238.700 290.979 C 235.455 291.761,230.145 293.036,226.900 293.813 C 205.285 298.991,205.926 298.819,205.699 299.500 C 205.608 299.775,205.738 300.000,205.989 300.000 C 206.753 300.000,211.070 303.700,212.529 305.606 C 218.120 312.910,215.645 324.778,207.387 330.261 C 204.814 331.970,204.761 332.154,206.590 333.022 C 217.356 338.131,216.058 355.315,204.464 361.168 C 202.092 362.365,201.331 363.200,202.611 363.200 C 206.165 363.200,209.404 372.984,207.410 377.700 C 207.139 378.343,207.481 378.400,211.581 378.400 C 214.457 378.400,215.959 378.258,215.800 378.000 C 215.641 377.743,216.996 377.600,219.576 377.600 C 221.992 377.600,223.600 377.440,223.600 377.200 C 223.600 376.971,224.800 376.800,226.400 376.800 C 228.000 376.800,229.200 376.629,229.200 376.400 C 229.200 376.178,230.267 376.000,231.600 376.000 C 232.933 376.000,234.000 375.822,234.000 375.600 C 234.000 375.380,234.960 375.200,236.133 375.200 C 237.307 375.200,238.402 375.065,238.567 374.900 C 238.731 374.735,239.256 374.565,239.733 374.523 C 242.187 374.304,244.442 373.855,244.633 373.547 C 244.751 373.356,245.557 373.200,246.424 373.200 C 247.291 373.200,248.000 373.020,248.000 372.800 C 248.000 372.580,248.619 372.400,249.376 372.400 C 250.133 372.400,250.864 372.220,251.000 372.000 C 251.136 371.780,251.777 371.600,252.424 371.600 C 253.071 371.600,253.600 371.420,253.600 371.200 C 253.600 370.980,254.230 370.800,255.000 370.800 C 255.770 370.800,256.400 370.620,256.400 370.400 C 256.400 370.180,256.940 370.000,257.600 370.000 C 258.260 370.000,258.800 369.820,258.800 369.600 C 258.800 369.380,259.239 369.200,259.776 369.200 C 260.313 369.200,260.864 369.020,261.000 368.800 C 261.136 368.580,261.762 368.400,262.390 368.400 C 263.019 368.400,263.593 368.222,263.667 368.003 C 263.740 367.785,264.295 367.566,264.900 367.516 C 265.505 367.466,266.000 367.285,266.000 367.113 C 266.000 366.941,266.360 366.800,266.800 366.800 C 267.240 366.800,267.600 366.620,267.600 366.400 C 267.600 366.180,268.140 366.000,268.800 366.000 C 269.460 366.000,270.000 365.820,270.000 365.600 C 270.000 365.380,270.360 365.200,270.800 365.200 C 271.240 365.200,271.600 365.020,271.600 364.800 C 271.600 364.580,272.050 364.400,272.600 364.400 C 273.150 364.400,273.600 364.220,273.600 364.000 C 273.600 363.780,273.960 363.600,274.400 363.600 C 274.840 363.600,275.200 363.420,275.200 363.200 C 275.200 362.980,275.549 362.800,275.976 362.800 C 276.403 362.800,276.864 362.620,277.000 362.400 C 277.136 362.180,277.687 362.000,278.224 362.000 C 278.761 362.000,279.200 361.820,279.200 361.600 C 279.200 361.380,279.560 361.200,280.000 361.200 C 280.440 361.200,280.800 361.020,280.800 360.800 C 280.800 360.580,281.160 360.400,281.600 360.400 C 282.040 360.400,282.400 360.220,282.400 360.000 C 282.400 359.780,282.760 359.600,283.200 359.600 C 283.640 359.600,284.000 359.420,284.000 359.200 C 284.000 358.980,284.360 358.800,284.800 358.800 C 285.240 358.800,285.600 358.620,285.600 358.400 C 285.600 358.180,285.842 358.000,286.137 358.000 C 286.926 358.000,292.400 355.159,292.400 354.750 C 292.400 354.557,292.760 354.400,293.200 354.400 C 293.640 354.400,294.000 354.220,294.000 354.000 C 294.000 353.780,294.360 353.600,294.800 353.600 C 295.240 353.600,295.600 353.420,295.600 353.200 C 295.600 352.980,295.870 352.800,296.200 352.800 C 296.530 352.800,296.800 352.620,296.800 352.400 C 296.800 352.180,297.070 352.000,297.400 352.000 C 297.730 352.000,298.000 351.820,298.000 351.600 C 298.000 351.380,298.236 351.200,298.525 351.200 C 298.813 351.200,299.436 350.840,299.908 350.400 C 300.380 349.960,301.044 349.600,301.383 349.600 C 301.722 349.600,302.000 349.420,302.000 349.200 C 302.000 348.980,302.236 348.800,302.525 348.800 C 302.813 348.800,303.398 348.485,303.825 348.100 C 304.251 347.715,305.095 347.145,305.700 346.832 C 306.305 346.520,306.800 346.115,306.800 345.932 C 306.800 345.750,307.030 345.600,307.312 345.600 C 307.593 345.600,308.083 345.240,308.400 344.800 C 308.717 344.360,309.180 344.000,309.429 344.000 C 309.678 344.000,310.446 343.460,311.137 342.800 C 311.828 342.140,312.619 341.600,312.897 341.600 C 313.174 341.600,314.188 340.880,315.151 340.000 C 316.113 339.120,317.050 338.400,317.232 338.400 C 317.415 338.400,318.014 337.950,318.564 337.400 C 319.114 336.850,319.717 336.400,319.904 336.400 C 320.091 336.400,321.365 335.320,322.735 334.000 C 324.105 332.680,325.313 331.600,325.419 331.600 C 325.605 331.600,328.129 329.158,336.064 321.300 C 341.016 316.395,342.400 314.899,342.400 314.446 C 342.400 314.239,343.480 312.973,344.800 311.632 C 346.120 310.292,347.200 309.034,347.200 308.837 C 347.200 308.641,347.785 307.865,348.500 307.112 C 350.805 304.688,352.800 302.220,352.800 301.793 C 352.800 301.564,353.160 301.117,353.600 300.800 C 354.040 300.483,354.400 299.943,354.400 299.600 C 354.400 299.257,354.760 298.717,355.200 298.400 C 355.640 298.083,356.000 297.627,356.000 297.387 C 356.000 297.147,356.349 296.576,356.776 296.118 C 357.203 295.660,357.443 295.176,357.309 295.043 C 357.176 294.909,357.277 294.800,357.533 294.800 C 357.790 294.800,358.000 294.440,358.000 294.000 C 358.000 293.560,358.135 293.199,358.300 293.198 C 358.465 293.197,359.230 292.208,360.000 291.000 C 360.770 289.792,361.535 288.803,361.700 288.802 C 361.865 288.801,362.000 288.522,362.000 288.183 C 362.000 287.844,362.360 287.180,362.800 286.708 C 363.240 286.236,363.600 285.613,363.600 285.325 C 363.600 285.036,363.780 284.800,364.000 284.800 C 364.220 284.800,364.400 284.440,364.400 284.000 C 364.400 283.560,364.580 283.200,364.800 283.200 C 365.020 283.200,365.200 282.880,365.200 282.488 C 365.200 282.097,365.560 281.517,366.000 281.200 C 366.440 280.883,366.800 280.303,366.800 279.912 C 366.800 279.520,366.980 279.200,367.200 279.200 C 367.420 279.200,367.600 278.966,367.600 278.680 C 367.600 277.944,368.541 276.007,368.900 276.003 C 369.065 276.001,369.200 275.640,369.200 275.200 C 369.200 274.760,369.335 274.399,369.500 274.397 C 369.829 274.393,370.795 272.492,370.809 271.820 C 370.814 271.589,371.170 270.950,371.600 270.400 C 372.030 269.850,372.386 268.995,372.391 268.500 C 372.396 268.005,372.580 267.600,372.800 267.600 C 373.020 267.600,373.200 267.323,373.200 266.984 C 373.200 266.645,373.552 265.678,373.983 264.834 C 374.413 263.990,374.653 263.187,374.516 263.050 C 374.379 262.912,374.477 262.800,374.733 262.800 C 374.990 262.800,375.200 262.260,375.200 261.600 C 375.200 260.940,375.380 260.400,375.600 260.400 C 375.820 260.400,376.000 260.040,376.000 259.600 C 376.000 259.160,376.180 258.800,376.400 258.800 C 376.620 258.800,376.800 258.350,376.800 257.800 C 376.800 257.250,376.936 256.800,377.103 256.800 C 377.439 256.800,378.400 253.971,378.400 252.983 C 378.400 252.636,378.580 252.464,378.800 252.600 C 379.033 252.744,379.200 252.337,379.200 251.624 C 379.200 250.951,379.380 250.400,379.600 250.400 C 379.820 250.400,380.000 249.871,380.000 249.224 C 380.000 248.577,380.180 247.936,380.400 247.800 C 380.620 247.664,380.800 247.113,380.800 246.576 C 380.800 246.039,380.980 245.600,381.200 245.600 C 381.420 245.600,381.600 244.880,381.600 244.000 C 381.600 243.120,381.780 242.400,382.000 242.400 C 382.220 242.400,382.400 241.860,382.400 241.200 C 382.400 240.540,382.580 240.000,382.800 240.000 C 383.020 240.000,383.200 239.370,383.200 238.600 C 383.200 237.830,383.380 237.200,383.600 237.200 C 383.820 237.200,384.000 236.480,384.000 235.600 C 384.000 234.720,384.180 234.000,384.400 234.000 C 384.620 234.000,384.800 233.190,384.800 232.200 C 384.800 231.210,384.980 230.400,385.200 230.400 C 385.420 230.400,385.600 229.601,385.600 228.624 C 385.600 227.647,385.780 226.736,386.000 226.600 C 386.220 226.464,386.400 225.553,386.400 224.576 C 386.400 223.599,386.580 222.800,386.800 222.800 C 387.020 222.800,387.200 221.821,387.200 220.624 C 387.200 219.427,387.380 218.336,387.600 218.200 C 387.820 218.064,388.000 216.739,388.000 215.256 C 388.000 213.773,388.168 212.389,388.373 212.180 C 389.316 211.218,389.673 177.927,388.824 170.200 C 388.582 168.000,388.283 164.940,388.161 163.400 C 388.038 161.860,387.772 160.429,387.569 160.220 C 387.366 160.011,387.200 158.796,387.200 157.520 C 387.200 156.240,387.021 155.200,386.800 155.200 C 386.580 155.200,386.400 154.300,386.400 153.200 C 386.400 152.100,386.220 151.200,386.000 151.200 C 385.780 151.200,385.600 150.401,385.600 149.424 C 385.600 148.447,385.420 147.536,385.200 147.400 C 384.980 147.264,384.800 146.544,384.800 145.800 C 384.800 145.056,384.620 144.336,384.400 144.200 C 384.180 144.064,384.000 143.333,384.000 142.576 C 384.000 141.819,383.820 141.200,383.600 141.200 C 383.380 141.200,383.200 140.480,383.200 139.600 C 383.200 138.720,383.020 138.000,382.800 138.000 C 382.580 138.000,382.400 137.460,382.400 136.800 C 382.400 136.140,382.220 135.600,382.000 135.600 C 381.780 135.600,381.600 134.869,381.600 133.976 C 381.600 132.996,381.442 132.451,381.200 132.600 C 380.961 132.747,380.800 132.263,380.800 131.400 C 380.800 130.537,380.639 130.053,380.400 130.200 C 380.173 130.340,380.000 130.002,380.000 129.418 C 380.000 128.852,379.820 128.032,379.600 127.595 C 379.380 127.158,379.020 126.442,378.800 126.005 C 378.580 125.568,378.400 124.758,378.400 124.205 C 378.400 123.652,378.220 123.200,378.000 123.200 C 377.780 123.200,377.600 122.840,377.600 122.400 C 377.600 121.960,377.420 121.600,377.200 121.600 C 376.980 121.600,376.800 121.161,376.800 120.624 C 376.800 120.087,376.620 119.536,376.400 119.400 C 376.180 119.264,376.000 118.803,376.000 118.376 C 376.000 117.949,375.820 117.600,375.600 117.600 C 375.380 117.600,375.200 117.163,375.200 116.629 C 375.200 115.795,373.192 110.835,371.991 108.705 C 371.776 108.323,371.600 107.738,371.600 107.405 C 371.600 107.072,371.420 106.800,371.200 106.800 C 370.980 106.800,370.800 106.440,370.800 106.000 C 370.800 105.560,370.620 105.200,370.400 105.200 C 370.180 105.200,370.000 104.840,370.000 104.400 C 370.000 103.960,369.820 103.600,369.600 103.600 C 369.380 103.600,369.200 103.240,369.200 102.800 C 369.200 102.360,369.020 102.000,368.800 102.000 C 368.580 102.000,368.400 101.655,368.400 101.233 C 368.400 100.812,368.265 100.407,368.100 100.333 C 367.935 100.260,367.367 99.345,366.837 98.300 C 366.308 97.255,365.723 96.400,365.537 96.400 C 365.352 96.400,365.200 96.040,365.200 95.600 C 365.200 95.160,365.054 94.800,364.875 94.800 C 364.696 94.800,364.305 94.178,364.007 93.418 C 363.709 92.658,363.315 92.129,363.132 92.242 C 362.950 92.355,362.800 92.167,362.800 91.824 C 362.800 91.481,362.620 91.200,362.400 91.200 C 362.180 91.200,362.000 90.922,362.000 90.583 C 362.000 90.244,361.640 89.580,361.200 89.108 C 360.760 88.636,360.400 88.013,360.400 87.725 C 360.400 87.436,360.220 87.200,360.000 87.200 C 359.780 87.200,359.600 86.829,359.600 86.376 C 359.600 85.923,359.420 85.664,359.200 85.800 C 358.980 85.936,358.800 85.767,358.800 85.424 C 358.800 85.081,358.620 84.800,358.400 84.800 C 358.180 84.800,358.000 84.468,358.000 84.062 C 358.000 83.656,357.640 82.998,357.200 82.600 C 356.760 82.202,356.400 81.677,356.400 81.434 C 356.400 81.191,355.950 80.507,355.400 79.913 C 354.850 79.320,354.400 78.716,354.400 78.570 C 354.400 78.331,353.160 76.745,351.295 74.600 C 350.913 74.160,350.289 73.317,349.908 72.726 C 349.527 72.135,348.762 71.198,348.208 70.644 C 347.654 70.090,347.200 69.464,347.200 69.253 C 347.200 69.042,346.120 67.773,344.800 66.432 C 343.480 65.092,342.400 63.816,342.400 63.597 C 342.400 63.379,342.220 63.200,342.000 63.200 C 341.780 63.200,341.600 63.008,341.600 62.772 C 341.600 62.354,326.590 47.200,326.176 47.200 C 325.935 47.200,322.980 44.553,322.044 43.500 C 321.702 43.115,321.227 42.800,320.989 42.800 C 320.751 42.800,319.908 42.215,319.115 41.500 C 316.969 39.565,316.018 38.800,315.756 38.800 C 315.627 38.800,315.017 38.260,314.400 37.600 C 313.783 36.940,313.031 36.400,312.728 36.400 C 312.425 36.400,311.917 36.040,311.600 35.600 C 311.283 35.160,310.775 34.800,310.472 34.800 C 310.169 34.800,309.444 34.305,308.860 33.700 C 308.277 33.095,307.305 32.345,306.700 32.032 C 306.095 31.720,305.600 31.315,305.600 31.132 C 305.600 30.950,305.330 30.800,305.000 30.800 C 304.670 30.800,304.400 30.620,304.400 30.400 C 304.400 30.180,304.164 30.000,303.875 30.000 C 303.587 30.000,302.964 29.640,302.492 29.200 C 302.020 28.760,301.438 28.400,301.200 28.400 C 300.962 28.400,300.380 28.040,299.908 27.600 C 299.436 27.160,298.813 26.800,298.525 26.800 C 298.236 26.800,298.000 26.590,298.000 26.333 C 298.000 26.077,297.885 25.981,297.745 26.122 C 297.605 26.262,296.992 26.022,296.383 25.588 C 295.775 25.155,294.989 24.800,294.638 24.800 C 294.287 24.800,294.000 24.620,294.000 24.400 C 294.000 24.180,293.640 24.000,293.200 24.000 C 292.760 24.000,292.400 23.820,292.400 23.600 C 292.400 23.380,291.995 23.197,291.500 23.194 C 290.772 23.189,290.715 23.114,291.200 22.800 C 291.685 22.486,291.628 22.411,290.900 22.406 C 290.405 22.403,290.000 22.254,290.000 22.075 C 290.000 21.896,289.370 21.502,288.600 21.200 C 287.830 20.898,287.200 20.504,287.200 20.325 C 287.200 20.146,286.840 20.000,286.400 20.000 C 285.960 20.000,285.600 19.820,285.600 19.600 C 285.600 19.380,285.366 19.200,285.080 19.200 C 284.344 19.200,282.407 18.259,282.403 17.900 C 282.401 17.735,282.055 17.600,281.633 17.600 C 281.212 17.600,280.807 17.422,280.733 17.203 C 280.660 16.985,280.105 16.766,279.500 16.716 C 278.895 16.666,278.400 16.485,278.400 16.313 C 278.400 16.141,278.040 16.000,277.600 16.000 C 277.160 16.000,276.800 15.820,276.800 15.600 C 276.800 15.380,276.440 15.200,276.000 15.200 C 275.560 15.200,275.200 15.020,275.200 14.800 C 275.200 14.580,274.840 14.400,274.400 14.400 C 273.960 14.400,273.600 14.220,273.600 14.000 C 273.600 13.780,273.150 13.600,272.600 13.600 C 272.050 13.600,271.600 13.420,271.600 13.200 C 271.600 12.980,271.251 12.800,270.824 12.800 C 270.397 12.800,269.936 12.620,269.800 12.400 C 269.664 12.180,269.128 12.000,268.610 12.000 C 268.091 12.000,267.607 11.865,267.533 11.700 C 267.332 11.248,260.068 8.899,257.700 8.520 C 256.985 8.406,256.400 8.152,256.400 7.956 C 256.400 7.760,255.770 7.600,255.000 7.600 C 254.230 7.600,253.600 7.420,253.600 7.200 C 253.600 6.980,253.060 6.800,252.400 6.800 C 251.740 6.800,251.200 6.620,251.200 6.400 C 251.200 6.180,250.480 6.000,249.600 6.000 C 248.720 6.000,248.000 5.820,248.000 5.600 C 248.000 5.380,247.280 5.200,246.400 5.200 C 245.520 5.200,244.800 5.020,244.800 4.800 C 244.800 4.580,244.091 4.400,243.224 4.400 C 242.357 4.400,241.536 4.220,241.400 4.000 C 241.264 3.780,240.443 3.600,239.576 3.600 C 238.709 3.600,238.000 3.420,238.000 3.200 C 238.000 2.980,237.021 2.800,235.824 2.800 C 234.627 2.800,233.536 2.620,233.400 2.400 C 233.264 2.180,232.263 2.000,231.176 2.000 C 230.089 2.000,229.200 1.847,229.200 1.661 C 229.200 1.474,227.901 1.283,226.312 1.237 C 224.724 1.191,223.184 0.953,222.889 0.708 C 222.352 0.262,189.579 -0.081,181.222 0.272 M160.200 45.133 C 173.128 46.882,188.649 51.682,192.547 55.138 C 199.385 61.201,195.611 72.000,186.653 72.000 C 184.543 72.000,183.567 71.703,179.288 69.759 C 178.127 69.232,176.999 68.800,176.783 68.800 C 176.566 68.800,176.077 68.625,175.695 68.411 C 174.920 67.978,170.467 66.677,167.400 65.988 C 154.073 62.994,138.030 63.329,125.200 66.870 C 119.691 68.390,114.016 70.370,111.505 71.647 C 106.030 74.432,97.600 68.371,97.600 61.649 C 97.600 55.126,106.574 50.288,125.800 46.447 C 127.120 46.183,128.968 45.795,129.906 45.584 C 130.844 45.373,132.554 45.182,133.706 45.160 C 134.858 45.138,136.250 44.969,136.800 44.785 C 138.074 44.357,156.490 44.631,160.200 45.133 M289.400 89.534 C 292.292 89.924,295.527 90.494,299.000 91.224 C 300.100 91.455,301.587 91.744,302.304 91.866 C 303.021 91.988,303.706 92.249,303.827 92.444 C 303.948 92.640,304.429 92.800,304.895 92.800 C 305.796 92.800,308.139 93.465,309.295 94.049 C 309.677 94.242,310.264 94.400,310.600 94.400 C 310.936 94.400,311.523 94.566,311.905 94.768 C 312.287 94.970,313.680 95.539,315.000 96.032 C 327.593 100.732,332.459 105.517,331.104 111.871 C 329.562 119.101,323.180 121.212,315.118 117.159 C 311.604 115.392,306.775 113.410,303.800 112.515 C 302.700 112.184,301.440 111.766,301.000 111.587 C 300.560 111.407,299.660 111.147,299.000 111.009 C 298.340 110.870,296.990 110.577,296.000 110.357 C 290.727 109.186,281.693 108.290,281.020 108.872 C 280.794 109.067,280.876 109.200,281.220 109.200 C 283.728 109.203,292.400 120.195,292.400 123.372 C 292.400 123.691,292.580 124.064,292.800 124.200 C 293.020 124.336,293.200 124.851,293.200 125.344 C 293.200 125.837,293.362 126.411,293.559 126.620 C 295.801 128.993,294.742 144.213,291.953 149.695 C 291.759 150.077,291.600 150.662,291.600 150.995 C 291.600 151.328,291.462 151.600,291.294 151.600 C 291.126 151.600,290.690 152.275,290.325 153.100 C 286.801 161.059,276.403 166.910,268.131 165.589 C 246.747 162.173,239.240 128.266,256.332 112.300 C 258.506 110.269,258.519 110.199,256.628 110.773 C 255.953 110.978,254.590 111.365,253.600 111.633 C 252.610 111.901,250.540 112.527,249.000 113.024 C 244.637 114.431,243.584 114.534,241.060 113.800 C 232.784 111.394,230.268 101.335,236.752 96.576 C 237.768 95.830,238.827 95.215,239.105 95.210 C 239.383 95.204,239.923 95.038,240.305 94.839 C 240.687 94.640,241.810 94.263,242.800 94.000 C 243.790 93.737,244.913 93.360,245.295 93.161 C 245.677 92.962,246.431 92.800,246.971 92.800 C 247.511 92.800,248.064 92.620,248.200 92.400 C 248.336 92.180,249.031 92.000,249.744 92.000 C 250.457 92.000,251.211 91.838,251.420 91.641 C 251.629 91.444,252.520 91.181,253.400 91.057 C 254.280 90.933,256.080 90.639,257.400 90.403 C 258.720 90.168,261.408 89.798,263.372 89.582 C 265.337 89.366,267.046 89.088,267.169 88.964 C 267.510 88.623,286.205 89.102,289.400 89.534 M151.258 95.085 C 158.580 97.154,165.180 104.342,168.074 113.400 C 169.504 117.873,170.157 127.236,169.250 130.240 C 169.057 130.878,168.675 132.390,168.401 133.600 C 165.721 145.411,155.009 154.621,144.800 153.893 C 128.952 152.762,118.050 133.626,122.870 115.400 C 123.769 111.998,126.195 106.377,126.898 106.067 C 127.064 105.993,127.200 105.677,127.200 105.364 C 127.200 103.248,137.524 95.217,140.275 95.194 C 140.674 95.191,141.270 95.007,141.600 94.786 C 142.331 94.296,149.222 94.510,151.258 95.085 M198.323 214.422 C 211.577 215.865,221.878 218.420,231.600 222.675 C 233.872 223.670,241.383 227.360,241.600 227.589 C 241.710 227.705,242.610 228.232,243.600 228.761 C 250.982 232.700,254.000 236.348,254.000 241.334 C 254.000 250.001,245.630 253.134,237.354 247.564 C 232.626 244.382,228.257 242.076,222.200 239.567 C 221.087 239.106,214.138 236.943,212.200 236.454 C 200.552 233.516,187.233 233.007,175.600 235.055 C 166.130 236.721,163.937 236.499,160.742 233.547 C 153.725 227.062,157.126 218.245,167.400 216.283 C 178.328 214.197,189.875 213.502,198.323 214.422 " stroke="none" fill="#fbcb4b" fill-rule="evenodd"></path><path id="path3" d="M137.200 44.795 C 136.430 44.954,137.690 44.995,140.000 44.886 C 142.310 44.778,144.275 44.624,144.367 44.545 C 144.664 44.287,138.642 44.497,137.200 44.795 M149.233 44.544 C 149.325 44.624,151.290 44.785,153.600 44.903 C 156.340 45.042,157.244 45.000,156.200 44.781 C 154.635 44.454,148.904 44.259,149.233 44.544 M130.600 45.600 L 129.800 45.944 130.600 45.925 C 131.040 45.914,131.940 45.768,132.600 45.600 L 133.800 45.295 132.600 45.275 C 131.940 45.265,131.040 45.411,130.600 45.600 M160.033 45.349 C 160.125 45.431,161.100 45.601,162.200 45.728 C 163.549 45.884,163.874 45.849,163.200 45.620 C 162.201 45.280,159.718 45.068,160.033 45.349 M126.200 46.400 C 125.181 46.838,126.232 46.838,127.600 46.400 C 128.404 46.143,128.443 46.077,127.800 46.068 C 127.360 46.062,126.640 46.211,126.200 46.400 M165.633 46.144 C 165.725 46.223,166.340 46.408,167.000 46.556 C 167.876 46.752,168.038 46.715,167.600 46.418 C 167.060 46.053,165.232 45.798,165.633 46.144 M170.200 47.200 C 170.640 47.389,171.270 47.544,171.600 47.544 C 171.978 47.544,171.904 47.417,171.400 47.200 C 170.960 47.011,170.330 46.856,170.000 46.856 C 169.622 46.856,169.696 46.983,170.200 47.200 M185.600 51.789 C 185.600 52.106,188.500 53.233,188.728 53.005 C 188.841 52.892,188.835 52.800,188.716 52.800 C 188.596 52.800,187.846 52.528,187.049 52.195 C 186.252 51.862,185.600 51.679,185.600 51.789 M100.928 55.100 C 100.062 55.925,99.813 56.223,100.376 55.761 C 100.939 55.300,101.845 54.625,102.389 54.261 C 102.933 53.898,103.181 53.600,102.940 53.600 C 102.700 53.600,101.794 54.275,100.928 55.100 M193.388 56.600 C 195.277 59.117,195.521 59.341,194.562 57.676 C 194.143 56.948,193.370 55.958,192.844 55.476 C 192.281 54.960,192.505 55.422,193.388 56.600 M97.843 59.833 C 97.506 60.709,97.549 63.701,97.906 64.262 C 98.068 64.516,98.200 63.481,98.200 61.962 C 98.200 58.941,98.195 58.914,97.843 59.833 M142.300 63.882 C 142.795 63.978,143.605 63.978,144.100 63.882 C 144.595 63.787,144.190 63.709,143.200 63.709 C 142.210 63.709,141.805 63.787,142.300 63.882 M152.100 63.887 C 152.705 63.978,153.695 63.978,154.300 63.887 C 154.905 63.795,154.410 63.720,153.200 63.720 C 151.990 63.720,151.495 63.795,152.100 63.887 M137.100 64.282 C 137.595 64.378,138.405 64.378,138.900 64.282 C 139.395 64.187,138.990 64.109,138.000 64.109 C 137.010 64.109,136.605 64.187,137.100 64.282 M157.305 64.287 C 157.914 64.379,158.814 64.377,159.305 64.282 C 159.797 64.187,159.300 64.111,158.200 64.114 C 157.100 64.117,156.697 64.195,157.305 64.287 M162.833 64.947 C 162.925 65.028,163.720 65.204,164.600 65.338 C 165.715 65.507,165.958 65.471,165.400 65.219 C 164.632 64.871,162.490 64.644,162.833 64.947 M127.000 66.000 C 125.981 66.438,127.032 66.438,128.400 66.000 C 129.204 65.743,129.243 65.677,128.600 65.668 C 128.160 65.662,127.440 65.811,127.000 66.000 M167.600 66.000 C 168.968 66.438,170.019 66.438,169.000 66.000 C 168.560 65.811,167.840 65.662,167.400 65.668 C 166.757 65.677,166.796 65.743,167.600 66.000 M193.426 68.713 C 192.015 70.403,191.988 70.475,193.160 69.400 C 194.271 68.382,195.488 66.770,195.114 66.813 C 195.051 66.820,194.292 67.675,193.426 68.713 M100.600 68.800 C 101.459 69.680,102.252 70.400,102.362 70.400 C 102.472 70.400,101.859 69.680,101.000 68.800 C 100.141 67.920,99.348 67.200,99.238 67.200 C 99.128 67.200,99.741 67.920,100.600 68.800 M105.200 71.582 C 105.530 71.805,106.145 71.991,106.567 71.994 C 107.590 72.002,107.271 71.773,105.800 71.444 C 104.924 71.248,104.762 71.285,105.200 71.582 M110.000 71.600 C 109.176 71.864,109.141 71.926,109.800 71.954 C 110.240 71.973,110.870 71.813,111.200 71.600 C 111.901 71.147,111.414 71.147,110.000 71.600 M184.138 71.694 C 184.392 71.856,185.500 71.988,186.600 71.988 C 187.700 71.988,188.808 71.856,189.062 71.694 C 189.316 71.532,188.208 71.400,186.600 71.400 C 184.992 71.400,183.884 71.532,184.138 71.694 M272.122 89.099 C 274.499 89.170,278.279 89.169,280.522 89.098 C 282.765 89.027,280.820 88.969,276.200 88.969 C 271.580 88.970,269.745 89.028,272.122 89.099 M265.700 89.476 C 266.085 89.576,266.715 89.576,267.100 89.476 C 267.485 89.375,267.170 89.293,266.400 89.293 C 265.630 89.293,265.315 89.375,265.700 89.476 M285.300 89.476 C 285.685 89.576,286.315 89.576,286.700 89.476 C 287.085 89.375,286.770 89.293,286.000 89.293 C 285.230 89.293,284.915 89.375,285.300 89.476 M261.500 89.882 C 261.995 89.978,262.805 89.978,263.300 89.882 C 263.795 89.787,263.390 89.709,262.400 89.709 C 261.410 89.709,261.005 89.787,261.500 89.882 M289.105 89.883 C 289.602 89.979,290.322 89.975,290.705 89.875 C 291.087 89.775,290.680 89.696,289.800 89.701 C 288.920 89.705,288.607 89.787,289.105 89.883 M255.400 90.819 C 254.842 91.071,255.085 91.107,256.200 90.938 C 257.080 90.804,257.875 90.628,257.967 90.547 C 258.310 90.244,256.168 90.471,255.400 90.819 M294.033 90.543 C 294.125 90.622,294.920 90.797,295.800 90.932 C 296.890 91.099,297.209 91.055,296.800 90.795 C 296.253 90.446,293.645 90.209,294.033 90.543 M251.600 91.606 C 251.178 91.882,251.415 91.923,252.400 91.742 C 254.125 91.425,254.451 91.198,253.167 91.206 C 252.635 91.209,251.930 91.389,251.600 91.606 M298.433 91.344 C 298.525 91.423,299.140 91.608,299.800 91.756 C 300.676 91.952,300.838 91.915,300.400 91.618 C 299.860 91.253,298.032 90.998,298.433 91.344 M248.400 92.418 C 247.962 92.715,248.124 92.752,249.000 92.556 C 250.471 92.227,250.790 91.998,249.767 92.006 C 249.345 92.009,248.730 92.195,248.400 92.418 M141.800 94.803 C 141.285 95.026,141.713 95.067,143.000 94.918 C 144.100 94.791,145.075 94.623,145.167 94.544 C 145.514 94.245,142.564 94.472,141.800 94.803 M146.433 94.544 C 146.525 94.623,147.500 94.791,148.600 94.918 C 149.887 95.067,150.315 95.026,149.800 94.803 C 149.036 94.472,146.086 94.245,146.433 94.544 M134.944 97.569 C 134.253 97.990,133.565 98.533,133.416 98.774 C 133.192 99.137,135.775 97.558,136.356 96.977 C 136.747 96.587,136.133 96.844,134.944 97.569 M130.585 101.300 L 128.600 103.400 130.700 101.415 C 132.651 99.571,132.983 99.200,132.685 99.200 C 132.622 99.200,131.677 100.145,130.585 101.300 M160.781 101.400 C 163.674 104.617,163.867 104.799,162.898 103.400 C 162.441 102.740,161.292 101.480,160.345 100.600 C 158.885 99.243,158.951 99.365,160.781 101.400 M233.324 103.800 C 233.326 105.120,233.401 105.612,233.490 104.893 C 233.579 104.174,233.577 103.094,233.486 102.493 C 233.395 101.892,233.322 102.480,233.324 103.800 M327.880 103.211 C 328.804 104.195,329.832 105.630,330.165 106.400 C 330.497 107.170,330.769 107.530,330.770 107.200 C 330.773 106.096,329.052 103.700,327.188 102.211 C 326.644 101.778,326.956 102.228,327.880 103.211 M279.824 108.572 C 280.251 108.887,280.660 108.977,280.733 108.772 C 280.807 108.567,282.326 108.471,284.133 108.558 C 287.095 108.700,287.176 108.686,285.000 108.404 C 280.672 107.844,278.913 107.901,279.824 108.572 M290.000 109.180 C 290.999 109.520,293.482 109.732,293.167 109.451 C 293.075 109.369,292.100 109.199,291.000 109.072 C 289.651 108.916,289.326 108.951,290.000 109.180 M294.600 110.000 C 295.040 110.189,295.760 110.338,296.200 110.332 C 296.843 110.323,296.804 110.257,296.000 110.000 C 294.632 109.562,293.581 109.562,294.600 110.000 M235.600 110.573 C 236.393 111.582,239.591 113.602,240.378 113.591 C 240.720 113.586,240.280 113.254,239.400 112.853 C 238.520 112.452,237.170 111.603,236.400 110.966 C 235.630 110.329,235.270 110.152,235.600 110.573 M255.200 110.800 C 254.376 111.064,254.341 111.126,255.000 111.154 C 255.440 111.173,256.070 111.013,256.400 110.800 C 257.101 110.347,256.614 110.347,255.200 110.800 M285.400 112.800 C 286.483 113.900,287.460 114.800,287.570 114.800 C 287.680 114.800,286.883 113.900,285.800 112.800 C 284.717 111.700,283.740 110.800,283.630 110.800 C 283.520 110.800,284.317 111.700,285.400 112.800 M301.200 111.541 C 301.530 111.734,302.340 112.009,303.000 112.152 C 303.768 112.318,303.984 112.284,303.600 112.059 C 303.270 111.866,302.460 111.591,301.800 111.448 C 301.032 111.282,300.816 111.316,301.200 111.541 M330.629 112.229 C 330.481 112.815,330.438 113.372,330.532 113.466 C 330.627 113.560,330.824 113.158,330.971 112.571 C 331.119 111.985,331.162 111.428,331.068 111.334 C 330.973 111.240,330.776 111.642,330.629 112.229 M255.578 113.100 L 254.200 114.600 255.700 113.222 C 257.096 111.938,257.384 111.600,257.078 111.600 C 257.012 111.600,256.337 112.275,255.578 113.100 M305.546 113.016 C 306.286 113.337,307.096 113.593,307.346 113.584 C 307.596 113.576,307.194 113.306,306.454 112.984 C 305.714 112.663,304.904 112.407,304.654 112.416 C 304.404 112.424,304.806 112.694,305.546 113.016 M168.056 114.400 C 168.056 114.730,168.211 115.360,168.400 115.800 C 168.617 116.304,168.744 116.378,168.744 116.000 C 168.744 115.670,168.589 115.040,168.400 114.600 C 168.183 114.096,168.056 114.022,168.056 114.400 M329.414 115.035 C 329.041 115.604,328.805 116.138,328.889 116.222 C 328.973 116.307,329.358 115.841,329.744 115.188 C 330.606 113.728,330.348 113.609,329.414 115.035 M252.487 116.900 C 251.027 119.056,250.712 119.600,250.920 119.600 C 251.012 119.600,251.744 118.610,252.547 117.400 C 253.351 116.190,253.925 115.200,253.823 115.200 C 253.722 115.200,253.120 115.965,252.487 116.900 M288.655 116.600 C 289.267 117.480,289.820 118.275,289.884 118.367 C 289.948 118.458,290.000 118.362,290.000 118.152 C 290.000 117.942,289.447 117.147,288.771 116.385 L 287.542 115.000 288.655 116.600 M312.433 115.749 C 312.845 116.117,315.200 117.200,315.200 117.021 C 315.200 116.790,312.982 115.600,312.553 115.600 C 312.396 115.600,312.342 115.667,312.433 115.749 M169.088 119.800 C 169.211 121.120,169.376 122.275,169.456 122.367 C 169.735 122.689,169.516 119.388,169.193 118.400 C 168.989 117.779,168.949 118.309,169.088 119.800 M320.734 119.204 C 321.467 119.374,322.547 119.378,323.134 119.213 C 323.915 118.993,323.558 118.911,321.800 118.904 C 319.800 118.897,319.622 118.947,320.734 119.204 M169.267 126.850 C 169.230 127.428,169.105 128.508,168.989 129.250 C 168.796 130.486,168.815 130.517,169.208 129.614 C 169.445 129.071,169.570 127.991,169.486 127.214 C 169.377 126.192,169.316 126.091,169.267 126.850 M122.093 127.600 C 122.093 128.370,122.175 128.685,122.276 128.300 C 122.376 127.915,122.376 127.285,122.276 126.900 C 122.175 126.515,122.093 126.830,122.093 127.600 M293.458 127.600 C 293.775 129.325,294.002 129.651,293.994 128.367 C 293.991 127.835,293.811 127.130,293.594 126.800 C 293.318 126.378,293.277 126.615,293.458 127.600 M247.849 127.415 C 247.712 127.773,247.615 128.366,247.634 128.733 C 247.653 129.100,247.827 128.869,248.021 128.220 C 248.398 126.958,248.265 126.333,247.849 127.415 M122.406 130.633 C 122.409 131.275,122.584 132.070,122.795 132.400 C 123.055 132.809,123.099 132.490,122.932 131.400 C 122.629 129.423,122.398 129.086,122.406 130.633 M247.057 132.300 C 246.753 134.137,246.804 138.578,247.147 140.177 C 247.286 140.825,247.400 138.980,247.400 136.077 C 247.400 130.190,247.402 130.211,247.057 132.300 M294.548 136.000 C 294.548 138.310,294.614 139.255,294.695 138.100 C 294.776 136.945,294.776 135.055,294.695 133.900 C 294.614 132.745,294.548 133.690,294.548 136.000 M163.387 143.700 C 162.771 144.635,161.172 146.473,159.834 147.785 C 158.100 149.484,157.872 149.804,159.041 148.898 C 161.077 147.320,165.441 142.000,164.699 142.000 C 164.593 142.000,164.003 142.765,163.387 143.700 M247.656 143.200 C 247.656 143.530,247.811 144.160,248.000 144.600 C 248.217 145.104,248.344 145.178,248.344 144.800 C 248.344 144.470,248.189 143.840,248.000 143.400 C 247.783 142.896,247.656 142.822,247.656 143.200 M130.800 147.400 C 131.546 148.170,132.247 148.800,132.357 148.800 C 132.467 148.800,131.946 148.170,131.200 147.400 C 130.454 146.630,129.753 146.000,129.643 146.000 C 129.533 146.000,130.054 146.630,130.800 147.400 M142.317 153.672 C 142.693 153.821,144.260 153.944,145.800 153.944 C 147.340 153.944,148.909 153.821,149.286 153.672 C 149.663 153.522,148.096 153.400,145.803 153.400 C 143.511 153.400,141.942 153.522,142.317 153.672 M285.815 158.681 C 285.163 159.464,283.678 160.737,282.515 161.509 C 280.179 163.060,279.686 163.652,281.670 162.523 C 283.151 161.680,287.990 157.221,287.400 157.243 C 287.180 157.251,286.467 157.898,285.815 158.681 M258.073 161.026 C 258.443 161.452,259.343 162.141,260.073 162.557 C 261.639 163.450,261.226 163.007,259.000 161.404 C 258.069 160.734,257.682 160.576,258.073 161.026 M262.400 163.800 C 262.950 164.114,263.580 164.372,263.800 164.372 C 264.020 164.372,263.750 164.114,263.200 163.800 C 262.650 163.486,262.020 163.228,261.800 163.228 C 261.580 163.228,261.850 163.486,262.400 163.800 M182.000 214.360 C 181.010 214.492,184.340 214.600,189.400 214.600 C 194.460 214.600,197.700 214.481,196.600 214.335 C 194.165 214.012,184.484 214.029,182.000 214.360 M174.200 215.200 C 173.130 215.472,173.108 215.505,174.000 215.505 C 174.550 215.505,175.540 215.368,176.200 215.200 C 177.270 214.928,177.292 214.895,176.400 214.895 C 175.850 214.895,174.860 215.032,174.200 215.200 M202.600 215.223 C 204.626 215.642,206.263 215.623,204.600 215.200 C 203.940 215.032,202.860 214.894,202.200 214.893 C 201.191 214.892,201.255 214.945,202.600 215.223 M169.200 216.000 C 168.408 216.254,168.367 216.320,169.000 216.320 C 169.440 216.320,170.250 216.176,170.800 216.000 C 171.592 215.746,171.633 215.680,171.000 215.680 C 170.560 215.680,169.750 215.824,169.200 216.000 M161.300 218.374 C 160.409 219.019,159.543 219.784,159.375 220.074 C 159.208 220.363,159.505 220.214,160.035 219.742 C 160.566 219.270,161.630 218.506,162.400 218.043 C 163.170 217.581,163.602 217.202,163.360 217.201 C 163.118 217.201,162.191 217.728,161.300 218.374 M228.433 221.735 C 228.819 222.047,232.000 223.177,232.000 223.002 C 232.000 222.763,229.251 221.600,228.684 221.600 C 228.455 221.600,228.342 221.661,228.433 221.735 M157.293 226.000 C 157.293 226.770,157.375 227.085,157.476 226.700 C 157.576 226.315,157.576 225.685,157.476 225.300 C 157.375 224.915,157.293 225.230,157.293 226.000 M250.800 234.200 C 251.546 234.970,252.247 235.600,252.357 235.600 C 252.467 235.600,251.946 234.970,251.200 234.200 C 250.454 233.430,249.753 232.800,249.643 232.800 C 249.533 232.800,250.054 233.430,250.800 234.200 M180.800 234.021 C 179.899 234.224,180.397 234.259,182.200 234.119 C 183.740 233.999,185.075 233.834,185.167 233.751 C 185.452 233.492,182.271 233.689,180.800 234.021 M196.705 233.883 C 197.202 233.979,197.922 233.975,198.305 233.875 C 198.687 233.775,198.280 233.696,197.400 233.701 C 196.520 233.705,196.207 233.787,196.705 233.883 M175.200 234.800 C 174.408 235.054,174.367 235.120,175.000 235.120 C 175.440 235.120,176.250 234.976,176.800 234.800 C 177.592 234.546,177.633 234.480,177.000 234.480 C 176.560 234.480,175.750 234.624,175.200 234.800 M204.400 234.800 C 204.950 234.976,205.760 235.120,206.200 235.120 C 206.833 235.120,206.792 235.054,206.000 234.800 C 205.450 234.624,204.640 234.480,204.200 234.480 C 203.567 234.480,203.608 234.546,204.400 234.800 M171.000 235.600 C 170.496 235.817,170.422 235.944,170.800 235.944 C 171.130 235.944,171.760 235.789,172.200 235.600 C 172.704 235.383,172.778 235.256,172.400 235.256 C 172.070 235.256,171.440 235.411,171.000 235.600 M208.800 235.600 C 209.130 235.813,209.670 235.988,210.000 235.988 C 210.533 235.988,210.533 235.945,210.000 235.600 C 209.670 235.387,209.130 235.212,208.800 235.212 C 208.267 235.212,208.267 235.255,208.800 235.600 M212.200 236.400 C 212.640 236.589,213.270 236.744,213.600 236.744 C 213.978 236.744,213.904 236.617,213.400 236.400 C 212.960 236.211,212.330 236.056,212.000 236.056 C 211.622 236.056,211.696 236.183,212.200 236.400 M230.800 243.379 C 230.800 243.489,231.340 243.859,232.000 244.200 C 232.660 244.541,233.200 244.731,233.200 244.621 C 233.200 244.511,232.660 244.141,232.000 243.800 C 231.340 243.459,230.800 243.269,230.800 243.379 M234.374 245.524 C 234.909 245.959,235.899 246.619,236.574 246.991 L 237.800 247.667 236.826 246.876 C 236.291 246.441,235.301 245.781,234.626 245.409 L 233.400 244.733 234.374 245.524 M250.800 248.060 C 250.030 248.735,249.762 249.105,250.204 248.881 C 250.935 248.511,252.747 246.778,252.362 246.816 C 252.273 246.825,251.570 247.385,250.800 248.060 M243.907 250.290 C 244.626 250.379,245.706 250.377,246.307 250.286 C 246.908 250.195,246.320 250.122,245.000 250.124 C 243.680 250.126,243.188 250.201,243.907 250.290 " stroke="none" fill="#bf9337" fill-rule="evenodd"></path><path id="path4" d="M145.500 44.689 C 146.215 44.778,147.385 44.778,148.100 44.689 C 148.815 44.601,148.230 44.528,146.800 44.528 C 145.370 44.528,144.785 44.601,145.500 44.689 M136.000 45.200 L 133.400 45.462 135.600 45.484 C 136.810 45.496,138.970 45.375,140.400 45.214 L 143.000 44.922 140.800 44.930 C 139.590 44.934,137.430 45.056,136.000 45.200 M152.105 45.087 C 152.714 45.179,153.614 45.177,154.105 45.082 C 154.597 44.987,154.100 44.911,153.000 44.914 C 151.900 44.917,151.497 44.995,152.105 45.087 M156.300 45.489 C 157.015 45.578,158.185 45.578,158.900 45.489 C 159.615 45.401,159.030 45.328,157.600 45.328 C 156.170 45.328,155.585 45.401,156.300 45.489 M162.000 46.012 C 162.990 46.220,164.970 46.590,166.400 46.836 C 167.830 47.081,169.450 47.378,170.000 47.497 C 170.550 47.616,170.905 47.607,170.788 47.478 C 170.498 47.156,165.087 46.103,162.400 45.845 C 160.204 45.635,160.203 45.635,162.000 46.012 M129.105 46.283 C 129.602 46.379,130.322 46.375,130.705 46.275 C 131.087 46.175,130.680 46.096,129.800 46.101 C 128.920 46.105,128.607 46.187,129.105 46.283 M121.883 47.504 C 120.609 47.832,119.647 48.180,119.745 48.278 C 119.843 48.376,121.066 48.183,122.462 47.849 C 123.858 47.514,125.360 47.163,125.800 47.067 C 126.271 46.965,126.106 46.896,125.400 46.901 C 124.740 46.905,123.157 47.177,121.883 47.504 M172.000 48.000 C 173.542 48.494,174.364 48.494,173.600 48.000 C 173.270 47.787,172.550 47.627,172.000 47.646 L 171.000 47.680 172.000 48.000 M117.200 48.800 C 116.405 49.314,117.404 49.314,118.600 48.800 L 119.400 48.456 118.600 48.434 C 118.160 48.422,117.530 48.587,117.200 48.800 M174.433 48.544 C 174.525 48.623,175.140 48.808,175.800 48.956 C 176.676 49.152,176.838 49.115,176.400 48.818 C 175.860 48.453,174.032 48.198,174.433 48.544 M114.600 49.600 C 114.096 49.817,114.022 49.944,114.400 49.944 C 114.730 49.944,115.360 49.789,115.800 49.600 C 116.304 49.383,116.378 49.256,116.000 49.256 C 115.670 49.256,115.040 49.411,114.600 49.600 M177.233 49.344 C 177.325 49.423,177.940 49.608,178.600 49.756 C 179.476 49.952,179.638 49.915,179.200 49.618 C 178.660 49.253,176.832 48.998,177.233 49.344 M112.000 50.400 C 111.467 50.745,111.467 50.788,112.000 50.788 C 112.330 50.788,112.870 50.613,113.200 50.400 C 113.733 50.055,113.733 50.012,113.200 50.012 C 112.870 50.012,112.330 50.187,112.000 50.400 M103.100 53.829 C 102.495 54.157,102.000 54.506,102.000 54.604 C 102.000 54.828,104.066 53.963,104.580 53.524 C 105.207 52.990,104.304 53.176,103.100 53.829 M190.200 54.276 C 191.534 55.503,193.754 56.895,193.001 56.033 C 192.561 55.530,191.661 54.846,191.001 54.513 C 190.340 54.181,189.980 54.074,190.200 54.276 M100.077 56.174 C 98.829 57.594,98.151 59.084,98.563 59.497 C 98.694 59.627,98.800 59.447,98.800 59.097 C 98.800 58.747,99.429 57.637,100.197 56.631 C 101.846 54.470,101.783 54.230,100.077 56.174 M98.120 62.000 C 98.120 63.210,98.195 63.705,98.287 63.100 C 98.378 62.495,98.378 61.505,98.287 60.900 C 98.195 60.295,98.120 60.790,98.120 62.000 M195.273 62.800 C 195.265 65.014,195.323 65.235,195.669 64.289 C 195.939 63.548,195.942 62.681,195.678 61.689 C 195.304 60.281,195.282 60.341,195.273 62.800 M139.400 63.557 C 138.520 63.691,142.378 63.800,147.973 63.800 C 153.568 63.800,157.618 63.686,156.973 63.547 C 155.482 63.226,141.526 63.234,139.400 63.557 M133.200 64.400 L 132.200 64.720 133.200 64.713 C 133.750 64.709,134.740 64.568,135.400 64.400 L 136.600 64.095 135.400 64.087 C 134.740 64.083,133.750 64.224,133.200 64.400 M160.800 64.400 C 161.350 64.576,162.250 64.720,162.800 64.720 L 163.800 64.720 162.800 64.400 C 162.250 64.224,161.350 64.080,160.800 64.080 L 159.800 64.080 160.800 64.400 M129.200 65.200 C 128.436 65.694,129.258 65.694,130.800 65.200 L 131.800 64.880 130.800 64.846 C 130.250 64.827,129.530 64.987,129.200 65.200 M165.400 65.200 C 165.840 65.389,166.560 65.544,167.000 65.544 L 167.800 65.544 167.000 65.200 C 166.560 65.011,165.840 64.856,165.400 64.856 L 164.600 64.856 165.400 65.200 M125.800 66.000 C 125.296 66.217,125.222 66.344,125.600 66.344 C 125.930 66.344,126.560 66.189,127.000 66.000 C 127.504 65.783,127.578 65.656,127.200 65.656 C 126.870 65.656,126.240 65.811,125.800 66.000 M169.000 66.000 C 169.440 66.189,170.070 66.344,170.400 66.344 C 170.778 66.344,170.704 66.217,170.200 66.000 C 169.760 65.811,169.130 65.656,168.800 65.656 C 168.422 65.656,168.496 65.783,169.000 66.000 M99.200 66.645 C 99.200 67.821,103.495 70.968,105.613 71.344 L 107.000 71.591 105.800 71.159 C 103.049 70.171,101.977 69.500,100.625 67.921 C 99.841 67.005,99.200 66.431,99.200 66.645 M171.800 66.800 C 172.240 66.989,172.870 67.144,173.200 67.144 C 173.578 67.144,173.504 67.017,173.000 66.800 C 172.560 66.611,171.930 66.456,171.600 66.456 C 171.222 66.456,171.296 66.583,171.800 66.800 M192.738 68.982 C 190.248 71.297,186.528 71.814,182.513 70.403 C 181.267 69.965,180.416 69.768,180.623 69.964 C 182.045 71.314,186.910 71.954,189.751 71.165 C 190.981 70.823,195.186 67.618,194.400 67.621 C 194.290 67.621,193.542 68.234,192.738 68.982 M116.800 68.800 C 115.810 69.215,115.270 69.552,115.600 69.548 C 116.272 69.540,119.628 68.063,119.000 68.052 C 118.780 68.048,117.790 68.385,116.800 68.800 M177.958 68.837 C 178.925 69.266,179.788 69.545,179.875 69.458 C 180.048 69.286,176.965 67.982,176.492 68.028 C 176.331 68.044,176.991 68.408,177.958 68.837 M112.000 70.641 C 110.570 71.170,110.011 71.492,110.757 71.357 C 112.251 71.086,114.800 70.102,114.800 69.795 C 114.800 69.688,114.755 69.618,114.700 69.640 C 114.645 69.662,113.430 70.112,112.000 70.641 M265.800 89.600 L 263.800 89.874 265.800 89.902 C 266.900 89.917,268.700 89.790,269.800 89.618 L 271.800 89.307 269.800 89.316 C 268.700 89.321,266.900 89.449,265.800 89.600 M283.000 89.618 C 284.100 89.790,285.810 89.920,286.800 89.909 L 288.600 89.887 286.400 89.583 C 285.190 89.416,283.480 89.285,282.600 89.293 C 281.055 89.306,281.069 89.318,283.000 89.618 M259.200 90.400 L 257.800 90.695 259.200 90.707 C 259.970 90.715,261.050 90.576,261.600 90.400 L 262.600 90.080 261.600 90.093 C 261.050 90.100,259.970 90.238,259.200 90.400 M290.400 90.400 C 290.950 90.576,292.030 90.717,292.800 90.714 L 294.200 90.708 292.600 90.377 C 290.463 89.935,288.996 89.950,290.400 90.400 M255.000 91.200 C 253.911 91.477,253.893 91.507,254.800 91.525 C 255.350 91.535,256.160 91.389,256.600 91.200 C 257.586 90.776,256.666 90.776,255.000 91.200 M295.600 91.179 C 295.930 91.404,296.725 91.591,297.367 91.594 C 298.904 91.602,298.584 91.370,296.600 91.038 C 295.454 90.846,295.170 90.886,295.600 91.179 M251.200 92.000 C 250.396 92.257,250.357 92.323,251.000 92.332 C 251.440 92.338,252.160 92.189,252.600 92.000 C 253.619 91.562,252.568 91.562,251.200 92.000 M299.600 91.994 C 299.930 92.211,300.635 92.391,301.167 92.394 C 302.451 92.402,302.125 92.175,300.400 91.858 C 299.415 91.677,299.178 91.718,299.600 91.994 M248.000 92.800 C 247.176 93.064,247.141 93.126,247.800 93.154 C 248.240 93.173,248.870 93.013,249.200 92.800 C 249.901 92.347,249.414 92.347,248.000 92.800 M302.800 92.794 C 303.130 93.011,303.835 93.191,304.367 93.194 C 305.651 93.202,305.325 92.975,303.600 92.658 C 302.615 92.477,302.378 92.518,302.800 92.794 M245.200 93.600 C 244.376 93.864,244.341 93.926,245.000 93.954 C 245.440 93.973,246.070 93.813,246.400 93.600 C 247.101 93.147,246.614 93.147,245.200 93.600 M305.800 93.600 C 305.936 93.820,306.442 93.987,306.924 93.972 C 307.769 93.945,307.771 93.931,307.000 93.600 C 305.899 93.127,305.508 93.127,305.800 93.600 M241.400 94.702 C 237.227 96.064,233.522 99.328,233.633 101.545 C 233.651 101.905,233.935 101.570,234.266 100.800 C 235.489 97.947,237.583 96.350,241.900 94.976 C 243.055 94.609,244.000 94.239,244.000 94.154 C 244.000 93.908,243.528 94.008,241.400 94.702 M308.000 94.146 C 308.000 94.333,311.789 95.608,312.275 95.584 C 312.746 95.562,310.392 94.578,309.100 94.257 C 308.495 94.107,308.000 94.057,308.000 94.146 M141.400 95.200 C 140.330 95.472,140.308 95.505,141.200 95.505 C 141.750 95.505,142.740 95.368,143.400 95.200 C 144.470 94.928,144.492 94.895,143.600 94.895 C 143.050 94.895,142.060 95.032,141.400 95.200 M148.600 95.208 C 151.666 95.952,152.240 96.035,151.600 95.644 C 151.270 95.441,150.100 95.173,149.000 95.048 C 147.059 94.827,147.047 94.832,148.600 95.208 M138.500 96.012 C 137.161 96.551,137.411 96.824,138.800 96.340 C 139.460 96.110,140.000 95.849,140.000 95.761 C 140.000 95.524,139.513 95.605,138.500 96.012 M313.633 96.135 C 314.019 96.447,317.200 97.577,317.200 97.402 C 317.200 97.163,314.451 96.000,313.884 96.000 C 313.655 96.000,313.542 96.061,313.633 96.135 M157.072 98.764 C 158.610 99.845,160.337 101.285,160.909 101.964 C 161.481 102.644,162.087 103.200,162.255 103.200 C 162.864 103.200,159.350 99.888,157.122 98.361 C 155.869 97.502,154.716 96.800,154.559 96.800 C 154.403 96.800,155.533 97.684,157.072 98.764 M134.154 98.466 C 131.062 100.786,124.990 108.000,126.129 108.000 C 126.227 108.000,127.060 106.842,127.982 105.428 C 129.595 102.953,132.073 100.360,134.600 98.506 C 135.260 98.022,135.689 97.620,135.554 97.613 C 135.419 97.606,134.789 97.990,134.154 98.466 M317.654 97.787 C 317.967 98.100,320.800 99.223,320.800 99.035 C 320.800 98.791,318.369 97.600,317.872 97.600 C 317.649 97.600,317.551 97.684,317.654 97.787 M324.444 100.977 C 324.541 101.074,325.336 101.619,326.210 102.187 L 327.800 103.219 326.415 102.010 C 325.334 101.065,323.650 100.183,324.444 100.977 M163.385 105.100 C 164.002 106.035,164.583 106.800,164.676 106.800 C 164.964 106.800,163.433 104.366,162.832 103.869 C 162.520 103.611,162.768 104.165,163.385 105.100 M328.952 104.967 C 329.528 105.816,330.000 106.697,330.000 106.922 C 330.000 107.148,330.103 107.230,330.229 107.104 C 330.538 106.795,329.419 104.680,328.578 103.982 C 328.207 103.674,328.375 104.117,328.952 104.967 M278.900 107.865 C 278.624 107.976,279.700 108.919,281.300 109.968 C 285.476 112.706,288.756 116.560,290.945 121.300 C 291.646 122.818,292.194 123.388,291.714 122.100 C 290.074 117.693,285.780 112.512,281.200 109.415 L 279.000 107.927 282.800 108.132 C 285.514 108.279,286.086 108.241,284.800 107.998 C 282.807 107.623,279.675 107.552,278.900 107.865 M330.501 110.000 C 330.487 112.183,330.548 112.422,330.879 111.489 C 331.133 110.776,331.138 109.844,330.895 108.889 C 330.541 107.496,330.515 107.568,330.501 110.000 M234.421 108.138 C 234.381 108.775,236.031 110.768,237.316 111.636 L 238.600 112.503 237.200 111.151 C 236.430 110.407,235.494 109.349,235.121 108.799 C 234.748 108.250,234.433 107.952,234.421 108.138 M287.633 108.544 C 287.725 108.623,288.790 108.799,290.000 108.934 C 291.470 109.098,292.001 109.052,291.600 108.796 C 291.056 108.448,287.242 108.206,287.633 108.544 M293.233 109.343 C 293.325 109.421,294.030 109.601,294.800 109.742 C 295.785 109.923,296.022 109.882,295.600 109.606 C 295.058 109.250,292.837 109.003,293.233 109.343 M258.486 110.059 C 258.571 110.312,257.760 111.341,256.685 112.347 C 255.609 113.352,254.366 114.721,253.922 115.388 C 253.459 116.084,253.857 115.788,254.858 114.693 C 255.816 113.644,257.410 112.074,258.400 111.204 C 260.011 109.789,260.102 109.622,259.267 109.611 C 258.738 109.605,258.400 109.799,258.486 110.059 M255.600 110.418 C 255.162 110.715,255.324 110.752,256.200 110.556 C 257.671 110.227,257.990 109.998,256.967 110.006 C 256.545 110.009,255.930 110.195,255.600 110.418 M297.600 110.400 C 299.142 110.894,299.964 110.894,299.200 110.400 C 298.870 110.187,298.150 110.027,297.600 110.046 L 296.600 110.080 297.600 110.400 M252.400 111.200 C 251.605 111.714,252.604 111.714,253.800 111.200 L 254.600 110.856 253.800 110.834 C 253.360 110.822,252.730 110.987,252.400 111.200 M249.800 112.000 C 249.508 112.473,249.899 112.473,251.000 112.000 C 251.771 111.669,251.769 111.655,250.924 111.628 C 250.442 111.613,249.936 111.780,249.800 112.000 M124.046 112.267 C 124.021 112.524,123.884 113.064,123.741 113.467 C 123.540 114.036,123.594 114.097,123.979 113.742 C 124.252 113.491,124.389 112.951,124.284 112.542 C 124.179 112.134,124.072 112.010,124.046 112.267 M167.444 113.400 C 167.773 114.871,168.002 115.190,167.994 114.167 C 167.991 113.745,167.805 113.130,167.582 112.800 C 167.285 112.362,167.248 112.524,167.444 113.400 M242.100 113.700 C 243.028 113.935,244.172 113.939,245.100 113.710 C 246.431 113.382,246.261 113.340,243.600 113.331 C 240.932 113.322,240.766 113.363,242.100 113.700 M123.029 115.829 C 122.881 116.415,122.851 116.984,122.961 117.094 C 123.071 117.204,123.281 116.815,123.429 116.229 C 123.576 115.642,123.606 115.073,123.496 114.963 C 123.386 114.853,123.176 115.242,123.029 115.829 M168.273 116.800 C 168.404 117.790,168.576 118.675,168.656 118.767 C 168.957 119.114,168.728 116.564,168.390 115.800 C 168.153 115.266,168.114 115.598,168.273 116.800 M327.078 117.013 C 325.619 118.296,326.235 118.295,327.800 117.012 C 328.460 116.471,328.820 116.028,328.600 116.027 C 328.380 116.026,327.695 116.470,327.078 117.013 M251.414 119.035 C 251.041 119.604,250.827 120.161,250.939 120.272 C 251.050 120.383,251.429 119.918,251.781 119.237 C 252.559 117.733,252.344 117.615,251.414 119.035 M318.400 118.382 C 318.730 118.605,319.345 118.791,319.767 118.794 C 320.790 118.802,320.471 118.573,319.000 118.244 C 318.124 118.048,317.962 118.085,318.400 118.382 M324.000 118.400 L 323.000 118.720 324.076 118.760 C 324.668 118.782,325.264 118.620,325.400 118.400 C 325.681 117.945,325.420 117.945,324.000 118.400 M122.217 121.700 C 122.077 123.515,122.119 126.080,122.311 127.400 C 122.610 129.461,122.664 128.996,122.695 124.100 C 122.735 117.637,122.588 116.897,122.217 121.700 M168.967 124.000 C 168.964 128.296,169.012 128.673,169.304 126.676 C 169.491 125.398,169.492 123.148,169.307 121.676 C 168.998 119.230,168.969 119.430,168.967 124.000 M248.673 125.353 C 248.523 125.745,248.411 126.366,248.425 126.733 C 248.442 127.175,248.581 127.074,248.837 126.434 C 249.049 125.903,249.161 125.282,249.085 125.054 C 249.009 124.827,248.824 124.961,248.673 125.353 M292.856 126.400 C 292.856 126.730,293.011 127.360,293.200 127.800 C 293.417 128.304,293.544 128.378,293.544 128.000 C 293.544 127.670,293.389 127.040,293.200 126.600 C 292.983 126.096,292.856 126.022,292.856 126.400 M247.853 128.836 C 247.714 129.531,247.621 130.572,247.647 131.150 C 247.672 131.728,247.855 131.227,248.052 130.039 C 248.437 127.721,248.273 126.734,247.853 128.836 M293.676 130.200 C 293.667 130.860,293.803 132.210,293.980 133.200 C 294.278 134.878,294.302 134.905,294.327 133.600 C 294.342 132.830,294.205 131.480,294.023 130.600 C 293.737 129.220,293.690 129.165,293.676 130.200 M168.454 130.400 C 168.419 130.950,168.296 131.850,168.183 132.400 L 167.977 133.400 168.407 132.415 C 168.643 131.874,168.765 130.974,168.678 130.415 L 168.520 129.400 168.454 130.400 M122.868 131.200 C 122.888 132.239,123.518 133.946,123.532 133.000 C 123.538 132.560,123.389 131.840,123.200 131.400 C 122.989 130.910,122.861 130.832,122.868 131.200 M247.340 136.000 C 247.340 137.870,247.409 138.635,247.493 137.700 C 247.577 136.765,247.577 135.235,247.493 134.300 C 247.409 133.365,247.340 134.130,247.340 136.000 M167.429 134.629 C 167.281 135.215,167.238 135.772,167.332 135.866 C 167.427 135.960,167.624 135.558,167.771 134.971 C 167.919 134.385,167.962 133.828,167.868 133.734 C 167.773 133.640,167.576 134.042,167.429 134.629 M124.795 137.786 C 125.643 140.017,129.194 145.892,129.198 145.072 C 129.199 144.892,128.694 143.992,128.075 143.072 C 127.456 142.152,126.453 140.365,125.845 139.100 C 124.720 136.757,124.116 136.001,124.795 137.786 M293.813 139.813 C 293.657 141.271,293.620 142.553,293.730 142.663 C 293.840 142.773,294.057 141.671,294.213 140.213 C 294.369 138.756,294.407 137.474,294.297 137.364 C 294.187 137.254,293.969 138.356,293.813 139.813 M164.586 141.300 L 163.952 142.600 164.767 141.600 C 165.552 140.637,165.808 140.000,165.410 140.000 C 165.306 140.000,164.935 140.585,164.586 141.300 M247.628 141.233 C 247.644 141.985,247.812 142.960,248.003 143.400 C 248.226 143.915,248.267 143.487,248.118 142.200 C 247.844 139.822,247.589 139.319,247.628 141.233 M293.073 144.153 C 292.923 144.545,292.811 145.166,292.825 145.533 C 292.842 145.975,292.981 145.874,293.237 145.234 C 293.449 144.703,293.561 144.082,293.485 143.854 C 293.409 143.627,293.224 143.761,293.073 144.153 M248.456 145.200 C 248.456 145.530,248.611 146.160,248.800 146.600 C 249.017 147.104,249.144 147.178,249.144 146.800 C 249.144 146.470,248.989 145.840,248.800 145.400 C 248.583 144.896,248.456 144.822,248.456 145.200 M129.600 145.602 C 129.600 146.036,132.996 149.084,134.800 150.269 C 138.113 152.443,140.671 153.246,144.800 153.406 L 148.600 153.553 144.670 153.196 C 139.741 152.749,135.329 150.788,131.850 147.498 C 130.612 146.328,129.600 145.475,129.600 145.602 M160.060 147.051 C 159.543 147.602,159.196 148.129,159.289 148.222 C 159.382 148.315,159.974 147.854,160.604 147.196 C 161.234 146.538,161.581 146.011,161.375 146.024 C 161.169 146.038,160.577 146.500,160.060 147.051 M157.604 149.255 C 156.184 150.436,153.134 151.920,150.694 152.618 C 148.823 153.153,148.770 153.195,150.200 153.018 C 152.086 152.785,157.129 150.384,158.186 149.216 C 159.126 148.177,158.881 148.193,157.604 149.255 M250.007 149.713 C 249.995 150.232,252.040 154.093,252.228 153.905 C 252.324 153.810,251.865 152.757,251.208 151.566 C 250.552 150.375,250.011 149.541,250.007 149.713 M288.497 154.800 C 287.586 156.120,286.966 157.198,287.120 157.195 C 287.274 157.192,287.774 156.607,288.232 155.895 C 288.689 155.183,289.385 154.105,289.778 153.500 C 291.140 151.401,290.144 152.412,288.497 154.800 M253.140 155.516 C 253.633 156.209,254.244 156.904,254.497 157.060 C 254.750 157.217,254.554 156.777,254.060 156.084 C 253.567 155.391,252.956 154.696,252.703 154.540 C 252.450 154.383,252.646 154.823,253.140 155.516 M256.000 159.000 C 256.746 159.770,257.508 160.400,257.692 160.400 C 257.876 160.400,257.397 159.770,256.627 159.000 C 255.857 158.230,255.095 157.600,254.935 157.600 C 254.774 157.600,255.254 158.230,256.000 159.000 M285.068 159.046 C 284.225 159.829,283.607 160.540,283.694 160.627 C 283.781 160.714,284.552 160.069,285.407 159.193 C 287.334 157.219,287.129 157.130,285.068 159.046 M279.200 163.200 C 278.430 163.622,277.944 163.974,278.120 163.983 C 278.544 164.005,280.800 162.832,280.800 162.590 C 280.800 162.328,280.777 162.337,279.200 163.200 M276.000 164.400 C 275.467 164.745,275.467 164.788,276.000 164.788 C 276.330 164.788,276.870 164.613,277.200 164.400 C 277.733 164.055,277.733 164.012,277.200 164.012 C 276.870 164.012,276.330 164.187,276.000 164.400 M267.800 165.240 C 269.386 165.591,272.747 165.591,274.000 165.240 C 274.550 165.086,273.110 164.963,270.800 164.967 C 268.461 164.971,267.132 165.092,267.800 165.240 M186.700 214.697 C 188.295 214.773,190.905 214.773,192.500 214.697 C 194.095 214.621,192.790 214.559,189.600 214.559 C 186.410 214.559,185.105 214.621,186.700 214.697 M176.200 215.209 C 175.510 215.390,176.444 215.431,178.400 215.306 C 180.270 215.187,181.875 215.025,181.967 214.945 C 182.281 214.671,177.400 214.895,176.200 215.209 M196.433 214.944 C 196.525 215.024,198.220 215.185,200.200 215.303 C 202.648 215.449,203.288 215.410,202.200 215.182 C 200.620 214.850,196.110 214.665,196.433 214.944 M170.800 216.020 C 170.126 216.249,170.451 216.284,171.800 216.128 C 172.900 216.001,173.875 215.831,173.967 215.749 C 174.282 215.468,171.799 215.680,170.800 216.020 M205.800 216.023 C 207.937 216.465,209.404 216.450,208.000 216.000 C 207.450 215.824,206.370 215.683,205.600 215.686 L 204.200 215.692 205.800 216.023 M166.400 216.800 C 165.608 217.054,165.567 217.120,166.200 217.120 C 166.640 217.120,167.450 216.976,168.000 216.800 C 168.792 216.546,168.833 216.480,168.200 216.480 C 167.760 216.480,166.950 216.624,166.400 216.800 M210.400 216.800 C 210.950 216.976,211.760 217.120,212.200 217.120 C 212.833 217.120,212.792 217.054,212.000 216.800 C 211.450 216.624,210.640 216.480,210.200 216.480 C 209.567 216.480,209.608 216.546,210.400 216.800 M162.700 217.829 C 162.095 218.157,161.600 218.501,161.600 218.592 C 161.600 218.762,164.462 217.646,164.767 217.358 C 165.195 216.952,163.680 217.297,162.700 217.829 M214.200 217.600 C 214.640 217.789,215.270 217.944,215.600 217.944 C 215.978 217.944,215.904 217.817,215.400 217.600 C 214.960 217.411,214.330 217.256,214.000 217.256 C 213.622 217.256,213.696 217.383,214.200 217.600 M217.200 218.400 C 217.530 218.613,218.160 218.778,218.600 218.766 L 219.400 218.744 218.600 218.400 C 217.404 217.886,216.405 217.886,217.200 218.400 M160.001 219.798 C 159.486 220.348,159.139 220.864,159.232 220.946 C 159.324 221.028,159.819 220.578,160.330 219.947 C 161.476 218.535,161.274 218.444,160.001 219.798 M220.000 219.200 C 220.330 219.413,220.870 219.588,221.200 219.588 C 221.733 219.588,221.733 219.545,221.200 219.200 C 220.870 218.987,220.330 218.812,220.000 218.812 C 219.467 218.812,219.467 218.855,220.000 219.200 M222.400 220.000 C 222.730 220.213,223.270 220.388,223.600 220.388 C 224.133 220.388,224.133 220.345,223.600 220.000 C 223.270 219.787,222.730 219.612,222.400 219.612 C 221.867 219.612,221.867 219.655,222.400 220.000 M157.724 225.800 C 157.726 227.120,157.801 227.612,157.890 226.893 C 157.979 226.174,157.977 225.094,157.886 224.493 C 157.795 223.892,157.722 224.480,157.724 225.800 M232.800 223.765 C 232.800 224.009,235.231 225.200,235.728 225.200 C 235.951 225.200,236.049 225.116,235.946 225.013 C 235.633 224.700,232.800 223.577,232.800 223.765 M238.200 226.305 C 238.420 226.541,239.680 227.317,241.000 228.029 C 247.645 231.614,251.868 235.154,252.845 237.956 C 253.091 238.663,253.372 239.161,253.470 239.064 C 254.489 238.045,251.212 234.193,246.800 231.222 C 243.293 228.861,237.492 225.544,238.200 226.305 M158.154 229.434 C 158.546 230.469,160.144 232.789,160.335 232.599 C 160.419 232.515,160.108 231.913,159.644 231.261 C 159.180 230.610,158.800 229.890,158.800 229.662 C 158.800 229.434,158.589 229.117,158.332 228.958 C 158.006 228.756,157.952 228.900,158.154 229.434 M160.800 233.093 C 160.800 233.492,162.908 234.812,164.596 235.470 C 165.999 236.017,169.841 236.097,171.000 235.603 C 171.488 235.395,170.772 235.349,169.163 235.483 C 166.180 235.733,164.086 235.213,162.100 233.730 C 161.385 233.196,160.800 232.910,160.800 233.093 M187.320 233.498 C 189.255 233.572,192.315 233.571,194.120 233.497 C 195.924 233.423,194.340 233.363,190.600 233.364 C 186.860 233.364,185.384 233.425,187.320 233.498 M178.000 234.000 C 176.629 234.289,176.625 234.295,177.800 234.324 C 178.460 234.341,179.720 234.205,180.600 234.023 L 182.200 233.692 180.800 233.699 C 180.030 233.702,178.770 233.838,178.000 234.000 M200.200 234.023 C 201.080 234.205,202.430 234.342,203.200 234.327 C 204.505 234.302,204.478 234.278,202.800 233.980 C 200.250 233.526,197.979 233.564,200.200 234.023 M173.000 234.800 L 171.800 235.105 173.000 235.113 C 173.660 235.117,174.650 234.976,175.200 234.800 L 176.200 234.480 175.200 234.487 C 174.650 234.491,173.660 234.632,173.000 234.800 M206.000 234.800 C 206.550 234.976,207.450 235.117,208.000 235.113 C 208.898 235.106,208.878 235.074,207.800 234.800 C 206.108 234.369,204.656 234.369,206.000 234.800 M210.000 235.594 C 210.330 235.811,211.035 235.991,211.567 235.994 C 212.851 236.002,212.525 235.775,210.800 235.458 C 209.815 235.277,209.578 235.318,210.000 235.594 M216.165 237.227 C 217.466 237.654,218.597 237.936,218.680 237.853 C 218.875 237.658,215.014 236.392,214.325 236.425 C 214.036 236.439,214.864 236.800,216.165 237.227 M220.800 238.782 C 225.204 240.589,226.971 241.231,226.600 240.890 C 226.110 240.440,219.956 237.986,219.400 238.020 C 219.180 238.033,219.810 238.376,220.800 238.782 M253.670 241.067 C 253.631 241.984,253.496 243.064,253.370 243.467 C 253.153 244.156,253.167 244.157,253.593 243.495 C 253.842 243.107,253.977 242.027,253.893 241.095 L 253.740 239.400 253.670 241.067 M232.400 244.020 C 233.787 244.961,234.578 245.235,233.600 244.436 C 233.050 243.986,232.420 243.617,232.200 243.615 C 231.980 243.613,232.070 243.796,232.400 244.020 M252.609 245.172 C 252.464 245.630,251.868 246.588,251.286 247.302 C 250.373 248.422,250.355 248.491,251.155 247.801 C 252.157 246.937,253.380 244.846,253.066 244.533 C 252.960 244.427,252.754 244.714,252.609 245.172 M236.000 246.147 C 236.000 246.228,236.765 246.779,237.700 247.372 L 239.400 248.451 238.000 247.236 C 236.740 246.143,236.000 245.740,236.000 246.147 M247.000 249.600 C 246.229 249.931,246.231 249.945,247.076 249.972 C 247.558 249.987,248.064 249.820,248.200 249.600 C 248.492 249.127,248.101 249.127,247.000 249.600 " stroke="none" fill="#ad8434" fill-rule="evenodd"></path></g></svg>